M48
;Layer_Color=9474304
;FILE_FORMAT=4:4
METRIC
;TYPE=PLATED
T1F00S00C0.3500
T2F00S00C0.4000
T3F00S00C0.9000
T4F00S00C0.9652
T5F00S00C1.0160
T6F00S00C1.2000
T7F00S00C1.8000
T8F00S00C3.2000
T9F00S00C3.8100
%
T01
X01000000Y00050000
X01100000
X01200000
X01300000
X00900000
X00800000
X00700000
X00600000
X00500000
X00400000
X00300000
X00150000Y00350000
X00250000
X00350000
X00450000
X00550000
Y00150000
X00450000
X00400000Y00250000
X00300000Y00450000
X00600000
X00650000Y00350000
X00750000
X00850000
X00900000Y00450000
X00800000
X00850000Y00150000
X00950000
X00750000
X00650000
X01050000
X01150000
X01250000
X01350000
X01300000Y00250000
X01350000Y00350000
X01250000
X01150000
X01200000Y00450000
X01300000
X01100000
X01000000
X01050000Y00550000
X01350000
X00850000
X00900000Y00650000
X00800000
X00600000
X00500000
X00550000Y00550000
X00350000
X00250000
X00300000Y00650000
X00200000
X00150000Y00550000
T02
X01079500Y00093980
X00177800Y00472440
X00175260Y00523240
X00157480
X00114300Y00500380
X00206914Y00426720
X00226060Y00408940
X00243840
Y00371060
X00226060
X00259080Y00200660
X00426720Y00187960
X00452120Y00200660
X00510540Y00238760
X00546100Y00226060
X00558800Y00243840
X00571500Y00233680
X00589280Y00276860
X00599440Y00238760
X00619760Y00210820
X00668020Y00236220
X00726440Y00261620
X00744220Y00271780
X00873760Y00238760
X00861060Y00317500
X00982980Y00231140
X01008380Y00223520
X01036320Y00241300
X01104900
X01102360Y00304800
X01165860Y00292100
X01187313Y00336413
X01293213
X01363980Y00533400
X01021080Y00469900
X00998220Y00474980
X01013460Y00406400
X01033780Y00144780
X01079500Y00147320
X01061720Y00556260
X01049020Y00581660
X01038860Y00594360
X01028700Y00650240
X01023620Y00759460
X01013080Y00762000
X01036320
X01049020Y00769620
X01061720Y00779780
X00998220Y00749300
X01363980Y00624840
X00177800Y00622300
Y00599440
T03
X00212400Y00127600
X00237800
X00263200
X00288600
X00314000
X00339400
X00364800
X00187000
X00161600
X00136200
X00110800
X00085400
X00060000
X00034600
Y00153000
X00060000
X00085400
X00110800
X00136200
X00161600
X00187000
Y00254600
Y00280000
X00161600
X00136200
X00110800
X00085400
X00060000
X00034600
Y00254600
X00060000
X00085400
X00110800
X00136200
X00161600
X00212400
Y00280000
X00237800
X00263200
X00288600
X00314000
X00339400
X00364800
Y00254600
X00339400
X00314000
X00288600
X00263200
X00237800
Y00153000
X00212400
X00263200
X00288600
X00314000
X00339400
X00364800
X00460000Y00490000
Y00515400
X00609600Y00304800
X00635000
X00660400
X00685800
X00711200
X00736600
X00762000
X00787400
X00922020Y00335280
X00947420
X00940000Y00490000
Y00515400
X01140000Y00519200
Y00493800
Y00468400
X01267000
Y00493800
Y00519200
X01038860Y00335280
X01013460
X01140000Y00544600
Y00570000
Y00595400
Y00620800
Y00646200
X01267000
Y00620800
Y00595400
Y00570000
Y00544600
X00940000Y00540800
Y00566200
X00460000
Y00540800
X00127000Y00685800
X00101600
T04
X00355600Y00457720
Y00522720
X01089200Y00519200
Y00544600
T05
X01164880Y00179906
X01174788Y00170000
X01220000
X01229904Y00179906
Y00225118
X01220000Y00235024
X01174788
X01164880Y00225118
T06
X01134893Y00177513
X01149893
Y00227513
X01134893
X01244893
X01259893
Y00177513
X01244893
T07
X01197393Y00157513
Y00247513
T08
X01350000Y00050000
X00050000
X00545000Y00395000
X00855000
X01350000Y00750000
X00855000Y00705000
X00545000
X00050000Y00750000
T09
X00200000Y00720000
X00350000
M30
