G04 Layer_Color=65535*
%FSLAX44Y44*%
%MOMM*%
G71*
G01*
G75*
%ADD10C,0.2540*%
%ADD25C,0.5000*%
%ADD44C,0.1270*%
%ADD45C,0.3000*%
%ADD46C,0.1500*%
%ADD47C,0.0762*%
%ADD48C,0.2500*%
%ADD49C,0.1000*%
%ADD50C,0.2000*%
%ADD51C,0.1524*%
G36*
X79250Y47400D02*
X78600Y46750D01*
Y42200D01*
X76650Y40250D01*
Y37650D01*
X74700Y35700D01*
Y33750D01*
X70150Y29200D01*
X69500D01*
X64950Y24650D01*
X63000D01*
X61050Y22700D01*
X57150Y22050D01*
X54800Y21000D01*
X50000D01*
Y30000D01*
X50500Y30500D01*
X57150D01*
X59100Y32450D01*
X60400D01*
X64950Y37000D01*
Y37650D01*
X68850Y41550D01*
Y45450D01*
X70150Y46750D01*
Y50000D01*
X79250D01*
Y47400D01*
D02*
G37*
G36*
X50000Y70000D02*
X49500Y69500D01*
X42850D01*
X40900Y67550D01*
X39600D01*
X35050Y63000D01*
Y62350D01*
X31150Y58450D01*
Y54550D01*
X29850Y53250D01*
Y50000D01*
X20750D01*
Y52600D01*
X21400Y53250D01*
Y57800D01*
X23350Y59750D01*
Y62350D01*
X25300Y64300D01*
Y66250D01*
X29850Y70800D01*
X30500D01*
X35050Y75350D01*
X37000D01*
X38950Y77300D01*
X42850Y77950D01*
X45200Y79000D01*
X50000D01*
Y70000D01*
D02*
G37*
G36*
X338619Y450838D02*
X342600D01*
Y449162D01*
X338619D01*
Y445180D01*
X336923D01*
Y449162D01*
X332942D01*
Y450838D01*
X336923D01*
Y454858D01*
X338619D01*
Y450838D01*
D02*
G37*
G36*
X1330500Y49500D02*
Y42850D01*
X1332450Y40900D01*
Y39600D01*
X1337000Y35050D01*
X1337650D01*
X1341550Y31150D01*
X1345450D01*
X1346750Y29850D01*
X1350000D01*
Y20750D01*
X1347400D01*
X1346750Y21400D01*
X1342200D01*
X1340250Y23350D01*
X1337650D01*
X1335700Y25300D01*
X1333750D01*
X1329200Y29850D01*
Y30500D01*
X1324650Y35050D01*
Y37000D01*
X1322700Y38950D01*
X1322050Y42850D01*
X1321000Y45200D01*
Y50000D01*
X1330000D01*
X1330500Y49500D01*
D02*
G37*
G36*
X1353250Y78600D02*
X1357800D01*
X1359750Y76650D01*
X1362350D01*
X1364300Y74700D01*
X1366250D01*
X1370800Y70150D01*
Y69500D01*
X1375350Y64950D01*
Y63000D01*
X1377300Y61050D01*
X1377950Y57150D01*
X1379000Y54800D01*
Y50000D01*
X1370000D01*
X1369500Y50500D01*
Y57150D01*
X1367550Y59100D01*
Y60400D01*
X1363000Y64950D01*
X1362350D01*
X1358450Y68850D01*
X1354550D01*
X1353250Y70150D01*
X1350000D01*
Y79250D01*
X1352600D01*
X1353250Y78600D01*
D02*
G37*
G36*
X53250Y778600D02*
X57800D01*
X59750Y776650D01*
X62350D01*
X64300Y774700D01*
X66250D01*
X70800Y770150D01*
Y769500D01*
X75350Y764950D01*
Y763000D01*
X77300Y761050D01*
X77950Y757150D01*
X79000Y754800D01*
Y750000D01*
X70000D01*
X69500Y750500D01*
Y757150D01*
X67550Y759100D01*
Y760400D01*
X63000Y764950D01*
X62350D01*
X58450Y768850D01*
X54550D01*
X53250Y770150D01*
X50000D01*
Y779250D01*
X52600D01*
X53250Y778600D01*
D02*
G37*
G36*
X1350000Y770000D02*
X1349500Y769500D01*
X1342850D01*
X1340900Y767550D01*
X1339600D01*
X1335050Y763000D01*
Y762350D01*
X1331150Y758450D01*
Y754550D01*
X1329850Y753250D01*
Y750000D01*
X1320750D01*
Y752600D01*
X1321400Y753250D01*
Y757800D01*
X1323350Y759750D01*
Y762350D01*
X1325300Y764300D01*
Y766250D01*
X1329850Y770800D01*
X1330500D01*
X1335050Y775350D01*
X1337000D01*
X1338950Y777300D01*
X1342850Y777950D01*
X1345200Y779000D01*
X1350000D01*
Y770000D01*
D02*
G37*
G36*
X30500Y749500D02*
Y742850D01*
X32450Y740900D01*
Y739600D01*
X37000Y735050D01*
X37650D01*
X41550Y731150D01*
X45450D01*
X46750Y729850D01*
X50000D01*
Y720750D01*
X47400D01*
X46750Y721400D01*
X42200D01*
X40250Y723350D01*
X37650D01*
X35700Y725300D01*
X33750D01*
X29200Y729850D01*
Y730500D01*
X24650Y735050D01*
Y737000D01*
X22700Y738950D01*
X22050Y742850D01*
X21000Y745200D01*
Y750000D01*
X30000D01*
X30500Y749500D01*
D02*
G37*
G36*
X1379250Y747400D02*
X1378600Y746750D01*
Y742200D01*
X1376650Y740250D01*
Y737650D01*
X1374700Y735700D01*
Y733750D01*
X1370150Y729200D01*
X1369500D01*
X1364950Y724650D01*
X1363000D01*
X1361050Y722700D01*
X1357150Y722050D01*
X1354800Y721000D01*
X1350000D01*
Y730000D01*
X1350500Y730500D01*
X1357150D01*
X1359100Y732450D01*
X1360400D01*
X1364950Y737000D01*
Y737650D01*
X1368850Y741550D01*
Y745450D01*
X1370150Y746750D01*
Y750000D01*
X1379250D01*
Y747400D01*
D02*
G37*
D10*
X30317Y329195D02*
X20320D01*
Y321698D01*
X25318Y324197D01*
X27818D01*
X30317Y321698D01*
Y316699D01*
X27818Y314200D01*
X22819D01*
X20320Y316699D01*
X35315Y329195D02*
Y319198D01*
X40314Y314200D01*
X45312Y319198D01*
Y329195D01*
X12700Y584200D02*
X17698D01*
X15199D01*
Y599195D01*
X12700Y596696D01*
X35193Y584200D02*
X25196D01*
X35193Y594197D01*
Y596696D01*
X32694Y599195D01*
X27695D01*
X25196Y596696D01*
X40191Y599195D02*
Y589198D01*
X45189Y584200D01*
X50188Y589198D01*
Y599195D01*
X96520Y711078D02*
X106517D01*
X121920D02*
X131917D01*
X126918Y716076D02*
Y706079D01*
X190360Y769375D02*
X210354D01*
X340360D02*
X360354D01*
X350357Y779372D02*
Y759378D01*
X1160780Y133024D02*
X1174109D01*
X1167445D01*
Y113030D01*
X1194103Y133024D02*
X1180774D01*
Y113030D01*
X1194103D01*
X1180774Y123027D02*
X1187438D01*
X1214096Y129691D02*
X1210764Y133024D01*
X1204099D01*
X1200767Y129691D01*
Y126359D01*
X1204099Y123027D01*
X1210764D01*
X1214096Y119694D01*
Y116362D01*
X1210764Y113030D01*
X1204099D01*
X1200767Y116362D01*
X1220761Y133024D02*
X1234090D01*
X1227425D01*
Y113030D01*
X1233167Y370835D02*
X1223010D01*
Y363218D01*
X1228088D01*
X1223010D01*
Y355600D01*
X1238245D02*
Y365757D01*
X1243323Y370835D01*
X1248402Y365757D01*
Y355600D01*
Y363218D01*
X1238245D01*
X1253480Y370835D02*
X1258559D01*
X1256019D01*
Y355600D01*
X1253480D01*
X1258559D01*
X1266176Y370835D02*
Y355600D01*
X1276333D01*
X1117600D02*
Y370835D01*
X1125218D01*
X1127757Y368296D01*
Y363218D01*
X1125218Y360678D01*
X1117600D01*
X1132835Y355600D02*
Y365757D01*
X1137913Y370835D01*
X1142992Y365757D01*
Y355600D01*
Y363218D01*
X1132835D01*
X1158227Y368296D02*
X1155688Y370835D01*
X1150609D01*
X1148070Y368296D01*
Y365757D01*
X1150609Y363218D01*
X1155688D01*
X1158227Y360678D01*
Y358139D01*
X1155688Y355600D01*
X1150609D01*
X1148070Y358139D01*
X1173462Y368296D02*
X1170923Y370835D01*
X1165844D01*
X1163305Y368296D01*
Y365757D01*
X1165844Y363218D01*
X1170923D01*
X1173462Y360678D01*
Y358139D01*
X1170923Y355600D01*
X1165844D01*
X1163305Y358139D01*
D25*
X447040Y755650D02*
Y775643D01*
X457037Y785640D01*
X467034Y775643D01*
Y755650D01*
Y770645D01*
X447040D01*
X477030Y775643D02*
Y760648D01*
X482029Y755650D01*
X497024D01*
Y775643D01*
X507021Y755650D02*
X522016D01*
X527014Y760648D01*
X522016Y765647D01*
X512019D01*
X507021Y770645D01*
X512019Y775643D01*
X527014D01*
X537011Y780642D02*
X542009Y785640D01*
X552006D01*
X557004Y780642D01*
Y775643D01*
X552006Y770645D01*
X547008D01*
X552006D01*
X557004Y765647D01*
Y760648D01*
X552006Y755650D01*
X542009D01*
X537011Y760648D01*
X567001Y785640D02*
Y755650D01*
X581996D01*
X586995Y760648D01*
Y780642D01*
X581996Y785640D01*
X567001D01*
X646975Y780642D02*
X641977Y785640D01*
X631980D01*
X626982Y780642D01*
Y775643D01*
X631980Y770645D01*
X641977D01*
X646975Y765647D01*
Y760648D01*
X641977Y755650D01*
X631980D01*
X626982Y760648D01*
X661970Y780642D02*
Y775643D01*
X656972D01*
X666969D01*
X661970D01*
Y760648D01*
X666969Y755650D01*
X696959D02*
X686962D01*
X681964Y760648D01*
Y770645D01*
X686962Y775643D01*
X696959D01*
X701957Y770645D01*
Y765647D01*
X681964D01*
X711954Y745653D02*
Y775643D01*
X726949D01*
X731948Y770645D01*
Y760648D01*
X726949Y755650D01*
X711954D01*
X741945Y745653D02*
Y775643D01*
X756940D01*
X761938Y770645D01*
Y760648D01*
X756940Y755650D01*
X741945D01*
X786930D02*
X776933D01*
X771935Y760648D01*
Y770645D01*
X776933Y775643D01*
X786930D01*
X791928Y770645D01*
Y765647D01*
X771935D01*
X801925Y775643D02*
Y755650D01*
Y765647D01*
X806924Y770645D01*
X811922Y775643D01*
X816920D01*
X861906Y785640D02*
Y755650D01*
X876901D01*
X881899Y760648D01*
Y780642D01*
X876901Y785640D01*
X861906D01*
X891896Y775643D02*
Y755650D01*
Y765647D01*
X896894Y770645D01*
X901893Y775643D01*
X906891D01*
X921886Y755650D02*
X931883D01*
X926885D01*
Y775643D01*
X921886D01*
X946878D02*
X956875Y755650D01*
X966872Y775643D01*
X991864Y755650D02*
X981867D01*
X976869Y760648D01*
Y770645D01*
X981867Y775643D01*
X991864D01*
X996862Y770645D01*
Y765647D01*
X976869D01*
X1006859Y775643D02*
Y755650D01*
Y765647D01*
X1011857Y770645D01*
X1016855Y775643D01*
X1021854D01*
X1066839Y785640D02*
X1086833D01*
X1076836D01*
Y755650D01*
X1111825D02*
X1101828D01*
X1096830Y760648D01*
Y770645D01*
X1101828Y775643D01*
X1111825D01*
X1116823Y770645D01*
Y765647D01*
X1096830D01*
X1126820Y755650D02*
X1141815D01*
X1146813Y760648D01*
X1141815Y765647D01*
X1131818D01*
X1126820Y770645D01*
X1131818Y775643D01*
X1146813D01*
X1161809Y780642D02*
Y775643D01*
X1156810D01*
X1166807D01*
X1161809D01*
Y760648D01*
X1166807Y755650D01*
X1196797D02*
X1186801D01*
X1181802Y760648D01*
Y770645D01*
X1186801Y775643D01*
X1196797D01*
X1201796Y770645D01*
Y765647D01*
X1181802D01*
X1211792Y775643D02*
Y755650D01*
Y765647D01*
X1216791Y770645D01*
X1221789Y775643D01*
X1226787D01*
D44*
X228448Y720000D02*
G03*
X228448Y720000I-28448J0D01*
G01*
X378448D02*
G03*
X378448Y720000I-28448J0D01*
G01*
X415600Y490220D02*
G03*
X415600Y490220I-60000J0D01*
G01*
X1061812Y107650D02*
Y133650D01*
X1069812Y107650D02*
Y133650D01*
X1055370Y284480D02*
Y294640D01*
X1037590Y284734D02*
Y294386D01*
X996420Y290830D02*
X1025420D01*
Y298450D01*
X996420D02*
X1025420D01*
X996420Y290830D02*
Y298450D01*
X963930Y284480D02*
Y294640D01*
X946150Y284734D02*
Y294386D01*
X904980Y290830D02*
X933980D01*
Y298450D01*
X904980D02*
X933980D01*
X904980Y290830D02*
Y298450D01*
X1091876Y650264D02*
X1094924D01*
X1091876Y642136D02*
X1094924D01*
X1091876Y624864D02*
X1094924D01*
X1091876Y616736D02*
X1094924D01*
X1091876Y599464D02*
X1094924D01*
X1091876Y591336D02*
X1094924D01*
X1091876Y574064D02*
X1094924D01*
X1091876Y565936D02*
X1094924D01*
X1091876Y497864D02*
X1094924D01*
X1091876Y489736D02*
X1094924D01*
X1091876Y472464D02*
X1094924D01*
X1091876Y464336D02*
X1094924D01*
X102000Y625500D02*
X130000D01*
X102000Y644500D02*
X130000D01*
X127890Y643120D02*
Y646120D01*
X124890Y643120D02*
Y646120D01*
X127890Y644620D01*
X124890Y643120D02*
X127890Y644620D01*
X124890D02*
X127890D01*
X340500Y606100D02*
Y634100D01*
X359500Y606100D02*
Y634100D01*
X358120Y608210D02*
X361120D01*
X358120Y611210D02*
X361120D01*
X359620Y608210D02*
X361120Y611210D01*
X358120D02*
X359620Y608210D01*
Y611210D01*
X85100Y476000D02*
Y504000D01*
X104100Y476000D02*
Y504000D01*
X102720Y478110D02*
X105720D01*
X102720Y481110D02*
X105720D01*
X104220Y478110D02*
X105720Y481110D01*
X102720D02*
X104220Y478110D01*
Y481110D01*
D45*
X70000Y750000D02*
G03*
X70000Y750000I-20000J0D01*
G01*
X1370000Y50000D02*
G03*
X1370000Y50000I-20000J0D01*
G01*
Y750000D02*
G03*
X1370000Y750000I-20000J0D01*
G01*
X70000Y50000D02*
G03*
X70000Y50000I-20000J0D01*
G01*
X995325Y278688D02*
X995372Y278640D01*
X995420Y278688D01*
X995372Y278735D01*
X995325Y278688D01*
X903885D02*
X903932Y278640D01*
X903980Y278688D01*
X903932Y278735D01*
X903885Y278688D01*
D46*
X79000Y750000D02*
G03*
X79000Y750000I-29000J0D01*
G01*
X1379000Y50000D02*
G03*
X1379000Y50000I-29000J0D01*
G01*
Y750000D02*
G03*
X1379000Y750000I-29000J0D01*
G01*
X79000Y50000D02*
G03*
X79000Y50000I-29000J0D01*
G01*
X1152700Y657630D02*
X1254046D01*
Y456970D02*
Y657630D01*
X1152700Y457224D02*
Y657630D01*
X1230630Y761044D02*
X1233962Y754380D01*
X1237294Y761044D01*
X1240627Y754380D02*
X1243959D01*
X1242293D01*
Y764377D01*
X1240627Y762711D01*
X1248957Y754380D02*
Y756046D01*
X1250624D01*
Y754380D01*
X1248957D01*
X1257288Y762711D02*
X1258954Y764377D01*
X1262287D01*
X1263953Y762711D01*
Y756046D01*
X1262287Y754380D01*
X1258954D01*
X1257288Y756046D01*
Y762711D01*
X1268951Y761044D02*
X1272283D01*
X1273949Y759378D01*
Y754380D01*
X1268951D01*
X1267285Y756046D01*
X1268951Y757712D01*
X1273949D01*
X1241105Y498947D02*
X1234440D01*
Y493948D01*
X1237772Y495615D01*
X1239438D01*
X1241105Y493948D01*
Y490616D01*
X1239438Y488950D01*
X1236106D01*
X1234440Y490616D01*
X1244437Y498947D02*
Y492282D01*
X1247769Y488950D01*
X1251101Y492282D01*
Y498947D01*
X1214120Y651347D02*
Y644682D01*
X1217452Y641350D01*
X1220785Y644682D01*
Y651347D01*
X1224117Y641350D02*
Y651347D01*
X1227449Y648015D01*
X1230781Y651347D01*
Y641350D01*
X1239112Y651347D02*
X1235780D01*
X1234114Y649681D01*
Y643016D01*
X1235780Y641350D01*
X1239112D01*
X1240778Y643016D01*
Y649681D01*
X1239112Y651347D01*
X1244110D02*
X1250775D01*
X1247443D01*
Y641350D01*
X1230945Y624281D02*
X1229278Y625947D01*
X1225946D01*
X1224280Y624281D01*
Y617616D01*
X1225946Y615950D01*
X1229278D01*
X1230945Y617616D01*
Y620948D01*
X1227612D01*
X1234277Y615950D02*
Y625947D01*
X1240941Y615950D01*
Y625947D01*
X1244274D02*
Y615950D01*
X1249272D01*
X1250938Y617616D01*
Y624281D01*
X1249272Y625947D01*
X1244274D01*
X1230945Y471881D02*
X1229278Y473547D01*
X1225946D01*
X1224280Y471881D01*
Y465216D01*
X1225946Y463550D01*
X1229278D01*
X1230945Y465216D01*
Y468548D01*
X1227612D01*
X1234277Y463550D02*
Y473547D01*
X1240941Y463550D01*
Y473547D01*
X1244274D02*
Y463550D01*
X1249272D01*
X1250938Y465216D01*
Y471881D01*
X1249272Y473547D01*
X1244274D01*
X1155700D02*
Y463550D01*
X1160698D01*
X1162365Y465216D01*
Y471881D01*
X1160698Y473547D01*
X1155700D01*
X1165697D02*
X1169029D01*
X1167363D01*
Y463550D01*
X1165697D01*
X1169029D01*
X1174027D02*
Y473547D01*
X1179026D01*
X1180692Y471881D01*
Y468548D01*
X1179026Y466882D01*
X1174027D01*
X1177360D02*
X1180692Y463550D01*
X1162365Y497281D02*
X1160698Y498947D01*
X1157366D01*
X1155700Y497281D01*
Y495615D01*
X1157366Y493948D01*
X1160698D01*
X1162365Y492282D01*
Y490616D01*
X1160698Y488950D01*
X1157366D01*
X1155700Y490616D01*
X1165697Y498947D02*
X1172361D01*
X1169029D01*
Y488950D01*
X1182358Y498947D02*
X1175694D01*
Y488950D01*
X1182358D01*
X1175694Y493948D02*
X1179026D01*
X1185690Y488950D02*
Y498947D01*
X1190689D01*
X1192355Y497281D01*
Y493948D01*
X1190689Y492282D01*
X1185690D01*
X1155700Y565150D02*
Y575147D01*
X1159032Y571814D01*
X1162365Y575147D01*
Y565150D01*
X1172361Y573481D02*
X1170695Y575147D01*
X1167363D01*
X1165697Y573481D01*
Y571814D01*
X1167363Y570148D01*
X1170695D01*
X1172361Y568482D01*
Y566816D01*
X1170695Y565150D01*
X1167363D01*
X1165697Y566816D01*
X1175694Y573481D02*
X1177360Y575147D01*
X1180692D01*
X1182358Y573481D01*
Y571814D01*
X1180692Y570148D01*
X1179026D01*
X1180692D01*
X1182358Y568482D01*
Y566816D01*
X1180692Y565150D01*
X1177360D01*
X1175694Y566816D01*
X1155700Y590550D02*
Y600547D01*
X1159032Y597215D01*
X1162365Y600547D01*
Y590550D01*
X1172361Y598881D02*
X1170695Y600547D01*
X1167363D01*
X1165697Y598881D01*
Y597215D01*
X1167363Y595548D01*
X1170695D01*
X1172361Y593882D01*
Y592216D01*
X1170695Y590550D01*
X1167363D01*
X1165697Y592216D01*
X1182358Y590550D02*
X1175694D01*
X1182358Y597215D01*
Y598881D01*
X1180692Y600547D01*
X1177360D01*
X1175694Y598881D01*
X1155700Y615950D02*
Y625947D01*
X1159032Y622615D01*
X1162365Y625947D01*
Y615950D01*
X1172361Y624281D02*
X1170695Y625947D01*
X1167363D01*
X1165697Y624281D01*
Y622615D01*
X1167363Y620948D01*
X1170695D01*
X1172361Y619282D01*
Y617616D01*
X1170695Y615950D01*
X1167363D01*
X1165697Y617616D01*
X1175694Y615950D02*
X1179026D01*
X1177360D01*
Y625947D01*
X1175694Y624281D01*
X1162365Y651347D02*
X1155700D01*
Y641350D01*
X1162365D01*
X1155700Y646348D02*
X1159032D01*
X1165697Y641350D02*
Y651347D01*
X1172361Y641350D01*
Y651347D01*
X79195Y80037D02*
X77529Y81703D01*
X74196D01*
X72530Y80037D01*
Y73372D01*
X74196Y71706D01*
X77529D01*
X79195Y73372D01*
X82527Y71706D02*
X85859D01*
X84193D01*
Y81703D01*
X82527Y80037D01*
X97522Y71706D02*
X90858D01*
X97522Y78370D01*
Y80037D01*
X95856Y81703D01*
X92524D01*
X90858Y80037D01*
X1050553Y152081D02*
X1048886Y153747D01*
X1045554D01*
X1043888Y152081D01*
Y145416D01*
X1045554Y143750D01*
X1048886D01*
X1050553Y145416D01*
X1053885Y143750D02*
X1057217D01*
X1055551D01*
Y153747D01*
X1053885Y152081D01*
X1062215Y143750D02*
X1065548D01*
X1063882D01*
Y153747D01*
X1062215Y152081D01*
X64718Y680706D02*
Y690703D01*
X69716D01*
X71382Y689037D01*
Y685704D01*
X69716Y684038D01*
X64718D01*
X81379Y690703D02*
X78047Y689037D01*
X74715Y685704D01*
Y682372D01*
X76381Y680706D01*
X79713D01*
X81379Y682372D01*
Y684038D01*
X79713Y685704D01*
X74715D01*
X164347Y98121D02*
X161014D01*
X162680D01*
Y89790D01*
X161014Y88124D01*
X159348D01*
X157682Y89790D01*
X167679Y96455D02*
X169345Y98121D01*
X172677D01*
X174343Y96455D01*
Y94789D01*
X172677Y93122D01*
X171011D01*
X172677D01*
X174343Y91456D01*
Y89790D01*
X172677Y88124D01*
X169345D01*
X167679Y89790D01*
X315162Y393432D02*
Y403429D01*
X320160D01*
X321827Y401763D01*
Y398430D01*
X320160Y396764D01*
X315162D01*
X318494D02*
X321827Y393432D01*
X331823D02*
X325159D01*
X331823Y400097D01*
Y401763D01*
X330157Y403429D01*
X326825D01*
X325159Y401763D01*
X341820Y393432D02*
X335156D01*
X341820Y400097D01*
Y401763D01*
X340154Y403429D01*
X336822D01*
X335156Y401763D01*
X213876Y80199D02*
X212210Y81865D01*
X208878D01*
X207212Y80199D01*
Y73534D01*
X208878Y71868D01*
X212210D01*
X213876Y73534D01*
X217209Y71868D02*
X220541D01*
X218875D01*
Y81865D01*
X217209Y80199D01*
X225539D02*
X227206Y81865D01*
X230538D01*
X232204Y80199D01*
Y73534D01*
X230538Y71868D01*
X227206D01*
X225539Y73534D01*
Y80199D01*
X204926Y46468D02*
Y56465D01*
X209924D01*
X211590Y54799D01*
Y51466D01*
X209924Y49800D01*
X204926D01*
X208258D02*
X211590Y46468D01*
X221587D02*
X214923D01*
X221587Y53133D01*
Y54799D01*
X219921Y56465D01*
X216589D01*
X214923Y54799D01*
X231584Y56465D02*
X228252Y54799D01*
X224920Y51466D01*
Y48134D01*
X226586Y46468D01*
X229918D01*
X231584Y48134D01*
Y49800D01*
X229918Y51466D01*
X224920D01*
X119328Y46468D02*
Y56465D01*
X124326D01*
X125992Y54799D01*
Y51466D01*
X124326Y49800D01*
X119328D01*
X122660D02*
X125992Y46468D01*
X135989D02*
X129325D01*
X135989Y53133D01*
Y54799D01*
X134323Y56465D01*
X130991D01*
X129325Y54799D01*
X145986Y56465D02*
X139322D01*
Y51466D01*
X142654Y53133D01*
X144320D01*
X145986Y51466D01*
Y48134D01*
X144320Y46468D01*
X140988D01*
X139322Y48134D01*
X1307601Y605471D02*
X1305934Y607137D01*
X1302602D01*
X1300936Y605471D01*
Y598806D01*
X1302602Y597140D01*
X1305934D01*
X1307601Y598806D01*
X1317597Y607137D02*
X1314265Y605471D01*
X1310933Y602138D01*
Y598806D01*
X1312599Y597140D01*
X1315931D01*
X1317597Y598806D01*
Y600472D01*
X1315931Y602138D01*
X1310933D01*
X1307601Y453071D02*
X1305934Y454737D01*
X1302602D01*
X1300936Y453071D01*
Y446406D01*
X1302602Y444740D01*
X1305934D01*
X1307601Y446406D01*
X1310933Y454737D02*
X1317597D01*
Y453071D01*
X1310933Y446406D01*
Y444740D01*
X997509Y397825D02*
X995843Y396158D01*
Y392826D01*
X997509Y391160D01*
X1004174D01*
X1005840Y392826D01*
Y396158D01*
X1004174Y397825D01*
X997509Y401157D02*
X995843Y402823D01*
Y406155D01*
X997509Y407821D01*
X999175D01*
X1000842Y406155D01*
X1002508Y407821D01*
X1004174D01*
X1005840Y406155D01*
Y402823D01*
X1004174Y401157D01*
X1002508D01*
X1000842Y402823D01*
X999175Y401157D01*
X997509D01*
X1000842Y402823D02*
Y406155D01*
X1028700Y391160D02*
X1018703D01*
Y396158D01*
X1020369Y397825D01*
X1023702D01*
X1025368Y396158D01*
Y391160D01*
Y394492D02*
X1028700Y397825D01*
Y401157D02*
Y404489D01*
Y402823D01*
X1018703D01*
X1020369Y401157D01*
Y409487D02*
X1018703Y411154D01*
Y414486D01*
X1020369Y416152D01*
X1022036D01*
X1023702Y414486D01*
X1025368Y416152D01*
X1027034D01*
X1028700Y414486D01*
Y411154D01*
X1027034Y409487D01*
X1025368D01*
X1023702Y411154D01*
X1022036Y409487D01*
X1020369D01*
X1023702Y411154D02*
Y414486D01*
X1051560Y391160D02*
X1041563D01*
Y396158D01*
X1043229Y397825D01*
X1046562D01*
X1048228Y396158D01*
Y391160D01*
Y394492D02*
X1051560Y397825D01*
Y407821D02*
Y401157D01*
X1044895Y407821D01*
X1043229D01*
X1041563Y406155D01*
Y402823D01*
X1043229Y401157D01*
X1005924Y235190D02*
Y245187D01*
X1010922D01*
X1012589Y243521D01*
Y240188D01*
X1010922Y238522D01*
X1005924D01*
X1009256D02*
X1012589Y235190D01*
X1015921D02*
X1019253D01*
X1017587D01*
Y245187D01*
X1015921Y243521D01*
X1046488Y259411D02*
X1039824D01*
Y254412D01*
X1043156D01*
X1039824D01*
Y249414D01*
X1049821D02*
X1053153D01*
X1051487D01*
Y259411D01*
X1049821Y257745D01*
X979178Y291212D02*
Y297877D01*
X977512Y299543D01*
X974180D01*
X972514Y297877D01*
Y291212D01*
X974180Y289546D01*
X977512D01*
X975846Y292878D02*
X979178Y289546D01*
X977512D02*
X979178Y291212D01*
X982511Y289546D02*
X985843D01*
X984177D01*
Y299543D01*
X982511Y297877D01*
X976578Y330186D02*
Y340183D01*
X981576D01*
X983242Y338517D01*
Y335184D01*
X981576Y333518D01*
X976578D01*
X986575Y338517D02*
X988241Y340183D01*
X991573D01*
X993239Y338517D01*
Y336851D01*
X991573Y335184D01*
X989907D01*
X991573D01*
X993239Y333518D01*
Y331852D01*
X991573Y330186D01*
X988241D01*
X986575Y331852D01*
X908742Y235190D02*
Y245187D01*
X913740D01*
X915406Y243521D01*
Y240188D01*
X913740Y238522D01*
X908742D01*
X912074D02*
X915406Y235190D01*
X925403D02*
X918738D01*
X925403Y241854D01*
Y243521D01*
X923737Y245187D01*
X920405D01*
X918738Y243521D01*
X928735Y235190D02*
X932067D01*
X930401D01*
Y245187D01*
X928735Y243521D01*
X953270Y259411D02*
X946606D01*
Y254412D01*
X949938D01*
X946606D01*
Y249414D01*
X963267D02*
X956603D01*
X963267Y256078D01*
Y257745D01*
X961601Y259411D01*
X958269D01*
X956603Y257745D01*
X884183Y291212D02*
Y297877D01*
X882516Y299543D01*
X879184D01*
X877518Y297877D01*
Y291212D01*
X879184Y289546D01*
X882516D01*
X880850Y292878D02*
X884183Y289546D01*
X882516D02*
X884183Y291212D01*
X894179Y289546D02*
X887515D01*
X894179Y296210D01*
Y297877D01*
X892513Y299543D01*
X889181D01*
X887515Y297877D01*
X885138Y330186D02*
Y340183D01*
X890136D01*
X891803Y338517D01*
Y335184D01*
X890136Y333518D01*
X885138D01*
X900133Y330186D02*
Y340183D01*
X895135Y335184D01*
X901799D01*
X906069Y397825D02*
X904403Y396158D01*
Y392826D01*
X906069Y391160D01*
X912734D01*
X914400Y392826D01*
Y396158D01*
X912734Y397825D01*
Y401157D02*
X914400Y402823D01*
Y406155D01*
X912734Y407821D01*
X906069D01*
X904403Y406155D01*
Y402823D01*
X906069Y401157D01*
X907736D01*
X909402Y402823D01*
Y407821D01*
X937260Y391160D02*
X927263D01*
Y396158D01*
X928929Y397825D01*
X932262D01*
X933928Y396158D01*
Y391160D01*
Y394492D02*
X937260Y397825D01*
Y407821D02*
Y401157D01*
X930595Y407821D01*
X928929D01*
X927263Y406155D01*
Y402823D01*
X928929Y401157D01*
Y411154D02*
X927263Y412820D01*
Y416152D01*
X928929Y417818D01*
X935594D01*
X937260Y416152D01*
Y412820D01*
X935594Y411154D01*
X928929D01*
X960120Y391160D02*
X950123D01*
Y396158D01*
X951789Y397825D01*
X955122D01*
X956788Y396158D01*
Y391160D01*
Y394492D02*
X960120Y397825D01*
Y401157D02*
Y404489D01*
Y402823D01*
X950123D01*
X951789Y401157D01*
X958454Y409487D02*
X960120Y411154D01*
Y414486D01*
X958454Y416152D01*
X951789D01*
X950123Y414486D01*
Y411154D01*
X951789Y409487D01*
X953456D01*
X955122Y411154D01*
Y416152D01*
X378662Y75932D02*
Y85929D01*
X383660D01*
X385326Y84263D01*
Y80930D01*
X383660Y79264D01*
X378662D01*
X381994D02*
X385326Y75932D01*
X388659D02*
X391991D01*
X390325D01*
Y85929D01*
X388659Y84263D01*
X396989Y85929D02*
X403654D01*
Y84263D01*
X396989Y77598D01*
Y75932D01*
X300684D02*
Y85929D01*
X305682D01*
X307348Y84263D01*
Y80930D01*
X305682Y79264D01*
X300684D01*
X304016D02*
X307348Y75932D01*
X310681D02*
X314013D01*
X312347D01*
Y85929D01*
X310681Y84263D01*
X325676Y85929D02*
X322344Y84263D01*
X319011Y80930D01*
Y77598D01*
X320678Y75932D01*
X324010D01*
X325676Y77598D01*
Y79264D01*
X324010Y80930D01*
X319011D01*
X1150822Y322657D02*
Y312660D01*
X1157486D01*
X1160819Y322657D02*
Y312660D01*
X1165817D01*
X1167483Y314326D01*
Y320991D01*
X1165817Y322657D01*
X1160819D01*
X1177480D02*
X1170816D01*
Y317658D01*
X1174148Y319324D01*
X1175814D01*
X1177480Y317658D01*
Y314326D01*
X1175814Y312660D01*
X1172482D01*
X1170816Y314326D01*
X1256740Y322657D02*
Y312660D01*
X1263404D01*
X1266737Y322657D02*
Y312660D01*
X1271735D01*
X1273401Y314326D01*
Y320991D01*
X1271735Y322657D01*
X1266737D01*
X1283398D02*
X1280066Y320991D01*
X1276734Y317658D01*
Y314326D01*
X1278400Y312660D01*
X1281732D01*
X1283398Y314326D01*
Y315992D01*
X1281732Y317658D01*
X1276734D01*
X1111960Y312660D02*
Y322657D01*
X1116958D01*
X1118624Y320991D01*
Y317658D01*
X1116958Y315992D01*
X1111960D01*
X1115292D02*
X1118624Y312660D01*
X1128621D02*
X1121957D01*
X1128621Y319324D01*
Y320991D01*
X1126955Y322657D01*
X1123623D01*
X1121957Y320991D01*
X1131954D02*
X1133620Y322657D01*
X1136952D01*
X1138618Y320991D01*
Y319324D01*
X1136952Y317658D01*
X1135286D01*
X1136952D01*
X1138618Y315992D01*
Y314326D01*
X1136952Y312660D01*
X1133620D01*
X1131954Y314326D01*
X1217878Y312660D02*
Y322657D01*
X1222876D01*
X1224542Y320991D01*
Y317658D01*
X1222876Y315992D01*
X1217878D01*
X1221210D02*
X1224542Y312660D01*
X1234539D02*
X1227875D01*
X1234539Y319324D01*
Y320991D01*
X1232873Y322657D01*
X1229541D01*
X1227875Y320991D01*
X1242870Y312660D02*
Y322657D01*
X1237872Y317658D01*
X1244536D01*
X1046428Y641082D02*
Y651079D01*
X1051426D01*
X1053092Y649413D01*
Y646080D01*
X1051426Y644414D01*
X1046428D01*
X1049760D02*
X1053092Y641082D01*
X1056425D02*
X1059757D01*
X1058091D01*
Y651079D01*
X1056425Y649413D01*
X1064755D02*
X1066422Y651079D01*
X1069754D01*
X1071420Y649413D01*
Y642748D01*
X1069754Y641082D01*
X1066422D01*
X1064755Y642748D01*
Y649413D01*
X1049730Y615682D02*
Y625679D01*
X1054728D01*
X1056395Y624013D01*
Y620680D01*
X1054728Y619014D01*
X1049730D01*
X1053062D02*
X1056395Y615682D01*
X1059727D02*
X1063059D01*
X1061393D01*
Y625679D01*
X1059727Y624013D01*
X1068057Y615682D02*
X1071390D01*
X1069724D01*
Y625679D01*
X1068057Y624013D01*
X1046428Y590282D02*
Y600279D01*
X1051426D01*
X1053092Y598613D01*
Y595280D01*
X1051426Y593614D01*
X1046428D01*
X1049760D02*
X1053092Y590282D01*
X1056425D02*
X1059757D01*
X1058091D01*
Y600279D01*
X1056425Y598613D01*
X1071420Y590282D02*
X1064755D01*
X1071420Y596946D01*
Y598613D01*
X1069754Y600279D01*
X1066422D01*
X1064755Y598613D01*
X1046428Y564882D02*
Y574879D01*
X1051426D01*
X1053092Y573213D01*
Y569880D01*
X1051426Y568214D01*
X1046428D01*
X1049760D02*
X1053092Y564882D01*
X1056425D02*
X1059757D01*
X1058091D01*
Y574879D01*
X1056425Y573213D01*
X1064755D02*
X1066422Y574879D01*
X1069754D01*
X1071420Y573213D01*
Y571547D01*
X1069754Y569880D01*
X1068088D01*
X1069754D01*
X1071420Y568214D01*
Y566548D01*
X1069754Y564882D01*
X1066422D01*
X1064755Y566548D01*
X1046428Y488682D02*
Y498679D01*
X1051426D01*
X1053092Y497013D01*
Y493680D01*
X1051426Y492014D01*
X1046428D01*
X1049760D02*
X1053092Y488682D01*
X1056425D02*
X1059757D01*
X1058091D01*
Y498679D01*
X1056425Y497013D01*
X1069754Y488682D02*
Y498679D01*
X1064755Y493680D01*
X1071420D01*
X1046428Y463282D02*
Y473279D01*
X1051426D01*
X1053092Y471613D01*
Y468280D01*
X1051426Y466614D01*
X1046428D01*
X1049760D02*
X1053092Y463282D01*
X1056425D02*
X1059757D01*
X1058091D01*
Y473279D01*
X1056425Y471613D01*
X1071420Y473279D02*
X1064755D01*
Y468280D01*
X1068088Y469947D01*
X1069754D01*
X1071420Y468280D01*
Y464948D01*
X1069754Y463282D01*
X1066422D01*
X1064755Y464948D01*
X95960Y663271D02*
Y653274D01*
X100958D01*
X102625Y654940D01*
Y661605D01*
X100958Y663271D01*
X95960D01*
X105957Y661605D02*
X107623Y663271D01*
X110955D01*
X112621Y661605D01*
Y659939D01*
X110955Y658272D01*
X109289D01*
X110955D01*
X112621Y656606D01*
Y654940D01*
X110955Y653274D01*
X107623D01*
X105957Y654940D01*
X1071828Y180326D02*
Y190323D01*
X1076826D01*
X1078493Y188657D01*
Y185324D01*
X1076826Y183658D01*
X1071828D01*
X1075160D02*
X1078493Y180326D01*
X1081825Y188657D02*
X1083491Y190323D01*
X1086823D01*
X1088489Y188657D01*
Y186991D01*
X1086823Y185324D01*
X1085157D01*
X1086823D01*
X1088489Y183658D01*
Y181992D01*
X1086823Y180326D01*
X1083491D01*
X1081825Y181992D01*
X294334Y569799D02*
Y559802D01*
X299332D01*
X300998Y561468D01*
Y563134D01*
X299332Y564800D01*
X294334D01*
X299332D01*
X300998Y566466D01*
Y568133D01*
X299332Y569799D01*
X294334D01*
X304331D02*
X310995D01*
Y568133D01*
X304331Y561468D01*
Y559802D01*
X310995D01*
X314328D02*
X317660D01*
X315994D01*
Y569799D01*
X314328Y568133D01*
X27634Y305131D02*
Y296800D01*
X29300Y295134D01*
X32632D01*
X34299Y296800D01*
Y305131D01*
X44295Y295134D02*
X37631D01*
X44295Y301798D01*
Y303465D01*
X42629Y305131D01*
X39297D01*
X37631Y303465D01*
X241264Y438331D02*
X239598Y439997D01*
X236266D01*
X234600Y438331D01*
Y431666D01*
X236266Y430000D01*
X239598D01*
X241264Y431666D01*
X244597Y438331D02*
X246263Y439997D01*
X249595D01*
X251261Y438331D01*
Y436665D01*
X249595Y434998D01*
X247929D01*
X249595D01*
X251261Y433332D01*
Y431666D01*
X249595Y430000D01*
X246263D01*
X244597Y431666D01*
X213876Y453325D02*
X212210Y454991D01*
X208878D01*
X207212Y453325D01*
Y446660D01*
X208878Y444994D01*
X212210D01*
X213876Y446660D01*
X223873Y454991D02*
X217209D01*
Y449992D01*
X220541Y451659D01*
X222207D01*
X223873Y449992D01*
Y446660D01*
X222207Y444994D01*
X218875D01*
X217209Y446660D01*
X204600Y510000D02*
Y519997D01*
X209598D01*
X211264Y518331D01*
Y514998D01*
X209598Y513332D01*
X204600D01*
X207932D02*
X211264Y510000D01*
X214597Y511666D02*
X216263Y510000D01*
X219595D01*
X221261Y511666D01*
Y518331D01*
X219595Y519997D01*
X216263D01*
X214597Y518331D01*
Y516665D01*
X216263Y514998D01*
X221261D01*
X204600Y480000D02*
Y489997D01*
X209598D01*
X211264Y488331D01*
Y484998D01*
X209598Y483332D01*
X204600D01*
X207932D02*
X211264Y480000D01*
X219595D02*
Y489997D01*
X214597Y484998D01*
X221261D01*
X115324Y453325D02*
X113658Y454991D01*
X110326D01*
X108660Y453325D01*
Y446660D01*
X110326Y444994D01*
X113658D01*
X115324Y446660D01*
X118657Y444994D02*
X121989D01*
X120323D01*
Y454991D01*
X118657Y453325D01*
X340308Y658191D02*
Y648194D01*
X345306D01*
X346973Y649860D01*
Y656525D01*
X345306Y658191D01*
X340308D01*
X350305Y648194D02*
X353637D01*
X351971D01*
Y658191D01*
X350305Y656525D01*
X1128216Y675463D02*
X1134881Y665466D01*
Y675463D02*
X1128216Y665466D01*
X1138213D02*
X1141545D01*
X1139879D01*
Y675463D01*
X1138213Y673797D01*
X447750Y586472D02*
Y596469D01*
X452748D01*
X454414Y594803D01*
Y591470D01*
X452748Y589804D01*
X447750D01*
X464411Y586472D02*
X457747D01*
X464411Y593136D01*
Y594803D01*
X462745Y596469D01*
X459413D01*
X457747Y594803D01*
X927810Y586472D02*
Y596469D01*
X932808D01*
X934474Y594803D01*
Y591470D01*
X932808Y589804D01*
X927810D01*
X937807Y586472D02*
X941139D01*
X939473D01*
Y596469D01*
X937807Y594803D01*
X597356Y325106D02*
Y335103D01*
X602354D01*
X604021Y333437D01*
Y330104D01*
X602354Y328438D01*
X597356D01*
X614017Y335103D02*
X607353D01*
Y330104D01*
X610685Y331771D01*
X612351D01*
X614017Y330104D01*
Y326772D01*
X612351Y325106D01*
X609019D01*
X607353Y326772D01*
X126186Y525349D02*
Y517018D01*
X127852Y515352D01*
X131184D01*
X132851Y517018D01*
Y525349D01*
X136183Y515352D02*
X139515D01*
X137849D01*
Y525349D01*
X136183Y523683D01*
X82498Y437973D02*
Y427976D01*
X89163D01*
X92495D02*
X95827D01*
X94161D01*
Y437973D01*
X92495Y436307D01*
X1300428Y507732D02*
Y517729D01*
X1305426D01*
X1307092Y516063D01*
Y512730D01*
X1305426Y511064D01*
X1300428D01*
X1303760D02*
X1307092Y507732D01*
X1310425Y516063D02*
X1312091Y517729D01*
X1315423D01*
X1317089Y516063D01*
Y514397D01*
X1315423Y512730D01*
X1317089Y511064D01*
Y509398D01*
X1315423Y507732D01*
X1312091D01*
X1310425Y509398D01*
Y511064D01*
X1312091Y512730D01*
X1310425Y514397D01*
Y516063D01*
X1312091Y512730D02*
X1315423D01*
X101040Y333742D02*
Y343739D01*
X106038D01*
X107704Y342073D01*
Y338740D01*
X106038Y337074D01*
X101040D01*
X104372D02*
X107704Y333742D01*
X111037Y343739D02*
X117701D01*
Y342073D01*
X111037Y335408D01*
Y333742D01*
X1300428Y660132D02*
Y670129D01*
X1305426D01*
X1307092Y668463D01*
Y665130D01*
X1305426Y663464D01*
X1300428D01*
X1303760D02*
X1307092Y660132D01*
X1317089Y670129D02*
X1313757Y668463D01*
X1310425Y665130D01*
Y661798D01*
X1312091Y660132D01*
X1315423D01*
X1317089Y661798D01*
Y663464D01*
X1315423Y665130D01*
X1310425D01*
X101040Y603744D02*
Y613741D01*
X106038D01*
X107704Y612075D01*
Y608742D01*
X106038Y607076D01*
X101040D01*
X104372D02*
X107704Y603744D01*
X117701Y613741D02*
X111037D01*
Y608742D01*
X114369Y610409D01*
X116035D01*
X117701Y608742D01*
Y605410D01*
X116035Y603744D01*
X112703D01*
X111037Y605410D01*
X198636Y658811D02*
X196970Y660477D01*
X193638D01*
X191972Y658811D01*
Y652146D01*
X193638Y650480D01*
X196970D01*
X198636Y652146D01*
X208633Y650480D02*
X201969D01*
X208633Y657144D01*
Y658811D01*
X206967Y660477D01*
X203635D01*
X201969Y658811D01*
X116848Y562037D02*
X115182Y563703D01*
X111850D01*
X110184Y562037D01*
Y555372D01*
X111850Y553706D01*
X115182D01*
X116848Y555372D01*
X125179Y553706D02*
Y563703D01*
X120181Y558704D01*
X126845D01*
X84784Y528143D02*
Y518146D01*
X89782D01*
X91448Y519812D01*
Y526477D01*
X89782Y528143D01*
X84784D01*
X101445Y518146D02*
X94781D01*
X101445Y524810D01*
Y526477D01*
X99779Y528143D01*
X96447D01*
X94781Y526477D01*
X1132086Y278573D02*
X1130420Y280239D01*
X1127088D01*
X1125422Y278573D01*
Y276907D01*
X1127088Y275240D01*
X1130420D01*
X1132086Y273574D01*
Y271908D01*
X1130420Y270242D01*
X1127088D01*
X1125422Y271908D01*
X1135419Y270242D02*
X1138751D01*
X1137085D01*
Y280239D01*
X1135419Y278573D01*
X1341068Y517729D02*
Y507732D01*
X1347733D01*
X1351065Y517729D02*
Y507732D01*
X1356063D01*
X1357729Y509398D01*
Y516063D01*
X1356063Y517729D01*
X1351065D01*
X1366060Y507732D02*
Y517729D01*
X1361062Y512730D01*
X1367726D01*
X58876Y343739D02*
Y333742D01*
X65540D01*
X68873Y343739D02*
Y333742D01*
X73871D01*
X75537Y335408D01*
Y342073D01*
X73871Y343739D01*
X68873D01*
X78870Y342073D02*
X80536Y343739D01*
X83868D01*
X85534Y342073D01*
Y340406D01*
X83868Y338740D01*
X82202D01*
X83868D01*
X85534Y337074D01*
Y335408D01*
X83868Y333742D01*
X80536D01*
X78870Y335408D01*
X1341068Y670129D02*
Y660132D01*
X1347733D01*
X1351065Y670129D02*
Y660132D01*
X1356063D01*
X1357729Y661798D01*
Y668463D01*
X1356063Y670129D01*
X1351065D01*
X1367726Y660132D02*
X1361062D01*
X1367726Y666796D01*
Y668463D01*
X1366060Y670129D01*
X1362728D01*
X1361062Y668463D01*
X58876Y613741D02*
Y603744D01*
X65540D01*
X68873Y613741D02*
Y603744D01*
X73871D01*
X75537Y605410D01*
Y612075D01*
X73871Y613741D01*
X68873D01*
X78870Y603744D02*
X82202D01*
X80536D01*
Y613741D01*
X78870Y612075D01*
D47*
X239966Y399499D02*
G03*
X180974Y399499I-29496J-9499D01*
G01*
Y380501D02*
G03*
X239966Y380501I29496J9499D01*
G01*
X201228Y600501D02*
G03*
X260220Y600501I29496J9499D01*
G01*
Y619499D02*
G03*
X201228Y619499I-29496J-9499D01*
G01*
X242982Y399398D02*
Y422258D01*
X194976D02*
X242982D01*
X178212Y405494D02*
X194976Y422258D01*
X178212Y399398D02*
Y405494D01*
Y374252D02*
Y380348D01*
Y374252D02*
X194976Y357488D01*
X242982D01*
Y380348D01*
X194976Y422258D02*
X242982D01*
X178212Y405494D02*
X194976Y422258D01*
X178212Y374252D02*
X194976Y357488D01*
X242982D01*
X198212Y577742D02*
Y600602D01*
Y577742D02*
X246218D01*
X262982Y594506D01*
Y600602D01*
Y619652D02*
Y625748D01*
X246218Y642512D02*
X262982Y625748D01*
X198212Y642512D02*
X246218D01*
X198212Y619652D02*
Y642512D01*
Y577742D02*
X246218D01*
X262982Y594506D01*
X246218Y642512D02*
X262982Y625748D01*
X198212Y642512D02*
X246218D01*
D48*
X170350Y468250D02*
G03*
X170350Y468250I-1250J0D01*
G01*
D49*
X104580Y70300D02*
Y83300D01*
X135581Y70300D02*
Y83300D01*
X104580D02*
X135581D01*
X104580Y70300D02*
X135581D01*
X349504Y382418D02*
X361696D01*
X362350Y383072D01*
Y394420D01*
X348850Y383072D02*
Y394420D01*
Y383072D02*
X349504Y382418D01*
X348850Y413768D02*
X349504Y414422D01*
X348850Y402420D02*
Y413768D01*
X362350Y402170D02*
Y413768D01*
X361696Y414422D02*
X362350Y413768D01*
X349504Y414422D02*
X361696D01*
X270200Y70300D02*
Y83300D01*
X239200Y70300D02*
Y83300D01*
Y70300D02*
X270200D01*
X239200Y83300D02*
X270200D01*
X270702Y45304D02*
Y57496D01*
X270048Y58150D02*
X270702Y57496D01*
X258700Y58150D02*
X270048D01*
X258700Y44650D02*
X270048D01*
X270702Y45304D01*
X238698D02*
X239352Y44650D01*
X250700D01*
X239352Y58150D02*
X250950D01*
X238698Y57496D02*
X239352Y58150D01*
X238698Y45304D02*
Y57496D01*
X185122Y45304D02*
Y57496D01*
X184469Y58150D02*
X185122Y57496D01*
X173120Y58150D02*
X184469D01*
X173120Y44650D02*
X184469D01*
X185122Y45304D01*
X153118D02*
X153772Y44650D01*
X165120D01*
X153772Y58150D02*
X165370D01*
X153118Y57496D02*
X153772Y58150D01*
X153118Y45304D02*
Y57496D01*
X1331000Y614300D02*
Y627300D01*
X1300000Y614300D02*
Y627300D01*
Y614300D02*
X1331000D01*
X1300000Y627300D02*
X1331000D01*
X1331000Y461900D02*
Y474900D01*
X1300000Y461900D02*
Y474900D01*
Y461900D02*
X1331000D01*
X1300000Y474900D02*
X1331000D01*
X994260Y355340D02*
X1007260D01*
X994260Y386340D02*
X1007260D01*
X994260Y355340D02*
Y386340D01*
X1007260Y355340D02*
Y386340D01*
X1017524Y354838D02*
X1029716D01*
X1030370Y355492D01*
Y366840D01*
X1016870Y355492D02*
Y366840D01*
Y355492D02*
X1017524Y354838D01*
X1016870Y386188D02*
X1017524Y386842D01*
X1016870Y374840D02*
Y386188D01*
X1030370Y374590D02*
Y386188D01*
X1029716Y386842D02*
X1030370Y386188D01*
X1017524Y386842D02*
X1029716D01*
X1040384D02*
X1052576D01*
X1039730Y386188D02*
X1040384Y386842D01*
X1039730Y374840D02*
Y386188D01*
X1053230Y374840D02*
Y386188D01*
X1052576Y386842D02*
X1053230Y386188D01*
X1052576Y354838D02*
X1053230Y355492D01*
Y366840D01*
X1039730Y355492D02*
Y367090D01*
Y355492D02*
X1040384Y354838D01*
X1052576D01*
X1028582Y252984D02*
Y265176D01*
X1027928Y265830D02*
X1028582Y265176D01*
X1016580Y265830D02*
X1027928D01*
X1016580Y252330D02*
X1027928D01*
X1028582Y252984D01*
X996578D02*
X997232Y252330D01*
X1008580D01*
X997232Y265830D02*
X1008830D01*
X996578Y265176D02*
X997232Y265830D01*
X996578Y252984D02*
Y265176D01*
X904358Y252984D02*
Y265176D01*
Y252984D02*
X905012Y252330D01*
X916360D01*
X905012Y265830D02*
X916360D01*
X904358Y265176D02*
X905012Y265830D01*
X935708D02*
X936362Y265176D01*
X924360Y265830D02*
X935708D01*
X924110Y252330D02*
X935708D01*
X936362Y252984D01*
Y265176D01*
X902820Y355340D02*
X915820D01*
X902820Y386340D02*
X915820D01*
X902820Y355340D02*
Y386340D01*
X915820Y355340D02*
Y386340D01*
X926084Y354838D02*
X938276D01*
X938930Y355492D01*
Y366840D01*
X925430Y355492D02*
Y366840D01*
Y355492D02*
X926084Y354838D01*
X925430Y386188D02*
X926084Y386842D01*
X925430Y374840D02*
Y386188D01*
X938930Y374590D02*
Y386188D01*
X938276Y386842D02*
X938930Y386188D01*
X926084Y386842D02*
X938276D01*
X948944D02*
X961136D01*
X948290Y386188D02*
X948944Y386842D01*
X948290Y374840D02*
Y386188D01*
X961790Y374840D02*
Y386188D01*
X961136Y386842D02*
X961790Y386188D01*
X961136Y354838D02*
X961790Y355492D01*
Y366840D01*
X948290Y355492D02*
Y367090D01*
Y355492D02*
X948944Y354838D01*
X961136D01*
X358704Y97002D02*
X370896D01*
X358050Y96348D02*
X358704Y97002D01*
X358050Y85000D02*
Y96348D01*
X371550Y85000D02*
Y96348D01*
X370896Y97002D02*
X371550Y96348D01*
X370896Y64998D02*
X371550Y65652D01*
Y77000D01*
X358050Y65652D02*
Y77250D01*
Y65652D02*
X358704Y64998D01*
X370896D01*
X333304Y97002D02*
X345496D01*
X332650Y96348D02*
X333304Y97002D01*
X332650Y85000D02*
Y96348D01*
X346150Y85000D02*
Y96348D01*
X345496Y97002D02*
X346150Y96348D01*
X345496Y64998D02*
X346150Y65652D01*
Y77000D01*
X332650Y65652D02*
Y77250D01*
Y65652D02*
X333304Y64998D01*
X345496D01*
X1178503Y331673D02*
Y341153D01*
X1178503Y341653D02*
X1180243Y339913D01*
Y332913D02*
Y339913D01*
X1147993Y343163D02*
X1158993D01*
X1147993Y329663D02*
X1158993D01*
X1147993D02*
Y343163D01*
X1167993D02*
X1176993D01*
X1167993Y329663D02*
X1176993D01*
X1179293Y331963D01*
X1178743Y331413D02*
X1180243Y332913D01*
X1179293Y331963D02*
Y340863D01*
X1176993Y343163D02*
X1179293Y340863D01*
X1284403Y331673D02*
Y341153D01*
X1284403Y341653D02*
X1286143Y339913D01*
Y332913D02*
Y339913D01*
X1253893Y343163D02*
X1264893D01*
X1253893Y329663D02*
X1264893D01*
X1253893D02*
Y343163D01*
X1273893D02*
X1282893D01*
X1273893Y329663D02*
X1282893D01*
X1285193Y331963D01*
X1284643Y331413D02*
X1286143Y332913D01*
X1285193Y331963D02*
Y340863D01*
X1282893Y343163D02*
X1285193Y340863D01*
X1141395Y330317D02*
Y342509D01*
X1140741Y343163D02*
X1141395Y342509D01*
X1129393Y343163D02*
X1140741D01*
X1129393Y329663D02*
X1140741D01*
X1141395Y330317D01*
X1109391D02*
X1110045Y329663D01*
X1121393D01*
X1110045Y343163D02*
X1121643D01*
X1109391Y342509D02*
X1110045Y343163D01*
X1109391Y330317D02*
Y342509D01*
X1247295Y330317D02*
Y342509D01*
X1246641Y343163D02*
X1247295Y342509D01*
X1235293Y343163D02*
X1246641D01*
X1235293Y329663D02*
X1246641D01*
X1247295Y330317D01*
X1215291D02*
X1215945Y329663D01*
X1227293D01*
X1215945Y343163D02*
X1227543D01*
X1215291Y342509D02*
X1215945Y343163D01*
X1215291Y330317D02*
Y342509D01*
X1096264Y169418D02*
X1108456D01*
X1109110Y170072D01*
Y181420D01*
X1095610Y170072D02*
Y181420D01*
Y170072D02*
X1096264Y169418D01*
X1095610Y200768D02*
X1096264Y201422D01*
X1095610Y189420D02*
Y200768D01*
X1109110Y189170D02*
Y200768D01*
X1108456Y201422D02*
X1109110Y200768D01*
X1096264Y201422D02*
X1108456D01*
X166350Y405000D02*
X176350D01*
X171350Y399749D02*
Y410250D01*
X169100Y443500D02*
Y456500D01*
X200100Y443500D02*
Y456500D01*
X169100D02*
X200100D01*
X169100Y443500D02*
X200100D01*
X188504Y534502D02*
X200696D01*
X187850Y533848D02*
X188504Y534502D01*
X187850Y522500D02*
Y533848D01*
X201350Y522500D02*
Y533848D01*
X200696Y534502D02*
X201350Y533848D01*
X200696Y502498D02*
X201350Y503152D01*
Y514500D01*
X187850Y503152D02*
Y514750D01*
Y503152D02*
X188504Y502498D01*
X200696D01*
X188504Y496002D02*
X200696D01*
X187850Y495348D02*
X188504Y496002D01*
X187850Y484000D02*
Y495348D01*
X201350Y484000D02*
Y495348D01*
X200696Y496002D02*
X201350Y495348D01*
X200696Y463998D02*
X201350Y464652D01*
Y476000D01*
X187850Y464652D02*
Y476250D01*
Y464652D02*
X188504Y463998D01*
X200696D01*
X160100Y443500D02*
Y456500D01*
X129100Y443500D02*
Y456500D01*
Y443500D02*
X160100D01*
X129100Y456500D02*
X160100D01*
X1331502Y487704D02*
Y499896D01*
X1330848Y500550D02*
X1331502Y499896D01*
X1319500Y500550D02*
X1330848D01*
X1319500Y487050D02*
X1330848D01*
X1331502Y487704D01*
X1299498D02*
X1300152Y487050D01*
X1311500D01*
X1300152Y500550D02*
X1311750D01*
X1299498Y499896D02*
X1300152Y500550D01*
X1299498Y487704D02*
Y499896D01*
X100098Y313904D02*
Y326096D01*
Y313904D02*
X100752Y313250D01*
X112100D01*
X100752Y326750D02*
X112100D01*
X100098Y326096D02*
X100752Y326750D01*
X131448D02*
X132102Y326096D01*
X120100Y326750D02*
X131448D01*
X119850Y313250D02*
X131448D01*
X132102Y313904D01*
Y326096D01*
X1331502Y640104D02*
Y652296D01*
X1330848Y652950D02*
X1331502Y652296D01*
X1319500Y652950D02*
X1330848D01*
X1319500Y639450D02*
X1330848D01*
X1331502Y640104D01*
X1299498D02*
X1300152Y639450D01*
X1311500D01*
X1300152Y652950D02*
X1311750D01*
X1299498Y652296D02*
X1300152Y652950D01*
X1299498Y640104D02*
Y652296D01*
X100098Y583904D02*
Y596096D01*
Y583904D02*
X100752Y583250D01*
X112100D01*
X100752Y596750D02*
X112100D01*
X100098Y596096D02*
X100752Y596750D01*
X131448D02*
X132102Y596096D01*
X120100Y596750D02*
X131448D01*
X119850Y583250D02*
X131448D01*
X132102Y583904D01*
Y596096D01*
X264844Y595000D02*
X274844D01*
X269844Y589750D02*
Y600250D01*
X140100Y533500D02*
Y546500D01*
X109100Y533500D02*
Y546500D01*
Y533500D02*
X140100D01*
X109100Y546500D02*
X140100D01*
X1370510Y489060D02*
Y498540D01*
X1370510Y499040D02*
X1372250Y497300D01*
Y490300D02*
Y497300D01*
X1340000Y500550D02*
X1351000D01*
X1340000Y487050D02*
X1351000D01*
X1340000D02*
Y500550D01*
X1360000D02*
X1369000D01*
X1360000Y487050D02*
X1369000D01*
X1371300Y489350D01*
X1370750Y488800D02*
X1372250Y490300D01*
X1371300Y489350D02*
Y498250D01*
X1369000Y500550D02*
X1371300Y498250D01*
X59590Y315260D02*
Y324740D01*
X57850Y316500D02*
X59590Y314760D01*
X57850Y316500D02*
Y323500D01*
X79100Y313250D02*
X90100D01*
X79100Y326750D02*
X90100D01*
Y313250D02*
Y326750D01*
X61100Y313250D02*
X70100D01*
X61100Y326750D02*
X70100D01*
X58800Y324450D02*
X61100Y326750D01*
X57850Y323500D02*
X59350Y325000D01*
X58800Y315550D02*
Y324450D01*
Y315550D02*
X61100Y313250D01*
X1370510Y641460D02*
Y650940D01*
X1370510Y651440D02*
X1372250Y649700D01*
Y642700D02*
Y649700D01*
X1340000Y652950D02*
X1351000D01*
X1340000Y639450D02*
X1351000D01*
X1340000D02*
Y652950D01*
X1360000D02*
X1369000D01*
X1360000Y639450D02*
X1369000D01*
X1371300Y641750D01*
X1370750Y641200D02*
X1372250Y642700D01*
X1371300Y641750D02*
Y650650D01*
X1369000Y652950D02*
X1371300Y650650D01*
X59590Y585260D02*
Y594740D01*
X57850Y586500D02*
X59590Y584760D01*
X57850Y586500D02*
Y593500D01*
X79100Y583250D02*
X90100D01*
X79100Y596750D02*
X90100D01*
Y583250D02*
Y596750D01*
X61100Y583250D02*
X70100D01*
X61100Y596750D02*
X70100D01*
X58800Y594450D02*
X61100Y596750D01*
X57850Y593500D02*
X59350Y595000D01*
X58800Y585550D02*
Y594450D01*
Y585550D02*
X61100Y583250D01*
D50*
X139700Y673100D02*
Y698500D01*
X88900Y673100D02*
X139700D01*
X88900D02*
Y698500D01*
X139700D01*
X1051560Y322580D02*
Y347980D01*
X1000760Y322580D02*
X1051560D01*
X1000760D02*
Y347980D01*
X1051560D01*
X960120Y322580D02*
Y347980D01*
X909320Y322580D02*
X960120D01*
X909320D02*
Y347980D01*
X960120D01*
X447300Y477300D02*
X472700D01*
X447300D02*
Y578900D01*
X472700Y477300D02*
Y578900D01*
X447300D02*
X472700D01*
X927300D02*
X952700D01*
Y477300D02*
Y578900D01*
X927300Y477300D02*
Y578900D01*
Y477300D02*
X952700D01*
X800100Y292100D02*
Y317500D01*
X596900D02*
X800100D01*
X596900Y292100D02*
Y317500D01*
Y292100D02*
X800100D01*
X125600Y471000D02*
X154100D01*
X125600D02*
Y507750D01*
X167600Y486500D02*
Y507750D01*
X125600D02*
X167600D01*
Y474500D02*
Y486500D01*
X164100Y471000D02*
X167600Y474500D01*
X154100Y471000D02*
X164100D01*
X83100Y420500D02*
X146100D01*
X83100Y417500D02*
Y420500D01*
X146100Y417500D02*
Y420500D01*
X83100Y359500D02*
Y362500D01*
X146100Y359500D02*
Y362500D01*
X83100Y359500D02*
X146100D01*
D51*
X1131110Y456970D02*
Y657630D01*
X1275890Y456970D02*
Y657630D01*
X1254046D02*
X1275890D01*
X1131110Y456970D02*
X1275890D01*
X1131110Y657630D02*
X1152700D01*
M02*
