G04 Layer_Physical_Order=2*
G04 Layer_Color=16711680*
%FSLAX44Y44*%
%MOMM*%
G71*
G01*
G75*
%ADD10C,0.2540*%
%ADD25C,0.5000*%
%ADD28R,1.5000X1.5000*%
%ADD29C,1.5000*%
%ADD30C,5.4610*%
%ADD31C,1.9050*%
%ADD32C,3.6000*%
%ADD35C,1.5096*%
%ADD36R,1.5000X1.5000*%
%ADD37C,1.8796*%
%ADD38C,1.6000*%
%ADD39C,2.0000*%
%ADD40C,0.7000*%
%ADD41C,0.8000*%
G04:AMPARAMS|DCode=42|XSize=2.286mm|YSize=2.286mm|CornerRadius=0.2858mm|HoleSize=0mm|Usage=FLASHONLY|Rotation=90.000|XOffset=0mm|YOffset=0mm|HoleType=Round|Shape=RoundedRectangle|*
%AMROUNDEDRECTD42*
21,1,2.2860,1.7145,0,0,90.0*
21,1,1.7145,2.2860,0,0,90.0*
1,1,0.5715,0.8572,0.8572*
1,1,0.5715,0.8572,-0.8572*
1,1,0.5715,-0.8572,-0.8572*
1,1,0.5715,-0.8572,0.8572*
%
%ADD42ROUNDEDRECTD42*%
%ADD43C,2.2860*%
G36*
X1356127Y796538D02*
X1362149Y795340D01*
X1367963Y793367D01*
X1373470Y790651D01*
X1378575Y787240D01*
X1383192Y783192D01*
X1387240Y778575D01*
X1390651Y773470D01*
X1393367Y767963D01*
X1395341Y762149D01*
X1396538Y756127D01*
X1396930Y750149D01*
X1396900Y750000D01*
Y50000D01*
X1396930Y49851D01*
X1396538Y43873D01*
X1395341Y37851D01*
X1393367Y32037D01*
X1390651Y26530D01*
X1387240Y21425D01*
X1383192Y16809D01*
X1378575Y12760D01*
X1373470Y9349D01*
X1367963Y6633D01*
X1362149Y4660D01*
X1356127Y3462D01*
X1350149Y3070D01*
X1350000Y3100D01*
X50000D01*
X49851Y3070D01*
X43873Y3462D01*
X37851Y4660D01*
X32037Y6633D01*
X26530Y9349D01*
X21425Y12760D01*
X16809Y16809D01*
X12760Y21425D01*
X9349Y26530D01*
X6633Y32037D01*
X4660Y37851D01*
X3462Y43873D01*
X3070Y49851D01*
X3100Y50000D01*
Y750000D01*
X3070Y750149D01*
X3462Y756127D01*
X4660Y762149D01*
X6633Y767963D01*
X9349Y773470D01*
X12760Y778575D01*
X16809Y783192D01*
X21425Y787240D01*
X26530Y790651D01*
X32037Y793367D01*
X37851Y795340D01*
X43873Y796538D01*
X49851Y796930D01*
X50000Y796900D01*
X1350000D01*
X1350149Y796930D01*
X1356127Y796538D01*
D02*
G37*
%LPC*%
G36*
X1174788Y247065D02*
X1171672Y246655D01*
X1168767Y245452D01*
X1166274Y243538D01*
X1164360Y241045D01*
X1163157Y238140D01*
X1162995Y236911D01*
X1161764Y236749D01*
X1159373Y235758D01*
X1158837Y236456D01*
X1156217Y238466D01*
X1153167Y239730D01*
X1149893Y240161D01*
X1146620Y239730D01*
X1143569Y238466D01*
X1142393Y237564D01*
X1141217Y238466D01*
X1138167Y239730D01*
X1134893Y240161D01*
X1131620Y239730D01*
X1128569Y238466D01*
X1125949Y236456D01*
X1123940Y233837D01*
X1122676Y230786D01*
X1122245Y227513D01*
X1122676Y224239D01*
X1123940Y221189D01*
X1125949Y218569D01*
X1128569Y216559D01*
X1131620Y215296D01*
X1134893Y214865D01*
X1138167Y215296D01*
X1141217Y216559D01*
X1142393Y217461D01*
X1143569Y216559D01*
X1146620Y215296D01*
X1149893Y214865D01*
X1153167Y215296D01*
X1156217Y216559D01*
X1156332Y216647D01*
X1156366Y216604D01*
X1158860Y214690D01*
X1161764Y213487D01*
X1164880Y213077D01*
X1167997Y213487D01*
X1170901Y214690D01*
X1173395Y216604D01*
X1175308Y219097D01*
X1176511Y222001D01*
X1176673Y223231D01*
X1177905Y223393D01*
X1180808Y224596D01*
X1183302Y226510D01*
X1185216Y229004D01*
X1186419Y231908D01*
X1186829Y235024D01*
X1186419Y238140D01*
X1185216Y241045D01*
X1183302Y243538D01*
X1180808Y245452D01*
X1177905Y246655D01*
X1174788Y247065D01*
D02*
G37*
G36*
X1218730Y246898D02*
X1216883Y246655D01*
X1213979Y245452D01*
X1211486Y243538D01*
X1209572Y241045D01*
X1208369Y238140D01*
X1208126Y236294D01*
X1218730D01*
Y246898D01*
D02*
G37*
G36*
X1261163Y239994D02*
Y228783D01*
X1272374D01*
X1272110Y230786D01*
X1270847Y233837D01*
X1268837Y236456D01*
X1266217Y238466D01*
X1263167Y239730D01*
X1261163Y239994D01*
D02*
G37*
G36*
X1036320Y247896D02*
X1034613Y247672D01*
X1033022Y247013D01*
X1031656Y245964D01*
X1031057Y245185D01*
X1026160D01*
X1024673Y244889D01*
X1023413Y244047D01*
X1009354Y229988D01*
X1008380Y230116D01*
X1006673Y229892D01*
X1005082Y229233D01*
X1003716Y228184D01*
X1002667Y226818D01*
X1002008Y225227D01*
X1001784Y223520D01*
X1002008Y221813D01*
X1002667Y220222D01*
X1003716Y218856D01*
X1005082Y217807D01*
X1006673Y217148D01*
X1008380Y216924D01*
X1010087Y217148D01*
X1011678Y217807D01*
X1013044Y218856D01*
X1014093Y220222D01*
X1014752Y221813D01*
X1014976Y223520D01*
X1014848Y224494D01*
X1027769Y237415D01*
X1031057D01*
X1031656Y236636D01*
X1033022Y235587D01*
X1034613Y234928D01*
X1036320Y234704D01*
X1038027Y234928D01*
X1039618Y235587D01*
X1040984Y236636D01*
X1042033Y238002D01*
X1042692Y239593D01*
X1042916Y241300D01*
X1042692Y243007D01*
X1042033Y244598D01*
X1040984Y245964D01*
X1039618Y247013D01*
X1038027Y247672D01*
X1036320Y247896D01*
D02*
G37*
G36*
X1258623Y239994D02*
X1256620Y239730D01*
X1253569Y238466D01*
X1252393Y237564D01*
X1251217Y238466D01*
X1248167Y239730D01*
X1246163Y239994D01*
Y227513D01*
Y215032D01*
X1248167Y215296D01*
X1251217Y216559D01*
X1252393Y217461D01*
X1253569Y216559D01*
X1256620Y215296D01*
X1258623Y215032D01*
Y227513D01*
Y239994D01*
D02*
G37*
G36*
X85400Y264727D02*
X82779Y264382D01*
X80337Y263370D01*
X78239Y261761D01*
X76630Y259663D01*
X75618Y257221D01*
X75273Y254600D01*
X75618Y251979D01*
X76630Y249537D01*
X78239Y247439D01*
X80337Y245830D01*
X82779Y244818D01*
X85400Y244473D01*
X88021Y244818D01*
X90463Y245830D01*
X92561Y247439D01*
X94170Y249537D01*
X95182Y251979D01*
X95527Y254600D01*
X95182Y257221D01*
X94170Y259663D01*
X92561Y261761D01*
X90463Y263370D01*
X88021Y264382D01*
X85400Y264727D01*
D02*
G37*
G36*
X110800D02*
X108179Y264382D01*
X105737Y263370D01*
X103639Y261761D01*
X102030Y259663D01*
X101018Y257221D01*
X100673Y254600D01*
X101018Y251979D01*
X102030Y249537D01*
X103639Y247439D01*
X105737Y245830D01*
X108179Y244818D01*
X110800Y244473D01*
X113421Y244818D01*
X115863Y245830D01*
X117961Y247439D01*
X119570Y249537D01*
X120582Y251979D01*
X120927Y254600D01*
X120582Y257221D01*
X119570Y259663D01*
X117961Y261761D01*
X115863Y263370D01*
X113421Y264382D01*
X110800Y264727D01*
D02*
G37*
G36*
X34600D02*
X31979Y264382D01*
X29537Y263370D01*
X27439Y261761D01*
X25830Y259663D01*
X24818Y257221D01*
X24473Y254600D01*
X24818Y251979D01*
X25830Y249537D01*
X27439Y247439D01*
X29537Y245830D01*
X31979Y244818D01*
X34600Y244473D01*
X37221Y244818D01*
X39663Y245830D01*
X41761Y247439D01*
X43370Y249537D01*
X44382Y251979D01*
X44727Y254600D01*
X44382Y257221D01*
X43370Y259663D01*
X41761Y261761D01*
X39663Y263370D01*
X37221Y264382D01*
X34600Y264727D01*
D02*
G37*
G36*
X60000D02*
X57379Y264382D01*
X54937Y263370D01*
X52839Y261761D01*
X51230Y259663D01*
X50218Y257221D01*
X49873Y254600D01*
X50218Y251979D01*
X51230Y249537D01*
X52839Y247439D01*
X54937Y245830D01*
X57379Y244818D01*
X60000Y244473D01*
X62621Y244818D01*
X65063Y245830D01*
X67161Y247439D01*
X68770Y249537D01*
X69782Y251979D01*
X70127Y254600D01*
X69782Y257221D01*
X68770Y259663D01*
X67161Y261761D01*
X65063Y263370D01*
X62621Y264382D01*
X60000Y264727D01*
D02*
G37*
G36*
X467500Y500090D02*
X452500D01*
X451509Y499893D01*
X450669Y499331D01*
X450107Y498491D01*
X449910Y497500D01*
Y495139D01*
X270194D01*
X268228Y494748D01*
X266560Y493634D01*
X206141Y433215D01*
X205207Y433092D01*
X203616Y432433D01*
X202250Y431384D01*
X201201Y430018D01*
X200542Y428427D01*
X200318Y426720D01*
X200542Y425013D01*
X201201Y423422D01*
X202250Y422056D01*
X203616Y421007D01*
X205207Y420348D01*
X206914Y420124D01*
X208621Y420348D01*
X210212Y421007D01*
X211578Y422056D01*
X212627Y423422D01*
X213286Y425013D01*
X213409Y425947D01*
X272323Y484861D01*
X449910D01*
Y482500D01*
X450107Y481509D01*
X450669Y480669D01*
X451509Y480107D01*
X452500Y479910D01*
X454861D01*
Y383280D01*
X455252Y381314D01*
X456366Y379646D01*
X517066Y318946D01*
X518733Y317832D01*
X520700Y317441D01*
X756861D01*
Y313512D01*
X754839Y311961D01*
X753230Y309863D01*
X752218Y307421D01*
X751873Y304800D01*
X752218Y302179D01*
X753230Y299737D01*
X754839Y297639D01*
X756937Y296030D01*
X759379Y295018D01*
X762000Y294673D01*
X764621Y295018D01*
X767063Y296030D01*
X769161Y297639D01*
X770770Y299737D01*
X771782Y302179D01*
X772127Y304800D01*
X771782Y307421D01*
X770770Y309863D01*
X769161Y311961D01*
X767139Y313512D01*
Y317441D01*
X833531D01*
X892986Y257986D01*
X894653Y256872D01*
X896620Y256481D01*
X950371D01*
X976485Y230368D01*
X976608Y229433D01*
X977267Y227842D01*
X978316Y226476D01*
X979682Y225427D01*
X981273Y224768D01*
X982980Y224544D01*
X984687Y224768D01*
X986278Y225427D01*
X987644Y226476D01*
X988693Y227842D01*
X989352Y229433D01*
X989576Y231140D01*
X989352Y232847D01*
X988693Y234438D01*
X987644Y235804D01*
X986278Y236853D01*
X984687Y237512D01*
X983753Y237635D01*
X956134Y265254D01*
X954466Y266368D01*
X952500Y266759D01*
X898748D01*
X839294Y326214D01*
X837626Y327328D01*
X835660Y327719D01*
X522828D01*
X465139Y385409D01*
Y479910D01*
X467500D01*
X468491Y480107D01*
X469331Y480669D01*
X469893Y481509D01*
X470090Y482500D01*
Y497500D01*
X469893Y498491D01*
X469331Y499331D01*
X468491Y499893D01*
X467500Y500090D01*
D02*
G37*
G36*
X1229904Y191947D02*
X1226788Y191537D01*
X1223884Y190334D01*
X1221390Y188420D01*
X1219476Y185926D01*
X1218274Y183022D01*
X1218112Y181792D01*
X1216883Y181631D01*
X1213979Y180428D01*
X1211486Y178514D01*
X1209572Y176021D01*
X1208369Y173116D01*
X1207959Y170000D01*
X1208369Y166884D01*
X1209572Y163979D01*
X1211486Y161486D01*
X1213979Y159572D01*
X1216883Y158369D01*
X1220000Y157959D01*
X1223117Y158369D01*
X1226021Y159572D01*
X1228514Y161486D01*
X1230428Y163979D01*
X1231631Y166884D01*
X1231793Y168114D01*
X1233021Y168275D01*
X1235414Y169267D01*
X1235949Y168569D01*
X1238569Y166559D01*
X1241620Y165296D01*
X1244893Y164865D01*
X1248167Y165296D01*
X1251217Y166559D01*
X1252393Y167461D01*
X1253569Y166559D01*
X1256620Y165296D01*
X1259893Y164865D01*
X1263167Y165296D01*
X1266217Y166559D01*
X1268837Y168569D01*
X1270847Y171189D01*
X1272110Y174239D01*
X1272541Y177513D01*
X1272110Y180786D01*
X1270847Y183837D01*
X1268837Y186456D01*
X1266217Y188466D01*
X1263167Y189730D01*
X1259893Y190161D01*
X1256620Y189730D01*
X1253569Y188466D01*
X1252393Y187564D01*
X1251217Y188466D01*
X1248167Y189730D01*
X1244893Y190161D01*
X1241620Y189730D01*
X1238569Y188466D01*
X1238452Y188377D01*
X1238419Y188420D01*
X1235925Y190334D01*
X1233021Y191537D01*
X1229904Y191947D01*
D02*
G37*
G36*
X1197393Y169180D02*
X1197226Y169147D01*
X1197055Y169158D01*
X1194706Y168849D01*
X1194385Y168740D01*
X1194053Y168674D01*
X1191863Y167767D01*
X1191582Y167579D01*
X1191278Y167429D01*
X1189398Y165986D01*
X1189174Y165732D01*
X1188920Y165508D01*
X1187477Y163628D01*
X1187327Y163324D01*
X1187139Y163043D01*
X1186232Y160853D01*
X1186166Y160521D01*
X1186057Y160200D01*
X1185748Y157851D01*
X1185770Y157513D01*
X1185748Y157175D01*
X1186057Y154825D01*
X1186166Y154504D01*
X1186232Y154172D01*
X1187139Y151983D01*
X1187327Y151701D01*
X1187477Y151397D01*
X1188920Y149517D01*
X1189174Y149294D01*
X1189398Y149039D01*
X1191278Y147597D01*
X1191582Y147447D01*
X1191863Y147259D01*
X1194053Y146352D01*
X1194385Y146286D01*
X1194706Y146177D01*
X1197055Y145868D01*
X1197226Y145879D01*
X1197393Y145845D01*
X1197561Y145879D01*
X1197731Y145868D01*
X1200081Y146177D01*
X1200402Y146286D01*
X1200734Y146352D01*
X1202923Y147259D01*
X1203205Y147447D01*
X1203509Y147597D01*
X1205389Y149039D01*
X1205612Y149294D01*
X1205867Y149517D01*
X1207309Y151397D01*
X1207459Y151701D01*
X1207647Y151983D01*
X1208554Y154172D01*
X1208620Y154504D01*
X1208729Y154825D01*
X1209038Y157175D01*
X1209016Y157513D01*
X1209038Y157851D01*
X1208729Y160200D01*
X1208620Y160521D01*
X1208554Y160853D01*
X1207647Y163043D01*
X1207459Y163324D01*
X1207309Y163628D01*
X1205867Y165508D01*
X1205612Y165732D01*
X1205389Y165986D01*
X1203509Y167429D01*
X1203205Y167579D01*
X1202923Y167767D01*
X1200734Y168674D01*
X1200402Y168740D01*
X1200081Y168849D01*
X1197731Y169158D01*
X1197561Y169147D01*
X1197393Y169180D01*
D02*
G37*
G36*
X160330Y162959D02*
X158979Y162782D01*
X156537Y161770D01*
X154439Y160161D01*
X152830Y158063D01*
X151818Y155621D01*
X151641Y154270D01*
X160330D01*
Y162959D01*
D02*
G37*
G36*
X162870D02*
Y154270D01*
X171559D01*
X171382Y155621D01*
X170370Y158063D01*
X168761Y160161D01*
X166663Y161770D01*
X164221Y162782D01*
X162870Y162959D01*
D02*
G37*
G36*
X1164880Y191947D02*
X1161764Y191537D01*
X1158860Y190334D01*
X1156366Y188420D01*
X1156333Y188377D01*
X1156217Y188466D01*
X1153167Y189730D01*
X1149893Y190161D01*
X1146620Y189730D01*
X1143569Y188466D01*
X1142393Y187564D01*
X1141217Y188466D01*
X1138167Y189730D01*
X1134893Y190161D01*
X1131620Y189730D01*
X1128569Y188466D01*
X1125949Y186456D01*
X1123940Y183837D01*
X1122676Y180786D01*
X1122245Y177513D01*
X1122676Y174239D01*
X1123940Y171189D01*
X1125949Y168569D01*
X1128569Y166559D01*
X1131620Y165296D01*
X1134893Y164865D01*
X1138167Y165296D01*
X1141217Y166559D01*
X1142393Y167461D01*
X1143569Y166559D01*
X1146620Y165296D01*
X1149893Y164865D01*
X1153167Y165296D01*
X1156217Y166559D01*
X1158837Y168569D01*
X1159372Y169266D01*
X1161764Y168275D01*
X1162995Y168113D01*
X1163157Y166884D01*
X1164360Y163979D01*
X1166274Y161486D01*
X1168767Y159572D01*
X1171672Y158369D01*
X1174788Y157959D01*
X1177905Y158369D01*
X1180808Y159572D01*
X1183302Y161486D01*
X1185216Y163979D01*
X1186419Y166884D01*
X1186829Y170000D01*
X1186419Y173116D01*
X1185216Y176021D01*
X1183302Y178514D01*
X1180808Y180428D01*
X1177905Y181631D01*
X1176673Y181793D01*
X1176511Y183022D01*
X1175308Y185926D01*
X1173395Y188420D01*
X1170901Y190334D01*
X1167997Y191537D01*
X1164880Y191947D01*
D02*
G37*
G36*
X1221270Y246898D02*
Y235024D01*
X1220000D01*
Y233754D01*
X1208126D01*
X1208369Y231908D01*
X1209572Y229004D01*
X1211486Y226510D01*
X1213979Y224596D01*
X1216883Y223393D01*
X1218112Y223232D01*
X1218274Y222001D01*
X1219476Y219097D01*
X1221390Y216604D01*
X1223884Y214690D01*
X1226788Y213487D01*
X1228634Y213244D01*
Y225118D01*
X1231174D01*
Y213244D01*
X1233021Y213487D01*
X1235925Y214690D01*
X1238419Y216604D01*
X1238453Y216648D01*
X1238569Y216559D01*
X1241620Y215296D01*
X1243623Y215032D01*
Y227513D01*
Y239994D01*
X1241620Y239730D01*
X1238569Y238466D01*
X1235949Y236456D01*
X1235413Y235758D01*
X1233021Y236749D01*
X1231793Y236910D01*
X1231631Y238140D01*
X1230428Y241045D01*
X1228514Y243538D01*
X1226021Y245452D01*
X1223117Y246655D01*
X1221270Y246898D01*
D02*
G37*
G36*
X1272374Y226243D02*
X1261163D01*
Y215032D01*
X1263167Y215296D01*
X1266217Y216559D01*
X1268837Y218569D01*
X1270847Y221189D01*
X1272110Y224239D01*
X1272374Y226243D01*
D02*
G37*
G36*
X259080Y207256D02*
X257373Y207032D01*
X255782Y206373D01*
X254416Y205324D01*
X253367Y203958D01*
X252708Y202367D01*
X252484Y200660D01*
X252612Y199686D01*
X235053Y182127D01*
X234211Y180867D01*
X233915Y179380D01*
Y162258D01*
X232737Y161770D01*
X230639Y160161D01*
X229030Y158063D01*
X228018Y155621D01*
X227673Y153000D01*
X228018Y150379D01*
X229030Y147937D01*
X230639Y145839D01*
X232737Y144230D01*
X235179Y143218D01*
X237800Y142873D01*
X240421Y143218D01*
X242863Y144230D01*
X244961Y145839D01*
X246570Y147937D01*
X247582Y150379D01*
X247927Y153000D01*
X247582Y155621D01*
X246570Y158063D01*
X244961Y160161D01*
X242863Y161770D01*
X241685Y162258D01*
Y177771D01*
X258106Y194192D01*
X259080Y194064D01*
X260787Y194288D01*
X262378Y194947D01*
X263744Y195996D01*
X264793Y197362D01*
X265452Y198953D01*
X265676Y200660D01*
X265452Y202367D01*
X264793Y203958D01*
X263744Y205324D01*
X262378Y206373D01*
X260787Y207032D01*
X259080Y207256D01*
D02*
G37*
G36*
X510540Y245356D02*
X508833Y245132D01*
X507242Y244473D01*
X505876Y243424D01*
X504827Y242058D01*
X504168Y240467D01*
X503944Y238760D01*
X504168Y237053D01*
X504827Y235462D01*
X505876Y234096D01*
X507242Y233047D01*
X508833Y232388D01*
X510540Y232164D01*
X511514Y232292D01*
X535733Y208073D01*
X536993Y207231D01*
X538480Y206935D01*
X614497D01*
X615096Y206156D01*
X616462Y205107D01*
X618053Y204448D01*
X619760Y204224D01*
X621467Y204448D01*
X623058Y205107D01*
X624424Y206156D01*
X625473Y207522D01*
X626132Y209113D01*
X626356Y210820D01*
X626132Y212527D01*
X625473Y214118D01*
X624424Y215484D01*
X623058Y216533D01*
X621467Y217192D01*
X619760Y217416D01*
X618053Y217192D01*
X616462Y216533D01*
X615096Y215484D01*
X614497Y214705D01*
X540089D01*
X517008Y237786D01*
X517136Y238760D01*
X516912Y240467D01*
X516253Y242058D01*
X515204Y243424D01*
X513838Y244473D01*
X512247Y245132D01*
X510540Y245356D01*
D02*
G37*
G36*
X136200Y264727D02*
X133579Y264382D01*
X131137Y263370D01*
X129039Y261761D01*
X127430Y259663D01*
X126418Y257221D01*
X126073Y254600D01*
X126418Y251979D01*
X127430Y249537D01*
X129039Y247439D01*
X131137Y245830D01*
X133579Y244818D01*
X136200Y244473D01*
X138821Y244818D01*
X141263Y245830D01*
X143361Y247439D01*
X144970Y249537D01*
X145982Y251979D01*
X146327Y254600D01*
X145982Y257221D01*
X144970Y259663D01*
X143361Y261761D01*
X141263Y263370D01*
X138821Y264382D01*
X136200Y264727D01*
D02*
G37*
G36*
X85400Y290127D02*
X82779Y289782D01*
X80337Y288770D01*
X78239Y287161D01*
X76630Y285063D01*
X75618Y282621D01*
X75273Y280000D01*
X75618Y277379D01*
X76630Y274937D01*
X78239Y272839D01*
X80337Y271230D01*
X82779Y270218D01*
X85400Y269873D01*
X88021Y270218D01*
X90463Y271230D01*
X92561Y272839D01*
X94170Y274937D01*
X95182Y277379D01*
X95527Y280000D01*
X95182Y282621D01*
X94170Y285063D01*
X92561Y287161D01*
X90463Y288770D01*
X88021Y289782D01*
X85400Y290127D01*
D02*
G37*
G36*
X110800D02*
X108179Y289782D01*
X105737Y288770D01*
X103639Y287161D01*
X102030Y285063D01*
X101018Y282621D01*
X100673Y280000D01*
X101018Y277379D01*
X102030Y274937D01*
X103639Y272839D01*
X105737Y271230D01*
X108179Y270218D01*
X110800Y269873D01*
X113421Y270218D01*
X115863Y271230D01*
X117961Y272839D01*
X119570Y274937D01*
X120582Y277379D01*
X120927Y280000D01*
X120582Y282621D01*
X119570Y285063D01*
X117961Y287161D01*
X115863Y288770D01*
X113421Y289782D01*
X110800Y290127D01*
D02*
G37*
G36*
X34600D02*
X31979Y289782D01*
X29537Y288770D01*
X27439Y287161D01*
X25830Y285063D01*
X24818Y282621D01*
X24473Y280000D01*
X24818Y277379D01*
X25830Y274937D01*
X27439Y272839D01*
X29537Y271230D01*
X31979Y270218D01*
X34600Y269873D01*
X37221Y270218D01*
X39663Y271230D01*
X41761Y272839D01*
X43370Y274937D01*
X44382Y277379D01*
X44727Y280000D01*
X44382Y282621D01*
X43370Y285063D01*
X41761Y287161D01*
X39663Y288770D01*
X37221Y289782D01*
X34600Y290127D01*
D02*
G37*
G36*
X60000D02*
X57379Y289782D01*
X54937Y288770D01*
X52839Y287161D01*
X51230Y285063D01*
X50218Y282621D01*
X49873Y280000D01*
X50218Y277379D01*
X51230Y274937D01*
X52839Y272839D01*
X54937Y271230D01*
X57379Y270218D01*
X60000Y269873D01*
X62621Y270218D01*
X65063Y271230D01*
X67161Y272839D01*
X68770Y274937D01*
X69782Y277379D01*
X70127Y280000D01*
X69782Y282621D01*
X68770Y285063D01*
X67161Y287161D01*
X65063Y288770D01*
X62621Y289782D01*
X60000Y290127D01*
D02*
G37*
G36*
X136200D02*
X133579Y289782D01*
X131137Y288770D01*
X129039Y287161D01*
X127430Y285063D01*
X126418Y282621D01*
X126073Y280000D01*
X126418Y277379D01*
X127430Y274937D01*
X129039Y272839D01*
X131137Y271230D01*
X133579Y270218D01*
X136200Y269873D01*
X138821Y270218D01*
X141263Y271230D01*
X143361Y272839D01*
X144970Y274937D01*
X145982Y277379D01*
X146327Y280000D01*
X145982Y282621D01*
X144970Y285063D01*
X143361Y287161D01*
X141263Y288770D01*
X138821Y289782D01*
X136200Y290127D01*
D02*
G37*
G36*
X212400D02*
X209779Y289782D01*
X207337Y288770D01*
X205239Y287161D01*
X203630Y285063D01*
X202618Y282621D01*
X202273Y280000D01*
X202618Y277379D01*
X203630Y274937D01*
X205239Y272839D01*
X207337Y271230D01*
X209779Y270218D01*
X212400Y269873D01*
X215021Y270218D01*
X217463Y271230D01*
X219561Y272839D01*
X221170Y274937D01*
X222182Y277379D01*
X222527Y280000D01*
X222182Y282621D01*
X221170Y285063D01*
X219561Y287161D01*
X217463Y288770D01*
X215021Y289782D01*
X212400Y290127D01*
D02*
G37*
G36*
X237800D02*
X235179Y289782D01*
X232737Y288770D01*
X230639Y287161D01*
X229030Y285063D01*
X228018Y282621D01*
X227673Y280000D01*
X228018Y277379D01*
X229030Y274937D01*
X230639Y272839D01*
X232737Y271230D01*
X235179Y270218D01*
X237800Y269873D01*
X240421Y270218D01*
X242863Y271230D01*
X244961Y272839D01*
X246570Y274937D01*
X247582Y277379D01*
X247927Y280000D01*
X247582Y282621D01*
X246570Y285063D01*
X244961Y287161D01*
X242863Y288770D01*
X240421Y289782D01*
X237800Y290127D01*
D02*
G37*
G36*
X161600D02*
X158979Y289782D01*
X156537Y288770D01*
X154439Y287161D01*
X152830Y285063D01*
X151818Y282621D01*
X151473Y280000D01*
X151818Y277379D01*
X152830Y274937D01*
X154439Y272839D01*
X156537Y271230D01*
X158979Y270218D01*
X161600Y269873D01*
X164221Y270218D01*
X166663Y271230D01*
X168761Y272839D01*
X170370Y274937D01*
X171382Y277379D01*
X171727Y280000D01*
X171382Y282621D01*
X170370Y285063D01*
X168761Y287161D01*
X166663Y288770D01*
X164221Y289782D01*
X161600Y290127D01*
D02*
G37*
G36*
X187000D02*
X184379Y289782D01*
X181937Y288770D01*
X179839Y287161D01*
X178230Y285063D01*
X177218Y282621D01*
X176873Y280000D01*
X177218Y277379D01*
X178230Y274937D01*
X179839Y272839D01*
X181937Y271230D01*
X184379Y270218D01*
X187000Y269873D01*
X189621Y270218D01*
X192063Y271230D01*
X194161Y272839D01*
X195770Y274937D01*
X196782Y277379D01*
X197127Y280000D01*
X196782Y282621D01*
X195770Y285063D01*
X194161Y287161D01*
X192063Y288770D01*
X189621Y289782D01*
X187000Y290127D01*
D02*
G37*
G36*
X1197393Y259180D02*
X1197226Y259147D01*
X1197055Y259158D01*
X1194706Y258849D01*
X1194385Y258740D01*
X1194053Y258674D01*
X1191863Y257767D01*
X1191582Y257579D01*
X1191278Y257429D01*
X1189398Y255986D01*
X1189174Y255732D01*
X1188920Y255508D01*
X1187477Y253628D01*
X1187327Y253324D01*
X1187139Y253043D01*
X1186232Y250853D01*
X1186166Y250521D01*
X1186057Y250200D01*
X1185748Y247851D01*
X1185770Y247513D01*
X1185748Y247175D01*
X1186057Y244825D01*
X1186166Y244505D01*
X1186232Y244172D01*
X1187139Y241983D01*
X1187327Y241701D01*
X1187477Y241397D01*
X1188920Y239517D01*
X1189174Y239294D01*
X1189398Y239039D01*
X1191278Y237597D01*
X1191582Y237447D01*
X1191863Y237259D01*
X1194053Y236352D01*
X1194385Y236286D01*
X1194706Y236177D01*
X1197055Y235868D01*
X1197226Y235879D01*
X1197393Y235845D01*
X1197561Y235879D01*
X1197731Y235868D01*
X1200081Y236177D01*
X1200402Y236286D01*
X1200734Y236352D01*
X1202923Y237259D01*
X1203205Y237447D01*
X1203509Y237597D01*
X1205389Y239039D01*
X1205612Y239294D01*
X1205867Y239517D01*
X1207309Y241397D01*
X1207459Y241701D01*
X1207647Y241983D01*
X1208554Y244172D01*
X1208620Y244505D01*
X1208729Y244825D01*
X1209038Y247175D01*
X1209016Y247513D01*
X1209038Y247851D01*
X1208729Y250200D01*
X1208620Y250521D01*
X1208554Y250853D01*
X1207647Y253043D01*
X1207459Y253324D01*
X1207309Y253628D01*
X1205867Y255508D01*
X1205612Y255732D01*
X1205389Y255986D01*
X1203509Y257429D01*
X1203205Y257579D01*
X1202923Y257767D01*
X1200734Y258674D01*
X1200402Y258740D01*
X1200081Y258849D01*
X1197731Y259158D01*
X1197561Y259147D01*
X1197393Y259180D01*
D02*
G37*
G36*
X212400Y264727D02*
X209779Y264382D01*
X207337Y263370D01*
X205239Y261761D01*
X203630Y259663D01*
X202618Y257221D01*
X202273Y254600D01*
X202618Y251979D01*
X203630Y249537D01*
X205239Y247439D01*
X207337Y245830D01*
X209779Y244818D01*
X212400Y244473D01*
X215021Y244818D01*
X217463Y245830D01*
X219561Y247439D01*
X221170Y249537D01*
X222182Y251979D01*
X222527Y254600D01*
X222182Y257221D01*
X221170Y259663D01*
X219561Y261761D01*
X217463Y263370D01*
X215021Y264382D01*
X212400Y264727D01*
D02*
G37*
G36*
X237800D02*
X235179Y264382D01*
X232737Y263370D01*
X230639Y261761D01*
X229030Y259663D01*
X228018Y257221D01*
X227673Y254600D01*
X228018Y251979D01*
X229030Y249537D01*
X230639Y247439D01*
X232737Y245830D01*
X235179Y244818D01*
X237800Y244473D01*
X240421Y244818D01*
X242863Y245830D01*
X244961Y247439D01*
X246570Y249537D01*
X247582Y251979D01*
X247927Y254600D01*
X247582Y257221D01*
X246570Y259663D01*
X244961Y261761D01*
X242863Y263370D01*
X240421Y264382D01*
X237800Y264727D01*
D02*
G37*
G36*
X161600D02*
X158979Y264382D01*
X156537Y263370D01*
X154439Y261761D01*
X152830Y259663D01*
X151818Y257221D01*
X151473Y254600D01*
X151818Y251979D01*
X152830Y249537D01*
X154439Y247439D01*
X156537Y245830D01*
X158979Y244818D01*
X161600Y244473D01*
X164221Y244818D01*
X166663Y245830D01*
X168761Y247439D01*
X170370Y249537D01*
X171382Y251979D01*
X171727Y254600D01*
X171382Y257221D01*
X170370Y259663D01*
X168761Y261761D01*
X166663Y263370D01*
X164221Y264382D01*
X161600Y264727D01*
D02*
G37*
G36*
X187000D02*
X184379Y264382D01*
X181937Y263370D01*
X179839Y261761D01*
X178230Y259663D01*
X177218Y257221D01*
X176873Y254600D01*
X177218Y251979D01*
X178230Y249537D01*
X179839Y247439D01*
X181937Y245830D01*
X184379Y244818D01*
X187000Y244473D01*
X189621Y244818D01*
X192063Y245830D01*
X194161Y247439D01*
X195770Y249537D01*
X196782Y251979D01*
X197127Y254600D01*
X196782Y257221D01*
X195770Y259663D01*
X194161Y261761D01*
X192063Y263370D01*
X189621Y264382D01*
X187000Y264727D01*
D02*
G37*
G36*
X263200D02*
X260579Y264382D01*
X258137Y263370D01*
X256039Y261761D01*
X254430Y259663D01*
X253418Y257221D01*
X253073Y254600D01*
X253418Y251979D01*
X254430Y249537D01*
X256039Y247439D01*
X258137Y245830D01*
X260579Y244818D01*
X263200Y244473D01*
X265821Y244818D01*
X268263Y245830D01*
X270361Y247439D01*
X271970Y249537D01*
X272982Y251979D01*
X273327Y254600D01*
X272982Y257221D01*
X271970Y259663D01*
X270361Y261761D01*
X268263Y263370D01*
X265821Y264382D01*
X263200Y264727D01*
D02*
G37*
G36*
X339400D02*
X336779Y264382D01*
X334337Y263370D01*
X332239Y261761D01*
X330630Y259663D01*
X329618Y257221D01*
X329273Y254600D01*
X329618Y251979D01*
X330630Y249537D01*
X332239Y247439D01*
X334337Y245830D01*
X336779Y244818D01*
X339400Y244473D01*
X342021Y244818D01*
X344463Y245830D01*
X346561Y247439D01*
X348170Y249537D01*
X349182Y251979D01*
X349527Y254600D01*
X349182Y257221D01*
X348170Y259663D01*
X346561Y261761D01*
X344463Y263370D01*
X342021Y264382D01*
X339400Y264727D01*
D02*
G37*
G36*
X364800D02*
X362179Y264382D01*
X359737Y263370D01*
X357639Y261761D01*
X356030Y259663D01*
X355018Y257221D01*
X354673Y254600D01*
X355018Y251979D01*
X356030Y249537D01*
X357639Y247439D01*
X359737Y245830D01*
X362179Y244818D01*
X364800Y244473D01*
X367421Y244818D01*
X369863Y245830D01*
X371961Y247439D01*
X373570Y249537D01*
X374582Y251979D01*
X374927Y254600D01*
X374582Y257221D01*
X373570Y259663D01*
X371961Y261761D01*
X369863Y263370D01*
X367421Y264382D01*
X364800Y264727D01*
D02*
G37*
G36*
X288600D02*
X285979Y264382D01*
X283537Y263370D01*
X281439Y261761D01*
X279830Y259663D01*
X278818Y257221D01*
X278473Y254600D01*
X278818Y251979D01*
X279830Y249537D01*
X281439Y247439D01*
X283537Y245830D01*
X285979Y244818D01*
X288600Y244473D01*
X291221Y244818D01*
X293663Y245830D01*
X295761Y247439D01*
X297370Y249537D01*
X298382Y251979D01*
X298727Y254600D01*
X298382Y257221D01*
X297370Y259663D01*
X295761Y261761D01*
X293663Y263370D01*
X291221Y264382D01*
X288600Y264727D01*
D02*
G37*
G36*
X314000D02*
X311379Y264382D01*
X308937Y263370D01*
X306839Y261761D01*
X305230Y259663D01*
X304218Y257221D01*
X303873Y254600D01*
X304218Y251979D01*
X305230Y249537D01*
X306839Y247439D01*
X308937Y245830D01*
X311379Y244818D01*
X314000Y244473D01*
X316621Y244818D01*
X319063Y245830D01*
X321161Y247439D01*
X322770Y249537D01*
X323782Y251979D01*
X324127Y254600D01*
X323782Y257221D01*
X322770Y259663D01*
X321161Y261761D01*
X319063Y263370D01*
X316621Y264382D01*
X314000Y264727D01*
D02*
G37*
G36*
X137470Y162959D02*
Y154270D01*
X146159D01*
X145982Y155621D01*
X144970Y158063D01*
X143361Y160161D01*
X141263Y161770D01*
X138821Y162782D01*
X137470Y162959D01*
D02*
G37*
G36*
X339400Y137727D02*
X336779Y137382D01*
X334337Y136370D01*
X332239Y134761D01*
X330630Y132663D01*
X329618Y130221D01*
X329273Y127600D01*
X329618Y124979D01*
X330630Y122537D01*
X332239Y120439D01*
X334337Y118830D01*
X336779Y117818D01*
X339400Y117473D01*
X342021Y117818D01*
X344463Y118830D01*
X346561Y120439D01*
X348170Y122537D01*
X349182Y124979D01*
X349527Y127600D01*
X349182Y130221D01*
X348170Y132663D01*
X346561Y134761D01*
X344463Y136370D01*
X342021Y137382D01*
X339400Y137727D01*
D02*
G37*
G36*
X364800D02*
X362179Y137382D01*
X359737Y136370D01*
X357639Y134761D01*
X356030Y132663D01*
X355018Y130221D01*
X354673Y127600D01*
X355018Y124979D01*
X356030Y122537D01*
X357639Y120439D01*
X359737Y118830D01*
X362179Y117818D01*
X364800Y117473D01*
X367421Y117818D01*
X369863Y118830D01*
X371961Y120439D01*
X373570Y122537D01*
X374582Y124979D01*
X374927Y127600D01*
X374582Y130221D01*
X373570Y132663D01*
X371961Y134761D01*
X369863Y136370D01*
X367421Y137382D01*
X364800Y137727D01*
D02*
G37*
G36*
X288600D02*
X285979Y137382D01*
X283537Y136370D01*
X281439Y134761D01*
X279830Y132663D01*
X278818Y130221D01*
X278473Y127600D01*
X278818Y124979D01*
X279830Y122537D01*
X281439Y120439D01*
X283537Y118830D01*
X285979Y117818D01*
X288600Y117473D01*
X291221Y117818D01*
X293663Y118830D01*
X295761Y120439D01*
X297370Y122537D01*
X298382Y124979D01*
X298727Y127600D01*
X298382Y130221D01*
X297370Y132663D01*
X295761Y134761D01*
X293663Y136370D01*
X291221Y137382D01*
X288600Y137727D01*
D02*
G37*
G36*
X314000D02*
X311379Y137382D01*
X308937Y136370D01*
X306839Y134761D01*
X305230Y132663D01*
X304218Y130221D01*
X303873Y127600D01*
X304218Y124979D01*
X305230Y122537D01*
X306839Y120439D01*
X308937Y118830D01*
X311379Y117818D01*
X314000Y117473D01*
X316621Y117818D01*
X319063Y118830D01*
X321161Y120439D01*
X322770Y122537D01*
X323782Y124979D01*
X324127Y127600D01*
X323782Y130221D01*
X322770Y132663D01*
X321161Y134761D01*
X319063Y136370D01*
X316621Y137382D01*
X314000Y137727D01*
D02*
G37*
G36*
X134930Y126330D02*
X126241D01*
X126418Y124979D01*
X127430Y122537D01*
X129039Y120439D01*
X131137Y118830D01*
X133579Y117818D01*
X134930Y117641D01*
Y126330D01*
D02*
G37*
G36*
X171559D02*
X162870D01*
Y117641D01*
X164221Y117818D01*
X166663Y118830D01*
X168761Y120439D01*
X170370Y122537D01*
X171382Y124979D01*
X171559Y126330D01*
D02*
G37*
G36*
X134930Y137559D02*
X133579Y137382D01*
X131137Y136370D01*
X129039Y134761D01*
X127430Y132663D01*
X126418Y130221D01*
X126241Y128870D01*
X134930D01*
Y137559D01*
D02*
G37*
G36*
X146159Y126330D02*
X137470D01*
Y117641D01*
X138821Y117818D01*
X141263Y118830D01*
X143361Y120439D01*
X144970Y122537D01*
X145982Y124979D01*
X146159Y126330D01*
D02*
G37*
G36*
X160330D02*
X151641D01*
X151818Y124979D01*
X152830Y122537D01*
X154439Y120439D01*
X156537Y118830D01*
X158979Y117818D01*
X160330Y117641D01*
Y126330D01*
D02*
G37*
G36*
X263200Y137727D02*
X260579Y137382D01*
X258137Y136370D01*
X256039Y134761D01*
X254430Y132663D01*
X253418Y130221D01*
X253073Y127600D01*
X253418Y124979D01*
X254430Y122537D01*
X256039Y120439D01*
X258137Y118830D01*
X260579Y117818D01*
X263200Y117473D01*
X265821Y117818D01*
X268263Y118830D01*
X270361Y120439D01*
X271970Y122537D01*
X272982Y124979D01*
X273327Y127600D01*
X272982Y130221D01*
X271970Y132663D01*
X270361Y134761D01*
X268263Y136370D01*
X265821Y137382D01*
X263200Y137727D01*
D02*
G37*
G36*
X34600D02*
X31979Y137382D01*
X29537Y136370D01*
X27439Y134761D01*
X25830Y132663D01*
X24818Y130221D01*
X24473Y127600D01*
X24818Y124979D01*
X25830Y122537D01*
X27439Y120439D01*
X29537Y118830D01*
X31979Y117818D01*
X34600Y117473D01*
X37221Y117818D01*
X39663Y118830D01*
X41761Y120439D01*
X43370Y122537D01*
X44382Y124979D01*
X44727Y127600D01*
X44382Y130221D01*
X43370Y132663D01*
X41761Y134761D01*
X39663Y136370D01*
X37221Y137382D01*
X34600Y137727D01*
D02*
G37*
G36*
X60000D02*
X57379Y137382D01*
X54937Y136370D01*
X52839Y134761D01*
X51230Y132663D01*
X50218Y130221D01*
X49873Y127600D01*
X50218Y124979D01*
X51230Y122537D01*
X52839Y120439D01*
X54937Y118830D01*
X57379Y117818D01*
X60000Y117473D01*
X62621Y117818D01*
X65063Y118830D01*
X67161Y120439D01*
X68770Y122537D01*
X69782Y124979D01*
X70127Y127600D01*
X69782Y130221D01*
X68770Y132663D01*
X67161Y134761D01*
X65063Y136370D01*
X62621Y137382D01*
X60000Y137727D01*
D02*
G37*
G36*
X50000Y70639D02*
X45974Y70243D01*
X42102Y69068D01*
X38533Y67161D01*
X35406Y64594D01*
X32839Y61467D01*
X30932Y57898D01*
X29757Y54026D01*
X29361Y50000D01*
X29757Y45974D01*
X30932Y42102D01*
X32839Y38533D01*
X35406Y35406D01*
X38533Y32839D01*
X42102Y30932D01*
X45974Y29757D01*
X50000Y29361D01*
X54026Y29757D01*
X57898Y30932D01*
X61467Y32839D01*
X64594Y35406D01*
X67161Y38533D01*
X69068Y42102D01*
X70243Y45974D01*
X70639Y50000D01*
X70243Y54026D01*
X69068Y57898D01*
X67161Y61467D01*
X64594Y64594D01*
X61467Y67161D01*
X57898Y69068D01*
X54026Y70243D01*
X50000Y70639D01*
D02*
G37*
G36*
X1350000D02*
X1345974Y70243D01*
X1342102Y69068D01*
X1338533Y67161D01*
X1335406Y64594D01*
X1332839Y61467D01*
X1330932Y57898D01*
X1329757Y54026D01*
X1329361Y50000D01*
X1329757Y45974D01*
X1330932Y42102D01*
X1332839Y38533D01*
X1335406Y35406D01*
X1338533Y32839D01*
X1342102Y30932D01*
X1345974Y29757D01*
X1350000Y29361D01*
X1354026Y29757D01*
X1357898Y30932D01*
X1361467Y32839D01*
X1364594Y35406D01*
X1367161Y38533D01*
X1369068Y42102D01*
X1370243Y45974D01*
X1370639Y50000D01*
X1370243Y54026D01*
X1369068Y57898D01*
X1367161Y61467D01*
X1364594Y64594D01*
X1361467Y67161D01*
X1357898Y69068D01*
X1354026Y70243D01*
X1350000Y70639D01*
D02*
G37*
G36*
X85400Y137727D02*
X82779Y137382D01*
X80337Y136370D01*
X78239Y134761D01*
X76630Y132663D01*
X75618Y130221D01*
X75273Y127600D01*
X75618Y124979D01*
X76630Y122537D01*
X78239Y120439D01*
X80337Y118830D01*
X82779Y117818D01*
X85400Y117473D01*
X88021Y117818D01*
X90463Y118830D01*
X92561Y120439D01*
X94170Y122537D01*
X95182Y124979D01*
X95527Y127600D01*
X95182Y130221D01*
X94170Y132663D01*
X92561Y134761D01*
X90463Y136370D01*
X88021Y137382D01*
X85400Y137727D01*
D02*
G37*
G36*
X212400D02*
X209779Y137382D01*
X207337Y136370D01*
X205239Y134761D01*
X203630Y132663D01*
X202618Y130221D01*
X202273Y127600D01*
X202618Y124979D01*
X203630Y122537D01*
X205239Y120439D01*
X207337Y118830D01*
X209779Y117818D01*
X212400Y117473D01*
X215021Y117818D01*
X217463Y118830D01*
X219561Y120439D01*
X221170Y122537D01*
X222182Y124979D01*
X222527Y127600D01*
X222182Y130221D01*
X221170Y132663D01*
X219561Y134761D01*
X217463Y136370D01*
X215021Y137382D01*
X212400Y137727D01*
D02*
G37*
G36*
X237800D02*
X235179Y137382D01*
X232737Y136370D01*
X230639Y134761D01*
X229030Y132663D01*
X228018Y130221D01*
X227673Y127600D01*
X228018Y124979D01*
X229030Y122537D01*
X230639Y120439D01*
X232737Y118830D01*
X235179Y117818D01*
X237800Y117473D01*
X240421Y117818D01*
X242863Y118830D01*
X244961Y120439D01*
X246570Y122537D01*
X247582Y124979D01*
X247927Y127600D01*
X247582Y130221D01*
X246570Y132663D01*
X244961Y134761D01*
X242863Y136370D01*
X240421Y137382D01*
X237800Y137727D01*
D02*
G37*
G36*
X110800D02*
X108179Y137382D01*
X105737Y136370D01*
X103639Y134761D01*
X102030Y132663D01*
X101018Y130221D01*
X100673Y127600D01*
X101018Y124979D01*
X102030Y122537D01*
X103639Y120439D01*
X105737Y118830D01*
X108179Y117818D01*
X110800Y117473D01*
X113421Y117818D01*
X115863Y118830D01*
X117961Y120439D01*
X119570Y122537D01*
X120582Y124979D01*
X120927Y127600D01*
X120582Y130221D01*
X119570Y132663D01*
X117961Y134761D01*
X115863Y136370D01*
X113421Y137382D01*
X110800Y137727D01*
D02*
G37*
G36*
X187000D02*
X184379Y137382D01*
X181937Y136370D01*
X179839Y134761D01*
X178230Y132663D01*
X177218Y130221D01*
X176873Y127600D01*
X177218Y124979D01*
X178230Y122537D01*
X179839Y120439D01*
X181937Y118830D01*
X184379Y117818D01*
X187000Y117473D01*
X189621Y117818D01*
X192063Y118830D01*
X194161Y120439D01*
X195770Y122537D01*
X196782Y124979D01*
X197127Y127600D01*
X196782Y130221D01*
X195770Y132663D01*
X194161Y134761D01*
X192063Y136370D01*
X189621Y137382D01*
X187000Y137727D01*
D02*
G37*
G36*
X137470Y137559D02*
Y128870D01*
X146159D01*
X145982Y130221D01*
X144970Y132663D01*
X143361Y134761D01*
X141263Y136370D01*
X138821Y137382D01*
X137470Y137559D01*
D02*
G37*
G36*
X339400Y163127D02*
X336779Y162782D01*
X334337Y161770D01*
X332239Y160161D01*
X330630Y158063D01*
X329618Y155621D01*
X329273Y153000D01*
X329618Y150379D01*
X330630Y147937D01*
X332239Y145839D01*
X334337Y144230D01*
X336779Y143218D01*
X339400Y142873D01*
X342021Y143218D01*
X344463Y144230D01*
X346561Y145839D01*
X348170Y147937D01*
X349182Y150379D01*
X349527Y153000D01*
X349182Y155621D01*
X348170Y158063D01*
X346561Y160161D01*
X344463Y161770D01*
X342021Y162782D01*
X339400Y163127D01*
D02*
G37*
G36*
X364800D02*
X362179Y162782D01*
X359737Y161770D01*
X357639Y160161D01*
X356030Y158063D01*
X355018Y155621D01*
X354673Y153000D01*
X355018Y150379D01*
X356030Y147937D01*
X357639Y145839D01*
X359737Y144230D01*
X362179Y143218D01*
X364800Y142873D01*
X367421Y143218D01*
X369863Y144230D01*
X371961Y145839D01*
X373570Y147937D01*
X374582Y150379D01*
X374927Y153000D01*
X374582Y155621D01*
X373570Y158063D01*
X371961Y160161D01*
X369863Y161770D01*
X367421Y162782D01*
X364800Y163127D01*
D02*
G37*
G36*
X288600D02*
X285979Y162782D01*
X283537Y161770D01*
X281439Y160161D01*
X279830Y158063D01*
X278818Y155621D01*
X278473Y153000D01*
X278818Y150379D01*
X279830Y147937D01*
X281439Y145839D01*
X283537Y144230D01*
X285979Y143218D01*
X288600Y142873D01*
X291221Y143218D01*
X293663Y144230D01*
X295761Y145839D01*
X297370Y147937D01*
X298382Y150379D01*
X298727Y153000D01*
X298382Y155621D01*
X297370Y158063D01*
X295761Y160161D01*
X293663Y161770D01*
X291221Y162782D01*
X288600Y163127D01*
D02*
G37*
G36*
X314000D02*
X311379Y162782D01*
X308937Y161770D01*
X306839Y160161D01*
X305230Y158063D01*
X304218Y155621D01*
X303873Y153000D01*
X304218Y150379D01*
X305230Y147937D01*
X306839Y145839D01*
X308937Y144230D01*
X311379Y143218D01*
X314000Y142873D01*
X316621Y143218D01*
X319063Y144230D01*
X321161Y145839D01*
X322770Y147937D01*
X323782Y150379D01*
X324127Y153000D01*
X323782Y155621D01*
X322770Y158063D01*
X321161Y160161D01*
X319063Y161770D01*
X316621Y162782D01*
X314000Y163127D01*
D02*
G37*
G36*
X134930Y151730D02*
X126241D01*
X126418Y150379D01*
X127430Y147937D01*
X129039Y145839D01*
X131137Y144230D01*
X133579Y143218D01*
X134930Y143041D01*
Y151730D01*
D02*
G37*
G36*
X171559D02*
X162870D01*
Y143041D01*
X164221Y143218D01*
X166663Y144230D01*
X168761Y145839D01*
X170370Y147937D01*
X171382Y150379D01*
X171559Y151730D01*
D02*
G37*
G36*
X134930Y162959D02*
X133579Y162782D01*
X131137Y161770D01*
X129039Y160161D01*
X127430Y158063D01*
X126418Y155621D01*
X126241Y154270D01*
X134930D01*
Y162959D01*
D02*
G37*
G36*
X146159Y151730D02*
X137470D01*
Y143041D01*
X138821Y143218D01*
X141263Y144230D01*
X143361Y145839D01*
X144970Y147937D01*
X145982Y150379D01*
X146159Y151730D01*
D02*
G37*
G36*
X160330D02*
X151641D01*
X151818Y150379D01*
X152830Y147937D01*
X154439Y145839D01*
X156537Y144230D01*
X158979Y143218D01*
X160330Y143041D01*
Y151730D01*
D02*
G37*
G36*
X263200Y163127D02*
X260579Y162782D01*
X258137Y161770D01*
X256039Y160161D01*
X254430Y158063D01*
X253418Y155621D01*
X253073Y153000D01*
X253418Y150379D01*
X254430Y147937D01*
X256039Y145839D01*
X258137Y144230D01*
X260579Y143218D01*
X263200Y142873D01*
X265821Y143218D01*
X268263Y144230D01*
X270361Y145839D01*
X271970Y147937D01*
X272982Y150379D01*
X273327Y153000D01*
X272982Y155621D01*
X271970Y158063D01*
X270361Y160161D01*
X268263Y161770D01*
X265821Y162782D01*
X263200Y163127D01*
D02*
G37*
G36*
X1104900Y247896D02*
X1103193Y247672D01*
X1101602Y247013D01*
X1100236Y245964D01*
X1099187Y244598D01*
X1098528Y243007D01*
X1098405Y242073D01*
X1030146Y173814D01*
X1029032Y172146D01*
X1028641Y170180D01*
Y148826D01*
X1028067Y148078D01*
X1027408Y146487D01*
X1027184Y144780D01*
X1027408Y143073D01*
X1028067Y141482D01*
X1029116Y140116D01*
X1030482Y139067D01*
X1032073Y138408D01*
X1033780Y138184D01*
X1035487Y138408D01*
X1037078Y139067D01*
X1038444Y140116D01*
X1039493Y141482D01*
X1040152Y143073D01*
X1040376Y144780D01*
X1040152Y146487D01*
X1039493Y148078D01*
X1038919Y148826D01*
Y168051D01*
X1105673Y234805D01*
X1106607Y234928D01*
X1108198Y235587D01*
X1109564Y236636D01*
X1110613Y238002D01*
X1111272Y239593D01*
X1111496Y241300D01*
X1111272Y243007D01*
X1110613Y244598D01*
X1109564Y245964D01*
X1108198Y247013D01*
X1106607Y247672D01*
X1104900Y247896D01*
D02*
G37*
G36*
X34600Y163127D02*
X31979Y162782D01*
X29537Y161770D01*
X27439Y160161D01*
X25830Y158063D01*
X24818Y155621D01*
X24473Y153000D01*
X24818Y150379D01*
X25830Y147937D01*
X27439Y145839D01*
X29537Y144230D01*
X31979Y143218D01*
X34600Y142873D01*
X37221Y143218D01*
X39663Y144230D01*
X41761Y145839D01*
X43370Y147937D01*
X44382Y150379D01*
X44727Y153000D01*
X44382Y155621D01*
X43370Y158063D01*
X41761Y160161D01*
X39663Y161770D01*
X37221Y162782D01*
X34600Y163127D01*
D02*
G37*
G36*
X160330Y137559D02*
X158979Y137382D01*
X156537Y136370D01*
X154439Y134761D01*
X152830Y132663D01*
X151818Y130221D01*
X151641Y128870D01*
X160330D01*
Y137559D01*
D02*
G37*
G36*
X162870D02*
Y128870D01*
X171559D01*
X171382Y130221D01*
X170370Y132663D01*
X168761Y134761D01*
X166663Y136370D01*
X164221Y137382D01*
X162870Y137559D01*
D02*
G37*
G36*
X60000Y163127D02*
X57379Y162782D01*
X54937Y161770D01*
X52839Y160161D01*
X51230Y158063D01*
X50218Y155621D01*
X49873Y153000D01*
X50218Y150379D01*
X51230Y147937D01*
X52839Y145839D01*
X54937Y144230D01*
X57379Y143218D01*
X60000Y142873D01*
X62621Y143218D01*
X65063Y144230D01*
X67161Y145839D01*
X68770Y147937D01*
X69782Y150379D01*
X70127Y153000D01*
X69782Y155621D01*
X68770Y158063D01*
X67161Y160161D01*
X65063Y161770D01*
X62621Y162782D01*
X60000Y163127D01*
D02*
G37*
G36*
X187000D02*
X184379Y162782D01*
X181937Y161770D01*
X179839Y160161D01*
X178230Y158063D01*
X177218Y155621D01*
X176873Y153000D01*
X177218Y150379D01*
X178230Y147937D01*
X179839Y145839D01*
X181937Y144230D01*
X184379Y143218D01*
X187000Y142873D01*
X189621Y143218D01*
X192063Y144230D01*
X194161Y145839D01*
X195770Y147937D01*
X196782Y150379D01*
X197127Y153000D01*
X196782Y155621D01*
X195770Y158063D01*
X194161Y160161D01*
X192063Y161770D01*
X189621Y162782D01*
X187000Y163127D01*
D02*
G37*
G36*
X212400D02*
X209779Y162782D01*
X207337Y161770D01*
X205239Y160161D01*
X203630Y158063D01*
X202618Y155621D01*
X202273Y153000D01*
X202618Y150379D01*
X203630Y147937D01*
X205239Y145839D01*
X207337Y144230D01*
X209779Y143218D01*
X212400Y142873D01*
X215021Y143218D01*
X217463Y144230D01*
X219561Y145839D01*
X221170Y147937D01*
X222182Y150379D01*
X222527Y153000D01*
X222182Y155621D01*
X221170Y158063D01*
X219561Y160161D01*
X217463Y161770D01*
X215021Y162782D01*
X212400Y163127D01*
D02*
G37*
G36*
X85400D02*
X82779Y162782D01*
X80337Y161770D01*
X78239Y160161D01*
X76630Y158063D01*
X75618Y155621D01*
X75273Y153000D01*
X75618Y150379D01*
X76630Y147937D01*
X78239Y145839D01*
X80337Y144230D01*
X82779Y143218D01*
X85400Y142873D01*
X88021Y143218D01*
X90463Y144230D01*
X92561Y145839D01*
X94170Y147937D01*
X95182Y150379D01*
X95527Y153000D01*
X95182Y155621D01*
X94170Y158063D01*
X92561Y160161D01*
X90463Y161770D01*
X88021Y162782D01*
X85400Y163127D01*
D02*
G37*
G36*
X110800D02*
X108179Y162782D01*
X105737Y161770D01*
X103639Y160161D01*
X102030Y158063D01*
X101018Y155621D01*
X100673Y153000D01*
X101018Y150379D01*
X102030Y147937D01*
X103639Y145839D01*
X105737Y144230D01*
X108179Y143218D01*
X110800Y142873D01*
X113421Y143218D01*
X115863Y144230D01*
X117961Y145839D01*
X119570Y147937D01*
X120582Y150379D01*
X120927Y153000D01*
X120582Y155621D01*
X119570Y158063D01*
X117961Y160161D01*
X115863Y161770D01*
X113421Y162782D01*
X110800Y163127D01*
D02*
G37*
G36*
X1267000Y580175D02*
X1264367Y579828D01*
X1261913Y578812D01*
X1259805Y577195D01*
X1258188Y575088D01*
X1257172Y572634D01*
X1256825Y570000D01*
X1257172Y567366D01*
X1258188Y564912D01*
X1259805Y562805D01*
X1261913Y561188D01*
X1264367Y560172D01*
X1267000Y559825D01*
X1269633Y560172D01*
X1272087Y561188D01*
X1274195Y562805D01*
X1275812Y564912D01*
X1276828Y567366D01*
X1277175Y570000D01*
X1276828Y572634D01*
X1275812Y575088D01*
X1274195Y577195D01*
X1272087Y578812D01*
X1269633Y579828D01*
X1267000Y580175D01*
D02*
G37*
G36*
X458730Y576159D02*
X457379Y575982D01*
X454937Y574970D01*
X452839Y573361D01*
X451230Y571263D01*
X450218Y568821D01*
X450041Y567470D01*
X458730D01*
Y576159D01*
D02*
G37*
G36*
Y564930D02*
X450041D01*
X450218Y563579D01*
X451230Y561137D01*
X452839Y559039D01*
X454937Y557430D01*
X457379Y556418D01*
X458730Y556241D01*
Y564930D01*
D02*
G37*
G36*
X1140000Y580175D02*
X1137366Y579828D01*
X1134912Y578812D01*
X1132805Y577195D01*
X1131188Y575088D01*
X1130172Y572634D01*
X1129825Y570000D01*
X1130172Y567366D01*
X1131188Y564912D01*
X1132805Y562805D01*
X1134912Y561188D01*
X1137366Y560172D01*
X1140000Y559825D01*
X1142634Y560172D01*
X1145088Y561188D01*
X1147195Y562805D01*
X1148812Y564912D01*
X1149828Y567366D01*
X1150175Y570000D01*
X1149828Y572634D01*
X1148812Y575088D01*
X1147195Y577195D01*
X1145088Y578812D01*
X1142634Y579828D01*
X1140000Y580175D01*
D02*
G37*
G36*
X461270Y576159D02*
Y567470D01*
X469959D01*
X469782Y568821D01*
X468770Y571263D01*
X467161Y573361D01*
X465063Y574970D01*
X462621Y575982D01*
X461270Y576159D01*
D02*
G37*
G36*
X1049020Y776216D02*
X1047313Y775992D01*
X1045722Y775333D01*
X1044356Y774284D01*
X1043307Y772918D01*
X1042648Y771327D01*
X1042424Y769620D01*
X1042648Y767913D01*
X1043307Y766322D01*
X1044356Y764956D01*
X1045135Y764357D01*
Y599011D01*
X1043865Y598580D01*
X1043524Y599024D01*
X1042158Y600073D01*
X1040567Y600732D01*
X1040205Y600779D01*
Y646050D01*
X1040395Y647005D01*
Y756883D01*
X1040984Y757336D01*
X1042033Y758702D01*
X1042692Y760293D01*
X1042916Y762000D01*
X1042692Y763707D01*
X1042033Y765298D01*
X1040984Y766664D01*
X1039618Y767713D01*
X1038027Y768372D01*
X1036320Y768596D01*
X1034613Y768372D01*
X1033022Y767713D01*
X1031656Y766664D01*
X1030607Y765298D01*
X1030038Y763925D01*
X1029315Y763673D01*
X1028658Y763637D01*
X1028284Y764124D01*
X1026918Y765173D01*
X1025327Y765832D01*
X1023620Y766056D01*
X1021913Y765832D01*
X1020322Y765173D01*
X1020029Y764948D01*
X1018802Y765276D01*
X1018793Y765298D01*
X1017744Y766664D01*
X1016378Y767713D01*
X1014787Y768372D01*
X1013080Y768596D01*
X1011373Y768372D01*
X1009782Y767713D01*
X1008416Y766664D01*
X1007367Y765298D01*
X1006708Y763707D01*
X1006484Y762000D01*
X1006708Y760293D01*
X1007367Y758702D01*
X1008416Y757336D01*
X1009195Y756737D01*
Y477900D01*
X1009491Y476413D01*
X1010333Y475153D01*
X1014612Y470874D01*
X1014484Y469900D01*
X1014708Y468193D01*
X1015367Y466602D01*
X1016416Y465236D01*
X1017782Y464187D01*
X1019373Y463528D01*
X1021080Y463304D01*
X1022787Y463528D01*
X1024378Y464187D01*
X1025744Y465236D01*
X1026793Y466602D01*
X1027452Y468193D01*
X1027676Y469900D01*
X1027452Y471607D01*
X1026793Y473198D01*
X1025744Y474564D01*
X1024378Y475613D01*
X1022787Y476272D01*
X1021080Y476496D01*
X1020106Y476368D01*
X1016965Y479509D01*
Y755304D01*
X1018235Y755735D01*
X1018956Y754796D01*
X1020322Y753747D01*
X1021913Y753088D01*
X1023620Y752864D01*
X1024815Y751765D01*
Y655503D01*
X1024036Y654904D01*
X1022987Y653538D01*
X1022328Y651947D01*
X1022104Y650240D01*
X1022328Y648533D01*
X1022987Y646942D01*
X1024036Y645576D01*
X1025402Y644527D01*
X1026993Y643868D01*
X1028700Y643644D01*
X1030407Y643868D01*
X1031165Y644182D01*
X1032435Y643334D01*
Y596900D01*
X1032564Y596251D01*
X1032488Y596067D01*
X1032264Y594360D01*
X1032488Y592653D01*
X1033147Y591062D01*
X1034196Y589696D01*
X1035562Y588647D01*
X1037153Y587988D01*
X1038860Y587764D01*
X1040567Y587988D01*
X1042158Y588647D01*
X1043524Y589696D01*
X1043865Y590140D01*
X1045135Y589709D01*
Y586923D01*
X1044356Y586324D01*
X1043307Y584958D01*
X1042648Y583367D01*
X1042424Y581660D01*
X1042648Y579953D01*
X1043307Y578362D01*
X1044356Y576996D01*
X1045722Y575947D01*
X1047313Y575288D01*
X1049020Y575064D01*
X1050727Y575288D01*
X1052318Y575947D01*
X1053684Y576996D01*
X1054733Y578362D01*
X1055392Y579953D01*
X1055616Y581660D01*
X1055392Y583367D01*
X1054733Y584958D01*
X1053684Y586324D01*
X1052905Y586923D01*
Y764357D01*
X1053684Y764956D01*
X1054733Y766322D01*
X1055392Y767913D01*
X1055616Y769620D01*
X1055392Y771327D01*
X1054733Y772918D01*
X1053684Y774284D01*
X1052318Y775333D01*
X1050727Y775992D01*
X1049020Y776216D01*
D02*
G37*
G36*
X1140000Y630975D02*
X1137366Y630628D01*
X1134912Y629612D01*
X1132805Y627995D01*
X1131188Y625887D01*
X1130172Y623433D01*
X1129825Y620800D01*
X1130172Y618167D01*
X1131188Y615713D01*
X1132805Y613605D01*
X1134912Y611988D01*
X1137366Y610972D01*
X1140000Y610625D01*
X1142634Y610972D01*
X1145088Y611988D01*
X1147195Y613605D01*
X1148812Y615713D01*
X1149828Y618167D01*
X1150175Y620800D01*
X1149828Y623433D01*
X1148812Y625887D01*
X1147195Y627995D01*
X1145088Y629612D01*
X1142634Y630628D01*
X1140000Y630975D01*
D02*
G37*
G36*
Y605575D02*
X1137366Y605228D01*
X1134912Y604212D01*
X1132805Y602595D01*
X1131188Y600488D01*
X1130172Y598033D01*
X1129825Y595400D01*
X1130172Y592766D01*
X1131188Y590312D01*
X1132805Y588205D01*
X1134912Y586588D01*
X1137366Y585572D01*
X1140000Y585225D01*
X1142634Y585572D01*
X1145088Y586588D01*
X1147195Y588205D01*
X1148812Y590312D01*
X1149828Y592766D01*
X1150175Y595400D01*
X1149828Y598033D01*
X1148812Y600488D01*
X1147195Y602595D01*
X1145088Y604212D01*
X1142634Y605228D01*
X1140000Y605575D01*
D02*
G37*
G36*
X1267000D02*
X1264367Y605228D01*
X1261913Y604212D01*
X1259805Y602595D01*
X1258188Y600488D01*
X1257172Y598033D01*
X1256825Y595400D01*
X1257172Y592766D01*
X1258188Y590312D01*
X1259805Y588205D01*
X1261913Y586588D01*
X1264367Y585572D01*
X1267000Y585225D01*
X1269633Y585572D01*
X1272087Y586588D01*
X1274195Y588205D01*
X1275812Y590312D01*
X1276828Y592766D01*
X1277175Y595400D01*
X1276828Y598033D01*
X1275812Y600488D01*
X1274195Y602595D01*
X1272087Y604212D01*
X1269633Y605228D01*
X1267000Y605575D01*
D02*
G37*
G36*
X469959Y564930D02*
X461270D01*
Y556241D01*
X462621Y556418D01*
X465063Y557430D01*
X467161Y559039D01*
X468770Y561137D01*
X469782Y563579D01*
X469959Y564930D01*
D02*
G37*
G36*
X356870Y536643D02*
Y523990D01*
X369523D01*
X369210Y526367D01*
X367803Y529765D01*
X365564Y532683D01*
X362645Y534923D01*
X359247Y536330D01*
X356870Y536643D01*
D02*
G37*
G36*
X460000Y550927D02*
X457379Y550582D01*
X454937Y549570D01*
X452839Y547961D01*
X451230Y545863D01*
X450218Y543421D01*
X449873Y540800D01*
X450218Y538179D01*
X451230Y535737D01*
X452839Y533639D01*
X454937Y532030D01*
X457379Y531018D01*
X460000Y530673D01*
X462621Y531018D01*
X465063Y532030D01*
X467161Y533639D01*
X468770Y535737D01*
X469782Y538179D01*
X470127Y540800D01*
X469782Y543421D01*
X468770Y545863D01*
X467161Y547961D01*
X465063Y549570D01*
X462621Y550582D01*
X460000Y550927D01*
D02*
G37*
G36*
X1267000Y529375D02*
X1264367Y529028D01*
X1261913Y528012D01*
X1259805Y526395D01*
X1258188Y524287D01*
X1257172Y521833D01*
X1256825Y519200D01*
X1257172Y516567D01*
X1258188Y514113D01*
X1259805Y512005D01*
X1261913Y510388D01*
X1264367Y509372D01*
X1267000Y509025D01*
X1269633Y509372D01*
X1272087Y510388D01*
X1274195Y512005D01*
X1275812Y514113D01*
X1276828Y516567D01*
X1277175Y519200D01*
X1276828Y521833D01*
X1275812Y524287D01*
X1274195Y526395D01*
X1272087Y528012D01*
X1269633Y529028D01*
X1267000Y529375D01*
D02*
G37*
G36*
X354330Y536643D02*
X351953Y536330D01*
X348555Y534923D01*
X345636Y532683D01*
X343397Y529765D01*
X341990Y526367D01*
X341677Y523990D01*
X354330D01*
Y536643D01*
D02*
G37*
G36*
X940000Y550927D02*
X937379Y550582D01*
X934937Y549570D01*
X932839Y547961D01*
X931230Y545863D01*
X930218Y543421D01*
X929873Y540800D01*
X930218Y538179D01*
X931230Y535737D01*
X932839Y533639D01*
X934937Y532030D01*
X937379Y531018D01*
X940000Y530673D01*
X942621Y531018D01*
X945063Y532030D01*
X947161Y533639D01*
X948770Y535737D01*
X949782Y538179D01*
X950127Y540800D01*
X949782Y543421D01*
X948770Y545863D01*
X947161Y547961D01*
X945063Y549570D01*
X942621Y550582D01*
X940000Y550927D01*
D02*
G37*
G36*
X1061720Y786376D02*
X1060013Y786152D01*
X1058422Y785493D01*
X1057056Y784444D01*
X1056007Y783078D01*
X1055348Y781487D01*
X1055124Y779780D01*
X1055348Y778073D01*
X1056007Y776482D01*
X1057056Y775116D01*
X1057835Y774517D01*
Y561523D01*
X1057056Y560924D01*
X1056007Y559558D01*
X1055348Y557967D01*
X1055124Y556260D01*
X1055348Y554553D01*
X1056007Y552962D01*
X1057056Y551596D01*
X1058422Y550547D01*
X1060013Y549888D01*
X1061720Y549664D01*
X1063427Y549888D01*
X1065018Y550547D01*
X1066384Y551596D01*
X1067433Y552962D01*
X1068092Y554553D01*
X1068316Y556260D01*
X1068092Y557967D01*
X1067433Y559558D01*
X1066384Y560924D01*
X1065605Y561523D01*
Y774517D01*
X1066384Y775116D01*
X1067433Y776482D01*
X1068092Y778073D01*
X1068316Y779780D01*
X1068092Y781487D01*
X1067433Y783078D01*
X1066384Y784444D01*
X1065018Y785493D01*
X1063427Y786152D01*
X1061720Y786376D01*
D02*
G37*
G36*
X947500Y576290D02*
X932500D01*
X931509Y576093D01*
X930669Y575531D01*
X930107Y574691D01*
X929910Y573700D01*
Y558700D01*
X930107Y557709D01*
X930669Y556869D01*
X931509Y556307D01*
X932500Y556110D01*
X947500D01*
X948491Y556307D01*
X949331Y556869D01*
X949893Y557709D01*
X950090Y558700D01*
Y573700D01*
X949893Y574691D01*
X949331Y575531D01*
X948491Y576093D01*
X947500Y576290D01*
D02*
G37*
G36*
X1140000Y554775D02*
X1137366Y554428D01*
X1134912Y553412D01*
X1132805Y551795D01*
X1131188Y549688D01*
X1130172Y547234D01*
X1129825Y544600D01*
X1130172Y541967D01*
X1131188Y539512D01*
X1132805Y537405D01*
X1134912Y535788D01*
X1137366Y534772D01*
X1140000Y534425D01*
X1142634Y534772D01*
X1145088Y535788D01*
X1147195Y537405D01*
X1148812Y539512D01*
X1149828Y541967D01*
X1150175Y544600D01*
X1149828Y547234D01*
X1148812Y549688D01*
X1147195Y551795D01*
X1145088Y553412D01*
X1142634Y554428D01*
X1140000Y554775D01*
D02*
G37*
G36*
X1267000D02*
X1264367Y554428D01*
X1261913Y553412D01*
X1259805Y551795D01*
X1258188Y549688D01*
X1257172Y547234D01*
X1256825Y544600D01*
X1257172Y541967D01*
X1258188Y539512D01*
X1259805Y537405D01*
X1261913Y535788D01*
X1264367Y534772D01*
X1267000Y534425D01*
X1269633Y534772D01*
X1272087Y535788D01*
X1274195Y537405D01*
X1275812Y539512D01*
X1276828Y541967D01*
X1277175Y544600D01*
X1276828Y547234D01*
X1275812Y549688D01*
X1274195Y551795D01*
X1272087Y553412D01*
X1269633Y554428D01*
X1267000Y554775D01*
D02*
G37*
G36*
X1265730Y619530D02*
X1256992D01*
X1257172Y618167D01*
X1258188Y615713D01*
X1259805Y613605D01*
X1261913Y611988D01*
X1264367Y610972D01*
X1265730Y610792D01*
Y619530D01*
D02*
G37*
G36*
X229837Y718730D02*
X201270D01*
Y690163D01*
X204683Y690431D01*
X209251Y691528D01*
X213591Y693326D01*
X217597Y695780D01*
X221169Y698831D01*
X224220Y702403D01*
X226674Y706409D01*
X228472Y710749D01*
X229569Y715317D01*
X229837Y718730D01*
D02*
G37*
G36*
X198730Y749837D02*
X195317Y749569D01*
X190749Y748472D01*
X186409Y746674D01*
X182403Y744220D01*
X178831Y741169D01*
X175780Y737597D01*
X173326Y733591D01*
X171528Y729251D01*
X170431Y724683D01*
X170163Y721270D01*
X198730D01*
Y749837D01*
D02*
G37*
G36*
X350000Y749937D02*
X345317Y749569D01*
X340749Y748472D01*
X336409Y746674D01*
X332403Y744220D01*
X328831Y741169D01*
X325780Y737597D01*
X323326Y733591D01*
X321528Y729251D01*
X320431Y724683D01*
X320063Y720000D01*
X320431Y715317D01*
X321528Y710749D01*
X323326Y706409D01*
X325780Y702403D01*
X328831Y698831D01*
X332403Y695780D01*
X336409Y693326D01*
X340749Y691528D01*
X345317Y690431D01*
X350000Y690063D01*
X354683Y690431D01*
X359251Y691528D01*
X363591Y693326D01*
X367597Y695780D01*
X371169Y698831D01*
X374220Y702403D01*
X376674Y706409D01*
X378472Y710749D01*
X379569Y715317D01*
X379937Y720000D01*
X379569Y724683D01*
X378472Y729251D01*
X376674Y733591D01*
X374220Y737597D01*
X371169Y741169D01*
X367597Y744220D01*
X363591Y746674D01*
X359251Y748472D01*
X354683Y749569D01*
X350000Y749937D01*
D02*
G37*
G36*
X198730Y718730D02*
X170163D01*
X170431Y715317D01*
X171528Y710749D01*
X173326Y706409D01*
X175780Y702403D01*
X178831Y698831D01*
X182403Y695780D01*
X186409Y693326D01*
X190749Y691528D01*
X195317Y690431D01*
X198730Y690163D01*
Y718730D01*
D02*
G37*
G36*
X201270Y749837D02*
Y721270D01*
X229837D01*
X229569Y724683D01*
X228472Y729251D01*
X226674Y733591D01*
X224220Y737597D01*
X221169Y741169D01*
X217597Y744220D01*
X213591Y746674D01*
X209251Y748472D01*
X204683Y749569D01*
X201270Y749837D01*
D02*
G37*
G36*
X50000Y770639D02*
X45974Y770243D01*
X42102Y769068D01*
X38533Y767161D01*
X35406Y764594D01*
X32839Y761467D01*
X30932Y757898D01*
X29757Y754026D01*
X29361Y750000D01*
X29757Y745974D01*
X30932Y742102D01*
X32839Y738533D01*
X35406Y735406D01*
X38533Y732839D01*
X42102Y730932D01*
X45974Y729757D01*
X50000Y729361D01*
X54026Y729757D01*
X57898Y730932D01*
X61467Y732839D01*
X64594Y735406D01*
X67161Y738533D01*
X69068Y742102D01*
X70243Y745974D01*
X70639Y750000D01*
X70243Y754026D01*
X69068Y757898D01*
X67161Y761467D01*
X64594Y764594D01*
X61467Y767161D01*
X57898Y769068D01*
X54026Y770243D01*
X50000Y770639D01*
D02*
G37*
G36*
X1350000D02*
X1345974Y770243D01*
X1342102Y769068D01*
X1338533Y767161D01*
X1335406Y764594D01*
X1332839Y761467D01*
X1330932Y757898D01*
X1329757Y754026D01*
X1329361Y750000D01*
X1329757Y745974D01*
X1330932Y742102D01*
X1332839Y738533D01*
X1335406Y735406D01*
X1338533Y732839D01*
X1342102Y730932D01*
X1345974Y729757D01*
X1350000Y729361D01*
X1354026Y729757D01*
X1357898Y730932D01*
X1361467Y732839D01*
X1364594Y735406D01*
X1367161Y738533D01*
X1369068Y742102D01*
X1370243Y745974D01*
X1370639Y750000D01*
X1370243Y754026D01*
X1369068Y757898D01*
X1367161Y761467D01*
X1364594Y764594D01*
X1361467Y767161D01*
X1357898Y769068D01*
X1354026Y770243D01*
X1350000Y770639D01*
D02*
G37*
G36*
X545000Y723667D02*
X544874Y723642D01*
X544746Y723655D01*
X541610Y723346D01*
X541366Y723272D01*
X541112Y723247D01*
X538096Y722332D01*
X537871Y722212D01*
X537627Y722138D01*
X534847Y720652D01*
X534650Y720490D01*
X534425Y720370D01*
X531989Y718370D01*
X531827Y718173D01*
X531630Y718011D01*
X529630Y715575D01*
X529510Y715350D01*
X529348Y715153D01*
X527862Y712373D01*
X527788Y712129D01*
X527668Y711904D01*
X526753Y708888D01*
X526728Y708634D01*
X526654Y708390D01*
X526345Y705254D01*
X526370Y705000D01*
X526345Y704746D01*
X526654Y701610D01*
X526728Y701366D01*
X526753Y701112D01*
X527668Y698096D01*
X527788Y697871D01*
X527862Y697627D01*
X529348Y694847D01*
X529510Y694650D01*
X529630Y694425D01*
X531630Y691989D01*
X531827Y691827D01*
X531989Y691630D01*
X534425Y689630D01*
X534650Y689510D01*
X534847Y689348D01*
X537627Y687862D01*
X537871Y687788D01*
X538096Y687668D01*
X541112Y686753D01*
X541366Y686728D01*
X541610Y686654D01*
X544746Y686345D01*
X544874Y686358D01*
X545000Y686333D01*
X545126Y686358D01*
X545254Y686345D01*
X548390Y686654D01*
X548634Y686728D01*
X548888Y686753D01*
X551904Y687668D01*
X552129Y687788D01*
X552373Y687862D01*
X555153Y689348D01*
X555350Y689510D01*
X555575Y689630D01*
X558011Y691630D01*
X558173Y691827D01*
X558370Y691989D01*
X560370Y694425D01*
X560490Y694650D01*
X560652Y694847D01*
X562138Y697627D01*
X562212Y697871D01*
X562332Y698096D01*
X563247Y701112D01*
X563272Y701366D01*
X563346Y701610D01*
X563655Y704746D01*
X563630Y705000D01*
X563655Y705254D01*
X563346Y708390D01*
X563272Y708634D01*
X563247Y708888D01*
X562332Y711904D01*
X562212Y712129D01*
X562138Y712373D01*
X560652Y715153D01*
X560490Y715350D01*
X560370Y715575D01*
X558370Y718011D01*
X558173Y718173D01*
X558011Y718370D01*
X555575Y720370D01*
X555350Y720490D01*
X555153Y720652D01*
X552373Y722138D01*
X552129Y722212D01*
X551904Y722332D01*
X548888Y723247D01*
X548634Y723272D01*
X548390Y723346D01*
X545254Y723655D01*
X545126Y723642D01*
X545000Y723667D01*
D02*
G37*
G36*
X855000D02*
X854874Y723642D01*
X854746Y723655D01*
X851610Y723346D01*
X851366Y723272D01*
X851112Y723247D01*
X848096Y722332D01*
X847871Y722212D01*
X847627Y722138D01*
X844847Y720652D01*
X844650Y720490D01*
X844425Y720370D01*
X841989Y718370D01*
X841827Y718173D01*
X841630Y718011D01*
X839630Y715575D01*
X839510Y715350D01*
X839348Y715153D01*
X837862Y712373D01*
X837788Y712129D01*
X837668Y711904D01*
X836753Y708888D01*
X836728Y708634D01*
X836654Y708390D01*
X836345Y705254D01*
X836370Y705000D01*
X836345Y704746D01*
X836654Y701610D01*
X836728Y701366D01*
X836753Y701112D01*
X837668Y698096D01*
X837788Y697871D01*
X837862Y697627D01*
X839348Y694847D01*
X839510Y694650D01*
X839630Y694425D01*
X841630Y691989D01*
X841827Y691827D01*
X841989Y691630D01*
X844425Y689630D01*
X844650Y689510D01*
X844847Y689348D01*
X847627Y687862D01*
X847871Y687788D01*
X848096Y687668D01*
X851112Y686753D01*
X851366Y686728D01*
X851610Y686654D01*
X854746Y686345D01*
X854874Y686358D01*
X855000Y686333D01*
X855126Y686358D01*
X855254Y686345D01*
X858390Y686654D01*
X858634Y686728D01*
X858888Y686753D01*
X861904Y687668D01*
X862129Y687788D01*
X862373Y687862D01*
X865153Y689348D01*
X865350Y689510D01*
X865575Y689630D01*
X868011Y691630D01*
X868173Y691827D01*
X868370Y691989D01*
X870370Y694425D01*
X870490Y694650D01*
X870652Y694847D01*
X872138Y697627D01*
X872212Y697871D01*
X872332Y698096D01*
X873247Y701112D01*
X873272Y701366D01*
X873346Y701610D01*
X873655Y704746D01*
X873630Y705000D01*
X873655Y705254D01*
X873346Y708390D01*
X873272Y708634D01*
X873247Y708888D01*
X872332Y711904D01*
X872212Y712129D01*
X872138Y712373D01*
X870652Y715153D01*
X870490Y715350D01*
X870370Y715575D01*
X868370Y718011D01*
X868173Y718173D01*
X868011Y718370D01*
X865575Y720370D01*
X865350Y720490D01*
X865153Y720652D01*
X862373Y722138D01*
X862129Y722212D01*
X861904Y722332D01*
X858888Y723247D01*
X858634Y723272D01*
X858390Y723346D01*
X855254Y723655D01*
X855126Y723642D01*
X855000Y723667D01*
D02*
G37*
G36*
X109100Y695890D02*
X102870D01*
Y687070D01*
X111690D01*
Y693300D01*
X111493Y694291D01*
X110931Y695131D01*
X110091Y695693D01*
X109100Y695890D01*
D02*
G37*
G36*
X1268270Y630808D02*
Y622070D01*
X1277008D01*
X1276828Y623433D01*
X1275812Y625887D01*
X1274195Y627995D01*
X1272087Y629612D01*
X1269633Y630628D01*
X1268270Y630808D01*
D02*
G37*
G36*
X1140000Y656375D02*
X1137366Y656028D01*
X1134912Y655012D01*
X1132805Y653395D01*
X1131188Y651288D01*
X1130172Y648833D01*
X1129825Y646200D01*
X1130172Y643567D01*
X1131188Y641113D01*
X1132805Y639005D01*
X1134912Y637388D01*
X1137366Y636372D01*
X1140000Y636025D01*
X1142634Y636372D01*
X1145088Y637388D01*
X1147195Y639005D01*
X1148812Y641113D01*
X1149828Y643567D01*
X1150175Y646200D01*
X1149828Y648833D01*
X1148812Y651288D01*
X1147195Y653395D01*
X1145088Y655012D01*
X1142634Y656028D01*
X1140000Y656375D01*
D02*
G37*
G36*
X1277008Y619530D02*
X1268270D01*
Y610792D01*
X1269633Y610972D01*
X1272087Y611988D01*
X1274195Y613605D01*
X1275812Y615713D01*
X1276828Y618167D01*
X1277008Y619530D01*
D02*
G37*
G36*
X1265730Y630808D02*
X1264367Y630628D01*
X1261913Y629612D01*
X1259805Y627995D01*
X1258188Y625887D01*
X1257172Y623433D01*
X1256992Y622070D01*
X1265730D01*
Y630808D01*
D02*
G37*
G36*
X1267000Y656375D02*
X1264367Y656028D01*
X1261913Y655012D01*
X1259805Y653395D01*
X1258188Y651288D01*
X1257172Y648833D01*
X1256825Y646200D01*
X1257172Y643567D01*
X1258188Y641113D01*
X1259805Y639005D01*
X1261913Y637388D01*
X1264367Y636372D01*
X1267000Y636025D01*
X1269633Y636372D01*
X1272087Y637388D01*
X1274195Y639005D01*
X1275812Y641113D01*
X1276828Y643567D01*
X1277175Y646200D01*
X1276828Y648833D01*
X1275812Y651288D01*
X1274195Y653395D01*
X1272087Y655012D01*
X1269633Y656028D01*
X1267000Y656375D01*
D02*
G37*
G36*
X111690Y684530D02*
X102870D01*
Y675710D01*
X109100D01*
X110091Y675907D01*
X110931Y676469D01*
X111493Y677309D01*
X111690Y678300D01*
Y684530D01*
D02*
G37*
G36*
X100330Y695890D02*
X94100D01*
X93109Y695693D01*
X92269Y695131D01*
X91707Y694291D01*
X91510Y693300D01*
Y687070D01*
X100330D01*
Y695890D01*
D02*
G37*
G36*
X127000Y695927D02*
X124379Y695582D01*
X121937Y694570D01*
X119839Y692961D01*
X118230Y690863D01*
X117218Y688421D01*
X116873Y685800D01*
X117218Y683179D01*
X118230Y680737D01*
X119839Y678639D01*
X121937Y677030D01*
X124379Y676018D01*
X127000Y675673D01*
X129621Y676018D01*
X132063Y677030D01*
X134161Y678639D01*
X135770Y680737D01*
X136782Y683179D01*
X137127Y685800D01*
X136782Y688421D01*
X135770Y690863D01*
X134161Y692961D01*
X132063Y694570D01*
X129621Y695582D01*
X127000Y695927D01*
D02*
G37*
G36*
X100330Y684530D02*
X91510D01*
Y678300D01*
X91707Y677309D01*
X92269Y676469D01*
X93109Y675907D01*
X94100Y675710D01*
X100330D01*
Y684530D01*
D02*
G37*
G36*
X1140000Y529375D02*
X1137366Y529028D01*
X1134912Y528012D01*
X1132805Y526395D01*
X1131188Y524287D01*
X1130172Y521833D01*
X1129825Y519200D01*
X1130172Y516567D01*
X1131188Y514113D01*
X1132805Y512005D01*
X1134912Y510388D01*
X1137366Y509372D01*
X1140000Y509025D01*
X1142634Y509372D01*
X1145088Y510388D01*
X1147195Y512005D01*
X1148812Y514113D01*
X1149828Y516567D01*
X1150175Y519200D01*
X1149828Y521833D01*
X1148812Y524287D01*
X1147195Y526395D01*
X1145088Y528012D01*
X1142634Y529028D01*
X1140000Y529375D01*
D02*
G37*
G36*
X786130Y303530D02*
X777310D01*
Y297300D01*
X777507Y296309D01*
X778069Y295469D01*
X778909Y294907D01*
X779900Y294710D01*
X786130D01*
Y303530D01*
D02*
G37*
G36*
X797490D02*
X788670D01*
Y294710D01*
X794900D01*
X795891Y294907D01*
X796731Y295469D01*
X797293Y296309D01*
X797490Y297300D01*
Y303530D01*
D02*
G37*
G36*
X711200Y314927D02*
X708579Y314582D01*
X706137Y313570D01*
X704039Y311961D01*
X702430Y309863D01*
X701418Y307421D01*
X701073Y304800D01*
X701418Y302179D01*
X702430Y299737D01*
X704039Y297639D01*
X706137Y296030D01*
X708579Y295018D01*
X711200Y294673D01*
X713821Y295018D01*
X716263Y296030D01*
X718361Y297639D01*
X719970Y299737D01*
X720982Y302179D01*
X721327Y304800D01*
X720982Y307421D01*
X719970Y309863D01*
X718361Y311961D01*
X716263Y313570D01*
X713821Y314582D01*
X711200Y314927D01*
D02*
G37*
G36*
X736600D02*
X733979Y314582D01*
X731537Y313570D01*
X729439Y311961D01*
X727830Y309863D01*
X726818Y307421D01*
X726473Y304800D01*
X726818Y302179D01*
X727830Y299737D01*
X729439Y297639D01*
X731537Y296030D01*
X733979Y295018D01*
X736600Y294673D01*
X739221Y295018D01*
X741663Y296030D01*
X743761Y297639D01*
X745370Y299737D01*
X746382Y302179D01*
X746727Y304800D01*
X746382Y307421D01*
X745370Y309863D01*
X743761Y311961D01*
X741663Y313570D01*
X739221Y314582D01*
X736600Y314927D01*
D02*
G37*
G36*
X786130Y314890D02*
X779900D01*
X778909Y314693D01*
X778069Y314131D01*
X777507Y313291D01*
X777310Y312300D01*
Y306070D01*
X786130D01*
Y314890D01*
D02*
G37*
G36*
X1038860Y345407D02*
X1036239Y345062D01*
X1033797Y344050D01*
X1031699Y342441D01*
X1030090Y340343D01*
X1029078Y337901D01*
X1028733Y335280D01*
X1029078Y332659D01*
X1030090Y330217D01*
X1031699Y328119D01*
X1033797Y326510D01*
X1036239Y325498D01*
X1038860Y325153D01*
X1041481Y325498D01*
X1043923Y326510D01*
X1046021Y328119D01*
X1047630Y330217D01*
X1048642Y332659D01*
X1048987Y335280D01*
X1048642Y337901D01*
X1047630Y340343D01*
X1046021Y342441D01*
X1043923Y344050D01*
X1041481Y345062D01*
X1038860Y345407D01*
D02*
G37*
G36*
X929520Y345370D02*
X914520D01*
X913529Y345173D01*
X912689Y344611D01*
X912127Y343771D01*
X911930Y342780D01*
Y327780D01*
X912127Y326789D01*
X912689Y325949D01*
X913529Y325387D01*
X914520Y325190D01*
X929520D01*
X930511Y325387D01*
X931351Y325949D01*
X931913Y326789D01*
X932110Y327780D01*
Y342780D01*
X931913Y343771D01*
X931351Y344611D01*
X930511Y345173D01*
X929520Y345370D01*
D02*
G37*
G36*
X794900Y314890D02*
X788670D01*
Y306070D01*
X797490D01*
Y312300D01*
X797293Y313291D01*
X796731Y314131D01*
X795891Y314693D01*
X794900Y314890D01*
D02*
G37*
G36*
X947420Y345407D02*
X944799Y345062D01*
X942357Y344050D01*
X940259Y342441D01*
X938650Y340343D01*
X937638Y337901D01*
X937293Y335280D01*
X937638Y332659D01*
X938650Y330217D01*
X940259Y328119D01*
X942357Y326510D01*
X944799Y325498D01*
X947420Y325153D01*
X950041Y325498D01*
X952483Y326510D01*
X954581Y328119D01*
X956190Y330217D01*
X957202Y332659D01*
X957547Y335280D01*
X957202Y337901D01*
X956190Y340343D01*
X954581Y342441D01*
X952483Y344050D01*
X950041Y345062D01*
X947420Y345407D01*
D02*
G37*
G36*
X660400Y314927D02*
X657779Y314582D01*
X655337Y313570D01*
X653239Y311961D01*
X651630Y309863D01*
X650618Y307421D01*
X650273Y304800D01*
X650618Y302179D01*
X651630Y299737D01*
X653239Y297639D01*
X655337Y296030D01*
X657779Y295018D01*
X660400Y294673D01*
X663021Y295018D01*
X665463Y296030D01*
X667561Y297639D01*
X669170Y299737D01*
X670182Y302179D01*
X670527Y304800D01*
X670182Y307421D01*
X669170Y309863D01*
X667561Y311961D01*
X665463Y313570D01*
X663021Y314582D01*
X660400Y314927D01*
D02*
G37*
G36*
X314000Y290127D02*
X311379Y289782D01*
X308937Y288770D01*
X306839Y287161D01*
X305230Y285063D01*
X304218Y282621D01*
X303873Y280000D01*
X304218Y277379D01*
X305230Y274937D01*
X306839Y272839D01*
X308937Y271230D01*
X311379Y270218D01*
X314000Y269873D01*
X316621Y270218D01*
X319063Y271230D01*
X321161Y272839D01*
X322770Y274937D01*
X323782Y277379D01*
X324127Y280000D01*
X323782Y282621D01*
X322770Y285063D01*
X321161Y287161D01*
X319063Y288770D01*
X316621Y289782D01*
X314000Y290127D01*
D02*
G37*
G36*
X339400D02*
X336779Y289782D01*
X334337Y288770D01*
X332239Y287161D01*
X330630Y285063D01*
X329618Y282621D01*
X329273Y280000D01*
X329618Y277379D01*
X330630Y274937D01*
X332239Y272839D01*
X334337Y271230D01*
X336779Y270218D01*
X339400Y269873D01*
X342021Y270218D01*
X344463Y271230D01*
X346561Y272839D01*
X348170Y274937D01*
X349182Y277379D01*
X349527Y280000D01*
X349182Y282621D01*
X348170Y285063D01*
X346561Y287161D01*
X344463Y288770D01*
X342021Y289782D01*
X339400Y290127D01*
D02*
G37*
G36*
X263200D02*
X260579Y289782D01*
X258137Y288770D01*
X256039Y287161D01*
X254430Y285063D01*
X253418Y282621D01*
X253073Y280000D01*
X253418Y277379D01*
X254430Y274937D01*
X256039Y272839D01*
X258137Y271230D01*
X260579Y270218D01*
X263200Y269873D01*
X265821Y270218D01*
X268263Y271230D01*
X270361Y272839D01*
X271970Y274937D01*
X272982Y277379D01*
X273327Y280000D01*
X272982Y282621D01*
X271970Y285063D01*
X270361Y287161D01*
X268263Y288770D01*
X265821Y289782D01*
X263200Y290127D01*
D02*
G37*
G36*
X288600D02*
X285979Y289782D01*
X283537Y288770D01*
X281439Y287161D01*
X279830Y285063D01*
X278818Y282621D01*
X278473Y280000D01*
X278818Y277379D01*
X279830Y274937D01*
X281439Y272839D01*
X283537Y271230D01*
X285979Y270218D01*
X288600Y269873D01*
X291221Y270218D01*
X293663Y271230D01*
X295761Y272839D01*
X297370Y274937D01*
X298382Y277379D01*
X298727Y280000D01*
X298382Y282621D01*
X297370Y285063D01*
X295761Y287161D01*
X293663Y288770D01*
X291221Y289782D01*
X288600Y290127D01*
D02*
G37*
G36*
X364800D02*
X362179Y289782D01*
X359737Y288770D01*
X357639Y287161D01*
X356030Y285063D01*
X355018Y282621D01*
X354673Y280000D01*
X355018Y277379D01*
X356030Y274937D01*
X357639Y272839D01*
X359737Y271230D01*
X362179Y270218D01*
X364800Y269873D01*
X367421Y270218D01*
X369863Y271230D01*
X371961Y272839D01*
X373570Y274937D01*
X374582Y277379D01*
X374927Y280000D01*
X374582Y282621D01*
X373570Y285063D01*
X371961Y287161D01*
X369863Y288770D01*
X367421Y289782D01*
X364800Y290127D01*
D02*
G37*
G36*
X609600Y314927D02*
X606979Y314582D01*
X604537Y313570D01*
X602439Y311961D01*
X600830Y309863D01*
X599818Y307421D01*
X599473Y304800D01*
X599818Y302179D01*
X600830Y299737D01*
X602439Y297639D01*
X604537Y296030D01*
X606979Y295018D01*
X609600Y294673D01*
X612221Y295018D01*
X614663Y296030D01*
X616761Y297639D01*
X618370Y299737D01*
X619382Y302179D01*
X619727Y304800D01*
X619382Y307421D01*
X618370Y309863D01*
X616761Y311961D01*
X614663Y313570D01*
X612221Y314582D01*
X609600Y314927D01*
D02*
G37*
G36*
X635000D02*
X632379Y314582D01*
X629937Y313570D01*
X627839Y311961D01*
X626230Y309863D01*
X625218Y307421D01*
X624873Y304800D01*
X625218Y302179D01*
X626230Y299737D01*
X627839Y297639D01*
X629937Y296030D01*
X632379Y295018D01*
X635000Y294673D01*
X637621Y295018D01*
X640063Y296030D01*
X642161Y297639D01*
X643770Y299737D01*
X644782Y302179D01*
X645127Y304800D01*
X644782Y307421D01*
X643770Y309863D01*
X642161Y311961D01*
X640063Y313570D01*
X637621Y314582D01*
X635000Y314927D01*
D02*
G37*
G36*
X685800D02*
X683179Y314582D01*
X680737Y313570D01*
X678639Y311961D01*
X677030Y309863D01*
X676018Y307421D01*
X675673Y304800D01*
X676018Y302179D01*
X677030Y299737D01*
X678639Y297639D01*
X680737Y296030D01*
X681915Y295542D01*
Y286089D01*
X676571Y280745D01*
X594543D01*
X593944Y281524D01*
X592578Y282573D01*
X590987Y283232D01*
X589280Y283456D01*
X587573Y283232D01*
X585982Y282573D01*
X584616Y281524D01*
X583567Y280158D01*
X582908Y278567D01*
X582684Y276860D01*
X582715Y276619D01*
X581878Y275665D01*
X510540D01*
X509053Y275369D01*
X507793Y274527D01*
X427694Y194428D01*
X426720Y194556D01*
X425013Y194332D01*
X423422Y193673D01*
X422056Y192624D01*
X421007Y191258D01*
X420348Y189667D01*
X420124Y187960D01*
X420348Y186253D01*
X421007Y184662D01*
X422056Y183296D01*
X423422Y182247D01*
X425013Y181588D01*
X426720Y181364D01*
X428427Y181588D01*
X430018Y182247D01*
X431384Y183296D01*
X432433Y184662D01*
X433092Y186253D01*
X433316Y187960D01*
X433188Y188934D01*
X444321Y200067D01*
X445662Y199612D01*
X445748Y198953D01*
X446407Y197362D01*
X447456Y195996D01*
X448822Y194947D01*
X450413Y194288D01*
X452120Y194064D01*
X453827Y194288D01*
X455418Y194947D01*
X456784Y195996D01*
X457833Y197362D01*
X458492Y198953D01*
X458716Y200660D01*
X458588Y201634D01*
X514689Y257735D01*
X721177D01*
X721776Y256956D01*
X723142Y255907D01*
X724733Y255248D01*
X726440Y255024D01*
X728147Y255248D01*
X729738Y255907D01*
X731104Y256956D01*
X732153Y258322D01*
X732812Y259913D01*
X733036Y261620D01*
X732812Y263327D01*
X732153Y264918D01*
X731104Y266284D01*
X730660Y266625D01*
X731091Y267895D01*
X738957D01*
X739556Y267116D01*
X740922Y266067D01*
X742513Y265408D01*
X744220Y265184D01*
X745927Y265408D01*
X747518Y266067D01*
X748884Y267116D01*
X749933Y268482D01*
X750592Y270073D01*
X750816Y271780D01*
X750592Y273487D01*
X749933Y275078D01*
X748884Y276444D01*
X747518Y277493D01*
X745927Y278152D01*
X744220Y278376D01*
X742513Y278152D01*
X740922Y277493D01*
X739556Y276444D01*
X738957Y275665D01*
X684138D01*
X683652Y276838D01*
X688547Y281733D01*
X689389Y282993D01*
X689685Y284480D01*
Y295542D01*
X690863Y296030D01*
X692961Y297639D01*
X694570Y299737D01*
X695582Y302179D01*
X695927Y304800D01*
X695582Y307421D01*
X694570Y309863D01*
X692961Y311961D01*
X690863Y313570D01*
X688421Y314582D01*
X685800Y314927D01*
D02*
G37*
G36*
X1102360Y311396D02*
X1100653Y311172D01*
X1099062Y310513D01*
X1097696Y309464D01*
X1096647Y308098D01*
X1095988Y306507D01*
X1095764Y304800D01*
X1095988Y303093D01*
X1096647Y301502D01*
X1097696Y300136D01*
X1098475Y299537D01*
Y281009D01*
X1032171Y214705D01*
X949029D01*
X911877Y251857D01*
X910617Y252699D01*
X909130Y252995D01*
X564070D01*
X562583Y252699D01*
X561323Y251857D01*
X559774Y250308D01*
X558800Y250436D01*
X557093Y250212D01*
X555502Y249553D01*
X554136Y248504D01*
X553087Y247138D01*
X552428Y245547D01*
X552204Y243840D01*
X552428Y242133D01*
X553087Y240542D01*
X554136Y239176D01*
X555502Y238127D01*
X557093Y237468D01*
X558800Y237244D01*
X560507Y237468D01*
X562098Y238127D01*
X563464Y239176D01*
X564513Y240542D01*
X565172Y242133D01*
X565396Y243840D01*
X565364Y244086D01*
X566386Y245225D01*
X595037D01*
X595468Y243955D01*
X594776Y243424D01*
X593727Y242058D01*
X593068Y240467D01*
X592844Y238760D01*
X592875Y238519D01*
X592038Y237565D01*
X576763D01*
X576164Y238344D01*
X574798Y239393D01*
X573207Y240052D01*
X571500Y240276D01*
X569793Y240052D01*
X568202Y239393D01*
X566836Y238344D01*
X565787Y236978D01*
X565128Y235387D01*
X564904Y233680D01*
X565128Y231973D01*
X565521Y231025D01*
X564755Y229755D01*
X551508D01*
X550764Y230724D01*
X549398Y231773D01*
X547807Y232432D01*
X546100Y232656D01*
X544393Y232432D01*
X542802Y231773D01*
X541436Y230724D01*
X540387Y229358D01*
X539728Y227767D01*
X539504Y226060D01*
X539728Y224353D01*
X540387Y222762D01*
X541436Y221396D01*
X542802Y220347D01*
X544393Y219688D01*
X546100Y219464D01*
X547807Y219688D01*
X549398Y220347D01*
X550764Y221396D01*
X551217Y221985D01*
X574735D01*
X575690Y222175D01*
X593145D01*
X594101Y221985D01*
X604779D01*
X605734Y222175D01*
X910251D01*
X929433Y202993D01*
X930693Y202151D01*
X932180Y201855D01*
X1041400D01*
X1042887Y202151D01*
X1044147Y202993D01*
X1129369Y288215D01*
X1160597D01*
X1161196Y287436D01*
X1162562Y286387D01*
X1164153Y285728D01*
X1165860Y285504D01*
X1167567Y285728D01*
X1169158Y286387D01*
X1170524Y287436D01*
X1171573Y288802D01*
X1172232Y290393D01*
X1172456Y292100D01*
X1172232Y293807D01*
X1171573Y295398D01*
X1170524Y296764D01*
X1169158Y297813D01*
X1167567Y298472D01*
X1165860Y298696D01*
X1164153Y298472D01*
X1162562Y297813D01*
X1161196Y296764D01*
X1160597Y295985D01*
X1127760D01*
X1126273Y295689D01*
X1125013Y294847D01*
X1106261Y276095D01*
X1105275Y276905D01*
X1105949Y277913D01*
X1106245Y279400D01*
Y299537D01*
X1107024Y300136D01*
X1108073Y301502D01*
X1108732Y303093D01*
X1108956Y304800D01*
X1108732Y306507D01*
X1108073Y308098D01*
X1107024Y309464D01*
X1105658Y310513D01*
X1104067Y311172D01*
X1102360Y311396D01*
D02*
G37*
G36*
X1020960Y345370D02*
X1005960D01*
X1004969Y345173D01*
X1004129Y344611D01*
X1003567Y343771D01*
X1003370Y342780D01*
Y327780D01*
X1003567Y326789D01*
X1004129Y325949D01*
X1004969Y325387D01*
X1005960Y325190D01*
X1020960D01*
X1021951Y325387D01*
X1022791Y325949D01*
X1023353Y326789D01*
X1023550Y327780D01*
Y342780D01*
X1023353Y343771D01*
X1022791Y344611D01*
X1021951Y345173D01*
X1020960Y345370D01*
D02*
G37*
G36*
X1140000Y503975D02*
X1137366Y503628D01*
X1134912Y502612D01*
X1132805Y500995D01*
X1131188Y498887D01*
X1130172Y496433D01*
X1129825Y493800D01*
X1130172Y491166D01*
X1131188Y488713D01*
X1132805Y486605D01*
X1134912Y484988D01*
X1137366Y483972D01*
X1140000Y483625D01*
X1142634Y483972D01*
X1145088Y484988D01*
X1147195Y486605D01*
X1148812Y488713D01*
X1149828Y491166D01*
X1150175Y493800D01*
X1149828Y496433D01*
X1148812Y498887D01*
X1147195Y500995D01*
X1145088Y502612D01*
X1142634Y503628D01*
X1140000Y503975D01*
D02*
G37*
G36*
X1267000D02*
X1264367Y503628D01*
X1261913Y502612D01*
X1259805Y500995D01*
X1258188Y498887D01*
X1257172Y496433D01*
X1256825Y493800D01*
X1257172Y491166D01*
X1258188Y488713D01*
X1259805Y486605D01*
X1261913Y484988D01*
X1264367Y483972D01*
X1267000Y483625D01*
X1269633Y483972D01*
X1272087Y484988D01*
X1274195Y486605D01*
X1275812Y488713D01*
X1276828Y491166D01*
X1277175Y493800D01*
X1276828Y496433D01*
X1275812Y498887D01*
X1274195Y500995D01*
X1272087Y502612D01*
X1269633Y503628D01*
X1267000Y503975D01*
D02*
G37*
G36*
X1268270Y478408D02*
Y469670D01*
X1277008D01*
X1276828Y471034D01*
X1275812Y473488D01*
X1274195Y475595D01*
X1272087Y477212D01*
X1269633Y478228D01*
X1268270Y478408D01*
D02*
G37*
G36*
X940000Y500127D02*
X937379Y499782D01*
X934937Y498770D01*
X932839Y497161D01*
X931230Y495063D01*
X930218Y492621D01*
X929873Y490000D01*
X930218Y487379D01*
X931230Y484937D01*
X932839Y482839D01*
X934937Y481230D01*
X937379Y480218D01*
X940000Y479873D01*
X942621Y480218D01*
X945063Y481230D01*
X947161Y482839D01*
X948770Y484937D01*
X949782Y487379D01*
X950127Y490000D01*
X949782Y492621D01*
X948770Y495063D01*
X947161Y497161D01*
X945063Y498770D01*
X942621Y499782D01*
X940000Y500127D01*
D02*
G37*
G36*
X460000Y525527D02*
X457379Y525182D01*
X454937Y524170D01*
X452839Y522561D01*
X451230Y520463D01*
X450218Y518021D01*
X449873Y515400D01*
X450218Y512779D01*
X451230Y510337D01*
X452839Y508239D01*
X454937Y506630D01*
X457379Y505618D01*
X460000Y505273D01*
X462621Y505618D01*
X465063Y506630D01*
X467161Y508239D01*
X468770Y510337D01*
X469782Y512779D01*
X470127Y515400D01*
X469782Y518021D01*
X468770Y520463D01*
X467161Y522561D01*
X465063Y524170D01*
X462621Y525182D01*
X460000Y525527D01*
D02*
G37*
G36*
X354330Y521450D02*
X341677D01*
X341990Y519073D01*
X343397Y515675D01*
X345636Y512757D01*
X348555Y510517D01*
X351953Y509110D01*
X354330Y508797D01*
Y521450D01*
D02*
G37*
G36*
X369523D02*
X356870D01*
Y508797D01*
X359247Y509110D01*
X362645Y510517D01*
X365564Y512757D01*
X367803Y515675D01*
X369210Y519073D01*
X369523Y521450D01*
D02*
G37*
G36*
X940000Y525527D02*
X937379Y525182D01*
X934937Y524170D01*
X932839Y522561D01*
X931230Y520463D01*
X930218Y518021D01*
X929873Y515400D01*
X930218Y512779D01*
X931230Y510337D01*
X932839Y508239D01*
X934937Y506630D01*
X937379Y505618D01*
X940000Y505273D01*
X942621Y505618D01*
X945063Y506630D01*
X947161Y508239D01*
X948770Y510337D01*
X949782Y512779D01*
X950127Y515400D01*
X949782Y518021D01*
X948770Y520463D01*
X947161Y522561D01*
X945063Y524170D01*
X942621Y525182D01*
X940000Y525527D01*
D02*
G37*
G36*
X1089200Y556769D02*
X1086050Y556354D01*
X1083115Y555139D01*
X1080595Y553205D01*
X1078661Y550685D01*
X1077446Y547750D01*
X1077031Y544600D01*
X1077446Y541450D01*
X1078661Y538515D01*
X1080595Y535995D01*
X1083115Y534061D01*
X1086050Y532845D01*
X1088367Y532541D01*
Y531259D01*
X1086050Y530955D01*
X1083115Y529739D01*
X1080595Y527805D01*
X1078661Y525285D01*
X1077446Y522350D01*
X1077031Y519200D01*
X1077446Y516050D01*
X1078661Y513116D01*
X1080595Y510595D01*
X1083115Y508661D01*
X1086050Y507445D01*
X1089200Y507031D01*
X1092350Y507445D01*
X1095285Y508661D01*
X1097805Y510595D01*
X1099739Y513116D01*
X1100955Y516050D01*
X1101369Y519200D01*
X1100955Y522350D01*
X1099739Y525285D01*
X1097805Y527805D01*
X1095285Y529739D01*
X1092350Y530955D01*
X1090033Y531259D01*
Y532541D01*
X1092350Y532845D01*
X1095285Y534061D01*
X1097805Y535995D01*
X1099739Y538515D01*
X1100955Y541450D01*
X1101369Y544600D01*
X1100955Y547750D01*
X1099739Y550685D01*
X1097805Y553205D01*
X1095285Y555139D01*
X1092350Y556354D01*
X1089200Y556769D01*
D02*
G37*
G36*
X1265730Y478408D02*
X1264367Y478228D01*
X1261913Y477212D01*
X1259805Y475595D01*
X1258188Y473488D01*
X1257172Y471034D01*
X1256992Y469670D01*
X1265730D01*
Y478408D01*
D02*
G37*
G36*
X855000Y413667D02*
X854874Y413642D01*
X854746Y413655D01*
X851610Y413346D01*
X851366Y413272D01*
X851112Y413247D01*
X848096Y412332D01*
X847871Y412212D01*
X847627Y412138D01*
X844847Y410652D01*
X844650Y410490D01*
X844425Y410370D01*
X841989Y408370D01*
X841827Y408173D01*
X841630Y408011D01*
X839630Y405575D01*
X839510Y405350D01*
X839348Y405153D01*
X837862Y402373D01*
X837788Y402129D01*
X837668Y401904D01*
X836753Y398888D01*
X836728Y398634D01*
X836654Y398390D01*
X836345Y395254D01*
X836370Y395000D01*
X836345Y394746D01*
X836654Y391610D01*
X836728Y391366D01*
X836753Y391112D01*
X837668Y388096D01*
X837788Y387871D01*
X837862Y387627D01*
X839348Y384847D01*
X839510Y384650D01*
X839630Y384425D01*
X841630Y381989D01*
X841827Y381827D01*
X841989Y381630D01*
X844425Y379630D01*
X844650Y379510D01*
X844847Y379348D01*
X847627Y377862D01*
X847871Y377788D01*
X848096Y377668D01*
X851112Y376753D01*
X851366Y376728D01*
X851610Y376654D01*
X854746Y376345D01*
X854874Y376358D01*
X855000Y376333D01*
X855126Y376358D01*
X855254Y376345D01*
X858390Y376654D01*
X858634Y376728D01*
X858888Y376753D01*
X861904Y377668D01*
X862129Y377788D01*
X862373Y377862D01*
X865153Y379348D01*
X865350Y379510D01*
X865575Y379630D01*
X868011Y381630D01*
X868173Y381827D01*
X868370Y381989D01*
X870370Y384425D01*
X870490Y384650D01*
X870652Y384847D01*
X872138Y387627D01*
X872212Y387871D01*
X872332Y388096D01*
X873247Y391112D01*
X873272Y391366D01*
X873346Y391610D01*
X873655Y394746D01*
X873630Y395000D01*
X873655Y395254D01*
X873346Y398390D01*
X873272Y398634D01*
X873247Y398888D01*
X872332Y401904D01*
X872212Y402129D01*
X872138Y402373D01*
X870652Y405153D01*
X870490Y405350D01*
X870370Y405575D01*
X868370Y408011D01*
X868173Y408173D01*
X868011Y408370D01*
X865575Y410370D01*
X865350Y410490D01*
X865153Y410652D01*
X862373Y412138D01*
X862129Y412212D01*
X861904Y412332D01*
X858888Y413247D01*
X858634Y413272D01*
X858390Y413346D01*
X855254Y413655D01*
X855126Y413642D01*
X855000Y413667D01*
D02*
G37*
G36*
X700000Y668152D02*
X689702Y667703D01*
X679483Y666357D01*
X669420Y664127D01*
X659589Y661027D01*
X650067Y657083D01*
X640924Y652323D01*
X632230Y646785D01*
X624053Y640510D01*
X616454Y633546D01*
X609490Y625947D01*
X603215Y617770D01*
X597677Y609076D01*
X592918Y599933D01*
X588973Y590410D01*
X585873Y580580D01*
X583643Y570517D01*
X582297Y560298D01*
X581848Y550000D01*
X582297Y539702D01*
X583643Y529483D01*
X585873Y519420D01*
X588973Y509590D01*
X592918Y500067D01*
X597677Y490924D01*
X603215Y482230D01*
X609490Y474053D01*
X616454Y466454D01*
X624053Y459490D01*
X632230Y453215D01*
X640924Y447677D01*
X650067Y442918D01*
X659589Y438973D01*
X669420Y435873D01*
X679483Y433643D01*
X689702Y432297D01*
X700000Y431847D01*
X710298Y432297D01*
X720517Y433643D01*
X730580Y435873D01*
X740411Y438973D01*
X749933Y442918D01*
X759076Y447677D01*
X767769Y453215D01*
X775947Y459490D01*
X783546Y466454D01*
X790510Y474053D01*
X796785Y482230D01*
X802323Y490924D01*
X807083Y500067D01*
X811027Y509590D01*
X814127Y519420D01*
X816357Y529483D01*
X817703Y539702D01*
X818152Y550000D01*
X817703Y560298D01*
X816357Y570517D01*
X814127Y580580D01*
X811027Y590410D01*
X807083Y599933D01*
X802323Y609076D01*
X796785Y617770D01*
X790510Y625947D01*
X783546Y633546D01*
X775947Y640510D01*
X767769Y646785D01*
X759076Y652323D01*
X749933Y657083D01*
X740411Y661027D01*
X730580Y664127D01*
X720517Y666357D01*
X710298Y667703D01*
X700000Y668152D01*
D02*
G37*
G36*
X1013460Y412996D02*
X1011753Y412772D01*
X1010162Y412113D01*
X1008796Y411064D01*
X1008197Y410285D01*
X932180D01*
X930693Y409989D01*
X929433Y409147D01*
X858313Y338027D01*
X857471Y336767D01*
X857175Y335280D01*
Y322763D01*
X856396Y322164D01*
X855347Y320798D01*
X854688Y319207D01*
X854464Y317500D01*
X854688Y315793D01*
X855347Y314202D01*
X856396Y312836D01*
X857762Y311787D01*
X859353Y311128D01*
X861060Y310904D01*
X862767Y311128D01*
X864358Y311787D01*
X865724Y312836D01*
X866773Y314202D01*
X867432Y315793D01*
X867656Y317500D01*
X867432Y319207D01*
X866773Y320798D01*
X865724Y322164D01*
X864945Y322763D01*
Y333671D01*
X933789Y402515D01*
X1008197D01*
X1008796Y401736D01*
X1010162Y400687D01*
X1011753Y400028D01*
X1013460Y399804D01*
X1015167Y400028D01*
X1016758Y400687D01*
X1018124Y401736D01*
X1019173Y403102D01*
X1019832Y404693D01*
X1020056Y406400D01*
X1019832Y408107D01*
X1019173Y409698D01*
X1018124Y411064D01*
X1016758Y412113D01*
X1015167Y412772D01*
X1013460Y412996D01*
D02*
G37*
G36*
X545000Y413667D02*
X544874Y413642D01*
X544746Y413655D01*
X541610Y413346D01*
X541366Y413272D01*
X541112Y413247D01*
X538096Y412332D01*
X537871Y412212D01*
X537627Y412138D01*
X534847Y410652D01*
X534650Y410490D01*
X534425Y410370D01*
X531989Y408370D01*
X531827Y408173D01*
X531630Y408011D01*
X529630Y405575D01*
X529510Y405350D01*
X529348Y405153D01*
X527862Y402373D01*
X527788Y402129D01*
X527668Y401904D01*
X526753Y398888D01*
X526728Y398634D01*
X526654Y398390D01*
X526345Y395254D01*
X526370Y395000D01*
X526345Y394746D01*
X526654Y391610D01*
X526728Y391366D01*
X526753Y391112D01*
X527668Y388096D01*
X527788Y387871D01*
X527862Y387627D01*
X529348Y384847D01*
X529510Y384650D01*
X529630Y384425D01*
X531630Y381989D01*
X531827Y381827D01*
X531989Y381630D01*
X534425Y379630D01*
X534650Y379510D01*
X534847Y379348D01*
X537627Y377862D01*
X537871Y377788D01*
X538096Y377668D01*
X541112Y376753D01*
X541366Y376728D01*
X541610Y376654D01*
X544746Y376345D01*
X544874Y376358D01*
X545000Y376333D01*
X545126Y376358D01*
X545254Y376345D01*
X548390Y376654D01*
X548634Y376728D01*
X548888Y376753D01*
X551904Y377668D01*
X552129Y377788D01*
X552373Y377862D01*
X555153Y379348D01*
X555350Y379510D01*
X555575Y379630D01*
X558011Y381630D01*
X558173Y381827D01*
X558370Y381989D01*
X560370Y384425D01*
X560490Y384650D01*
X560652Y384847D01*
X562138Y387627D01*
X562212Y387871D01*
X562332Y388096D01*
X563247Y391112D01*
X563272Y391366D01*
X563346Y391610D01*
X563655Y394746D01*
X563630Y395000D01*
X563655Y395254D01*
X563346Y398390D01*
X563272Y398634D01*
X563247Y398888D01*
X562332Y401904D01*
X562212Y402129D01*
X562138Y402373D01*
X560652Y405153D01*
X560490Y405350D01*
X560370Y405575D01*
X558370Y408011D01*
X558173Y408173D01*
X558011Y408370D01*
X555575Y410370D01*
X555350Y410490D01*
X555153Y410652D01*
X552373Y412138D01*
X552129Y412212D01*
X551904Y412332D01*
X548888Y413247D01*
X548634Y413272D01*
X548390Y413346D01*
X545254Y413655D01*
X545126Y413642D01*
X545000Y413667D01*
D02*
G37*
G36*
X364173Y471796D02*
X347028D01*
X344921Y471377D01*
X343136Y470184D01*
X341943Y468399D01*
X341524Y466292D01*
Y449147D01*
X341943Y447042D01*
X343136Y445256D01*
X344921Y444063D01*
X347028Y443644D01*
X364173D01*
X366278Y444063D01*
X368064Y445256D01*
X369257Y447042D01*
X369676Y449147D01*
Y466292D01*
X369257Y468399D01*
X368064Y470184D01*
X366278Y471377D01*
X364173Y471796D01*
D02*
G37*
G36*
X1277008Y467130D02*
X1268270D01*
Y458392D01*
X1269633Y458572D01*
X1272087Y459588D01*
X1274195Y461205D01*
X1275812Y463312D01*
X1276828Y465766D01*
X1277008Y467130D01*
D02*
G37*
G36*
X998220Y755896D02*
X996513Y755672D01*
X994922Y755013D01*
X993556Y753964D01*
X992507Y752598D01*
X991848Y751007D01*
X991624Y749300D01*
X991848Y747593D01*
X992507Y746002D01*
X993556Y744636D01*
X994335Y744037D01*
Y480243D01*
X993556Y479644D01*
X992507Y478278D01*
X991848Y476687D01*
X991624Y474980D01*
X991848Y473273D01*
X992507Y471682D01*
X993556Y470316D01*
X994922Y469267D01*
X996513Y468608D01*
X998220Y468384D01*
X999927Y468608D01*
X1001518Y469267D01*
X1002884Y470316D01*
X1003933Y471682D01*
X1004592Y473273D01*
X1004816Y474980D01*
X1004592Y476687D01*
X1003933Y478278D01*
X1002884Y479644D01*
X1002105Y480243D01*
Y744037D01*
X1002884Y744636D01*
X1003933Y746002D01*
X1004592Y747593D01*
X1004816Y749300D01*
X1004592Y751007D01*
X1003933Y752598D01*
X1002884Y753964D01*
X1001518Y755013D01*
X999927Y755672D01*
X998220Y755896D01*
D02*
G37*
G36*
X1140000Y478575D02*
X1137366Y478228D01*
X1134912Y477212D01*
X1132805Y475595D01*
X1131188Y473488D01*
X1130172Y471034D01*
X1129825Y468400D01*
X1130172Y465766D01*
X1131188Y463312D01*
X1132805Y461205D01*
X1134912Y459588D01*
X1137366Y458572D01*
X1140000Y458225D01*
X1142634Y458572D01*
X1145088Y459588D01*
X1147195Y461205D01*
X1148812Y463312D01*
X1149828Y465766D01*
X1150175Y468400D01*
X1149828Y471034D01*
X1148812Y473488D01*
X1147195Y475595D01*
X1145088Y477212D01*
X1142634Y478228D01*
X1140000Y478575D01*
D02*
G37*
G36*
X1265730Y467130D02*
X1256992D01*
X1257172Y465766D01*
X1258188Y463312D01*
X1259805Y461205D01*
X1261913Y459588D01*
X1264367Y458572D01*
X1265730Y458392D01*
Y467130D01*
D02*
G37*
%LPD*%
D10*
X237800Y153000D02*
Y179380D01*
X538480Y210820D02*
X619760D01*
X510540Y238760D02*
X538480Y210820D01*
X599440Y238760D02*
X604710Y244030D01*
X558800Y243840D02*
X564070Y249110D01*
X592515Y269050D02*
X595245Y271780D01*
X586045Y269050D02*
X592515D01*
X583315Y271780D02*
X586045Y269050D01*
X510540Y271780D02*
X583315D01*
X426720Y187960D02*
X510540Y271780D01*
X685800Y284480D02*
Y304800D01*
X678180Y276860D02*
X685800Y284480D01*
X589280Y276860D02*
X678180D01*
X909130Y249110D02*
X947420Y210820D01*
X564070Y249110D02*
X909130D01*
X671255Y244030D02*
X676525Y238760D01*
X873760D01*
X604710Y244030D02*
X671255D01*
X604969Y226060D02*
X911860D01*
X604779Y225870D02*
X604969Y226060D01*
X594101Y225870D02*
X604779D01*
X593911Y226060D02*
X594101Y225870D01*
X574925Y226060D02*
X593911D01*
X605405Y233680D02*
X665480D01*
X602675Y230950D02*
X605405Y233680D01*
X596205Y230950D02*
X602675D01*
X593475Y233680D02*
X596205Y230950D01*
X571500Y233680D02*
X593475D01*
X237800Y179380D02*
X259080Y200660D01*
X546290Y225870D02*
X574735D01*
X546100Y226060D02*
X546290Y225870D01*
X574735D02*
X574925Y226060D01*
X665480Y233680D02*
X668020Y236220D01*
X595245Y271780D02*
X744220D01*
X513080Y261620D02*
X726440D01*
X861060Y317500D02*
Y335280D01*
X932180Y406400D01*
X1013460D01*
X452120Y200660D02*
X513080Y261620D01*
X1102360Y279400D02*
Y304800D01*
X1033780Y210820D02*
X1102360Y279400D01*
X947420Y210820D02*
X1033780D01*
X1127760Y292100D02*
X1165860D01*
X1041400Y205740D02*
X1127760Y292100D01*
X932180Y205740D02*
X1041400D01*
X911860Y226060D02*
X932180Y205740D01*
X1026160Y241300D02*
X1036320D01*
X1008380Y223520D02*
X1026160Y241300D01*
X998220Y474980D02*
Y749300D01*
X1023620Y759460D02*
X1028700Y754380D01*
X1036510Y647005D02*
Y761810D01*
X1036320Y762000D02*
X1036510Y761810D01*
X1036320Y646815D02*
X1036510Y647005D01*
X1036320Y596900D02*
Y646815D01*
X1028700Y650240D02*
Y754380D01*
X1013080Y477900D02*
X1021080Y469900D01*
X1013080Y477900D02*
Y762000D01*
X1049020Y581660D02*
Y769620D01*
X1036320Y596900D02*
X1038860Y594360D01*
X1061720Y556260D02*
Y779780D01*
D25*
X520700Y322580D02*
X762000D01*
X460000Y383280D02*
X520700Y322580D01*
X460000Y383280D02*
Y490000D01*
X1033780Y170180D02*
X1104900Y241300D01*
X1033780Y144780D02*
Y170180D01*
X270194Y490000D02*
X460000D01*
X206914Y426720D02*
X270194Y490000D01*
X952500Y261620D02*
X982980Y231140D01*
X896620Y261620D02*
X952500D01*
X835660Y322580D02*
X896620Y261620D01*
X762000Y322580D02*
X835660D01*
X762000Y304800D02*
Y322580D01*
D28*
X101600Y685800D02*
D03*
X1013460Y335280D02*
D03*
X922020D02*
D03*
X787400Y304800D02*
D03*
D29*
X127000Y685800D02*
D03*
X1038860Y335280D02*
D03*
X947420D02*
D03*
X364800Y127600D02*
D03*
X339400D02*
D03*
X314000D02*
D03*
X288600D02*
D03*
X263200D02*
D03*
X237800D02*
D03*
X212400D02*
D03*
X187000D02*
D03*
X161600D02*
D03*
X136200D02*
D03*
X110800D02*
D03*
X85400D02*
D03*
X60000D02*
D03*
X34600D02*
D03*
Y280000D02*
D03*
X60000D02*
D03*
X85400D02*
D03*
X110800D02*
D03*
X136200D02*
D03*
X161600D02*
D03*
X187000D02*
D03*
X212400D02*
D03*
X237800D02*
D03*
X263200D02*
D03*
X288600D02*
D03*
X314000D02*
D03*
X339400D02*
D03*
X364800D02*
D03*
Y254600D02*
D03*
X339400D02*
D03*
X314000D02*
D03*
X288600D02*
D03*
X263200D02*
D03*
X237800D02*
D03*
X212400D02*
D03*
X187000D02*
D03*
X161600D02*
D03*
X136200D02*
D03*
X110800D02*
D03*
X85400D02*
D03*
X60000D02*
D03*
X34600D02*
D03*
Y153000D02*
D03*
X60000D02*
D03*
X85400D02*
D03*
X110800D02*
D03*
X136200D02*
D03*
X161600D02*
D03*
X187000D02*
D03*
X212400D02*
D03*
X237800D02*
D03*
X263200D02*
D03*
X288600D02*
D03*
X314000D02*
D03*
X339400D02*
D03*
X364800D02*
D03*
X460000Y566200D02*
D03*
Y540800D02*
D03*
Y515400D02*
D03*
X940000Y490000D02*
D03*
Y515400D02*
D03*
Y540800D02*
D03*
X609600Y304800D02*
D03*
X635000D02*
D03*
X685800D02*
D03*
X711200D02*
D03*
X736600D02*
D03*
X762000D02*
D03*
X660400D02*
D03*
D30*
X200000Y720000D02*
D03*
X350000D02*
D03*
D31*
X1089200Y519200D02*
D03*
Y544600D02*
D03*
D32*
X50000Y750000D02*
D03*
X1350000Y50000D02*
D03*
Y750000D02*
D03*
X50000Y50000D02*
D03*
D35*
X1267000Y646200D02*
D03*
Y493800D02*
D03*
X1140000D02*
D03*
Y519200D02*
D03*
Y544600D02*
D03*
Y570000D02*
D03*
Y595400D02*
D03*
Y620800D02*
D03*
X1267000D02*
D03*
Y468400D02*
D03*
X1140000Y646200D02*
D03*
Y468400D02*
D03*
X1267000Y595400D02*
D03*
Y570000D02*
D03*
Y519200D02*
D03*
Y544600D02*
D03*
D36*
X460000Y490000D02*
D03*
X940000Y566200D02*
D03*
D37*
X1174788Y170000D02*
D03*
Y235024D02*
D03*
X1220000Y170000D02*
D03*
Y235024D02*
D03*
X1229904Y179906D02*
D03*
X1164880D02*
D03*
X1229904Y225118D02*
D03*
X1164880D02*
D03*
D38*
X1197393Y157513D02*
D03*
Y247513D02*
D03*
D39*
X1259893Y177513D02*
D03*
Y227513D02*
D03*
X1134893D02*
D03*
Y177513D02*
D03*
X1244893D02*
D03*
X1149893Y227513D02*
D03*
Y177513D02*
D03*
X1244893Y227513D02*
D03*
D40*
X1350000Y550000D02*
D03*
X1300000Y450000D02*
D03*
X1350000Y350000D02*
D03*
X1300000Y250000D02*
D03*
X1350000Y150000D02*
D03*
X1300000Y50000D02*
D03*
X1200000Y450000D02*
D03*
X1250000Y350000D02*
D03*
Y150000D02*
D03*
X1200000Y50000D02*
D03*
X1100000Y450000D02*
D03*
X1150000Y350000D02*
D03*
Y150000D02*
D03*
X1100000Y50000D02*
D03*
X1050000Y550000D02*
D03*
X1000000Y450000D02*
D03*
X1050000Y150000D02*
D03*
X1000000Y50000D02*
D03*
X900000Y650000D02*
D03*
Y450000D02*
D03*
X950000Y150000D02*
D03*
X900000Y50000D02*
D03*
X800000Y650000D02*
D03*
X850000Y550000D02*
D03*
X800000Y450000D02*
D03*
X850000Y350000D02*
D03*
Y150000D02*
D03*
X800000Y50000D02*
D03*
X750000Y350000D02*
D03*
Y150000D02*
D03*
X700000Y50000D02*
D03*
X600000Y650000D02*
D03*
Y450000D02*
D03*
X650000Y350000D02*
D03*
Y150000D02*
D03*
X600000Y50000D02*
D03*
X500000Y650000D02*
D03*
X550000Y550000D02*
D03*
Y350000D02*
D03*
Y150000D02*
D03*
X500000Y50000D02*
D03*
X450000Y350000D02*
D03*
X400000Y250000D02*
D03*
X450000Y150000D02*
D03*
X400000Y50000D02*
D03*
X300000Y650000D02*
D03*
X350000Y550000D02*
D03*
X300000Y450000D02*
D03*
X350000Y350000D02*
D03*
X300000Y50000D02*
D03*
X200000Y650000D02*
D03*
X250000Y550000D02*
D03*
Y350000D02*
D03*
X150000Y550000D02*
D03*
Y350000D02*
D03*
D41*
X1079500Y93980D02*
D03*
Y147320D02*
D03*
X510540Y238760D02*
D03*
X589280Y276860D02*
D03*
X873760Y238760D02*
D03*
X599440D02*
D03*
X259080Y200660D02*
D03*
X426720Y187960D02*
D03*
X571500Y233680D02*
D03*
X558800Y243840D02*
D03*
X744220Y271780D02*
D03*
X861060Y317500D02*
D03*
X1013460Y406400D02*
D03*
X452120Y200660D02*
D03*
X726440Y261620D02*
D03*
X1104900Y241300D02*
D03*
X1033780Y144780D02*
D03*
X1102360Y304800D02*
D03*
X1165860Y292100D02*
D03*
X546100Y226060D02*
D03*
X1036320Y241300D02*
D03*
X1008380Y223520D02*
D03*
X668020Y236220D02*
D03*
X998220Y474980D02*
D03*
Y749300D02*
D03*
X1028700Y650240D02*
D03*
X1013080Y762000D02*
D03*
X1023620Y759460D02*
D03*
X1021080Y469900D02*
D03*
X1038860Y594360D02*
D03*
X1036320Y762000D02*
D03*
X1049020Y581660D02*
D03*
Y769620D02*
D03*
X1061720Y556260D02*
D03*
Y779780D02*
D03*
X206914Y426720D02*
D03*
X619760Y210820D02*
D03*
X1293213Y336413D02*
D03*
X1187313D02*
D03*
X1363980Y533400D02*
D03*
Y624840D02*
D03*
X982980Y231140D02*
D03*
X226060Y408940D02*
D03*
X177800Y599440D02*
D03*
Y622300D02*
D03*
X226060Y371060D02*
D03*
X243840D02*
D03*
Y408940D02*
D03*
X177800Y472440D02*
D03*
X157480Y523240D02*
D03*
X175260D02*
D03*
X114300Y500380D02*
D03*
D42*
X355600Y457720D02*
D03*
D43*
Y522720D02*
D03*
M02*
