G04 Layer_Physical_Order=1*
G04 Layer_Color=255*
%FSLAX44Y44*%
%MOMM*%
G71*
G01*
G75*
%ADD10C,0.2540*%
%ADD11R,1.1000X1.0000*%
G04:AMPARAMS|DCode=12|XSize=2.7mm|YSize=1.15mm|CornerRadius=0.1437mm|HoleSize=0mm|Usage=FLASHONLY|Rotation=270.000|XOffset=0mm|YOffset=0mm|HoleType=Round|Shape=RoundedRectangle|*
%AMROUNDEDRECTD12*
21,1,2.7000,0.8625,0,0,270.0*
21,1,2.4125,1.1500,0,0,270.0*
1,1,0.2875,-0.4313,-1.2063*
1,1,0.2875,-0.4313,1.2063*
1,1,0.2875,0.4313,1.2063*
1,1,0.2875,0.4313,-1.2063*
%
%ADD12ROUNDEDRECTD12*%
%ADD13R,1.0000X0.5000*%
%ADD14R,1.0000X1.1000*%
%ADD15R,1.2700X0.6350*%
G04:AMPARAMS|DCode=16|XSize=1.8mm|YSize=1.3mm|CornerRadius=0.1625mm|HoleSize=0mm|Usage=FLASHONLY|Rotation=180.000|XOffset=0mm|YOffset=0mm|HoleType=Round|Shape=RoundedRectangle|*
%AMROUNDEDRECTD16*
21,1,1.8000,0.9750,0,0,180.0*
21,1,1.4750,1.3000,0,0,180.0*
1,1,0.3250,-0.7375,0.4875*
1,1,0.3250,0.7375,0.4875*
1,1,0.3250,0.7375,-0.4875*
1,1,0.3250,-0.7375,-0.4875*
%
%ADD16ROUNDEDRECTD16*%
G04:AMPARAMS|DCode=17|XSize=0.6mm|YSize=1mm|CornerRadius=0.075mm|HoleSize=0mm|Usage=FLASHONLY|Rotation=0.000|XOffset=0mm|YOffset=0mm|HoleType=Round|Shape=RoundedRectangle|*
%AMROUNDEDRECTD17*
21,1,0.6000,0.8500,0,0,0.0*
21,1,0.4500,1.0000,0,0,0.0*
1,1,0.1500,0.2250,-0.4250*
1,1,0.1500,-0.2250,-0.4250*
1,1,0.1500,-0.2250,0.4250*
1,1,0.1500,0.2250,0.4250*
%
%ADD17ROUNDEDRECTD17*%
G04:AMPARAMS|DCode=18|XSize=0.8mm|YSize=0.8mm|CornerRadius=0.1mm|HoleSize=0mm|Usage=FLASHONLY|Rotation=0.000|XOffset=0mm|YOffset=0mm|HoleType=Round|Shape=RoundedRectangle|*
%AMROUNDEDRECTD18*
21,1,0.8000,0.6000,0,0,0.0*
21,1,0.6000,0.8000,0,0,0.0*
1,1,0.2000,0.3000,-0.3000*
1,1,0.2000,-0.3000,-0.3000*
1,1,0.2000,-0.3000,0.3000*
1,1,0.2000,0.3000,0.3000*
%
%ADD18ROUNDEDRECTD18*%
G04:AMPARAMS|DCode=19|XSize=1mm|YSize=0.9mm|CornerRadius=0.1125mm|HoleSize=0mm|Usage=FLASHONLY|Rotation=90.000|XOffset=0mm|YOffset=0mm|HoleType=Round|Shape=RoundedRectangle|*
%AMROUNDEDRECTD19*
21,1,1.0000,0.6750,0,0,90.0*
21,1,0.7750,0.9000,0,0,90.0*
1,1,0.2250,0.3375,0.3875*
1,1,0.2250,0.3375,-0.3875*
1,1,0.2250,-0.3375,-0.3875*
1,1,0.2250,-0.3375,0.3875*
%
%ADD19ROUNDEDRECTD19*%
G04:AMPARAMS|DCode=20|XSize=1.2mm|YSize=1.5mm|CornerRadius=0.3mm|HoleSize=0mm|Usage=FLASHONLY|Rotation=270.000|XOffset=0mm|YOffset=0mm|HoleType=Round|Shape=RoundedRectangle|*
%AMROUNDEDRECTD20*
21,1,1.2000,0.9000,0,0,270.0*
21,1,0.6000,1.5000,0,0,270.0*
1,1,0.6000,-0.4500,-0.3000*
1,1,0.6000,-0.4500,0.3000*
1,1,0.6000,0.4500,0.3000*
1,1,0.6000,0.4500,-0.3000*
%
%ADD20ROUNDEDRECTD20*%
%ADD21R,2.9972X1.3970*%
G04:AMPARAMS|DCode=22|XSize=1.2mm|YSize=1.5mm|CornerRadius=0.3mm|HoleSize=0mm|Usage=FLASHONLY|Rotation=180.000|XOffset=0mm|YOffset=0mm|HoleType=Round|Shape=RoundedRectangle|*
%AMROUNDEDRECTD22*
21,1,1.2000,0.9000,0,0,180.0*
21,1,0.6000,1.5000,0,0,180.0*
1,1,0.6000,-0.3000,0.4500*
1,1,0.6000,0.3000,0.4500*
1,1,0.6000,0.3000,-0.4500*
1,1,0.6000,-0.3000,-0.4500*
%
%ADD22ROUNDEDRECTD22*%
%ADD23R,1.1500X0.6000*%
%ADD24R,2.3500X5.1000*%
%ADD25C,0.5000*%
%ADD26C,1.0000*%
%ADD27R,0.2540X0.8327*%
%ADD28R,1.5000X1.5000*%
%ADD29C,1.5000*%
%ADD30C,5.4610*%
%ADD31C,1.9050*%
%ADD32C,3.6000*%
G04:AMPARAMS|DCode=33|XSize=1.8288mm|YSize=1.8288mm|CornerRadius=0.2286mm|HoleSize=0mm|Usage=FLASHONLY|Rotation=90.000|XOffset=0mm|YOffset=0mm|HoleType=Round|Shape=RoundedRectangle|*
%AMROUNDEDRECTD33*
21,1,1.8288,1.3716,0,0,90.0*
21,1,1.3716,1.8288,0,0,90.0*
1,1,0.4572,0.6858,0.6858*
1,1,0.4572,0.6858,-0.6858*
1,1,0.4572,-0.6858,-0.6858*
1,1,0.4572,-0.6858,0.6858*
%
%ADD33ROUNDEDRECTD33*%
%ADD34C,1.8288*%
%ADD35C,1.5096*%
%ADD36R,1.5000X1.5000*%
%ADD37C,1.8796*%
%ADD38C,1.6000*%
%ADD39C,2.0000*%
%ADD40C,0.7000*%
%ADD41C,0.8000*%
G36*
X1356127Y796538D02*
X1362149Y795340D01*
X1367963Y793367D01*
X1373470Y790651D01*
X1378575Y787240D01*
X1383192Y783192D01*
X1387240Y778575D01*
X1390651Y773470D01*
X1393367Y767963D01*
X1395341Y762149D01*
X1396538Y756127D01*
X1396930Y750149D01*
X1396900Y750000D01*
Y50000D01*
X1396930Y49851D01*
X1396538Y43873D01*
X1395341Y37851D01*
X1393367Y32037D01*
X1390651Y26530D01*
X1387240Y21425D01*
X1383192Y16809D01*
X1378575Y12760D01*
X1373470Y9349D01*
X1367963Y6633D01*
X1362149Y4660D01*
X1356127Y3462D01*
X1354271Y3340D01*
X45729D01*
X43873Y3462D01*
X37851Y4660D01*
X32037Y6633D01*
X26530Y9349D01*
X21425Y12760D01*
X16809Y16809D01*
X12760Y21425D01*
X9349Y26530D01*
X6633Y32037D01*
X4660Y37851D01*
X3462Y43873D01*
X3070Y49851D01*
X3100Y50000D01*
Y750000D01*
X3070Y750149D01*
X3462Y756127D01*
X4660Y762149D01*
X6633Y767963D01*
X9349Y773470D01*
X12760Y778575D01*
X16809Y783192D01*
X21425Y787240D01*
X26530Y790651D01*
X32037Y793367D01*
X37851Y795340D01*
X43873Y796538D01*
X49851Y796930D01*
X50000Y796900D01*
X1350000D01*
X1350149Y796930D01*
X1356127Y796538D01*
D02*
G37*
%LPC*%
G36*
X1245293Y344003D02*
X1234293D01*
X1233302Y343805D01*
X1232462Y343244D01*
X1231962Y342497D01*
X1231293Y342424D01*
X1230624Y342497D01*
X1230124Y343244D01*
X1229284Y343805D01*
X1228293Y344003D01*
X1217293D01*
X1216302Y343805D01*
X1215462Y343244D01*
X1214901Y342404D01*
X1214703Y341413D01*
Y331413D01*
X1214901Y330422D01*
X1215462Y329582D01*
X1216302Y329020D01*
X1217293Y328823D01*
X1218908D01*
Y307462D01*
X1207431Y295985D01*
X1171123D01*
X1170524Y296764D01*
X1169158Y297813D01*
X1167567Y298472D01*
X1165860Y298696D01*
X1164153Y298472D01*
X1162562Y297813D01*
X1161196Y296764D01*
X1160147Y295398D01*
X1159488Y293807D01*
X1159264Y292100D01*
X1159488Y290393D01*
X1160147Y288802D01*
X1161196Y287436D01*
X1162562Y286387D01*
X1164153Y285728D01*
X1165860Y285504D01*
X1167567Y285728D01*
X1169158Y286387D01*
X1170524Y287436D01*
X1171123Y288215D01*
X1209040D01*
X1210527Y288511D01*
X1211787Y289353D01*
X1225540Y303106D01*
X1226382Y304367D01*
X1226678Y305853D01*
Y328823D01*
X1228293D01*
X1229284Y329020D01*
X1230124Y329582D01*
X1230624Y330329D01*
X1231293Y330402D01*
X1231962Y330329D01*
X1232462Y329582D01*
X1233302Y329020D01*
X1234293Y328823D01*
X1245293D01*
X1246284Y329020D01*
X1247124Y329582D01*
X1247685Y330422D01*
X1247855Y331274D01*
X1255065D01*
X1255341Y330861D01*
X1256512Y330078D01*
X1257893Y329804D01*
X1263893D01*
X1265274Y330078D01*
X1266445Y330861D01*
X1266814Y331413D01*
X1271972D01*
X1272341Y330861D01*
X1273512Y330078D01*
X1274893Y329804D01*
X1276623D01*
Y336413D01*
Y343022D01*
X1274893D01*
X1273512Y342747D01*
X1272341Y341965D01*
X1271972Y341413D01*
X1266814D01*
X1266445Y341965D01*
X1265274Y342747D01*
X1263893Y343022D01*
X1257893D01*
X1256512Y342747D01*
X1255341Y341965D01*
X1255065Y341552D01*
X1247855D01*
X1247685Y342404D01*
X1247124Y343244D01*
X1246284Y343805D01*
X1245293Y344003D01*
D02*
G37*
G36*
X1139393D02*
X1128393D01*
X1127402Y343805D01*
X1126562Y343244D01*
X1126062Y342497D01*
X1125393Y342424D01*
X1124724Y342497D01*
X1124224Y343244D01*
X1123384Y343805D01*
X1122393Y344003D01*
X1111393D01*
X1110402Y343805D01*
X1109562Y343244D01*
X1109001Y342404D01*
X1108804Y341413D01*
Y331413D01*
X1109001Y330422D01*
X1109562Y329582D01*
X1110402Y329020D01*
X1111393Y328823D01*
X1113009D01*
Y320942D01*
X1103334Y311268D01*
X1102360Y311396D01*
X1100653Y311172D01*
X1099062Y310513D01*
X1097696Y309464D01*
X1096647Y308098D01*
X1095988Y306507D01*
X1095764Y304800D01*
X1095988Y303093D01*
X1096647Y301502D01*
X1097696Y300136D01*
X1099062Y299087D01*
X1100653Y298428D01*
X1102360Y298204D01*
X1104067Y298428D01*
X1105658Y299087D01*
X1107024Y300136D01*
X1108073Y301502D01*
X1108732Y303093D01*
X1108956Y304800D01*
X1108828Y305774D01*
X1119640Y316586D01*
X1120482Y317847D01*
X1120778Y319333D01*
Y328823D01*
X1122393D01*
X1123384Y329020D01*
X1124224Y329582D01*
X1124724Y330329D01*
X1125393Y330402D01*
X1126062Y330329D01*
X1126562Y329582D01*
X1127402Y329020D01*
X1128393Y328823D01*
X1139393D01*
X1140384Y329020D01*
X1141224Y329582D01*
X1141786Y330422D01*
X1141955Y331274D01*
X1149165D01*
X1149441Y330861D01*
X1150612Y330078D01*
X1151993Y329804D01*
X1157993D01*
X1159374Y330078D01*
X1160545Y330861D01*
X1160914Y331413D01*
X1166072D01*
X1166441Y330861D01*
X1167612Y330078D01*
X1168993Y329804D01*
X1170723D01*
Y336413D01*
Y343022D01*
X1168993D01*
X1167612Y342747D01*
X1166441Y341965D01*
X1166072Y341413D01*
X1160914D01*
X1160545Y341965D01*
X1159374Y342747D01*
X1157993Y343022D01*
X1151993D01*
X1150612Y342747D01*
X1149441Y341965D01*
X1149165Y341552D01*
X1141955D01*
X1141786Y342404D01*
X1141224Y343244D01*
X1140384Y343805D01*
X1139393Y344003D01*
D02*
G37*
G36*
X1280893Y343022D02*
X1279163D01*
Y337683D01*
X1284502D01*
Y339413D01*
X1284228Y340794D01*
X1283445Y341965D01*
X1282274Y342747D01*
X1280893Y343022D01*
D02*
G37*
G36*
X908050Y361070D02*
X901730D01*
Y356840D01*
X901927Y355849D01*
X902489Y355009D01*
X903329Y354447D01*
X904320Y354250D01*
X908050D01*
Y361070D01*
D02*
G37*
G36*
X1008350D02*
X1002030D01*
Y354250D01*
X1005760D01*
X1006751Y354447D01*
X1007591Y355009D01*
X1008153Y355849D01*
X1008350Y356840D01*
Y361070D01*
D02*
G37*
G36*
X999490D02*
X993170D01*
Y356840D01*
X993367Y355849D01*
X993929Y355009D01*
X994769Y354447D01*
X995760Y354250D01*
X999490D01*
Y361070D01*
D02*
G37*
G36*
X916910D02*
X910590D01*
Y354250D01*
X914320D01*
X915311Y354447D01*
X916151Y355009D01*
X916713Y355849D01*
X916910Y356840D01*
Y361070D01*
D02*
G37*
G36*
X1174993Y343022D02*
X1173263D01*
Y337683D01*
X1178603D01*
Y339413D01*
X1178328Y340794D01*
X1177545Y341965D01*
X1176374Y342747D01*
X1174993Y343022D01*
D02*
G37*
G36*
X1020960Y345370D02*
X1005960D01*
X1004969Y345173D01*
X1004129Y344611D01*
X1003567Y343771D01*
X1003370Y342780D01*
Y327780D01*
X1003567Y326789D01*
X1004129Y325949D01*
X1004969Y325387D01*
X1005960Y325190D01*
X1008321D01*
Y322169D01*
X1007286Y321134D01*
X1006172Y319466D01*
X1005781Y317500D01*
Y311989D01*
X1005571Y311674D01*
X1005315Y310390D01*
Y301890D01*
X1005571Y300606D01*
X1006298Y299518D01*
X1007386Y298791D01*
X1008670Y298535D01*
X1013170D01*
X1014454Y298791D01*
X1015542Y299518D01*
X1016269Y300606D01*
X1016525Y301890D01*
Y310390D01*
X1016269Y311674D01*
X1016059Y311989D01*
Y315371D01*
X1017094Y316406D01*
X1018208Y318074D01*
X1018599Y320040D01*
Y325190D01*
X1020960D01*
X1021951Y325387D01*
X1022791Y325949D01*
X1023353Y326789D01*
X1023550Y327780D01*
Y342780D01*
X1023353Y343771D01*
X1022791Y344611D01*
X1021951Y345173D01*
X1020960Y345370D01*
D02*
G37*
G36*
X929520D02*
X914520D01*
X913529Y345173D01*
X912689Y344611D01*
X912127Y343771D01*
X911930Y342780D01*
Y327780D01*
X912127Y326789D01*
X912689Y325949D01*
X913529Y325387D01*
X914520Y325190D01*
X916881D01*
Y319629D01*
X915846Y318594D01*
X914732Y316926D01*
X914341Y314960D01*
Y311989D01*
X914131Y311674D01*
X913876Y310390D01*
Y301890D01*
X914131Y300606D01*
X914858Y299518D01*
X915946Y298791D01*
X917230Y298535D01*
X921730D01*
X923014Y298791D01*
X924102Y299518D01*
X924829Y300606D01*
X925085Y301890D01*
Y310390D01*
X924829Y311674D01*
X924619Y311989D01*
Y312831D01*
X925654Y313866D01*
X926768Y315534D01*
X927159Y317500D01*
Y325190D01*
X929520D01*
X930511Y325387D01*
X931351Y325949D01*
X931913Y326789D01*
X932110Y327780D01*
Y342780D01*
X931913Y343771D01*
X931351Y344611D01*
X930511Y345173D01*
X929520Y345370D01*
D02*
G37*
G36*
X1053855Y313182D02*
X1039105D01*
X1037480Y312858D01*
X1036102Y311938D01*
X1035182Y310560D01*
X1034911Y309199D01*
X1033040D01*
X1031074Y308808D01*
X1029406Y307694D01*
X1016786Y295074D01*
X1015672Y293407D01*
X1015281Y291440D01*
Y288989D01*
X1015071Y288674D01*
X1014816Y287390D01*
Y278890D01*
X1015071Y277606D01*
X1015798Y276518D01*
X1016886Y275791D01*
X1018170Y275536D01*
X1022670D01*
X1023954Y275791D01*
X1025042Y276518D01*
X1025769Y277606D01*
X1026024Y278890D01*
Y287390D01*
X1025769Y288674D01*
X1025559Y288989D01*
Y289312D01*
X1033956Y297708D01*
X1035350Y297307D01*
X1036102Y296182D01*
X1037480Y295262D01*
X1039105Y294938D01*
X1053855D01*
X1055480Y295262D01*
X1056858Y296182D01*
X1057778Y297560D01*
X1058102Y299185D01*
Y308935D01*
X1057778Y310560D01*
X1056858Y311938D01*
X1055480Y312858D01*
X1053855Y313182D01*
D02*
G37*
G36*
X786130Y314890D02*
X779900D01*
X778909Y314693D01*
X778069Y314131D01*
X777507Y313291D01*
X777310Y312300D01*
Y306070D01*
X786130D01*
Y314890D01*
D02*
G37*
G36*
X1284502Y335143D02*
X1279163D01*
Y329804D01*
X1280893D01*
X1282274Y330078D01*
X1283445Y330861D01*
X1284228Y332032D01*
X1284502Y333413D01*
Y335143D01*
D02*
G37*
G36*
X1178603D02*
X1173263D01*
Y329804D01*
X1174993D01*
X1176374Y330078D01*
X1177545Y330861D01*
X1178328Y332032D01*
X1178603Y333413D01*
Y335143D01*
D02*
G37*
G36*
X794900Y314890D02*
X788670D01*
Y306070D01*
X797490D01*
Y312300D01*
X797293Y313291D01*
X796731Y314131D01*
X795891Y314693D01*
X794900Y314890D01*
D02*
G37*
G36*
X930910Y361070D02*
X924590D01*
Y356840D01*
X924787Y355849D01*
X925349Y355009D01*
X926189Y354448D01*
X927180Y354250D01*
X930910D01*
Y361070D01*
D02*
G37*
G36*
X201190Y448730D02*
X194370D01*
Y442410D01*
X198600D01*
X199591Y442607D01*
X200431Y443169D01*
X200993Y444009D01*
X201190Y445000D01*
Y448730D01*
D02*
G37*
G36*
X700000Y668152D02*
X689702Y667703D01*
X679483Y666357D01*
X669420Y664127D01*
X659589Y661027D01*
X650067Y657083D01*
X640924Y652323D01*
X632230Y646785D01*
X624053Y640510D01*
X616454Y633546D01*
X609490Y625947D01*
X603215Y617770D01*
X597677Y609076D01*
X592918Y599933D01*
X588973Y590410D01*
X585873Y580580D01*
X583643Y570517D01*
X582297Y560298D01*
X581848Y550000D01*
X582297Y539702D01*
X583643Y529483D01*
X585873Y519420D01*
X588973Y509590D01*
X592918Y500067D01*
X597677Y490924D01*
X603215Y482230D01*
X609490Y474053D01*
X616454Y466454D01*
X624053Y459490D01*
X632230Y453215D01*
X640924Y447677D01*
X650067Y442918D01*
X659589Y438973D01*
X669420Y435873D01*
X679483Y433643D01*
X689702Y432297D01*
X700000Y431847D01*
X710298Y432297D01*
X720517Y433643D01*
X730580Y435873D01*
X740411Y438973D01*
X749933Y442918D01*
X759076Y447677D01*
X767769Y453215D01*
X775947Y459490D01*
X783546Y466454D01*
X790510Y474053D01*
X796785Y482230D01*
X802323Y490924D01*
X807083Y500067D01*
X811027Y509590D01*
X814127Y519420D01*
X816357Y529483D01*
X817703Y539702D01*
X818152Y550000D01*
X817703Y560298D01*
X816357Y570517D01*
X814127Y580580D01*
X811027Y590410D01*
X807083Y599933D01*
X802323Y609076D01*
X796785Y617770D01*
X790510Y625947D01*
X783546Y633546D01*
X775947Y640510D01*
X767769Y646785D01*
X759076Y652323D01*
X749933Y657083D01*
X740411Y661027D01*
X730580Y664127D01*
X720517Y666357D01*
X710298Y667703D01*
X700000Y668152D01*
D02*
G37*
G36*
X855000Y413667D02*
X854874Y413642D01*
X854746Y413655D01*
X851610Y413346D01*
X851366Y413272D01*
X851112Y413247D01*
X848096Y412332D01*
X847871Y412212D01*
X847627Y412138D01*
X844847Y410652D01*
X844650Y410490D01*
X844425Y410370D01*
X841989Y408370D01*
X841827Y408173D01*
X841630Y408011D01*
X839630Y405575D01*
X839510Y405350D01*
X839348Y405153D01*
X837862Y402373D01*
X837788Y402129D01*
X837668Y401904D01*
X836753Y398888D01*
X836728Y398634D01*
X836654Y398390D01*
X836345Y395254D01*
X836370Y395000D01*
X836345Y394746D01*
X836654Y391610D01*
X836728Y391366D01*
X836753Y391112D01*
X837668Y388096D01*
X837788Y387871D01*
X837862Y387627D01*
X839348Y384847D01*
X839510Y384650D01*
X839630Y384425D01*
X841630Y381989D01*
X841827Y381827D01*
X841989Y381630D01*
X844425Y379630D01*
X844650Y379510D01*
X844847Y379348D01*
X847627Y377862D01*
X847871Y377788D01*
X848096Y377668D01*
X851112Y376753D01*
X851366Y376728D01*
X851610Y376654D01*
X854746Y376345D01*
X854874Y376358D01*
X855000Y376333D01*
X855126Y376358D01*
X855254Y376345D01*
X858390Y376654D01*
X858634Y376728D01*
X858888Y376753D01*
X861904Y377668D01*
X862129Y377788D01*
X862373Y377862D01*
X865153Y379348D01*
X865350Y379510D01*
X865575Y379630D01*
X868011Y381630D01*
X868173Y381827D01*
X868370Y381989D01*
X870370Y384425D01*
X870490Y384650D01*
X870652Y384847D01*
X872138Y387627D01*
X872212Y387871D01*
X872332Y388096D01*
X873247Y391112D01*
X873272Y391366D01*
X873346Y391610D01*
X873655Y394746D01*
X873630Y395000D01*
X873655Y395254D01*
X873346Y398390D01*
X873272Y398634D01*
X873247Y398888D01*
X872332Y401904D01*
X872212Y402129D01*
X872138Y402373D01*
X870652Y405153D01*
X870490Y405350D01*
X870370Y405575D01*
X868370Y408011D01*
X868173Y408173D01*
X868011Y408370D01*
X865575Y410370D01*
X865350Y410490D01*
X865153Y410652D01*
X862373Y412138D01*
X862129Y412212D01*
X861904Y412332D01*
X858888Y413247D01*
X858634Y413272D01*
X858390Y413346D01*
X855254Y413655D01*
X855126Y413642D01*
X855000Y413667D01*
D02*
G37*
G36*
X198600Y457590D02*
X194370D01*
Y451270D01*
X201190D01*
Y455000D01*
X200993Y455991D01*
X200431Y456831D01*
X199591Y457393D01*
X198600Y457590D01*
D02*
G37*
G36*
X1305730Y467130D02*
X1298911D01*
Y463400D01*
X1299108Y462409D01*
X1299669Y461569D01*
X1300509Y461007D01*
X1301500Y460810D01*
X1305730D01*
Y467130D01*
D02*
G37*
G36*
X1277008D02*
X1268270D01*
Y458392D01*
X1269633Y458572D01*
X1272087Y459588D01*
X1274195Y461205D01*
X1275812Y463312D01*
X1276828Y465766D01*
X1277008Y467130D01*
D02*
G37*
G36*
X1265730D02*
X1256992D01*
X1257172Y465766D01*
X1258188Y463312D01*
X1259805Y461205D01*
X1261913Y459588D01*
X1264367Y458572D01*
X1265730Y458392D01*
Y467130D01*
D02*
G37*
G36*
X545000Y413667D02*
X544874Y413642D01*
X544746Y413655D01*
X541610Y413346D01*
X541366Y413272D01*
X541112Y413247D01*
X538096Y412332D01*
X537871Y412212D01*
X537627Y412138D01*
X534847Y410652D01*
X534650Y410490D01*
X534425Y410370D01*
X531989Y408370D01*
X531827Y408173D01*
X531630Y408011D01*
X529630Y405575D01*
X529510Y405350D01*
X529348Y405153D01*
X527862Y402373D01*
X527788Y402129D01*
X527668Y401904D01*
X526753Y398888D01*
X526728Y398634D01*
X526654Y398390D01*
X526345Y395254D01*
X526370Y395000D01*
X526345Y394746D01*
X526654Y391610D01*
X526728Y391366D01*
X526753Y391112D01*
X527668Y388096D01*
X527788Y387871D01*
X527862Y387627D01*
X529348Y384847D01*
X529510Y384650D01*
X529630Y384425D01*
X531630Y381989D01*
X531827Y381827D01*
X531989Y381630D01*
X534425Y379630D01*
X534650Y379510D01*
X534847Y379348D01*
X537627Y377862D01*
X537871Y377788D01*
X538096Y377668D01*
X541112Y376753D01*
X541366Y376728D01*
X541610Y376654D01*
X544746Y376345D01*
X544874Y376358D01*
X545000Y376333D01*
X545126Y376358D01*
X545254Y376345D01*
X548390Y376654D01*
X548634Y376728D01*
X548888Y376753D01*
X551904Y377668D01*
X552129Y377788D01*
X552373Y377862D01*
X555153Y379348D01*
X555350Y379510D01*
X555575Y379630D01*
X558011Y381630D01*
X558173Y381827D01*
X558370Y381989D01*
X560370Y384425D01*
X560490Y384650D01*
X560652Y384847D01*
X562138Y387627D01*
X562212Y387871D01*
X562332Y388096D01*
X563247Y391112D01*
X563272Y391366D01*
X563346Y391610D01*
X563655Y394746D01*
X563630Y395000D01*
X563655Y395254D01*
X563346Y398390D01*
X563272Y398634D01*
X563247Y398888D01*
X562332Y401904D01*
X562212Y402129D01*
X562138Y402373D01*
X560652Y405153D01*
X560490Y405350D01*
X560370Y405575D01*
X558370Y408011D01*
X558173Y408173D01*
X558011Y408370D01*
X555575Y410370D01*
X555350Y410490D01*
X555153Y410652D01*
X552373Y412138D01*
X552129Y412212D01*
X551904Y412332D01*
X548888Y413247D01*
X548634Y413272D01*
X548390Y413346D01*
X545254Y413655D01*
X545126Y413642D01*
X545000Y413667D01*
D02*
G37*
G36*
X1031210Y361070D02*
X1024890D01*
Y354250D01*
X1028620D01*
X1029611Y354448D01*
X1030451Y355009D01*
X1031013Y355849D01*
X1031210Y356840D01*
Y361070D01*
D02*
G37*
G36*
X1022350D02*
X1016030D01*
Y356840D01*
X1016227Y355849D01*
X1016789Y355009D01*
X1017629Y354448D01*
X1018620Y354250D01*
X1022350D01*
Y361070D01*
D02*
G37*
G36*
X939770D02*
X933450D01*
Y354250D01*
X937180D01*
X938171Y354448D01*
X939011Y355009D01*
X939573Y355849D01*
X939770Y356840D01*
Y361070D01*
D02*
G37*
G36*
X233330Y388730D02*
X217024D01*
Y383015D01*
X217221Y382024D01*
X217783Y381184D01*
X218623Y380622D01*
X219614Y380425D01*
X233330D01*
Y388730D01*
D02*
G37*
G36*
X249586Y399575D02*
X235870D01*
Y391270D01*
X252176D01*
Y396985D01*
X251979Y397976D01*
X251417Y398816D01*
X250577Y399378D01*
X249586Y399575D01*
D02*
G37*
G36*
X233330D02*
X219614D01*
X218623Y399378D01*
X217783Y398816D01*
X217221Y397976D01*
X217024Y396985D01*
Y391270D01*
X233330D01*
Y399575D01*
D02*
G37*
G36*
X252176Y388730D02*
X235870D01*
Y380425D01*
X249586D01*
X250577Y380622D01*
X251417Y381184D01*
X251979Y382024D01*
X252176Y383015D01*
Y388730D01*
D02*
G37*
G36*
X1229904Y191947D02*
X1226788Y191537D01*
X1223884Y190334D01*
X1221390Y188420D01*
X1219476Y185926D01*
X1218274Y183022D01*
X1218112Y181792D01*
X1216883Y181631D01*
X1213979Y180428D01*
X1211486Y178514D01*
X1209572Y176021D01*
X1208369Y173116D01*
X1207959Y170000D01*
X1208369Y166884D01*
X1209572Y163979D01*
X1211486Y161486D01*
X1213979Y159572D01*
X1216883Y158369D01*
X1220000Y157959D01*
X1223117Y158369D01*
X1226021Y159572D01*
X1228514Y161486D01*
X1230428Y163979D01*
X1231631Y166884D01*
X1231793Y168114D01*
X1233021Y168275D01*
X1235414Y169267D01*
X1235949Y168569D01*
X1238569Y166559D01*
X1241620Y165296D01*
X1244893Y164865D01*
X1248167Y165296D01*
X1251217Y166559D01*
X1252393Y167461D01*
X1253569Y166559D01*
X1256620Y165296D01*
X1259893Y164865D01*
X1263167Y165296D01*
X1266217Y166559D01*
X1268837Y168569D01*
X1270847Y171189D01*
X1272110Y174239D01*
X1272541Y177513D01*
X1272110Y180786D01*
X1270847Y183837D01*
X1268837Y186456D01*
X1266217Y188466D01*
X1263167Y189730D01*
X1259893Y190161D01*
X1256620Y189730D01*
X1253569Y188466D01*
X1252393Y187564D01*
X1251217Y188466D01*
X1248167Y189730D01*
X1244893Y190161D01*
X1241620Y189730D01*
X1238569Y188466D01*
X1238452Y188377D01*
X1238419Y188420D01*
X1235925Y190334D01*
X1233021Y191537D01*
X1229904Y191947D01*
D02*
G37*
G36*
X1085125Y136768D02*
X1082082D01*
Y121920D01*
X1089180D01*
Y132712D01*
X1088871Y134264D01*
X1087992Y135580D01*
X1086676Y136459D01*
X1085125Y136768D01*
D02*
G37*
G36*
X1079542D02*
X1076499D01*
X1074948Y136459D01*
X1073632Y135580D01*
X1072753Y134264D01*
X1072444Y132712D01*
Y121920D01*
X1079542D01*
Y136768D01*
D02*
G37*
G36*
X1197393Y169180D02*
X1197226Y169147D01*
X1197055Y169158D01*
X1194706Y168849D01*
X1194385Y168740D01*
X1194053Y168674D01*
X1191863Y167767D01*
X1191582Y167579D01*
X1191278Y167429D01*
X1189398Y165986D01*
X1189174Y165732D01*
X1188920Y165508D01*
X1187477Y163628D01*
X1187327Y163324D01*
X1187139Y163043D01*
X1186232Y160853D01*
X1186166Y160521D01*
X1186057Y160200D01*
X1185748Y157851D01*
X1185770Y157513D01*
X1185748Y157175D01*
X1186057Y154825D01*
X1186166Y154504D01*
X1186232Y154172D01*
X1187139Y151983D01*
X1187327Y151701D01*
X1187477Y151397D01*
X1188920Y149517D01*
X1189174Y149294D01*
X1189398Y149039D01*
X1191278Y147597D01*
X1191582Y147447D01*
X1191863Y147259D01*
X1194053Y146352D01*
X1194385Y146286D01*
X1194706Y146177D01*
X1197055Y145868D01*
X1197226Y145879D01*
X1197393Y145845D01*
X1197561Y145879D01*
X1197731Y145868D01*
X1200081Y146177D01*
X1200402Y146286D01*
X1200734Y146352D01*
X1202923Y147259D01*
X1203205Y147447D01*
X1203509Y147597D01*
X1205389Y149039D01*
X1205612Y149294D01*
X1205867Y149517D01*
X1207309Y151397D01*
X1207459Y151701D01*
X1207647Y151983D01*
X1208554Y154172D01*
X1208620Y154504D01*
X1208729Y154825D01*
X1209038Y157175D01*
X1209016Y157513D01*
X1209038Y157851D01*
X1208729Y160200D01*
X1208620Y160521D01*
X1208554Y160853D01*
X1207647Y163043D01*
X1207459Y163324D01*
X1207309Y163628D01*
X1205867Y165508D01*
X1205612Y165732D01*
X1205389Y165986D01*
X1203509Y167429D01*
X1203205Y167579D01*
X1202923Y167767D01*
X1200734Y168674D01*
X1200402Y168740D01*
X1200081Y168849D01*
X1197731Y169158D01*
X1197561Y169147D01*
X1197393Y169180D01*
D02*
G37*
G36*
X1261163Y239994D02*
Y228783D01*
X1272374D01*
X1272110Y230786D01*
X1270847Y233837D01*
X1268837Y236456D01*
X1266217Y238466D01*
X1263167Y239730D01*
X1261163Y239994D01*
D02*
G37*
G36*
X1272374Y226243D02*
X1261163D01*
Y215032D01*
X1263167Y215296D01*
X1266217Y216559D01*
X1268837Y218569D01*
X1270847Y221189D01*
X1272110Y224239D01*
X1272374Y226243D01*
D02*
G37*
G36*
X1221270Y246898D02*
Y235024D01*
X1220000D01*
Y233754D01*
X1208126D01*
X1208369Y231908D01*
X1209572Y229004D01*
X1211486Y226510D01*
X1213979Y224596D01*
X1216883Y223393D01*
X1218112Y223232D01*
X1218274Y222001D01*
X1219476Y219097D01*
X1221390Y216604D01*
X1223884Y214690D01*
X1226788Y213487D01*
X1228634Y213244D01*
Y225118D01*
X1231174D01*
Y213244D01*
X1233021Y213487D01*
X1235925Y214690D01*
X1238419Y216604D01*
X1238453Y216648D01*
X1238569Y216559D01*
X1241620Y215296D01*
X1243623Y215032D01*
Y227513D01*
Y239994D01*
X1241620Y239730D01*
X1238569Y238466D01*
X1235949Y236456D01*
X1235413Y235758D01*
X1233021Y236749D01*
X1231793Y236910D01*
X1231631Y238140D01*
X1230428Y241045D01*
X1228514Y243538D01*
X1226021Y245452D01*
X1223117Y246655D01*
X1221270Y246898D01*
D02*
G37*
G36*
X1089180Y119380D02*
X1082082D01*
Y104532D01*
X1085125D01*
X1086676Y104841D01*
X1087992Y105720D01*
X1088871Y107036D01*
X1089180Y108588D01*
Y119380D01*
D02*
G37*
G36*
X271290Y50130D02*
X264470D01*
Y43810D01*
X268700D01*
X269691Y44007D01*
X270531Y44569D01*
X271093Y45409D01*
X271290Y46400D01*
Y50130D01*
D02*
G37*
G36*
X1350000Y70639D02*
X1345974Y70243D01*
X1342102Y69068D01*
X1338533Y67161D01*
X1335406Y64594D01*
X1332839Y61467D01*
X1330932Y57898D01*
X1329757Y54026D01*
X1329361Y50000D01*
X1329757Y45974D01*
X1330932Y42102D01*
X1332839Y38533D01*
X1335406Y35406D01*
X1338533Y32839D01*
X1342102Y30932D01*
X1345974Y29757D01*
X1350000Y29361D01*
X1354026Y29757D01*
X1357898Y30932D01*
X1361467Y32839D01*
X1364594Y35406D01*
X1367161Y38533D01*
X1369068Y42102D01*
X1370243Y45974D01*
X1370639Y50000D01*
X1370243Y54026D01*
X1369068Y57898D01*
X1367161Y61467D01*
X1364594Y64594D01*
X1361467Y67161D01*
X1357898Y69068D01*
X1354026Y70243D01*
X1350000Y70639D01*
D02*
G37*
G36*
X50000D02*
X45974Y70243D01*
X42102Y69068D01*
X38533Y67161D01*
X35406Y64594D01*
X32839Y61467D01*
X30932Y57898D01*
X29757Y54026D01*
X29361Y50000D01*
X29757Y45974D01*
X30932Y42102D01*
X32839Y38533D01*
X35406Y35406D01*
X38533Y32839D01*
X42102Y30932D01*
X45974Y29757D01*
X50000Y29361D01*
X54026Y29757D01*
X57898Y30932D01*
X61467Y32839D01*
X64594Y35406D01*
X67161Y38533D01*
X69068Y42102D01*
X70243Y45974D01*
X70639Y50000D01*
X70243Y54026D01*
X69068Y57898D01*
X67161Y61467D01*
X64594Y64594D01*
X61467Y67161D01*
X57898Y69068D01*
X54026Y70243D01*
X50000Y70639D01*
D02*
G37*
G36*
X268700Y58990D02*
X264470D01*
Y52670D01*
X271290D01*
Y56400D01*
X271093Y57391D01*
X270531Y58231D01*
X269691Y58793D01*
X268700Y58990D01*
D02*
G37*
G36*
X1079542Y119380D02*
X1072444D01*
Y108588D01*
X1072753Y107036D01*
X1073632Y105720D01*
X1074948Y104841D01*
X1076499Y104532D01*
X1079542D01*
Y119380D01*
D02*
G37*
G36*
X268700Y84390D02*
X264470D01*
Y78070D01*
X271290D01*
Y81800D01*
X271093Y82791D01*
X270532Y83631D01*
X269691Y84193D01*
X268700Y84390D01*
D02*
G37*
G36*
X271290Y75530D02*
X264470D01*
Y69210D01*
X268700D01*
X269691Y69407D01*
X270532Y69969D01*
X271093Y70809D01*
X271290Y71800D01*
Y75530D01*
D02*
G37*
G36*
X1053855Y284182D02*
X1039105D01*
X1037480Y283858D01*
X1036102Y282938D01*
X1035182Y281560D01*
X1034858Y279935D01*
Y270185D01*
X1035182Y268560D01*
X1036102Y267182D01*
X1037480Y266262D01*
X1039105Y265938D01*
X1053855D01*
X1055480Y266262D01*
X1056858Y267182D01*
X1057778Y268560D01*
X1058049Y269921D01*
X1084251D01*
X1099761Y254412D01*
Y245346D01*
X1099187Y244598D01*
X1098528Y243007D01*
X1098304Y241300D01*
X1098528Y239593D01*
X1099187Y238002D01*
X1100236Y236636D01*
X1101602Y235587D01*
X1103193Y234928D01*
X1104900Y234704D01*
X1106607Y234928D01*
X1108198Y235587D01*
X1109564Y236636D01*
X1110613Y238002D01*
X1111272Y239593D01*
X1111496Y241300D01*
X1111272Y243007D01*
X1110613Y244598D01*
X1110039Y245346D01*
Y256540D01*
X1109648Y258507D01*
X1108534Y260174D01*
X1090014Y278694D01*
X1088346Y279808D01*
X1086380Y280199D01*
X1058049D01*
X1057778Y281560D01*
X1056858Y282938D01*
X1055480Y283858D01*
X1053855Y284182D01*
D02*
G37*
G36*
X736600Y314927D02*
X733979Y314582D01*
X731537Y313570D01*
X729439Y311961D01*
X727830Y309863D01*
X726818Y307421D01*
X726473Y304800D01*
X726818Y302179D01*
X727830Y299737D01*
X729439Y297639D01*
X731537Y296030D01*
X733979Y295018D01*
X736600Y294673D01*
X739221Y295018D01*
X741663Y296030D01*
X743761Y297639D01*
X745370Y299737D01*
X746382Y302179D01*
X746727Y304800D01*
X746382Y307421D01*
X745370Y309863D01*
X743761Y311961D01*
X741663Y313570D01*
X739221Y314582D01*
X736600Y314927D01*
D02*
G37*
G36*
X711200D02*
X708579Y314582D01*
X706137Y313570D01*
X704039Y311961D01*
X702430Y309863D01*
X701418Y307421D01*
X701073Y304800D01*
X701418Y302179D01*
X702430Y299737D01*
X704039Y297639D01*
X706137Y296030D01*
X708579Y295018D01*
X711200Y294673D01*
X713821Y295018D01*
X716263Y296030D01*
X718361Y297639D01*
X719970Y299737D01*
X720982Y302179D01*
X721327Y304800D01*
X720982Y307421D01*
X719970Y309863D01*
X718361Y311961D01*
X716263Y313570D01*
X713821Y314582D01*
X711200Y314927D01*
D02*
G37*
G36*
X685800D02*
X683179Y314582D01*
X680737Y313570D01*
X678639Y311961D01*
X677030Y309863D01*
X676018Y307421D01*
X675673Y304800D01*
X676018Y302179D01*
X677030Y299737D01*
X678639Y297639D01*
X680737Y296030D01*
X683179Y295018D01*
X685800Y294673D01*
X688421Y295018D01*
X690863Y296030D01*
X692961Y297639D01*
X694570Y299737D01*
X695582Y302179D01*
X695927Y304800D01*
X695582Y307421D01*
X694570Y309863D01*
X692961Y311961D01*
X690863Y313570D01*
X688421Y314582D01*
X685800Y314927D01*
D02*
G37*
G36*
X762000D02*
X759379Y314582D01*
X756937Y313570D01*
X754839Y311961D01*
X753230Y309863D01*
X752218Y307421D01*
X751873Y304800D01*
X752218Y302179D01*
X753230Y299737D01*
X754839Y297639D01*
X756937Y296030D01*
X759379Y295018D01*
X762000Y294673D01*
X764621Y295018D01*
X767063Y296030D01*
X769161Y297639D01*
X770770Y299737D01*
X771782Y302179D01*
X772127Y304800D01*
X771782Y307421D01*
X770770Y309863D01*
X769161Y311961D01*
X767063Y313570D01*
X764621Y314582D01*
X762000Y314927D01*
D02*
G37*
G36*
X962415Y313182D02*
X947665D01*
X946040Y312858D01*
X944662Y311938D01*
X943742Y310560D01*
X943471Y309199D01*
X941600D01*
X939633Y308808D01*
X937966Y307694D01*
X925346Y295074D01*
X924232Y293407D01*
X923841Y291440D01*
Y288989D01*
X923631Y288674D01*
X923375Y287390D01*
Y278890D01*
X923631Y277606D01*
X924358Y276518D01*
X925446Y275791D01*
X926730Y275536D01*
X931230D01*
X932514Y275791D01*
X933602Y276518D01*
X934329Y277606D01*
X934585Y278890D01*
Y287390D01*
X934329Y288674D01*
X934119Y288989D01*
Y289312D01*
X942516Y297708D01*
X943911Y297307D01*
X944662Y296182D01*
X946040Y295262D01*
X947665Y294938D01*
X962415D01*
X964040Y295262D01*
X965418Y296182D01*
X966338Y297560D01*
X966662Y299185D01*
Y308935D01*
X966338Y310560D01*
X965418Y311938D01*
X964040Y312858D01*
X962415Y313182D01*
D02*
G37*
G36*
X797490Y303530D02*
X788670D01*
Y294710D01*
X794900D01*
X795891Y294907D01*
X796731Y295469D01*
X797293Y296309D01*
X797490Y297300D01*
Y303530D01*
D02*
G37*
G36*
X786130D02*
X777310D01*
Y297300D01*
X777507Y296309D01*
X778069Y295469D01*
X778909Y294907D01*
X779900Y294710D01*
X786130D01*
Y303530D01*
D02*
G37*
G36*
X660400Y314927D02*
X657779Y314582D01*
X655337Y313570D01*
X653239Y311961D01*
X651630Y309863D01*
X650618Y307421D01*
X650273Y304800D01*
X650618Y302179D01*
X651630Y299737D01*
X653239Y297639D01*
X655337Y296030D01*
X657779Y295018D01*
X660400Y294673D01*
X663021Y295018D01*
X665463Y296030D01*
X667561Y297639D01*
X669170Y299737D01*
X670182Y302179D01*
X670527Y304800D01*
X670182Y307421D01*
X669170Y309863D01*
X667561Y311961D01*
X665463Y313570D01*
X663021Y314582D01*
X660400Y314927D01*
D02*
G37*
G36*
X339400Y290127D02*
X336779Y289782D01*
X334337Y288770D01*
X332239Y287161D01*
X330630Y285063D01*
X329618Y282621D01*
X329273Y280000D01*
X329618Y277379D01*
X330630Y274937D01*
X332239Y272839D01*
X334337Y271230D01*
X335515Y270742D01*
Y263858D01*
X334337Y263370D01*
X332239Y261761D01*
X330630Y259663D01*
X329618Y257221D01*
X329273Y254600D01*
X329618Y251979D01*
X330630Y249537D01*
X332239Y247439D01*
X334337Y245830D01*
X336779Y244818D01*
X339400Y244473D01*
X342021Y244818D01*
X344463Y245830D01*
X346561Y247439D01*
X348170Y249537D01*
X349182Y251979D01*
X349527Y254600D01*
X349182Y257221D01*
X348170Y259663D01*
X346561Y261761D01*
X344463Y263370D01*
X343285Y263858D01*
Y270742D01*
X344463Y271230D01*
X346561Y272839D01*
X348170Y274937D01*
X349182Y277379D01*
X349527Y280000D01*
X349182Y282621D01*
X348170Y285063D01*
X346561Y287161D01*
X344463Y288770D01*
X342021Y289782D01*
X339400Y290127D01*
D02*
G37*
G36*
X1258623Y239994D02*
X1256620Y239730D01*
X1253569Y238466D01*
X1252393Y237564D01*
X1251217Y238466D01*
X1248167Y239730D01*
X1246163Y239994D01*
Y227513D01*
Y215032D01*
X1248167Y215296D01*
X1251217Y216559D01*
X1252393Y217461D01*
X1253569Y216559D01*
X1256620Y215296D01*
X1258623Y215032D01*
Y227513D01*
Y239994D01*
D02*
G37*
G36*
X1218730Y246898D02*
X1216883Y246655D01*
X1213979Y245452D01*
X1211486Y243538D01*
X1209572Y241045D01*
X1208369Y238140D01*
X1208126Y236294D01*
X1218730D01*
Y246898D01*
D02*
G37*
G36*
X364800Y290127D02*
X362179Y289782D01*
X359737Y288770D01*
X357639Y287161D01*
X356030Y285063D01*
X355018Y282621D01*
X354673Y280000D01*
X355018Y277379D01*
X356030Y274937D01*
X357639Y272839D01*
X359737Y271230D01*
X360915Y270742D01*
Y263858D01*
X359737Y263370D01*
X357639Y261761D01*
X356030Y259663D01*
X355018Y257221D01*
X354673Y254600D01*
X355018Y251979D01*
X356030Y249537D01*
X357639Y247439D01*
X359737Y245830D01*
X362179Y244818D01*
X364800Y244473D01*
X367421Y244818D01*
X369863Y245830D01*
X371961Y247439D01*
X373570Y249537D01*
X374582Y251979D01*
X374927Y254600D01*
X374582Y257221D01*
X373570Y259663D01*
X371961Y261761D01*
X369863Y263370D01*
X368685Y263858D01*
Y270742D01*
X369863Y271230D01*
X371961Y272839D01*
X373570Y274937D01*
X374582Y277379D01*
X374927Y280000D01*
X374582Y282621D01*
X373570Y285063D01*
X371961Y287161D01*
X369863Y288770D01*
X367421Y289782D01*
X364800Y290127D01*
D02*
G37*
G36*
X861060Y324096D02*
X859353Y323872D01*
X857762Y323213D01*
X856396Y322164D01*
X855347Y320798D01*
X854688Y319207D01*
X854464Y317500D01*
X854688Y315793D01*
X855347Y314202D01*
X856216Y313070D01*
X818811Y275665D01*
X749483D01*
X748884Y276444D01*
X747518Y277493D01*
X745927Y278152D01*
X744220Y278376D01*
X742513Y278152D01*
X740922Y277493D01*
X739556Y276444D01*
X738507Y275078D01*
X737848Y273487D01*
X737624Y271780D01*
X737848Y270073D01*
X738507Y268482D01*
X739556Y267116D01*
X740922Y266067D01*
X742513Y265408D01*
X744220Y265184D01*
X745927Y265408D01*
X747518Y266067D01*
X748884Y267116D01*
X749483Y267895D01*
X820420D01*
X821907Y268191D01*
X823167Y269033D01*
X863807Y309673D01*
X864649Y310933D01*
X864902Y312204D01*
X865724Y312836D01*
X866773Y314202D01*
X867432Y315793D01*
X867656Y317500D01*
X867432Y319207D01*
X866773Y320798D01*
X865724Y322164D01*
X864358Y323213D01*
X862767Y323872D01*
X861060Y324096D01*
D02*
G37*
G36*
X1003670Y290744D02*
X999170D01*
X997886Y290489D01*
X996798Y289762D01*
X996071Y288674D01*
X995816Y287390D01*
Y278890D01*
X996071Y277606D01*
X996798Y276518D01*
X997637Y275957D01*
X997786Y275734D01*
X1005678Y267843D01*
X1005192Y266670D01*
X998580D01*
X997589Y266473D01*
X996749Y265911D01*
X996188Y265071D01*
X996018Y264219D01*
X960179D01*
Y265938D01*
X962415D01*
X964040Y266262D01*
X965418Y267182D01*
X966338Y268560D01*
X966662Y270185D01*
Y279935D01*
X966338Y281560D01*
X965418Y282938D01*
X964040Y283858D01*
X962415Y284182D01*
X947665D01*
X946040Y283858D01*
X944662Y282938D01*
X943742Y281560D01*
X943418Y279935D01*
Y270185D01*
X943742Y268560D01*
X944662Y267182D01*
X946040Y266262D01*
X947665Y265938D01*
X949901D01*
Y264219D01*
X936922D01*
X936752Y265071D01*
X936191Y265911D01*
X935351Y266473D01*
X934360Y266670D01*
X923360D01*
X922369Y266473D01*
X921528Y265911D01*
X921029Y265164D01*
X920360Y265091D01*
X919691Y265164D01*
X919191Y265911D01*
X918351Y266473D01*
X917360Y266670D01*
X916999D01*
Y266700D01*
X916608Y268666D01*
X915494Y270334D01*
X915119Y270709D01*
Y277291D01*
X915329Y277606D01*
X915584Y278890D01*
Y287390D01*
X915329Y288674D01*
X914602Y289762D01*
X913514Y290489D01*
X912230Y290744D01*
X907730D01*
X906446Y290489D01*
X905358Y289762D01*
X904631Y288674D01*
X904376Y287390D01*
Y278890D01*
X904631Y277606D01*
X904841Y277291D01*
Y268580D01*
X905232Y266614D01*
X905179Y266346D01*
X904529Y265911D01*
X903967Y265071D01*
X903770Y264080D01*
Y262965D01*
X889000D01*
X887513Y262669D01*
X886253Y261827D01*
X871013Y246587D01*
X870171Y245327D01*
X869918Y244056D01*
X869096Y243424D01*
X868047Y242058D01*
X867388Y240467D01*
X867164Y238760D01*
X867388Y237053D01*
X868047Y235462D01*
X869096Y234096D01*
X870462Y233047D01*
X872053Y232388D01*
X873760Y232164D01*
X875467Y232388D01*
X877058Y233047D01*
X878424Y234096D01*
X879473Y235462D01*
X880132Y237053D01*
X880356Y238760D01*
X880132Y240467D01*
X879473Y242058D01*
X878604Y243190D01*
X890609Y255195D01*
X903770D01*
Y254080D01*
X903967Y253089D01*
X904529Y252249D01*
X905369Y251687D01*
X906360Y251490D01*
X917360D01*
X918351Y251687D01*
X919191Y252249D01*
X919691Y252996D01*
X920360Y253069D01*
X921029Y252996D01*
X921528Y252249D01*
X922369Y251687D01*
X923360Y251490D01*
X934360D01*
X935351Y251687D01*
X936191Y252249D01*
X936752Y253089D01*
X936922Y253941D01*
X952912D01*
X976485Y230368D01*
X976608Y229433D01*
X977267Y227842D01*
X978316Y226476D01*
X978760Y226135D01*
X978329Y224865D01*
X684869D01*
X674488Y235246D01*
X674616Y236220D01*
X674392Y237927D01*
X673733Y239518D01*
X672684Y240884D01*
X671318Y241933D01*
X669727Y242592D01*
X668020Y242816D01*
X666313Y242592D01*
X664722Y241933D01*
X663356Y240884D01*
X662307Y239518D01*
X661648Y237927D01*
X661424Y236220D01*
X661648Y234513D01*
X662307Y232922D01*
X663356Y231556D01*
X664722Y230507D01*
X666313Y229848D01*
X668020Y229624D01*
X668994Y229752D01*
X680513Y218233D01*
X681773Y217391D01*
X683260Y217095D01*
X1005840D01*
X1006489Y217224D01*
X1006673Y217148D01*
X1008380Y216924D01*
X1010087Y217148D01*
X1011678Y217807D01*
X1013044Y218856D01*
X1014093Y220222D01*
X1014752Y221813D01*
X1014976Y223520D01*
X1014752Y225227D01*
X1014093Y226818D01*
X1013044Y228184D01*
X1011678Y229233D01*
X1010087Y229892D01*
X1008380Y230116D01*
X1006673Y229892D01*
X1005082Y229233D01*
X1003716Y228184D01*
X1002667Y226818D01*
X1002008Y225227D01*
X1001961Y224865D01*
X987631D01*
X987200Y226135D01*
X987644Y226476D01*
X988693Y227842D01*
X989352Y229433D01*
X989576Y231140D01*
X989352Y232847D01*
X988693Y234438D01*
X987644Y235804D01*
X986278Y236853D01*
X984687Y237512D01*
X983753Y237635D01*
X968619Y252768D01*
X969105Y253941D01*
X996018D01*
X996188Y253089D01*
X996749Y252249D01*
X997589Y251687D01*
X998580Y251490D01*
X1002856D01*
X1028493Y225853D01*
X1029753Y225011D01*
X1031240Y224715D01*
X1095671D01*
X1098475Y221911D01*
Y202010D01*
X1097360D01*
X1096369Y201812D01*
X1095529Y201251D01*
X1094967Y200411D01*
X1094770Y199420D01*
Y188420D01*
X1094967Y187429D01*
X1095529Y186589D01*
X1096276Y186089D01*
X1096349Y185420D01*
X1096276Y184751D01*
X1095529Y184251D01*
X1094967Y183411D01*
X1094770Y182420D01*
Y180805D01*
X700989D01*
X668227Y213567D01*
X666967Y214409D01*
X665480Y214705D01*
X625023D01*
X624424Y215484D01*
X623058Y216533D01*
X621467Y217192D01*
X619760Y217416D01*
X618053Y217192D01*
X616462Y216533D01*
X615096Y215484D01*
X614047Y214118D01*
X613388Y212527D01*
X613164Y210820D01*
X613388Y209113D01*
X614047Y207522D01*
X615096Y206156D01*
X616462Y205107D01*
X618053Y204448D01*
X619760Y204224D01*
X621467Y204448D01*
X623058Y205107D01*
X624424Y206156D01*
X625023Y206935D01*
X663871D01*
X696633Y174173D01*
X697893Y173331D01*
X699380Y173036D01*
X1094770D01*
Y171420D01*
X1094967Y170429D01*
X1095529Y169589D01*
X1096369Y169028D01*
X1097360Y168830D01*
X1107360D01*
X1108351Y169028D01*
X1109191Y169589D01*
X1109753Y170429D01*
X1109950Y171420D01*
Y173036D01*
X1123175D01*
X1123940Y171189D01*
X1125949Y168569D01*
X1128569Y166559D01*
X1131620Y165296D01*
X1134893Y164865D01*
X1138167Y165296D01*
X1141217Y166559D01*
X1142393Y167461D01*
X1143569Y166559D01*
X1146620Y165296D01*
X1149893Y164865D01*
X1153167Y165296D01*
X1156217Y166559D01*
X1158837Y168569D01*
X1159372Y169266D01*
X1161764Y168275D01*
X1162995Y168113D01*
X1163157Y166884D01*
X1164360Y163979D01*
X1166274Y161486D01*
X1168767Y159572D01*
X1171672Y158369D01*
X1174788Y157959D01*
X1177905Y158369D01*
X1180808Y159572D01*
X1183302Y161486D01*
X1185216Y163979D01*
X1186419Y166884D01*
X1186829Y170000D01*
X1186419Y173116D01*
X1185216Y176021D01*
X1183947Y177674D01*
X1186377Y180104D01*
X1187219Y181365D01*
X1187515Y182851D01*
X1187219Y184338D01*
X1187205Y184358D01*
X1187884Y185628D01*
X1207393D01*
X1208880Y185924D01*
X1210140Y186766D01*
X1210982Y188026D01*
X1211278Y189513D01*
X1210982Y190999D01*
X1210140Y192260D01*
X1208880Y193102D01*
X1207393Y193398D01*
X1179516D01*
X1178768Y194798D01*
X1177991Y197358D01*
X1178933Y198628D01*
X1209893D01*
X1211380Y198924D01*
X1212640Y199766D01*
X1213482Y201026D01*
X1213778Y202513D01*
X1213482Y203999D01*
X1212640Y205260D01*
X1211380Y206102D01*
X1209893Y206397D01*
X1178933D01*
X1177991Y207668D01*
X1178768Y210228D01*
X1179516Y211628D01*
X1207393D01*
X1208880Y211924D01*
X1210140Y212766D01*
X1210982Y214026D01*
X1211278Y215513D01*
X1210982Y216999D01*
X1210140Y218260D01*
X1208880Y219102D01*
X1207393Y219398D01*
X1187884D01*
X1187205Y220667D01*
X1187219Y220688D01*
X1187515Y222174D01*
X1187219Y223661D01*
X1186377Y224921D01*
X1185117Y225763D01*
X1184435Y225899D01*
X1183908Y227299D01*
X1185216Y229004D01*
X1186419Y231908D01*
X1186829Y235024D01*
X1186419Y238140D01*
X1185216Y241045D01*
X1183302Y243538D01*
X1180808Y245452D01*
X1177905Y246655D01*
X1174788Y247065D01*
X1171672Y246655D01*
X1168767Y245452D01*
X1166274Y243538D01*
X1164360Y241045D01*
X1163157Y238140D01*
X1162995Y236911D01*
X1161764Y236749D01*
X1159373Y235758D01*
X1158837Y236456D01*
X1156217Y238466D01*
X1153167Y239730D01*
X1149893Y240161D01*
X1146620Y239730D01*
X1143569Y238466D01*
X1142393Y237564D01*
X1141217Y238466D01*
X1138167Y239730D01*
X1134893Y240161D01*
X1131620Y239730D01*
X1128569Y238466D01*
X1125949Y236456D01*
X1123940Y233837D01*
X1122676Y230786D01*
X1122245Y227513D01*
X1122676Y224239D01*
X1123940Y221189D01*
X1125949Y218569D01*
X1128569Y216559D01*
X1131620Y215296D01*
X1134893Y214865D01*
X1138167Y215296D01*
X1141217Y216559D01*
X1142393Y217461D01*
X1143569Y216559D01*
X1146620Y215296D01*
X1149893Y214865D01*
X1153167Y215296D01*
X1156217Y216559D01*
X1156332Y216647D01*
X1156366Y216604D01*
X1158860Y214690D01*
X1161764Y213487D01*
X1164880Y213077D01*
X1167997Y213487D01*
X1170901Y214690D01*
X1170989Y214758D01*
X1172032Y213958D01*
X1170863Y211133D01*
X1169841Y206877D01*
X1169497Y202513D01*
X1169841Y198149D01*
X1170863Y193892D01*
X1172033Y191066D01*
X1170990Y190265D01*
X1170901Y190334D01*
X1167997Y191537D01*
X1164880Y191947D01*
X1161764Y191537D01*
X1158860Y190334D01*
X1156366Y188420D01*
X1156333Y188377D01*
X1156217Y188466D01*
X1153167Y189730D01*
X1149893Y190161D01*
X1146620Y189730D01*
X1143569Y188466D01*
X1142393Y187564D01*
X1141217Y188466D01*
X1138167Y189730D01*
X1134893Y190161D01*
X1131620Y189730D01*
X1128569Y188466D01*
X1125949Y186456D01*
X1123940Y183837D01*
X1122684Y180805D01*
X1109950D01*
Y182420D01*
X1109753Y183411D01*
X1109191Y184251D01*
X1108444Y184751D01*
X1108371Y185420D01*
X1108444Y186089D01*
X1109191Y186589D01*
X1109753Y187429D01*
X1109950Y188420D01*
Y199420D01*
X1109753Y200411D01*
X1109191Y201251D01*
X1108351Y201812D01*
X1107360Y202010D01*
X1106245D01*
Y223520D01*
X1105949Y225007D01*
X1105107Y226267D01*
X1100027Y231347D01*
X1098767Y232189D01*
X1097280Y232485D01*
X1032849D01*
X1015029Y250305D01*
X1015518Y251357D01*
X1015639Y251490D01*
X1023176D01*
X1030449Y244217D01*
X1029948Y243007D01*
X1029724Y241300D01*
X1029948Y239593D01*
X1030607Y238002D01*
X1031656Y236636D01*
X1033022Y235587D01*
X1034613Y234928D01*
X1036320Y234704D01*
X1038027Y234928D01*
X1039618Y235587D01*
X1040984Y236636D01*
X1042033Y238002D01*
X1042692Y239593D01*
X1042916Y241300D01*
X1042692Y243007D01*
X1042033Y244598D01*
X1040984Y245964D01*
X1039618Y247013D01*
X1038027Y247672D01*
X1037975Y247679D01*
X1029170Y256484D01*
Y264080D01*
X1028973Y265071D01*
X1028411Y265911D01*
X1027571Y266473D01*
X1026580Y266670D01*
X1021385D01*
X1007025Y281031D01*
Y287390D01*
X1006769Y288674D01*
X1006042Y289762D01*
X1004954Y290489D01*
X1003670Y290744D01*
D02*
G37*
G36*
X1197393Y259180D02*
X1197226Y259147D01*
X1197055Y259158D01*
X1194706Y258849D01*
X1194385Y258740D01*
X1194053Y258674D01*
X1191863Y257767D01*
X1191582Y257579D01*
X1191278Y257429D01*
X1189398Y255986D01*
X1189174Y255732D01*
X1188920Y255508D01*
X1187477Y253628D01*
X1187327Y253324D01*
X1187139Y253043D01*
X1186232Y250853D01*
X1186166Y250521D01*
X1186057Y250200D01*
X1185748Y247851D01*
X1185770Y247513D01*
X1185748Y247175D01*
X1186057Y244825D01*
X1186166Y244505D01*
X1186232Y244172D01*
X1187139Y241983D01*
X1187327Y241701D01*
X1187477Y241397D01*
X1188920Y239517D01*
X1189174Y239294D01*
X1189398Y239039D01*
X1191278Y237597D01*
X1191582Y237447D01*
X1191863Y237259D01*
X1194053Y236352D01*
X1194385Y236286D01*
X1194706Y236177D01*
X1197055Y235868D01*
X1197226Y235879D01*
X1197393Y235845D01*
X1197561Y235879D01*
X1197731Y235868D01*
X1200081Y236177D01*
X1200402Y236286D01*
X1200734Y236352D01*
X1202923Y237259D01*
X1203205Y237447D01*
X1203509Y237597D01*
X1205389Y239039D01*
X1205612Y239294D01*
X1205867Y239517D01*
X1207309Y241397D01*
X1207459Y241701D01*
X1207647Y241983D01*
X1208554Y244172D01*
X1208620Y244505D01*
X1208729Y244825D01*
X1209038Y247175D01*
X1209016Y247513D01*
X1209038Y247851D01*
X1208729Y250200D01*
X1208620Y250521D01*
X1208554Y250853D01*
X1207647Y253043D01*
X1207459Y253324D01*
X1207309Y253628D01*
X1205867Y255508D01*
X1205612Y255732D01*
X1205389Y255986D01*
X1203509Y257429D01*
X1203205Y257579D01*
X1202923Y257767D01*
X1200734Y258674D01*
X1200402Y258740D01*
X1200081Y258849D01*
X1197731Y259158D01*
X1197561Y259147D01*
X1197393Y259180D01*
D02*
G37*
G36*
X1265730Y478408D02*
X1264367Y478228D01*
X1261913Y477212D01*
X1259805Y475595D01*
X1258188Y473488D01*
X1257172Y471034D01*
X1256992Y469670D01*
X1265730D01*
Y478408D01*
D02*
G37*
G36*
X350000Y749937D02*
X345317Y749569D01*
X340749Y748472D01*
X336409Y746674D01*
X332403Y744220D01*
X328831Y741169D01*
X325780Y737597D01*
X323326Y733591D01*
X321528Y729251D01*
X320431Y724683D01*
X320063Y720000D01*
X320431Y715317D01*
X321528Y710749D01*
X323326Y706409D01*
X325780Y702403D01*
X328831Y698831D01*
X332403Y695780D01*
X336409Y693326D01*
X340749Y691528D01*
X344861Y690541D01*
Y640823D01*
X344838Y640819D01*
X343006Y639594D01*
X341782Y637762D01*
X341352Y635600D01*
Y626600D01*
X341782Y624438D01*
X343006Y622606D01*
X344838Y621381D01*
X347000Y620951D01*
X353000D01*
X355162Y621381D01*
X356994Y622606D01*
X358219Y624438D01*
X358648Y626600D01*
Y635600D01*
X358219Y637762D01*
X356994Y639594D01*
X355162Y640819D01*
X355139Y640823D01*
Y690541D01*
X359251Y691528D01*
X363591Y693326D01*
X367597Y695780D01*
X371169Y698831D01*
X374220Y702403D01*
X376674Y706409D01*
X378472Y710749D01*
X379569Y715317D01*
X379937Y720000D01*
X379569Y724683D01*
X378472Y729251D01*
X376674Y733591D01*
X374220Y737597D01*
X371169Y741169D01*
X367597Y744220D01*
X363591Y746674D01*
X359251Y748472D01*
X354683Y749569D01*
X350000Y749937D01*
D02*
G37*
G36*
X1265730Y630808D02*
X1264367Y630628D01*
X1261913Y629612D01*
X1259805Y627995D01*
X1258188Y625887D01*
X1257172Y623433D01*
X1256992Y622070D01*
X1265730D01*
Y630808D01*
D02*
G37*
G36*
X221580Y619575D02*
X207864D01*
Y611270D01*
X224170D01*
Y616985D01*
X223973Y617976D01*
X223411Y618816D01*
X222571Y619378D01*
X221580Y619575D01*
D02*
G37*
G36*
X1305730Y619530D02*
X1298911D01*
Y615800D01*
X1299108Y614809D01*
X1299669Y613969D01*
X1300509Y613407D01*
X1301500Y613210D01*
X1305730D01*
Y619530D01*
D02*
G37*
G36*
X1140000Y630975D02*
X1137366Y630628D01*
X1134912Y629612D01*
X1132805Y627995D01*
X1131188Y625887D01*
X1130690Y624685D01*
X1109010D01*
X1108727Y626105D01*
X1107917Y627317D01*
X1106705Y628127D01*
X1105275Y628412D01*
X1098525D01*
X1097095Y628127D01*
X1096605Y627800D01*
X1090195D01*
X1089705Y628127D01*
X1088275Y628412D01*
X1081525D01*
X1080095Y628127D01*
X1078883Y627317D01*
X1078073Y626105D01*
X1077790Y624685D01*
X1065300D01*
X1063813Y624389D01*
X1062553Y623547D01*
X1039834Y600828D01*
X1038860Y600956D01*
X1037153Y600732D01*
X1035562Y600073D01*
X1034196Y599024D01*
X1033147Y597658D01*
X1032488Y596067D01*
X1032264Y594360D01*
X1032488Y592653D01*
X1033147Y591062D01*
X1034196Y589696D01*
X1035562Y588647D01*
X1037153Y587988D01*
X1038860Y587764D01*
X1040567Y587988D01*
X1042158Y588647D01*
X1043524Y589696D01*
X1044573Y591062D01*
X1045232Y592653D01*
X1045456Y594360D01*
X1045328Y595334D01*
X1066909Y616915D01*
X1077790D01*
X1078073Y615495D01*
X1078883Y614283D01*
X1080095Y613473D01*
X1081525Y613188D01*
X1088275D01*
X1089705Y613473D01*
X1090195Y613800D01*
X1096605D01*
X1097095Y613473D01*
X1098525Y613188D01*
X1105275D01*
X1106705Y613473D01*
X1107917Y614283D01*
X1108727Y615495D01*
X1109010Y616915D01*
X1130690D01*
X1131188Y615713D01*
X1132805Y613605D01*
X1134912Y611988D01*
X1137366Y610972D01*
X1140000Y610625D01*
X1142634Y610972D01*
X1145088Y611988D01*
X1147195Y613605D01*
X1148812Y615713D01*
X1149828Y618167D01*
X1150175Y620800D01*
X1149828Y623433D01*
X1148812Y625887D01*
X1147195Y627995D01*
X1145088Y629612D01*
X1142634Y630628D01*
X1140000Y630975D01*
D02*
G37*
G36*
X127000Y695927D02*
X124379Y695582D01*
X121937Y694570D01*
X119839Y692961D01*
X118230Y690863D01*
X117218Y688421D01*
X116873Y685800D01*
X117218Y683179D01*
X118230Y680737D01*
X119839Y678639D01*
X121861Y677088D01*
Y670148D01*
X101366Y649654D01*
X100252Y647987D01*
X99861Y646020D01*
Y643521D01*
X98338Y643219D01*
X96506Y641994D01*
X95281Y640162D01*
X94852Y638000D01*
Y632000D01*
X95281Y629838D01*
X96506Y628006D01*
X98338Y626781D01*
X100500Y626352D01*
X109500D01*
X111662Y626781D01*
X113494Y628006D01*
X114719Y629838D01*
X115148Y632000D01*
Y638000D01*
X114719Y640162D01*
X113494Y641994D01*
X111662Y643219D01*
X111328Y643285D01*
X110910Y644663D01*
X130634Y664386D01*
X131748Y666053D01*
X132139Y668020D01*
Y677088D01*
X134161Y678639D01*
X135770Y680737D01*
X136782Y683179D01*
X137127Y685800D01*
X136782Y688421D01*
X135770Y690863D01*
X134161Y692961D01*
X132063Y694570D01*
X129621Y695582D01*
X127000Y695927D01*
D02*
G37*
G36*
X1268270Y630808D02*
Y622070D01*
X1277008D01*
X1276828Y623433D01*
X1275812Y625887D01*
X1274195Y627995D01*
X1272087Y629612D01*
X1269633Y630628D01*
X1268270Y630808D01*
D02*
G37*
G36*
X1305730Y628390D02*
X1301500D01*
X1300509Y628193D01*
X1299669Y627631D01*
X1299108Y626791D01*
X1298911Y625800D01*
Y622070D01*
X1305730D01*
Y628390D01*
D02*
G37*
G36*
X205324Y619575D02*
X191608D01*
X190617Y619378D01*
X189777Y618816D01*
X189215Y617976D01*
X189018Y616985D01*
Y611270D01*
X205324D01*
Y619575D01*
D02*
G37*
G36*
X64830Y596609D02*
X63100D01*
X61719Y596335D01*
X60548Y595552D01*
X59765Y594381D01*
X59491Y593000D01*
Y591270D01*
X64830D01*
Y596609D01*
D02*
G37*
G36*
X1140000Y605575D02*
X1137366Y605228D01*
X1134912Y604212D01*
X1132805Y602595D01*
X1131188Y600488D01*
X1130690Y599285D01*
X1109010D01*
X1108727Y600705D01*
X1107917Y601917D01*
X1106705Y602727D01*
X1105275Y603012D01*
X1098525D01*
X1097095Y602727D01*
X1096605Y602400D01*
X1090195D01*
X1089705Y602727D01*
X1088275Y603012D01*
X1081525D01*
X1080095Y602727D01*
X1078883Y601917D01*
X1078073Y600705D01*
X1077790Y599285D01*
X1062760D01*
X1061273Y598989D01*
X1060013Y598147D01*
X1049994Y588128D01*
X1049020Y588256D01*
X1047313Y588032D01*
X1045722Y587373D01*
X1044356Y586324D01*
X1043307Y584958D01*
X1042648Y583367D01*
X1042424Y581660D01*
X1042648Y579953D01*
X1043307Y578362D01*
X1044356Y576996D01*
X1045722Y575947D01*
X1047313Y575288D01*
X1049020Y575064D01*
X1050727Y575288D01*
X1052318Y575947D01*
X1053684Y576996D01*
X1054733Y578362D01*
X1055392Y579953D01*
X1055616Y581660D01*
X1055488Y582634D01*
X1064369Y591515D01*
X1077790D01*
X1078073Y590095D01*
X1078883Y588883D01*
X1080095Y588073D01*
X1081525Y587788D01*
X1088275D01*
X1089705Y588073D01*
X1090195Y588400D01*
X1096605D01*
X1097095Y588073D01*
X1098525Y587788D01*
X1105275D01*
X1106705Y588073D01*
X1107917Y588883D01*
X1108727Y590095D01*
X1109010Y591515D01*
X1130690D01*
X1131188Y590312D01*
X1132805Y588205D01*
X1134912Y586588D01*
X1137366Y585572D01*
X1140000Y585225D01*
X1142634Y585572D01*
X1145088Y586588D01*
X1147195Y588205D01*
X1148812Y590312D01*
X1149828Y592766D01*
X1150175Y595400D01*
X1149828Y598033D01*
X1148812Y600488D01*
X1147195Y602595D01*
X1145088Y604212D01*
X1142634Y605228D01*
X1140000Y605575D01*
D02*
G37*
G36*
X64830Y588730D02*
X59491D01*
Y587000D01*
X59765Y585619D01*
X60548Y584448D01*
X61719Y583665D01*
X63100Y583391D01*
X64830D01*
Y588730D01*
D02*
G37*
G36*
X1161123Y746265D02*
X1025817D01*
X1023849Y746006D01*
X1022015Y745246D01*
X1020440Y744038D01*
X967922Y691520D01*
X966714Y689945D01*
X965954Y688111D01*
X965695Y686143D01*
Y582750D01*
X956750Y573805D01*
X950069D01*
X949893Y574691D01*
X949331Y575531D01*
X948491Y576093D01*
X947500Y576290D01*
X932500D01*
X931509Y576093D01*
X930669Y575531D01*
X930107Y574691D01*
X929910Y573700D01*
Y558700D01*
X930107Y557709D01*
X930669Y556869D01*
X931509Y556307D01*
X932500Y556110D01*
X947500D01*
X948491Y556307D01*
X949331Y556869D01*
X949893Y557709D01*
X950069Y558595D01*
X959900D01*
X961868Y558854D01*
X963702Y559614D01*
X965278Y560822D01*
X977062Y572606D01*
X978235Y572120D01*
Y562270D01*
X964370Y548405D01*
X946581D01*
X945063Y549570D01*
X942621Y550582D01*
X940000Y550927D01*
X937379Y550582D01*
X934937Y549570D01*
X932839Y547961D01*
X931230Y545863D01*
X930218Y543421D01*
X929873Y540800D01*
X930218Y538179D01*
X931230Y535737D01*
X932839Y533639D01*
X934937Y532030D01*
X937379Y531018D01*
X940000Y530673D01*
X942621Y531018D01*
X945063Y532030D01*
X946581Y533195D01*
X967520D01*
X969488Y533454D01*
X971322Y534214D01*
X972898Y535422D01*
X989602Y552126D01*
X990775Y551640D01*
Y549410D01*
X964370Y523005D01*
X946581D01*
X945063Y524170D01*
X942621Y525182D01*
X940000Y525527D01*
X937379Y525182D01*
X934937Y524170D01*
X932839Y522561D01*
X931230Y520463D01*
X930218Y518021D01*
X929873Y515400D01*
X930218Y512779D01*
X931230Y510337D01*
X932839Y508239D01*
X934937Y506630D01*
X937379Y505618D01*
X940000Y505273D01*
X942621Y505618D01*
X945063Y506630D01*
X946581Y507795D01*
X967520D01*
X969488Y508054D01*
X971322Y508814D01*
X972898Y510022D01*
X1002142Y539266D01*
X1003315Y538780D01*
Y536550D01*
X964370Y497605D01*
X946581D01*
X945063Y498770D01*
X942621Y499782D01*
X940000Y500127D01*
X937379Y499782D01*
X934937Y498770D01*
X932839Y497161D01*
X931230Y495063D01*
X930218Y492621D01*
X929873Y490000D01*
X930218Y487379D01*
X931230Y484937D01*
X932839Y482839D01*
X934937Y481230D01*
X937379Y480218D01*
X940000Y479873D01*
X942621Y480218D01*
X945063Y481230D01*
X946581Y482395D01*
X967520D01*
X969488Y482654D01*
X971322Y483414D01*
X972898Y484622D01*
X1016298Y528022D01*
X1017506Y529598D01*
X1018266Y531432D01*
X1018525Y533400D01*
Y667410D01*
X1044550Y693435D01*
X1142390D01*
X1168735Y667090D01*
Y599212D01*
X1168994Y597243D01*
X1169754Y595409D01*
X1170962Y593834D01*
X1250974Y513822D01*
X1252549Y512614D01*
X1254383Y511854D01*
X1256351Y511595D01*
X1260340D01*
X1261913Y510388D01*
X1264367Y509372D01*
X1267000Y509025D01*
X1269633Y509372D01*
X1272087Y510388D01*
X1274195Y512005D01*
X1275812Y514113D01*
X1276828Y516567D01*
X1277175Y519200D01*
X1276828Y521833D01*
X1275812Y524287D01*
X1274195Y526395D01*
X1272087Y528012D01*
X1269633Y529028D01*
X1267000Y529375D01*
X1264367Y529028D01*
X1261913Y528012D01*
X1260340Y526805D01*
X1259502D01*
X1250485Y535822D01*
X1250971Y536995D01*
X1260340D01*
X1261913Y535788D01*
X1264367Y534772D01*
X1267000Y534425D01*
X1269633Y534772D01*
X1272087Y535788D01*
X1274195Y537405D01*
X1275812Y539512D01*
X1276828Y541967D01*
X1277175Y544600D01*
X1276828Y547234D01*
X1275812Y549688D01*
X1274195Y551795D01*
X1272087Y553412D01*
X1269633Y554428D01*
X1267000Y554775D01*
X1264367Y554428D01*
X1261913Y553412D01*
X1260340Y552205D01*
X1251836D01*
X1242819Y561222D01*
X1243305Y562395D01*
X1260340D01*
X1261913Y561188D01*
X1264367Y560172D01*
X1267000Y559825D01*
X1269633Y560172D01*
X1272087Y561188D01*
X1274195Y562805D01*
X1275812Y564912D01*
X1276828Y567366D01*
X1277175Y570000D01*
X1276828Y572634D01*
X1275812Y575088D01*
X1274195Y577195D01*
X1272087Y578812D01*
X1269633Y579828D01*
X1267000Y580175D01*
X1264367Y579828D01*
X1261913Y578812D01*
X1260340Y577605D01*
X1244170D01*
X1235154Y586622D01*
X1235640Y587795D01*
X1260340D01*
X1261913Y586588D01*
X1264367Y585572D01*
X1267000Y585225D01*
X1269633Y585572D01*
X1272087Y586588D01*
X1274195Y588205D01*
X1275812Y590312D01*
X1276828Y592766D01*
X1277175Y595400D01*
X1276828Y598033D01*
X1275812Y600488D01*
X1274195Y602595D01*
X1272087Y604212D01*
X1269633Y605228D01*
X1267000Y605575D01*
X1264367Y605228D01*
X1261913Y604212D01*
X1260340Y603005D01*
X1236504D01*
X1221565Y617944D01*
Y685823D01*
X1221306Y687791D01*
X1220861Y688866D01*
X1220546Y689625D01*
X1219338Y691200D01*
X1166500Y744038D01*
X1164925Y745246D01*
X1163091Y746006D01*
X1161123Y746265D01*
D02*
G37*
G36*
X1265730Y619530D02*
X1256992D01*
X1257172Y618167D01*
X1258188Y615713D01*
X1259805Y613605D01*
X1261913Y611988D01*
X1264367Y610972D01*
X1265730Y610792D01*
Y619530D01*
D02*
G37*
G36*
X1277008D02*
X1268270D01*
Y610792D01*
X1269633Y610972D01*
X1272087Y611988D01*
X1274195Y613605D01*
X1275812Y615713D01*
X1276828Y618167D01*
X1277008Y619530D01*
D02*
G37*
G36*
X205324Y608730D02*
X189018D01*
Y603015D01*
X189215Y602024D01*
X189777Y601184D01*
X190617Y600622D01*
X191608Y600425D01*
X205324D01*
Y608730D01*
D02*
G37*
G36*
X224170D02*
X207864D01*
Y600425D01*
X221580D01*
X222571Y600622D01*
X223411Y601184D01*
X223973Y602024D01*
X224170Y603015D01*
Y608730D01*
D02*
G37*
G36*
X201270Y749837D02*
Y721270D01*
X229837D01*
X229569Y724683D01*
X228472Y729251D01*
X226674Y733591D01*
X224220Y737597D01*
X221169Y741169D01*
X217597Y744220D01*
X213591Y746674D01*
X209251Y748472D01*
X204683Y749569D01*
X201270Y749837D01*
D02*
G37*
G36*
X545000Y723667D02*
X544874Y723642D01*
X544746Y723655D01*
X541610Y723346D01*
X541366Y723272D01*
X541112Y723247D01*
X538096Y722332D01*
X537871Y722212D01*
X537627Y722138D01*
X534847Y720652D01*
X534650Y720490D01*
X534425Y720370D01*
X531989Y718370D01*
X531827Y718173D01*
X531630Y718011D01*
X529630Y715575D01*
X529510Y715350D01*
X529348Y715153D01*
X527862Y712373D01*
X527788Y712129D01*
X527668Y711904D01*
X526753Y708888D01*
X526728Y708634D01*
X526654Y708390D01*
X526345Y705254D01*
X526370Y705000D01*
X526345Y704746D01*
X526654Y701610D01*
X526728Y701366D01*
X526753Y701112D01*
X527668Y698096D01*
X527788Y697871D01*
X527862Y697627D01*
X529348Y694847D01*
X529510Y694650D01*
X529630Y694425D01*
X531630Y691989D01*
X531827Y691827D01*
X531989Y691630D01*
X534425Y689630D01*
X534650Y689510D01*
X534847Y689348D01*
X537627Y687862D01*
X537871Y687788D01*
X538096Y687668D01*
X541112Y686753D01*
X541366Y686728D01*
X541610Y686654D01*
X544746Y686345D01*
X544874Y686358D01*
X545000Y686333D01*
X545126Y686358D01*
X545254Y686345D01*
X548390Y686654D01*
X548634Y686728D01*
X548888Y686753D01*
X551904Y687668D01*
X552129Y687788D01*
X552373Y687862D01*
X555153Y689348D01*
X555350Y689510D01*
X555575Y689630D01*
X558011Y691630D01*
X558173Y691827D01*
X558370Y691989D01*
X560370Y694425D01*
X560490Y694650D01*
X560652Y694847D01*
X562138Y697627D01*
X562212Y697871D01*
X562332Y698096D01*
X563247Y701112D01*
X563272Y701366D01*
X563346Y701610D01*
X563655Y704746D01*
X563630Y705000D01*
X563655Y705254D01*
X563346Y708390D01*
X563272Y708634D01*
X563247Y708888D01*
X562332Y711904D01*
X562212Y712129D01*
X562138Y712373D01*
X560652Y715153D01*
X560490Y715350D01*
X560370Y715575D01*
X558370Y718011D01*
X558173Y718173D01*
X558011Y718370D01*
X555575Y720370D01*
X555350Y720490D01*
X555153Y720652D01*
X552373Y722138D01*
X552129Y722212D01*
X551904Y722332D01*
X548888Y723247D01*
X548634Y723272D01*
X548390Y723346D01*
X545254Y723655D01*
X545126Y723642D01*
X545000Y723667D01*
D02*
G37*
G36*
X229837Y718730D02*
X201270D01*
Y690163D01*
X204683Y690431D01*
X209251Y691528D01*
X213591Y693326D01*
X217597Y695780D01*
X221169Y698831D01*
X224220Y702403D01*
X226674Y706409D01*
X228472Y710749D01*
X229569Y715317D01*
X229837Y718730D01*
D02*
G37*
G36*
X198730Y749837D02*
X195317Y749569D01*
X190749Y748472D01*
X186409Y746674D01*
X182403Y744220D01*
X178831Y741169D01*
X175780Y737597D01*
X173326Y733591D01*
X171528Y729251D01*
X170431Y724683D01*
X170163Y721270D01*
X198730D01*
Y749837D01*
D02*
G37*
G36*
X1350000Y770639D02*
X1345974Y770243D01*
X1342102Y769068D01*
X1338533Y767161D01*
X1335406Y764594D01*
X1332839Y761467D01*
X1330932Y757898D01*
X1329757Y754026D01*
X1329361Y750000D01*
X1329757Y745974D01*
X1330932Y742102D01*
X1332839Y738533D01*
X1335406Y735406D01*
X1338533Y732839D01*
X1342102Y730932D01*
X1345974Y729757D01*
X1350000Y729361D01*
X1354026Y729757D01*
X1357898Y730932D01*
X1361467Y732839D01*
X1364594Y735406D01*
X1367161Y738533D01*
X1369068Y742102D01*
X1370243Y745974D01*
X1370639Y750000D01*
X1370243Y754026D01*
X1369068Y757898D01*
X1367161Y761467D01*
X1364594Y764594D01*
X1361467Y767161D01*
X1357898Y769068D01*
X1354026Y770243D01*
X1350000Y770639D01*
D02*
G37*
G36*
X1061720Y786376D02*
X1060013Y786152D01*
X1058422Y785493D01*
X1057979Y785153D01*
X451068D01*
X449581Y784857D01*
X448321Y784015D01*
X401113Y736807D01*
X400271Y735547D01*
X399975Y734060D01*
Y392769D01*
X338751Y331545D01*
X318458D01*
X318337Y331704D01*
X317988Y332815D01*
X358347Y373173D01*
X359189Y374433D01*
X359485Y375920D01*
Y381831D01*
X360600D01*
X361591Y382028D01*
X362431Y382589D01*
X362993Y383429D01*
X363190Y384420D01*
Y395420D01*
X362993Y396411D01*
X362431Y397252D01*
X361684Y397751D01*
X361611Y398420D01*
X361684Y399089D01*
X362431Y399589D01*
X362993Y400429D01*
X363190Y401420D01*
Y412420D01*
X362993Y413411D01*
X362431Y414251D01*
X361591Y414813D01*
X360739Y414982D01*
Y445942D01*
X362458D01*
X364341Y446316D01*
X365937Y447383D01*
X367004Y448979D01*
X367379Y450862D01*
Y464578D01*
X367004Y466461D01*
X365937Y468057D01*
X364341Y469124D01*
X362458Y469499D01*
X348742D01*
X346859Y469124D01*
X345263Y468057D01*
X344196Y466461D01*
X343821Y464578D01*
Y450862D01*
X344196Y448979D01*
X345263Y447383D01*
X346859Y446316D01*
X348742Y445942D01*
X350461D01*
Y414982D01*
X349609Y414813D01*
X348769Y414251D01*
X348207Y413411D01*
X348010Y412420D01*
Y401420D01*
X348207Y400429D01*
X348769Y399589D01*
X349516Y399089D01*
X349589Y398420D01*
X349516Y397751D01*
X348769Y397252D01*
X348207Y396411D01*
X348010Y395420D01*
Y384420D01*
X348207Y383429D01*
X348769Y382589D01*
X349609Y382028D01*
X350600Y381831D01*
X351715D01*
Y377529D01*
X313351Y339165D01*
X192484D01*
X191514Y340435D01*
X191733Y341534D01*
Y380425D01*
X201580D01*
X202571Y380622D01*
X203411Y381184D01*
X203973Y382024D01*
X204170Y383015D01*
Y396985D01*
X203973Y397976D01*
X203411Y398816D01*
X202571Y399378D01*
X201580Y399575D01*
X191733D01*
Y404272D01*
X207687Y420225D01*
X208621Y420348D01*
X210212Y421007D01*
X211578Y422056D01*
X212627Y423422D01*
X213286Y425013D01*
X213510Y426720D01*
X213286Y428427D01*
X212627Y430018D01*
X211578Y431384D01*
X210212Y432433D01*
X208621Y433092D01*
X206914Y433316D01*
X205207Y433092D01*
X203616Y432433D01*
X202250Y431384D01*
X201201Y430018D01*
X200542Y428427D01*
X200419Y427492D01*
X192906Y419979D01*
X191733Y420465D01*
Y428086D01*
X191342Y430052D01*
X190228Y431720D01*
X181238Y440709D01*
Y442410D01*
X181600D01*
X182591Y442607D01*
X183431Y443169D01*
X183931Y443917D01*
X184600Y443990D01*
X185269Y443917D01*
X185769Y443169D01*
X186609Y442607D01*
X187600Y442410D01*
X191830D01*
Y450000D01*
Y457590D01*
X189616D01*
X189130Y458763D01*
X193778Y463410D01*
X199600D01*
X200591Y463607D01*
X201431Y464169D01*
X201993Y465009D01*
X202190Y466000D01*
Y477000D01*
X201993Y477991D01*
X201431Y478831D01*
X200684Y479331D01*
X200611Y480000D01*
X200684Y480669D01*
X201431Y481169D01*
X201993Y482009D01*
X202190Y483000D01*
Y494000D01*
X201993Y494991D01*
X201431Y495831D01*
X200591Y496393D01*
X199600Y496590D01*
X198485D01*
Y501910D01*
X199600D01*
X200591Y502107D01*
X201431Y502669D01*
X201993Y503509D01*
X202190Y504500D01*
Y515500D01*
X201993Y516491D01*
X201431Y517331D01*
X200684Y517831D01*
X200611Y518500D01*
X200684Y519169D01*
X201431Y519669D01*
X201993Y520509D01*
X202190Y521500D01*
Y525730D01*
X194600D01*
X187010D01*
Y521500D01*
X187207Y520509D01*
X187769Y519669D01*
X188516Y519169D01*
X188589Y518500D01*
X188516Y517831D01*
X187769Y517331D01*
X187207Y516491D01*
X187010Y515500D01*
Y504500D01*
X187207Y503509D01*
X187769Y502669D01*
X188609Y502107D01*
X189600Y501910D01*
X190715D01*
Y496590D01*
X189600D01*
X188609Y496393D01*
X187769Y495831D01*
X187207Y494991D01*
X187010Y494000D01*
Y492384D01*
X183669D01*
X174307Y501747D01*
X173046Y502589D01*
X171560Y502885D01*
X166514D01*
X166493Y502991D01*
X165931Y503831D01*
X165091Y504393D01*
X164100Y504590D01*
X152600D01*
X151609Y504393D01*
X150769Y503831D01*
X150207Y502991D01*
X150010Y502000D01*
Y496000D01*
X150207Y495009D01*
X150715Y494250D01*
X150207Y493491D01*
X150010Y492500D01*
Y490770D01*
X158350D01*
X166690D01*
Y492500D01*
X166493Y493491D01*
X166157Y493993D01*
X166802Y495116D01*
X169951D01*
X179313Y485753D01*
X180574Y484911D01*
X182060Y484615D01*
X187010D01*
Y483000D01*
X187207Y482009D01*
X187769Y481169D01*
X188516Y480669D01*
X188589Y480000D01*
X188516Y479331D01*
X187769Y478831D01*
X187207Y477991D01*
X187010Y477000D01*
Y471178D01*
X173422Y457590D01*
X170600D01*
X169609Y457393D01*
X168769Y456831D01*
X168207Y455991D01*
X168010Y455000D01*
Y445000D01*
X168207Y444009D01*
X168769Y443169D01*
X169609Y442607D01*
X170600Y442410D01*
X170961D01*
Y438580D01*
X171352Y436614D01*
X172466Y434947D01*
X181455Y425957D01*
Y406400D01*
Y399575D01*
X171608D01*
X170617Y399378D01*
X169777Y398816D01*
X169215Y397976D01*
X169018Y396985D01*
Y395139D01*
X149690D01*
Y415500D01*
X149493Y416491D01*
X148931Y417331D01*
X148091Y417893D01*
X147100Y418090D01*
X123828D01*
X123448Y418636D01*
X123259Y419317D01*
X141531Y437589D01*
X142093Y438429D01*
X142290Y439420D01*
Y442410D01*
X142263Y442542D01*
X142591Y442607D01*
X143431Y443169D01*
X143931Y443917D01*
X144600Y443990D01*
X145269Y443917D01*
X145769Y443169D01*
X146609Y442607D01*
X147600Y442410D01*
X158600D01*
X159591Y442607D01*
X160431Y443169D01*
X160993Y444009D01*
X161190Y445000D01*
Y455000D01*
X160993Y455991D01*
X160431Y456831D01*
X159591Y457393D01*
X158600Y457590D01*
X156985D01*
Y463911D01*
X161097Y468023D01*
X161939Y469283D01*
X162235Y470770D01*
Y474410D01*
X164100D01*
X165091Y474607D01*
X165931Y475169D01*
X166493Y476009D01*
X166690Y477000D01*
Y483000D01*
X166493Y483991D01*
X165986Y484750D01*
X166493Y485509D01*
X166690Y486500D01*
Y488230D01*
X158350D01*
X150010D01*
Y486500D01*
X150207Y485509D01*
X150715Y484750D01*
X150207Y483991D01*
X150010Y483000D01*
Y477000D01*
X150207Y476009D01*
X150769Y475169D01*
X151609Y474607D01*
X152600Y474410D01*
X154465D01*
Y472379D01*
X150353Y468267D01*
X149511Y467007D01*
X149216Y465520D01*
Y457590D01*
X147600D01*
X146609Y457393D01*
X145769Y456831D01*
X145269Y456083D01*
X144600Y456010D01*
X143931Y456083D01*
X143431Y456831D01*
X142591Y457393D01*
X142263Y457458D01*
X142290Y457590D01*
Y474410D01*
X142144Y475144D01*
X142181Y475169D01*
X142743Y476009D01*
X142940Y477000D01*
Y483000D01*
X142743Y483991D01*
X142235Y484750D01*
X142743Y485509D01*
X142940Y486500D01*
Y492500D01*
X142743Y493491D01*
X142333Y494104D01*
X142431Y494169D01*
X142993Y495009D01*
X143190Y496000D01*
Y502000D01*
X142993Y502991D01*
X142431Y503831D01*
X141591Y504393D01*
X140600Y504590D01*
X139739D01*
Y507900D01*
X139759Y508000D01*
X139368Y509967D01*
X138254Y511634D01*
X138239Y511648D01*
Y532410D01*
X138600D01*
X139591Y532607D01*
X140431Y533169D01*
X140993Y534009D01*
X141162Y534861D01*
X184600D01*
X186567Y535252D01*
X188234Y536366D01*
X252292Y600425D01*
X269586D01*
X270577Y600622D01*
X271417Y601184D01*
X271979Y602024D01*
X272176Y603015D01*
Y603961D01*
X341479D01*
X341782Y602438D01*
X343006Y600606D01*
X344838Y599381D01*
X347000Y598951D01*
X353000D01*
X355162Y599381D01*
X356994Y600606D01*
X358219Y602438D01*
X358648Y604600D01*
Y613600D01*
X358219Y615762D01*
X356994Y617594D01*
X355162Y618819D01*
X353000Y619249D01*
X347000D01*
X344838Y618819D01*
X343006Y617594D01*
X341782Y615762D01*
X341479Y614239D01*
X272176D01*
Y616985D01*
X271979Y617976D01*
X271417Y618816D01*
X270577Y619378D01*
X269586Y619575D01*
X259656D01*
X259348Y621127D01*
X258234Y622794D01*
X242394Y638634D01*
X240727Y639748D01*
X238760Y640139D01*
X136723D01*
X136719Y640162D01*
X135494Y641994D01*
X133662Y643219D01*
X131500Y643649D01*
X122500D01*
X120338Y643219D01*
X118506Y641994D01*
X117282Y640162D01*
X116852Y638000D01*
Y632000D01*
X117282Y629838D01*
X118506Y628006D01*
X120338Y626781D01*
X122500Y626352D01*
X131500D01*
X133662Y626781D01*
X135494Y628006D01*
X136719Y629838D01*
X136723Y629861D01*
X236632D01*
X245745Y620748D01*
X245259Y619575D01*
X239614D01*
X238623Y619378D01*
X237783Y618816D01*
X237221Y617976D01*
X237024Y616985D01*
Y603015D01*
X237221Y602024D01*
X237783Y601184D01*
X237848Y600516D01*
X182472Y545139D01*
X141162D01*
X140993Y545991D01*
X140431Y546831D01*
X139591Y547393D01*
X138600Y547590D01*
X138239D01*
Y563880D01*
Y581500D01*
X137848Y583466D01*
X136734Y585133D01*
X132690Y589178D01*
Y595000D01*
X132493Y595991D01*
X131931Y596831D01*
X131091Y597393D01*
X130100Y597590D01*
X119100D01*
X118109Y597393D01*
X117269Y596831D01*
X116769Y596084D01*
X116100Y596011D01*
X115431Y596084D01*
X114931Y596831D01*
X114091Y597393D01*
X113100Y597590D01*
X102100D01*
X101109Y597393D01*
X100269Y596831D01*
X99708Y595991D01*
X99510Y595000D01*
Y593885D01*
X89533D01*
X89435Y594381D01*
X88652Y595552D01*
X87481Y596335D01*
X86100Y596609D01*
X80100D01*
X78719Y596335D01*
X77548Y595552D01*
X77179Y595000D01*
X72021D01*
X71652Y595552D01*
X70481Y596335D01*
X69100Y596609D01*
X67370D01*
Y590000D01*
Y583391D01*
X69100D01*
X70481Y583665D01*
X71652Y584448D01*
X72021Y585000D01*
X77179D01*
X77548Y584448D01*
X78719Y583665D01*
X80100Y583391D01*
X86100D01*
X87481Y583665D01*
X88652Y584448D01*
X89435Y585619D01*
X89533Y586115D01*
X99510D01*
Y585000D01*
X99708Y584009D01*
X100269Y583169D01*
X101109Y582607D01*
X102100Y582410D01*
X113100D01*
X114091Y582607D01*
X114931Y583169D01*
X115431Y583916D01*
X116100Y583989D01*
X116769Y583916D01*
X117269Y583169D01*
X118109Y582607D01*
X119100Y582410D01*
X124923D01*
X127962Y579371D01*
Y569019D01*
X68580D01*
X66613Y568628D01*
X64946Y567514D01*
X6526Y509094D01*
X5412Y507426D01*
X5021Y505460D01*
Y119380D01*
X5412Y117414D01*
X6526Y115746D01*
X29386Y92886D01*
X31054Y91772D01*
X33020Y91381D01*
X56291D01*
X99906Y47766D01*
X101573Y46652D01*
X103540Y46261D01*
X152558D01*
X152728Y45409D01*
X153289Y44569D01*
X154129Y44007D01*
X155121Y43810D01*
X155482D01*
Y40039D01*
X155873Y38073D01*
X156987Y36406D01*
X166546Y26846D01*
X168214Y25732D01*
X170180Y25341D01*
X960120D01*
X962086Y25732D01*
X963754Y26846D01*
X1037414Y100506D01*
X1038528Y102174D01*
X1038919Y104140D01*
Y115511D01*
X1042444D01*
Y108588D01*
X1042753Y107036D01*
X1043632Y105720D01*
X1044948Y104841D01*
X1046500Y104532D01*
X1055125D01*
X1056676Y104841D01*
X1057992Y105720D01*
X1058871Y107036D01*
X1059180Y108588D01*
Y132712D01*
X1058871Y134264D01*
X1057992Y135580D01*
X1056676Y136459D01*
X1055125Y136768D01*
X1046500D01*
X1044948Y136459D01*
X1043632Y135580D01*
X1042753Y134264D01*
X1042444Y132712D01*
Y125789D01*
X1038919D01*
Y140734D01*
X1039493Y141482D01*
X1040152Y143073D01*
X1040376Y144780D01*
X1040152Y146487D01*
X1039493Y148078D01*
X1038444Y149444D01*
X1037078Y150493D01*
X1035487Y151152D01*
X1033780Y151376D01*
X1032073Y151152D01*
X1030482Y150493D01*
X1029116Y149444D01*
X1028067Y148078D01*
X1027408Y146487D01*
X1027184Y144780D01*
X1027408Y143073D01*
X1028067Y141482D01*
X1028641Y140734D01*
Y121920D01*
Y106269D01*
X957991Y35619D01*
X172309D01*
X165759Y42168D01*
Y43810D01*
X166121D01*
X167112Y44007D01*
X167952Y44569D01*
X168451Y45316D01*
X169120Y45389D01*
X169790Y45316D01*
X170289Y44569D01*
X171129Y44007D01*
X172120Y43810D01*
X183120D01*
X184111Y44007D01*
X184951Y44569D01*
X185513Y45409D01*
X185710Y46400D01*
Y47515D01*
X238111D01*
Y46400D01*
X238308Y45409D01*
X238869Y44569D01*
X239709Y44007D01*
X240700Y43810D01*
X251700D01*
X252691Y44007D01*
X253531Y44569D01*
X254031Y45316D01*
X254700Y45389D01*
X255369Y45316D01*
X255869Y44569D01*
X256709Y44007D01*
X257700Y43810D01*
X261930D01*
Y51400D01*
Y58990D01*
X257700D01*
X256709Y58793D01*
X255869Y58231D01*
X255369Y57484D01*
X254700Y57411D01*
X254031Y57484D01*
X253531Y58231D01*
X252691Y58793D01*
X251700Y58990D01*
X250085D01*
Y69210D01*
X251700D01*
X252691Y69407D01*
X253531Y69969D01*
X254031Y70717D01*
X254700Y70790D01*
X255369Y70717D01*
X255869Y69969D01*
X256709Y69407D01*
X257700Y69210D01*
X261930D01*
Y76800D01*
Y84390D01*
X257700D01*
X256709Y84193D01*
X255869Y83631D01*
X255369Y82883D01*
X254700Y82810D01*
X254031Y82883D01*
X253531Y83631D01*
X252691Y84193D01*
X251700Y84390D01*
X250085D01*
Y89651D01*
X265947Y105513D01*
X266789Y106773D01*
X267085Y108260D01*
Y118342D01*
X268263Y118830D01*
X270361Y120439D01*
X271705Y122192D01*
X272975Y121761D01*
Y96520D01*
X273271Y95033D01*
X274113Y93773D01*
X298133Y69753D01*
X299393Y68911D01*
X300880Y68616D01*
X331810D01*
Y67000D01*
X332007Y66009D01*
X332569Y65169D01*
X333409Y64608D01*
X334400Y64411D01*
X344400D01*
X345391Y64608D01*
X346231Y65169D01*
X346793Y66009D01*
X346990Y67000D01*
Y68616D01*
X357210D01*
Y67000D01*
X357407Y66009D01*
X357969Y65169D01*
X358809Y64608D01*
X359800Y64411D01*
X369800D01*
X370791Y64608D01*
X371631Y65169D01*
X372193Y66009D01*
X372390Y67000D01*
Y78000D01*
X372193Y78991D01*
X371631Y79832D01*
X370884Y80331D01*
X370811Y81000D01*
X370884Y81669D01*
X371631Y82169D01*
X372193Y83009D01*
X372390Y84000D01*
Y95000D01*
X372193Y95991D01*
X371631Y96831D01*
X370791Y97393D01*
X369800Y97590D01*
X368685D01*
Y118342D01*
X369863Y118830D01*
X371961Y120439D01*
X373570Y122537D01*
X374582Y124979D01*
X374927Y127600D01*
X374582Y130221D01*
X373570Y132663D01*
X371961Y134761D01*
X369863Y136370D01*
X368685Y136858D01*
Y143742D01*
X369863Y144230D01*
X371961Y145839D01*
X373570Y147937D01*
X374582Y150379D01*
X374927Y153000D01*
X374582Y155621D01*
X373570Y158063D01*
X371961Y160161D01*
X370967Y160923D01*
X370884Y162190D01*
X373719Y165025D01*
X557530D01*
X559017Y165321D01*
X560277Y166163D01*
X637747Y243633D01*
X638589Y244893D01*
X638885Y246380D01*
Y295542D01*
X640063Y296030D01*
X642161Y297639D01*
X643770Y299737D01*
X644782Y302179D01*
X645127Y304800D01*
X644782Y307421D01*
X643770Y309863D01*
X642161Y311961D01*
X640063Y313570D01*
X638885Y314058D01*
Y314960D01*
X638589Y316447D01*
X637747Y317707D01*
X622507Y332947D01*
X621247Y333789D01*
X619760Y334085D01*
X529493D01*
X496645Y366933D01*
Y523240D01*
X496349Y524727D01*
X495507Y525987D01*
X477947Y543547D01*
X476687Y544389D01*
X475200Y544685D01*
X469258D01*
X468770Y545863D01*
X467161Y547961D01*
X465063Y549570D01*
X462621Y550582D01*
X460000Y550927D01*
X457379Y550582D01*
X454937Y549570D01*
X452839Y547961D01*
X451230Y545863D01*
X450218Y543421D01*
X449873Y540800D01*
X450218Y538179D01*
X451230Y535737D01*
X452839Y533639D01*
X454937Y532030D01*
X457379Y531018D01*
X460000Y530673D01*
X462621Y531018D01*
X465063Y532030D01*
X467161Y533639D01*
X468770Y535737D01*
X469258Y536915D01*
X473591D01*
X488875Y521631D01*
Y365324D01*
X489171Y363838D01*
X490013Y362577D01*
X525137Y327453D01*
X526398Y326611D01*
X527884Y326315D01*
X618151D01*
X629735Y314731D01*
X629463Y313207D01*
X627839Y311961D01*
X626230Y309863D01*
X625218Y307421D01*
X624873Y304800D01*
X625218Y302179D01*
X626230Y299737D01*
X627839Y297639D01*
X629937Y296030D01*
X631115Y295542D01*
Y247989D01*
X555921Y172795D01*
X372110D01*
X370623Y172499D01*
X369363Y171657D01*
X362053Y164347D01*
X361211Y163087D01*
X361058Y162317D01*
X359737Y161770D01*
X357639Y160161D01*
X356030Y158063D01*
X355018Y155621D01*
X354673Y153000D01*
X355018Y150379D01*
X356030Y147937D01*
X357639Y145839D01*
X359737Y144230D01*
X360915Y143742D01*
Y136858D01*
X359737Y136370D01*
X357639Y134761D01*
X356030Y132663D01*
X355018Y130221D01*
X354673Y127600D01*
X355018Y124979D01*
X356030Y122537D01*
X357639Y120439D01*
X359737Y118830D01*
X360915Y118342D01*
Y97590D01*
X359800D01*
X358809Y97393D01*
X357969Y96831D01*
X357407Y95991D01*
X357210Y95000D01*
Y84000D01*
X357407Y83009D01*
X357969Y82169D01*
X358716Y81669D01*
X358789Y81000D01*
X358716Y80331D01*
X357969Y79832D01*
X357407Y78991D01*
X357210Y78000D01*
Y76385D01*
X346990D01*
Y78000D01*
X346793Y78991D01*
X346231Y79832D01*
X345484Y80331D01*
X345411Y81000D01*
X345484Y81669D01*
X346231Y82169D01*
X346793Y83009D01*
X346990Y84000D01*
Y95000D01*
X346793Y95991D01*
X346231Y96831D01*
X345391Y97393D01*
X344400Y97590D01*
X343285D01*
Y118342D01*
X344463Y118830D01*
X346561Y120439D01*
X348170Y122537D01*
X349182Y124979D01*
X349527Y127600D01*
X349182Y130221D01*
X348170Y132663D01*
X346561Y134761D01*
X344463Y136370D01*
X343285Y136858D01*
Y143742D01*
X344463Y144230D01*
X346561Y145839D01*
X348170Y147937D01*
X349182Y150379D01*
X349527Y153000D01*
X349182Y155621D01*
X348170Y158063D01*
X346561Y160161D01*
X344463Y161770D01*
X344362Y161812D01*
X344064Y163310D01*
X355939Y175185D01*
X552450D01*
X553937Y175481D01*
X555197Y176323D01*
X612347Y233473D01*
X613189Y234733D01*
X613485Y236220D01*
Y295542D01*
X614663Y296030D01*
X616761Y297639D01*
X618370Y299737D01*
X619382Y302179D01*
X619727Y304800D01*
X619382Y307421D01*
X618370Y309863D01*
X616761Y311961D01*
X614663Y313570D01*
X612221Y314582D01*
X609600Y314927D01*
X606979Y314582D01*
X604537Y313570D01*
X602439Y311961D01*
X600830Y309863D01*
X600342Y308685D01*
X524849D01*
X481405Y352129D01*
Y510540D01*
X481109Y512027D01*
X480267Y513287D01*
X475407Y518147D01*
X474147Y518989D01*
X472660Y519285D01*
X469258D01*
X468770Y520463D01*
X467161Y522561D01*
X465063Y524170D01*
X462621Y525182D01*
X460000Y525527D01*
X457379Y525182D01*
X454937Y524170D01*
X452839Y522561D01*
X451230Y520463D01*
X450218Y518021D01*
X449873Y515400D01*
X450218Y512779D01*
X451230Y510337D01*
X452839Y508239D01*
X454937Y506630D01*
X457379Y505618D01*
X460000Y505273D01*
X462621Y505618D01*
X465063Y506630D01*
X467161Y508239D01*
X468770Y510337D01*
X469258Y511515D01*
X471051D01*
X473635Y508931D01*
Y350520D01*
X473931Y349033D01*
X474773Y347773D01*
X520493Y302053D01*
X521753Y301211D01*
X523240Y300915D01*
X600342D01*
X600830Y299737D01*
X602439Y297639D01*
X604537Y296030D01*
X605715Y295542D01*
Y243411D01*
X604445Y242980D01*
X604104Y243424D01*
X602738Y244473D01*
X601147Y245132D01*
X599440Y245356D01*
X597733Y245132D01*
X596142Y244473D01*
X594776Y243424D01*
X593727Y242058D01*
X593068Y240467D01*
X592844Y238760D01*
X592972Y237786D01*
X567541Y212355D01*
X554788D01*
X554302Y213528D01*
X568583Y227809D01*
X569793Y227308D01*
X571500Y227084D01*
X573207Y227308D01*
X574798Y227967D01*
X576164Y229016D01*
X577213Y230382D01*
X577872Y231973D01*
X578096Y233680D01*
X577872Y235387D01*
X577213Y236978D01*
X576164Y238344D01*
X574798Y239393D01*
X573207Y240052D01*
X571500Y240276D01*
X569793Y240052D01*
X568202Y239393D01*
X566836Y238344D01*
X565787Y236978D01*
X565128Y235387D01*
X565121Y235335D01*
X553639Y223853D01*
X552776Y224222D01*
X552491Y224501D01*
X552696Y226060D01*
X552472Y227767D01*
X551813Y229358D01*
X550764Y230724D01*
X549398Y231773D01*
X548450Y232165D01*
X548094Y233605D01*
X553693Y239205D01*
X554136Y239176D01*
X555502Y238127D01*
X557093Y237468D01*
X558800Y237244D01*
X560507Y237468D01*
X562098Y238127D01*
X563464Y239176D01*
X564513Y240542D01*
X565172Y242133D01*
X565396Y243840D01*
X565172Y245547D01*
X564513Y247138D01*
X563464Y248504D01*
X562098Y249553D01*
X560507Y250212D01*
X558800Y250436D01*
X557093Y250212D01*
X555502Y249553D01*
X554136Y248504D01*
X553537Y247725D01*
X552835D01*
X552035Y247566D01*
X551410Y248736D01*
X575649Y272975D01*
X584017D01*
X584616Y272196D01*
X585982Y271147D01*
X587573Y270488D01*
X589280Y270264D01*
X590987Y270488D01*
X592578Y271147D01*
X593944Y272196D01*
X594993Y273562D01*
X595652Y275153D01*
X595876Y276860D01*
X595652Y278567D01*
X594993Y280158D01*
X593944Y281524D01*
X592578Y282573D01*
X590987Y283232D01*
X589280Y283456D01*
X587573Y283232D01*
X585982Y282573D01*
X584616Y281524D01*
X584017Y280745D01*
X574040D01*
X572553Y280449D01*
X571293Y279607D01*
X524361Y232675D01*
X515439D01*
X515008Y233945D01*
X515204Y234096D01*
X516253Y235462D01*
X516912Y237053D01*
X517136Y238760D01*
X516912Y240467D01*
X516253Y242058D01*
X515204Y243424D01*
X513838Y244473D01*
X512247Y245132D01*
X510540Y245356D01*
X508833Y245132D01*
X507242Y244473D01*
X505876Y243424D01*
X504827Y242058D01*
X504168Y240467D01*
X503944Y238760D01*
X502795Y237755D01*
X171599D01*
X165485Y243869D01*
Y245342D01*
X166663Y245830D01*
X168761Y247439D01*
X170370Y249537D01*
X171382Y251979D01*
X171727Y254600D01*
X171382Y257221D01*
X170370Y259663D01*
X168761Y261761D01*
X166663Y263370D01*
X165485Y263858D01*
Y270742D01*
X166663Y271230D01*
X168761Y272839D01*
X170370Y274937D01*
X171382Y277379D01*
X171727Y280000D01*
X171382Y282621D01*
X170370Y285063D01*
X168761Y287161D01*
X166663Y288770D01*
X164221Y289782D01*
X161600Y290127D01*
X158979Y289782D01*
X156537Y288770D01*
X154439Y287161D01*
X152830Y285063D01*
X151818Y282621D01*
X151473Y280000D01*
X151818Y277379D01*
X152830Y274937D01*
X154439Y272839D01*
X156537Y271230D01*
X157715Y270742D01*
Y263858D01*
X156537Y263370D01*
X154439Y261761D01*
X152830Y259663D01*
X151818Y257221D01*
X151473Y254600D01*
X151818Y251979D01*
X152830Y249537D01*
X154439Y247439D01*
X156537Y245830D01*
X157715Y245342D01*
Y242260D01*
X158011Y240773D01*
X158853Y239513D01*
X164518Y233848D01*
X164032Y232675D01*
X128419D01*
X116348Y244745D01*
X116540Y246350D01*
X117961Y247439D01*
X119570Y249537D01*
X120582Y251979D01*
X120927Y254600D01*
X120582Y257221D01*
X119570Y259663D01*
X117961Y261761D01*
X115863Y263370D01*
X114685Y263858D01*
Y270742D01*
X115863Y271230D01*
X117961Y272839D01*
X119570Y274937D01*
X120582Y277379D01*
X120927Y280000D01*
X120582Y282621D01*
X119570Y285063D01*
X117961Y287161D01*
X115863Y288770D01*
X113421Y289782D01*
X110800Y290127D01*
X108179Y289782D01*
X105737Y288770D01*
X103639Y287161D01*
X102030Y285063D01*
X101018Y282621D01*
X100673Y280000D01*
X101018Y277379D01*
X102030Y274937D01*
X103639Y272839D01*
X105737Y271230D01*
X106915Y270742D01*
Y263858D01*
X105737Y263370D01*
X103639Y261761D01*
X102030Y259663D01*
X101018Y257221D01*
X100673Y254600D01*
X101018Y251979D01*
X102030Y249537D01*
X103639Y247439D01*
X105737Y245830D01*
X106915Y245342D01*
Y244800D01*
X107211Y243313D01*
X108053Y242053D01*
X121338Y228768D01*
X120852Y227595D01*
X92859D01*
X89285Y231169D01*
Y245342D01*
X90463Y245830D01*
X92561Y247439D01*
X94170Y249537D01*
X95182Y251979D01*
X95527Y254600D01*
X95182Y257221D01*
X94170Y259663D01*
X92561Y261761D01*
X90463Y263370D01*
X89285Y263858D01*
Y270742D01*
X90463Y271230D01*
X92561Y272839D01*
X94170Y274937D01*
X95182Y277379D01*
X95527Y280000D01*
X95182Y282621D01*
X94170Y285063D01*
X92561Y287161D01*
X90463Y288770D01*
X88021Y289782D01*
X85400Y290127D01*
X82779Y289782D01*
X80337Y288770D01*
X78239Y287161D01*
X76630Y285063D01*
X75618Y282621D01*
X75273Y280000D01*
X75618Y277379D01*
X76630Y274937D01*
X78239Y272839D01*
X80337Y271230D01*
X81515Y270742D01*
Y263858D01*
X80337Y263370D01*
X78239Y261761D01*
X76630Y259663D01*
X75618Y257221D01*
X75273Y254600D01*
X75618Y251979D01*
X76630Y249537D01*
X78239Y247439D01*
X80337Y245830D01*
X81515Y245342D01*
Y229560D01*
X81811Y228073D01*
X82653Y226813D01*
X85778Y223688D01*
X85292Y222515D01*
X72539D01*
X63885Y231169D01*
Y245342D01*
X65063Y245830D01*
X67161Y247439D01*
X68770Y249537D01*
X69782Y251979D01*
X70127Y254600D01*
X69782Y257221D01*
X68770Y259663D01*
X67161Y261761D01*
X65063Y263370D01*
X63885Y263858D01*
Y270742D01*
X65063Y271230D01*
X67161Y272839D01*
X68770Y274937D01*
X69782Y277379D01*
X70127Y280000D01*
X69782Y282621D01*
X68770Y285063D01*
X67161Y287161D01*
X65063Y288770D01*
X62621Y289782D01*
X60000Y290127D01*
X57379Y289782D01*
X54937Y288770D01*
X52839Y287161D01*
X51230Y285063D01*
X50218Y282621D01*
X49873Y280000D01*
X50218Y277379D01*
X51230Y274937D01*
X52839Y272839D01*
X54937Y271230D01*
X56115Y270742D01*
Y263858D01*
X54937Y263370D01*
X52839Y261761D01*
X51230Y259663D01*
X50218Y257221D01*
X49873Y254600D01*
X50218Y251979D01*
X51230Y249537D01*
X52839Y247439D01*
X54937Y245830D01*
X56115Y245342D01*
Y229560D01*
X56411Y228073D01*
X57253Y226813D01*
X65458Y218608D01*
X64972Y217435D01*
X57299D01*
X38485Y236249D01*
Y245342D01*
X39663Y245830D01*
X41761Y247439D01*
X43370Y249537D01*
X44382Y251979D01*
X44727Y254600D01*
X44382Y257221D01*
X43370Y259663D01*
X41761Y261761D01*
X39663Y263370D01*
X38485Y263858D01*
Y270742D01*
X39663Y271230D01*
X41761Y272839D01*
X43370Y274937D01*
X44382Y277379D01*
X44727Y280000D01*
X44382Y282621D01*
X43370Y285063D01*
X41761Y287161D01*
X39663Y288770D01*
X37221Y289782D01*
X34600Y290127D01*
X31979Y289782D01*
X29537Y288770D01*
X27439Y287161D01*
X25830Y285063D01*
X24818Y282621D01*
X24473Y280000D01*
X24818Y277379D01*
X25830Y274937D01*
X27439Y272839D01*
X29537Y271230D01*
X30715Y270742D01*
Y263858D01*
X29537Y263370D01*
X27439Y261761D01*
X25830Y259663D01*
X24818Y257221D01*
X24473Y254600D01*
X24818Y251979D01*
X25830Y249537D01*
X27439Y247439D01*
X29537Y245830D01*
X30715Y245342D01*
Y234640D01*
X31011Y233153D01*
X31853Y231893D01*
X52943Y210803D01*
X54203Y209961D01*
X55690Y209665D01*
X260932D01*
X261418Y208492D01*
X260054Y207128D01*
X259080Y207256D01*
X257373Y207032D01*
X255782Y206373D01*
X254416Y205324D01*
X253367Y203958D01*
X252708Y202367D01*
X252484Y200660D01*
X252708Y198953D01*
X253367Y197362D01*
X254416Y195996D01*
X255782Y194947D01*
X257373Y194288D01*
X259080Y194064D01*
X260787Y194288D01*
X262378Y194947D01*
X263744Y195996D01*
X264793Y197362D01*
X265452Y198953D01*
X265676Y200660D01*
X265548Y201634D01*
X268499Y204585D01*
X319311D01*
X319702Y203702D01*
X319742Y203315D01*
X285853Y169427D01*
X285011Y168167D01*
X284715Y166680D01*
Y162258D01*
X283537Y161770D01*
X282015Y160602D01*
X280745Y161228D01*
Y162560D01*
X280449Y164047D01*
X279607Y165307D01*
X261827Y183087D01*
X260567Y183929D01*
X259080Y184225D01*
X115862D01*
X115548Y185807D01*
X114434Y187474D01*
X97614Y204294D01*
X95947Y205408D01*
X93980Y205799D01*
X27529D01*
X22919Y210408D01*
Y292512D01*
X30069Y299661D01*
X148572D01*
X149098Y298391D01*
X140000Y289293D01*
X138821Y289782D01*
X136200Y290127D01*
X133579Y289782D01*
X131137Y288770D01*
X129039Y287161D01*
X127430Y285063D01*
X126418Y282621D01*
X126073Y280000D01*
X126418Y277379D01*
X127430Y274937D01*
X129039Y272839D01*
X131137Y271230D01*
X132315Y270742D01*
Y263858D01*
X131137Y263370D01*
X129039Y261761D01*
X127430Y259663D01*
X126418Y257221D01*
X126073Y254600D01*
X126418Y251979D01*
X127430Y249537D01*
X129039Y247439D01*
X131137Y245830D01*
X133579Y244818D01*
X136200Y244473D01*
X138821Y244818D01*
X141263Y245830D01*
X143361Y247439D01*
X144970Y249537D01*
X145982Y251979D01*
X146327Y254600D01*
X145982Y257221D01*
X144970Y259663D01*
X143361Y261761D01*
X141263Y263370D01*
X140085Y263858D01*
Y270742D01*
X141263Y271230D01*
X143361Y272839D01*
X144970Y274937D01*
X145982Y277379D01*
X146327Y280000D01*
X145982Y282621D01*
X145493Y283800D01*
X193089Y331395D01*
X202243D01*
X202363Y331236D01*
X202712Y330125D01*
X184253Y311667D01*
X183411Y310407D01*
X183115Y308920D01*
Y289258D01*
X181937Y288770D01*
X179839Y287161D01*
X178230Y285063D01*
X177218Y282621D01*
X176873Y280000D01*
X177218Y277379D01*
X178230Y274937D01*
X179839Y272839D01*
X181937Y271230D01*
X183115Y270742D01*
Y263858D01*
X181937Y263370D01*
X179839Y261761D01*
X178230Y259663D01*
X177218Y257221D01*
X176873Y254600D01*
X177218Y251979D01*
X178230Y249537D01*
X179839Y247439D01*
X181937Y245830D01*
X184379Y244818D01*
X187000Y244473D01*
X189621Y244818D01*
X192063Y245830D01*
X194161Y247439D01*
X195770Y249537D01*
X196782Y251979D01*
X197127Y254600D01*
X196782Y257221D01*
X195770Y259663D01*
X194161Y261761D01*
X192063Y263370D01*
X190885Y263858D01*
Y270742D01*
X192063Y271230D01*
X194161Y272839D01*
X195770Y274937D01*
X196782Y277379D01*
X197127Y280000D01*
X196782Y282621D01*
X195770Y285063D01*
X194161Y287161D01*
X192063Y288770D01*
X190885Y289258D01*
Y307311D01*
X207349Y323775D01*
X215022D01*
X215508Y322602D01*
X209653Y316747D01*
X208811Y315487D01*
X208515Y314000D01*
Y289258D01*
X207337Y288770D01*
X205239Y287161D01*
X203630Y285063D01*
X202618Y282621D01*
X202273Y280000D01*
X202618Y277379D01*
X203630Y274937D01*
X205239Y272839D01*
X207337Y271230D01*
X208515Y270742D01*
Y263858D01*
X207337Y263370D01*
X205239Y261761D01*
X203630Y259663D01*
X202618Y257221D01*
X202273Y254600D01*
X202618Y251979D01*
X203630Y249537D01*
X205239Y247439D01*
X207337Y245830D01*
X209779Y244818D01*
X212400Y244473D01*
X215021Y244818D01*
X217463Y245830D01*
X219561Y247439D01*
X221170Y249537D01*
X222182Y251979D01*
X222527Y254600D01*
X222182Y257221D01*
X221170Y259663D01*
X219561Y261761D01*
X217463Y263370D01*
X216285Y263858D01*
Y270742D01*
X217463Y271230D01*
X219561Y272839D01*
X221170Y274937D01*
X222182Y277379D01*
X222527Y280000D01*
X222182Y282621D01*
X221170Y285063D01*
X219561Y287161D01*
X217463Y288770D01*
X216285Y289258D01*
Y312391D01*
X222589Y318695D01*
X245502D01*
X245988Y317522D01*
X235053Y306587D01*
X234211Y305327D01*
X233915Y303840D01*
Y289258D01*
X232737Y288770D01*
X230639Y287161D01*
X229030Y285063D01*
X228018Y282621D01*
X227673Y280000D01*
X228018Y277379D01*
X229030Y274937D01*
X230639Y272839D01*
X232737Y271230D01*
X233915Y270742D01*
Y263858D01*
X232737Y263370D01*
X230639Y261761D01*
X229030Y259663D01*
X228018Y257221D01*
X227673Y254600D01*
X228018Y251979D01*
X229030Y249537D01*
X230639Y247439D01*
X232737Y245830D01*
X235179Y244818D01*
X237800Y244473D01*
X240421Y244818D01*
X242863Y245830D01*
X244961Y247439D01*
X246570Y249537D01*
X247582Y251979D01*
X247927Y254600D01*
X247582Y257221D01*
X246570Y259663D01*
X244961Y261761D01*
X242863Y263370D01*
X241685Y263858D01*
Y270742D01*
X242863Y271230D01*
X244961Y272839D01*
X246570Y274937D01*
X247582Y277379D01*
X247927Y280000D01*
X247582Y282621D01*
X246570Y285063D01*
X244961Y287161D01*
X242863Y288770D01*
X241685Y289258D01*
Y302231D01*
X253069Y313615D01*
X268362D01*
X268848Y312442D01*
X260453Y304047D01*
X259611Y302787D01*
X259315Y301300D01*
Y289258D01*
X258137Y288770D01*
X256039Y287161D01*
X254430Y285063D01*
X253418Y282621D01*
X253073Y280000D01*
X253418Y277379D01*
X254430Y274937D01*
X256039Y272839D01*
X258137Y271230D01*
X259315Y270742D01*
Y263858D01*
X258137Y263370D01*
X256039Y261761D01*
X254430Y259663D01*
X253418Y257221D01*
X253073Y254600D01*
X253418Y251979D01*
X254430Y249537D01*
X256039Y247439D01*
X258137Y245830D01*
X260579Y244818D01*
X263200Y244473D01*
X265821Y244818D01*
X268263Y245830D01*
X270361Y247439D01*
X271970Y249537D01*
X272982Y251979D01*
X273327Y254600D01*
X272982Y257221D01*
X271970Y259663D01*
X270361Y261761D01*
X268263Y263370D01*
X267085Y263858D01*
Y270742D01*
X268263Y271230D01*
X270361Y272839D01*
X271970Y274937D01*
X272982Y277379D01*
X273327Y280000D01*
X272982Y282621D01*
X271970Y285063D01*
X270361Y287161D01*
X268263Y288770D01*
X267085Y289258D01*
Y299691D01*
X275929Y308535D01*
X288682D01*
X289168Y307362D01*
X285853Y304047D01*
X285011Y302787D01*
X284715Y301300D01*
Y289258D01*
X283537Y288770D01*
X281439Y287161D01*
X279830Y285063D01*
X278818Y282621D01*
X278473Y280000D01*
X278818Y277379D01*
X279830Y274937D01*
X281439Y272839D01*
X283537Y271230D01*
X284715Y270742D01*
Y263858D01*
X283537Y263370D01*
X281439Y261761D01*
X279830Y259663D01*
X278818Y257221D01*
X278473Y254600D01*
X278818Y251979D01*
X279830Y249537D01*
X281439Y247439D01*
X283537Y245830D01*
X285979Y244818D01*
X288600Y244473D01*
X291221Y244818D01*
X293663Y245830D01*
X295761Y247439D01*
X297370Y249537D01*
X298382Y251979D01*
X298727Y254600D01*
X298382Y257221D01*
X297370Y259663D01*
X295761Y261761D01*
X293663Y263370D01*
X292485Y263858D01*
Y270742D01*
X293663Y271230D01*
X295761Y272839D01*
X297370Y274937D01*
X298382Y277379D01*
X298727Y280000D01*
X298382Y282621D01*
X297370Y285063D01*
X295761Y287161D01*
X293663Y288770D01*
X292485Y289258D01*
Y299691D01*
X296249Y303455D01*
X314082D01*
X314568Y302282D01*
X311253Y298967D01*
X310411Y297707D01*
X310115Y296220D01*
Y289258D01*
X308937Y288770D01*
X306839Y287161D01*
X305230Y285063D01*
X304218Y282621D01*
X303873Y280000D01*
X304218Y277379D01*
X305230Y274937D01*
X306839Y272839D01*
X308937Y271230D01*
X310115Y270742D01*
Y263858D01*
X308937Y263370D01*
X306839Y261761D01*
X305230Y259663D01*
X304218Y257221D01*
X303873Y254600D01*
X304218Y251979D01*
X305230Y249537D01*
X306839Y247439D01*
X308937Y245830D01*
X311379Y244818D01*
X314000Y244473D01*
X316621Y244818D01*
X319063Y245830D01*
X321161Y247439D01*
X322770Y249537D01*
X323782Y251979D01*
X324127Y254600D01*
X323782Y257221D01*
X322770Y259663D01*
X321161Y261761D01*
X319063Y263370D01*
X317885Y263858D01*
Y270742D01*
X319063Y271230D01*
X321161Y272839D01*
X322770Y274937D01*
X323782Y277379D01*
X324127Y280000D01*
X323782Y282621D01*
X322770Y285063D01*
X321161Y287161D01*
X319063Y288770D01*
X317885Y289258D01*
Y294611D01*
X321649Y298375D01*
X350881D01*
X352368Y298671D01*
X353628Y299513D01*
X432007Y377892D01*
X432849Y379152D01*
X433145Y380639D01*
Y721058D01*
X464070Y751983D01*
X990043D01*
X991752Y750274D01*
X991624Y749300D01*
X991848Y747593D01*
X992507Y746002D01*
X993556Y744636D01*
X994922Y743587D01*
X996513Y742928D01*
X998220Y742704D01*
X999927Y742928D01*
X1001518Y743587D01*
X1002884Y744636D01*
X1003933Y746002D01*
X1004592Y747593D01*
X1004786Y749071D01*
X1004823Y749305D01*
X1005965Y750305D01*
X1020890D01*
X1022377Y750601D01*
X1023637Y751443D01*
X1025275Y753082D01*
X1025327Y753088D01*
X1026918Y753747D01*
X1028284Y754796D01*
X1029333Y756162D01*
X1029902Y757535D01*
X1030625Y757787D01*
X1031282Y757823D01*
X1031656Y757336D01*
X1033022Y756287D01*
X1034613Y755628D01*
X1036320Y755404D01*
X1038027Y755628D01*
X1039618Y756287D01*
X1040984Y757336D01*
X1042033Y758702D01*
X1042692Y760293D01*
X1042916Y762000D01*
X1042692Y763707D01*
X1042033Y765298D01*
X1040984Y766664D01*
X1039618Y767713D01*
X1038027Y768372D01*
X1037975Y768379D01*
X1035224Y771130D01*
X1035710Y772303D01*
X1040843D01*
X1042552Y770594D01*
X1042424Y769620D01*
X1042648Y767913D01*
X1043307Y766322D01*
X1044356Y764956D01*
X1045722Y763907D01*
X1047313Y763248D01*
X1049020Y763024D01*
X1050727Y763248D01*
X1052318Y763907D01*
X1053684Y764956D01*
X1054733Y766322D01*
X1055392Y767913D01*
X1055616Y769620D01*
X1055392Y771327D01*
X1054733Y772918D01*
X1053684Y774284D01*
X1052318Y775333D01*
X1050727Y775992D01*
X1049804Y776113D01*
X1049887Y777383D01*
X1055634D01*
X1056007Y776482D01*
X1057056Y775116D01*
X1058422Y774067D01*
X1060013Y773408D01*
X1061720Y773184D01*
X1063427Y773408D01*
X1065018Y774067D01*
X1066384Y775116D01*
X1067433Y776482D01*
X1068092Y778073D01*
X1068316Y779780D01*
X1068092Y781487D01*
X1067433Y783078D01*
X1066384Y784444D01*
X1065018Y785493D01*
X1063427Y786152D01*
X1061720Y786376D01*
D02*
G37*
G36*
X855000Y723667D02*
X854874Y723642D01*
X854746Y723655D01*
X851610Y723346D01*
X851366Y723272D01*
X851112Y723247D01*
X848096Y722332D01*
X847871Y722212D01*
X847627Y722138D01*
X844847Y720652D01*
X844650Y720490D01*
X844425Y720370D01*
X841989Y718370D01*
X841827Y718173D01*
X841630Y718011D01*
X839630Y715575D01*
X839510Y715350D01*
X839348Y715153D01*
X837862Y712373D01*
X837788Y712129D01*
X837668Y711904D01*
X836753Y708888D01*
X836728Y708634D01*
X836654Y708390D01*
X836345Y705254D01*
X836370Y705000D01*
X836345Y704746D01*
X836654Y701610D01*
X836728Y701366D01*
X836753Y701112D01*
X837668Y698096D01*
X837788Y697871D01*
X837862Y697627D01*
X839348Y694847D01*
X839510Y694650D01*
X839630Y694425D01*
X841630Y691989D01*
X841827Y691827D01*
X841989Y691630D01*
X844425Y689630D01*
X844650Y689510D01*
X844847Y689348D01*
X847627Y687862D01*
X847871Y687788D01*
X848096Y687668D01*
X851112Y686753D01*
X851366Y686728D01*
X851610Y686654D01*
X854746Y686345D01*
X854874Y686358D01*
X855000Y686333D01*
X855126Y686358D01*
X855254Y686345D01*
X858390Y686654D01*
X858634Y686728D01*
X858888Y686753D01*
X861904Y687668D01*
X862129Y687788D01*
X862373Y687862D01*
X865153Y689348D01*
X865350Y689510D01*
X865575Y689630D01*
X868011Y691630D01*
X868173Y691827D01*
X868370Y691989D01*
X870370Y694425D01*
X870490Y694650D01*
X870652Y694847D01*
X872138Y697627D01*
X872212Y697871D01*
X872332Y698096D01*
X873247Y701112D01*
X873272Y701366D01*
X873346Y701610D01*
X873655Y704746D01*
X873630Y705000D01*
X873655Y705254D01*
X873346Y708390D01*
X873272Y708634D01*
X873247Y708888D01*
X872332Y711904D01*
X872212Y712129D01*
X872138Y712373D01*
X870652Y715153D01*
X870490Y715350D01*
X870370Y715575D01*
X868370Y718011D01*
X868173Y718173D01*
X868011Y718370D01*
X865575Y720370D01*
X865350Y720490D01*
X865153Y720652D01*
X862373Y722138D01*
X862129Y722212D01*
X861904Y722332D01*
X858888Y723247D01*
X858634Y723272D01*
X858390Y723346D01*
X855254Y723655D01*
X855126Y723642D01*
X855000Y723667D01*
D02*
G37*
G36*
X50000Y770639D02*
X45974Y770243D01*
X42102Y769068D01*
X38533Y767161D01*
X35406Y764594D01*
X32839Y761467D01*
X30932Y757898D01*
X29757Y754026D01*
X29361Y750000D01*
X29757Y745974D01*
X30932Y742102D01*
X32839Y738533D01*
X35406Y735406D01*
X38533Y732839D01*
X42102Y730932D01*
X45974Y729757D01*
X50000Y729361D01*
X54026Y729757D01*
X57898Y730932D01*
X61467Y732839D01*
X64594Y735406D01*
X67161Y738533D01*
X69068Y742102D01*
X70243Y745974D01*
X70639Y750000D01*
X70243Y754026D01*
X69068Y757898D01*
X67161Y761467D01*
X64594Y764594D01*
X61467Y767161D01*
X57898Y769068D01*
X54026Y770243D01*
X50000Y770639D01*
D02*
G37*
G36*
X198730Y718730D02*
X170163D01*
X170431Y715317D01*
X171528Y710749D01*
X173326Y706409D01*
X175780Y702403D01*
X178831Y698831D01*
X182403Y695780D01*
X186409Y693326D01*
X190749Y691528D01*
X195317Y690431D01*
X198730Y690163D01*
Y718730D01*
D02*
G37*
G36*
X1370609Y644930D02*
X1365270D01*
Y639591D01*
X1367000D01*
X1368381Y639865D01*
X1369552Y640648D01*
X1370335Y641819D01*
X1370609Y643200D01*
Y644930D01*
D02*
G37*
G36*
X1367000Y652809D02*
X1365270D01*
Y647470D01*
X1370609D01*
Y649200D01*
X1370335Y650581D01*
X1369552Y651752D01*
X1368381Y652535D01*
X1367000Y652809D01*
D02*
G37*
G36*
X1028700Y656836D02*
X1026993Y656612D01*
X1025402Y655953D01*
X1024036Y654904D01*
X1022987Y653538D01*
X1022328Y651947D01*
X1022104Y650240D01*
X1022328Y648533D01*
X1022987Y646942D01*
X1024036Y645576D01*
X1025402Y644527D01*
X1026993Y643868D01*
X1028700Y643644D01*
X1029674Y643772D01*
X1029993Y643453D01*
X1031253Y642611D01*
X1032740Y642315D01*
X1077790D01*
X1078073Y640895D01*
X1078883Y639683D01*
X1080095Y638873D01*
X1081525Y638588D01*
X1088275D01*
X1089705Y638873D01*
X1090195Y639200D01*
X1096605D01*
X1097095Y638873D01*
X1098525Y638588D01*
X1105275D01*
X1106705Y638873D01*
X1107917Y639683D01*
X1108727Y640895D01*
X1109010Y642315D01*
X1130690D01*
X1131188Y641113D01*
X1132805Y639005D01*
X1134912Y637388D01*
X1137366Y636372D01*
X1140000Y636025D01*
X1142634Y636372D01*
X1145088Y637388D01*
X1147195Y639005D01*
X1148812Y641113D01*
X1149828Y643567D01*
X1150175Y646200D01*
X1149828Y648833D01*
X1148812Y651288D01*
X1147195Y653395D01*
X1145088Y655012D01*
X1142634Y656028D01*
X1140000Y656375D01*
X1137366Y656028D01*
X1134912Y655012D01*
X1132805Y653395D01*
X1131188Y651288D01*
X1130690Y650085D01*
X1109010D01*
X1108727Y651505D01*
X1107917Y652717D01*
X1106705Y653527D01*
X1105275Y653812D01*
X1098525D01*
X1097095Y653527D01*
X1096605Y653200D01*
X1090195D01*
X1089705Y653527D01*
X1088275Y653812D01*
X1081525D01*
X1080095Y653527D01*
X1078883Y652717D01*
X1078073Y651505D01*
X1077790Y650085D01*
X1035433D01*
X1035296Y650240D01*
X1035072Y651947D01*
X1034413Y653538D01*
X1033364Y654904D01*
X1031998Y655953D01*
X1030407Y656612D01*
X1028700Y656836D01*
D02*
G37*
G36*
X1267000Y656375D02*
X1264367Y656028D01*
X1261913Y655012D01*
X1259805Y653395D01*
X1258188Y651288D01*
X1257172Y648833D01*
X1256825Y646200D01*
X1257172Y643567D01*
X1258188Y641113D01*
X1259805Y639005D01*
X1261913Y637388D01*
X1264367Y636372D01*
X1267000Y636025D01*
X1269633Y636372D01*
X1272087Y637388D01*
X1274195Y639005D01*
X1275773Y641061D01*
X1298938D01*
X1299107Y640209D01*
X1299669Y639369D01*
X1300509Y638807D01*
X1301500Y638610D01*
X1301861D01*
Y638428D01*
X1302253Y636461D01*
X1303366Y634794D01*
X1308598Y629563D01*
X1308270Y628773D01*
Y620800D01*
Y613210D01*
X1312500D01*
X1313491Y613407D01*
X1314332Y613969D01*
X1314831Y614717D01*
X1315500Y614790D01*
X1316169Y614717D01*
X1316669Y613969D01*
X1317509Y613407D01*
X1318501Y613210D01*
X1329500D01*
X1330491Y613407D01*
X1331332Y613969D01*
X1331962Y614031D01*
X1376621Y569371D01*
Y466949D01*
X1323752Y414079D01*
X1311943D01*
X1311557Y415349D01*
X1311734Y415466D01*
X1327634Y431367D01*
X1328748Y433034D01*
X1329139Y435000D01*
Y460810D01*
X1329500D01*
X1330491Y461007D01*
X1331332Y461569D01*
X1331893Y462409D01*
X1332090Y463400D01*
Y473400D01*
X1331893Y474391D01*
X1331332Y475231D01*
X1330491Y475793D01*
X1329500Y475990D01*
X1327057D01*
X1318040Y485007D01*
X1318381Y485899D01*
X1318633Y486210D01*
X1329500D01*
X1330491Y486407D01*
X1331331Y486969D01*
X1331892Y487809D01*
X1332089Y488800D01*
Y489915D01*
X1340567D01*
X1340665Y489419D01*
X1341448Y488248D01*
X1342619Y487465D01*
X1344000Y487191D01*
X1350000D01*
X1351381Y487465D01*
X1352552Y488248D01*
X1352921Y488800D01*
X1358079D01*
X1358448Y488248D01*
X1359619Y487465D01*
X1361000Y487191D01*
X1362730D01*
Y493800D01*
Y500409D01*
X1361000D01*
X1359619Y500135D01*
X1358448Y499352D01*
X1358079Y498800D01*
X1352921D01*
X1352552Y499352D01*
X1351381Y500135D01*
X1350000Y500409D01*
X1344000D01*
X1342619Y500135D01*
X1341448Y499352D01*
X1340665Y498181D01*
X1340567Y497685D01*
X1332089D01*
Y498800D01*
X1331892Y499791D01*
X1331331Y500631D01*
X1330491Y501193D01*
X1329500Y501390D01*
X1318500D01*
X1317509Y501193D01*
X1316669Y500631D01*
X1316169Y499884D01*
X1315500Y499811D01*
X1314831Y499884D01*
X1314331Y500631D01*
X1313491Y501193D01*
X1312500Y501390D01*
X1301500D01*
X1300509Y501193D01*
X1299669Y500631D01*
X1299107Y499791D01*
X1298938Y498939D01*
X1275773D01*
X1274195Y500995D01*
X1272087Y502612D01*
X1269633Y503628D01*
X1267000Y503975D01*
X1264367Y503628D01*
X1261913Y502612D01*
X1259805Y500995D01*
X1258188Y498887D01*
X1257172Y496433D01*
X1256825Y493800D01*
X1257172Y491166D01*
X1258188Y488713D01*
X1259805Y486605D01*
X1261913Y484988D01*
X1264367Y483972D01*
X1267000Y483625D01*
X1269633Y483972D01*
X1272087Y484988D01*
X1274195Y486605D01*
X1275773Y488661D01*
X1298938D01*
X1299107Y487809D01*
X1299669Y486969D01*
X1300509Y486407D01*
X1301500Y486210D01*
X1302655D01*
X1303366Y485146D01*
X1311253Y477260D01*
X1310727Y475990D01*
X1308270D01*
Y468400D01*
Y460810D01*
X1312500D01*
X1313491Y461007D01*
X1314332Y461569D01*
X1314831Y462317D01*
X1315500Y462390D01*
X1316169Y462317D01*
X1316669Y461569D01*
X1317509Y461007D01*
X1318501Y460810D01*
X1318862D01*
Y437129D01*
X1305972Y424239D01*
X993140D01*
X991173Y423848D01*
X989506Y422734D01*
X979346Y412574D01*
X978232Y410906D01*
X977841Y408940D01*
Y370429D01*
X963843Y356430D01*
X963039Y356702D01*
X962630Y357013D01*
Y367840D01*
X962433Y368831D01*
X961871Y369671D01*
X961124Y370171D01*
X961051Y370840D01*
X961124Y371509D01*
X961871Y372009D01*
X962433Y372849D01*
X962630Y373840D01*
Y384840D01*
X962433Y385831D01*
X961871Y386671D01*
X961031Y387233D01*
X960040Y387430D01*
X950040D01*
X949049Y387233D01*
X948209Y386671D01*
X947647Y385831D01*
X947450Y384840D01*
Y384479D01*
X939770D01*
Y384840D01*
X939573Y385831D01*
X939011Y386671D01*
X938171Y387233D01*
X937180Y387430D01*
X927180D01*
X926189Y387233D01*
X925349Y386671D01*
X924787Y385831D01*
X924590Y384840D01*
Y384479D01*
X916910D01*
Y384840D01*
X916713Y385831D01*
X916151Y386671D01*
X915311Y387233D01*
X914320Y387430D01*
X904320D01*
X903329Y387233D01*
X902489Y386671D01*
X901927Y385831D01*
X901730Y384840D01*
Y383225D01*
X897500D01*
X896013Y382929D01*
X894753Y382087D01*
X876093Y363427D01*
X875251Y362167D01*
X874955Y360680D01*
Y311489D01*
X823891Y260425D01*
X734136D01*
X733036Y261620D01*
X732812Y263327D01*
X732153Y264918D01*
X731104Y266284D01*
X729738Y267333D01*
X728147Y267992D01*
X726440Y268216D01*
X724733Y267992D01*
X723142Y267333D01*
X721776Y266284D01*
X720727Y264918D01*
X720068Y263327D01*
X719844Y261620D01*
X720068Y259913D01*
X720727Y258322D01*
X721776Y256956D01*
X723142Y255907D01*
X724733Y255248D01*
X726440Y255024D01*
X727414Y255152D01*
X728773Y253793D01*
X730033Y252951D01*
X731520Y252655D01*
X825500D01*
X826987Y252951D01*
X828247Y253793D01*
X881587Y307133D01*
X882429Y308393D01*
X882725Y309880D01*
Y359071D01*
X899109Y375455D01*
X901730D01*
Y373840D01*
X901927Y372849D01*
X902489Y372009D01*
X903237Y371509D01*
X903310Y370840D01*
X903237Y370171D01*
X902489Y369671D01*
X901927Y368831D01*
X901730Y367840D01*
Y363610D01*
X909320D01*
X916910D01*
Y367840D01*
X916713Y368831D01*
X916151Y369671D01*
X915403Y370171D01*
X915330Y370840D01*
X915403Y371509D01*
X916151Y372009D01*
X916713Y372849D01*
X916910Y373840D01*
Y374201D01*
X924590D01*
Y373840D01*
X924787Y372849D01*
X925349Y372009D01*
X926096Y371509D01*
X926169Y370840D01*
X926096Y370171D01*
X925349Y369671D01*
X924787Y368831D01*
X924590Y367840D01*
Y363610D01*
X932180D01*
X939770D01*
Y367840D01*
X939573Y368831D01*
X939011Y369671D01*
X938264Y370171D01*
X938191Y370840D01*
X938264Y371509D01*
X939011Y372009D01*
X939573Y372849D01*
X939770Y373840D01*
Y374201D01*
X947450D01*
Y373840D01*
X947647Y372849D01*
X948209Y372009D01*
X948956Y371509D01*
X949029Y370840D01*
X948956Y370171D01*
X948209Y369671D01*
X947647Y368831D01*
X947450Y367840D01*
Y356840D01*
X947647Y355849D01*
X948209Y355009D01*
X949049Y354448D01*
X949901Y354278D01*
Y350108D01*
X944863Y345070D01*
X944799Y345062D01*
X942357Y344050D01*
X940259Y342441D01*
X938650Y340343D01*
X937638Y337901D01*
X937293Y335280D01*
X937638Y332659D01*
X938650Y330217D01*
X940259Y328119D01*
X942357Y326510D01*
X944799Y325498D01*
X947420Y325153D01*
X950041Y325498D01*
X952483Y326510D01*
X954581Y328119D01*
X956190Y330217D01*
X957202Y332659D01*
X957547Y335280D01*
X957202Y337901D01*
X956190Y340343D01*
X955530Y341203D01*
X957169Y342841D01*
X962660D01*
X964626Y343232D01*
X966294Y344346D01*
X986614Y364666D01*
X987728Y366334D01*
X988119Y368300D01*
Y406811D01*
X995268Y413961D01*
X1011467D01*
X1011753Y412772D01*
X1010162Y412113D01*
X1008796Y411064D01*
X1007747Y409698D01*
X1007088Y408107D01*
X1006864Y406400D01*
X1006992Y405426D01*
X998013Y396447D01*
X997171Y395187D01*
X996875Y393700D01*
Y387430D01*
X995760D01*
X994769Y387233D01*
X993929Y386671D01*
X993367Y385831D01*
X993170Y384840D01*
Y373840D01*
X993367Y372849D01*
X993929Y372009D01*
X994677Y371509D01*
X994750Y370840D01*
X994677Y370171D01*
X993929Y369671D01*
X993367Y368831D01*
X993170Y367840D01*
Y363610D01*
X1000760D01*
X1008350D01*
Y367840D01*
X1008153Y368831D01*
X1007591Y369671D01*
X1006843Y370171D01*
X1006770Y370840D01*
X1006843Y371509D01*
X1007591Y372009D01*
X1008153Y372849D01*
X1008350Y373840D01*
Y374201D01*
X1016030D01*
Y373840D01*
X1016227Y372849D01*
X1016789Y372009D01*
X1017536Y371509D01*
X1017609Y370840D01*
X1017536Y370171D01*
X1016789Y369671D01*
X1016227Y368831D01*
X1016030Y367840D01*
Y363610D01*
X1023620D01*
X1031210D01*
Y367840D01*
X1031013Y368831D01*
X1030451Y369671D01*
X1029704Y370171D01*
X1029631Y370840D01*
X1029704Y371509D01*
X1030451Y372009D01*
X1031013Y372849D01*
X1031210Y373840D01*
Y374201D01*
X1038890D01*
Y373840D01*
X1039087Y372849D01*
X1039649Y372009D01*
X1040396Y371509D01*
X1040469Y370840D01*
X1040396Y370171D01*
X1039649Y369671D01*
X1039087Y368831D01*
X1038890Y367840D01*
Y356840D01*
X1039087Y355849D01*
X1039649Y355009D01*
X1040489Y354448D01*
X1041341Y354278D01*
Y352649D01*
X1035226Y346534D01*
X1034112Y344866D01*
X1033964Y344119D01*
X1033797Y344050D01*
X1031699Y342441D01*
X1030090Y340343D01*
X1029078Y337901D01*
X1028733Y335280D01*
X1029078Y332659D01*
X1030090Y330217D01*
X1031699Y328119D01*
X1033797Y326510D01*
X1036239Y325498D01*
X1038860Y325153D01*
X1041481Y325498D01*
X1043923Y326510D01*
X1046021Y328119D01*
X1047630Y330217D01*
X1048642Y332659D01*
X1048987Y335280D01*
X1048642Y337901D01*
X1047630Y340343D01*
X1046021Y342441D01*
X1045999Y342772D01*
X1048608Y345381D01*
X1069340D01*
X1071307Y345772D01*
X1072974Y346886D01*
X1129889Y403801D01*
X1325880D01*
X1327847Y404192D01*
X1329514Y405306D01*
X1385394Y461186D01*
X1386508Y462854D01*
X1386899Y464820D01*
Y571500D01*
X1386508Y573466D01*
X1385394Y575134D01*
X1336094Y624434D01*
X1334427Y625548D01*
X1332460Y625939D01*
X1332063D01*
X1331893Y626791D01*
X1331332Y627631D01*
X1330491Y628193D01*
X1329500Y628390D01*
X1324305D01*
X1314241Y638454D01*
X1314331Y639369D01*
X1314831Y640116D01*
X1315500Y640189D01*
X1316169Y640116D01*
X1316669Y639369D01*
X1317509Y638807D01*
X1318500Y638610D01*
X1329500D01*
X1330491Y638807D01*
X1331331Y639369D01*
X1331892Y640209D01*
X1332090Y641200D01*
Y642315D01*
X1340567D01*
X1340665Y641819D01*
X1341448Y640648D01*
X1342619Y639865D01*
X1344000Y639591D01*
X1350000D01*
X1351381Y639865D01*
X1352552Y640648D01*
X1352921Y641200D01*
X1358079D01*
X1358448Y640648D01*
X1359619Y639865D01*
X1361000Y639591D01*
X1362730D01*
Y646200D01*
Y652809D01*
X1361000D01*
X1359619Y652535D01*
X1358448Y651752D01*
X1358079Y651200D01*
X1352921D01*
X1352552Y651752D01*
X1351381Y652535D01*
X1350000Y652809D01*
X1344000D01*
X1342619Y652535D01*
X1341448Y651752D01*
X1340665Y650581D01*
X1340567Y650085D01*
X1332090D01*
Y651200D01*
X1331892Y652191D01*
X1331331Y653031D01*
X1330491Y653593D01*
X1329500Y653790D01*
X1318500D01*
X1317509Y653593D01*
X1316669Y653031D01*
X1316169Y652284D01*
X1315500Y652211D01*
X1314831Y652284D01*
X1314331Y653031D01*
X1313491Y653593D01*
X1312500Y653790D01*
X1301500D01*
X1300509Y653593D01*
X1299669Y653031D01*
X1299107Y652191D01*
X1298938Y651339D01*
X1275773D01*
X1274195Y653395D01*
X1272087Y655012D01*
X1269633Y656028D01*
X1267000Y656375D01*
D02*
G37*
G36*
X100330Y695890D02*
X94100D01*
X93109Y695693D01*
X92269Y695131D01*
X91707Y694291D01*
X91510Y693300D01*
Y687070D01*
X100330D01*
Y695890D01*
D02*
G37*
G36*
X109100D02*
X102870D01*
Y687070D01*
X111690D01*
Y693300D01*
X111493Y694291D01*
X110931Y695131D01*
X110091Y695693D01*
X109100Y695890D01*
D02*
G37*
G36*
X100330Y684530D02*
X91510D01*
Y678300D01*
X91707Y677309D01*
X92269Y676469D01*
X93109Y675907D01*
X94100Y675710D01*
X100330D01*
Y684530D01*
D02*
G37*
G36*
X111690D02*
X102870D01*
Y675710D01*
X109100D01*
X110091Y675907D01*
X110931Y676469D01*
X111493Y677309D01*
X111690Y678300D01*
Y684530D01*
D02*
G37*
G36*
X1140000Y580175D02*
X1137366Y579828D01*
X1134912Y578812D01*
X1132805Y577195D01*
X1131188Y575088D01*
X1130690Y573885D01*
X1109010D01*
X1108727Y575305D01*
X1107917Y576517D01*
X1106705Y577327D01*
X1105275Y577612D01*
X1098525D01*
X1097095Y577327D01*
X1096605Y577000D01*
X1090195D01*
X1089705Y577327D01*
X1088275Y577612D01*
X1081525D01*
X1080095Y577327D01*
X1078883Y576517D01*
X1078073Y575305D01*
X1077790Y573885D01*
X1067840D01*
X1066353Y573589D01*
X1065093Y572747D01*
X1058973Y566627D01*
X1058131Y565367D01*
X1057835Y563880D01*
Y561523D01*
X1057056Y560924D01*
X1056007Y559558D01*
X1055348Y557967D01*
X1055124Y556260D01*
X1055348Y554553D01*
X1056007Y552962D01*
X1057056Y551596D01*
X1058422Y550547D01*
X1060013Y549888D01*
X1061720Y549664D01*
X1063427Y549888D01*
X1065018Y550547D01*
X1066384Y551596D01*
X1067433Y552962D01*
X1068092Y554553D01*
X1068316Y556260D01*
X1068092Y557967D01*
X1067433Y559558D01*
X1066384Y560924D01*
X1066046Y561184D01*
X1065973Y562639D01*
X1069449Y566115D01*
X1077790D01*
X1078073Y564695D01*
X1078883Y563483D01*
X1080095Y562673D01*
X1081525Y562388D01*
X1088275D01*
X1089705Y562673D01*
X1090195Y563000D01*
X1096605D01*
X1097095Y562673D01*
X1098525Y562388D01*
X1105275D01*
X1106705Y562673D01*
X1107917Y563483D01*
X1108727Y564695D01*
X1109010Y566115D01*
X1130690D01*
X1131188Y564912D01*
X1132805Y562805D01*
X1134912Y561188D01*
X1137366Y560172D01*
X1140000Y559825D01*
X1142634Y560172D01*
X1145088Y561188D01*
X1147195Y562805D01*
X1148812Y564912D01*
X1149828Y567366D01*
X1150175Y570000D01*
X1149828Y572634D01*
X1148812Y575088D01*
X1147195Y577195D01*
X1145088Y578812D01*
X1142634Y579828D01*
X1140000Y580175D01*
D02*
G37*
G36*
X367218Y521450D02*
X356870D01*
Y511102D01*
X358650Y511337D01*
X361492Y512514D01*
X363933Y514387D01*
X365806Y516828D01*
X366983Y519670D01*
X367218Y521450D01*
D02*
G37*
G36*
X354330D02*
X343982D01*
X344217Y519670D01*
X345394Y516828D01*
X347267Y514387D01*
X349708Y512514D01*
X352550Y511337D01*
X354330Y511102D01*
Y521450D01*
D02*
G37*
G36*
Y534338D02*
X352550Y534103D01*
X349708Y532926D01*
X347267Y531053D01*
X345394Y528612D01*
X344217Y525770D01*
X343982Y523990D01*
X354330D01*
Y534338D01*
D02*
G37*
G36*
X193330Y535089D02*
X189600D01*
X188609Y534892D01*
X187769Y534331D01*
X187207Y533491D01*
X187010Y532500D01*
Y528270D01*
X193330D01*
Y535089D01*
D02*
G37*
G36*
X356870Y534338D02*
Y523990D01*
X367218D01*
X366983Y525770D01*
X365806Y528612D01*
X363933Y531053D01*
X361492Y532926D01*
X358650Y534103D01*
X356870Y534338D01*
D02*
G37*
G36*
X1370609Y492530D02*
X1365270D01*
Y487191D01*
X1367000D01*
X1368381Y487465D01*
X1369552Y488248D01*
X1370335Y489419D01*
X1370609Y490800D01*
Y492530D01*
D02*
G37*
G36*
X467500Y500090D02*
X452500D01*
X451509Y499893D01*
X450669Y499331D01*
X450107Y498491D01*
X449910Y497500D01*
Y482500D01*
X450107Y481509D01*
X450669Y480669D01*
X451509Y480107D01*
X452500Y479910D01*
X467500D01*
X468491Y480107D01*
X469331Y480669D01*
X469893Y481509D01*
X470090Y482500D01*
Y497500D01*
X469893Y498491D01*
X469331Y499331D01*
X468491Y499893D01*
X467500Y500090D01*
D02*
G37*
G36*
X1367000Y500409D02*
X1365270D01*
Y495070D01*
X1370609D01*
Y496800D01*
X1370335Y498181D01*
X1369552Y499352D01*
X1368381Y500135D01*
X1367000Y500409D01*
D02*
G37*
G36*
X1140000Y478575D02*
X1137366Y478228D01*
X1134912Y477212D01*
X1132805Y475595D01*
X1131188Y473488D01*
X1130690Y472285D01*
X1109010D01*
X1108727Y473705D01*
X1107917Y474917D01*
X1106705Y475727D01*
X1105275Y476012D01*
X1098525D01*
X1097095Y475727D01*
X1096605Y475400D01*
X1090195D01*
X1089705Y475727D01*
X1088275Y476012D01*
X1081525D01*
X1080095Y475727D01*
X1078883Y474917D01*
X1078073Y473705D01*
X1077790Y472285D01*
X1027171D01*
X1026793Y473198D01*
X1025744Y474564D01*
X1024378Y475613D01*
X1022787Y476272D01*
X1021080Y476496D01*
X1019373Y476272D01*
X1017782Y475613D01*
X1016416Y474564D01*
X1015367Y473198D01*
X1014708Y471607D01*
X1014484Y469900D01*
X1014708Y468193D01*
X1015367Y466602D01*
X1016416Y465236D01*
X1017782Y464187D01*
X1019373Y463528D01*
X1021080Y463304D01*
X1022787Y463528D01*
X1024378Y464187D01*
X1024806Y464515D01*
X1077790D01*
X1078073Y463095D01*
X1078883Y461883D01*
X1080095Y461073D01*
X1081525Y460788D01*
X1088275D01*
X1089705Y461073D01*
X1090195Y461400D01*
X1096605D01*
X1097095Y461073D01*
X1098525Y460788D01*
X1105275D01*
X1106705Y461073D01*
X1107917Y461883D01*
X1108727Y463095D01*
X1109010Y464515D01*
X1130690D01*
X1131188Y463312D01*
X1132805Y461205D01*
X1134912Y459588D01*
X1137366Y458572D01*
X1140000Y458225D01*
X1142634Y458572D01*
X1145088Y459588D01*
X1147195Y461205D01*
X1148812Y463312D01*
X1149828Y465766D01*
X1150175Y468400D01*
X1149828Y471034D01*
X1148812Y473488D01*
X1147195Y475595D01*
X1145088Y477212D01*
X1142634Y478228D01*
X1140000Y478575D01*
D02*
G37*
G36*
Y503975D02*
X1137366Y503628D01*
X1134912Y502612D01*
X1132805Y500995D01*
X1131188Y498887D01*
X1130690Y497685D01*
X1109010D01*
X1108727Y499105D01*
X1107917Y500317D01*
X1106705Y501127D01*
X1105275Y501412D01*
X1098525D01*
X1097095Y501127D01*
X1096605Y500800D01*
X1090195D01*
X1089705Y501127D01*
X1088275Y501412D01*
X1081525D01*
X1080095Y501127D01*
X1078883Y500317D01*
X1078073Y499105D01*
X1077790Y497685D01*
X1017040D01*
X1015553Y497389D01*
X1014293Y496547D01*
X999194Y481448D01*
X998220Y481576D01*
X996513Y481352D01*
X994922Y480693D01*
X993556Y479644D01*
X992507Y478278D01*
X991848Y476687D01*
X991624Y474980D01*
X991848Y473273D01*
X992507Y471682D01*
X993556Y470316D01*
X994922Y469267D01*
X996513Y468608D01*
X998220Y468384D01*
X999927Y468608D01*
X1001518Y469267D01*
X1002884Y470316D01*
X1003933Y471682D01*
X1004592Y473273D01*
X1004816Y474980D01*
X1004688Y475954D01*
X1018649Y489915D01*
X1077790D01*
X1078073Y488495D01*
X1078883Y487283D01*
X1080095Y486473D01*
X1081525Y486188D01*
X1088275D01*
X1089705Y486473D01*
X1090195Y486800D01*
X1096605D01*
X1097095Y486473D01*
X1098525Y486188D01*
X1105275D01*
X1106705Y486473D01*
X1107917Y487283D01*
X1108727Y488495D01*
X1109010Y489915D01*
X1130690D01*
X1131188Y488713D01*
X1132805Y486605D01*
X1134912Y484988D01*
X1137366Y483972D01*
X1140000Y483625D01*
X1142634Y483972D01*
X1145088Y484988D01*
X1147195Y486605D01*
X1148812Y488713D01*
X1149828Y491166D01*
X1150175Y493800D01*
X1149828Y496433D01*
X1148812Y498887D01*
X1147195Y500995D01*
X1145088Y502612D01*
X1142634Y503628D01*
X1140000Y503975D01*
D02*
G37*
G36*
X199600Y535089D02*
X195870D01*
Y528270D01*
X202190D01*
Y532500D01*
X201993Y533491D01*
X201431Y534331D01*
X200591Y534892D01*
X199600Y535089D01*
D02*
G37*
G36*
X469959Y564930D02*
X461270D01*
Y556241D01*
X462621Y556418D01*
X465063Y557430D01*
X467161Y559039D01*
X468770Y561137D01*
X469782Y563579D01*
X469959Y564930D01*
D02*
G37*
G36*
X461270Y576159D02*
Y567470D01*
X469959D01*
X469782Y568821D01*
X468770Y571263D01*
X467161Y573361D01*
X465063Y574970D01*
X462621Y575982D01*
X461270Y576159D01*
D02*
G37*
G36*
X458730Y564930D02*
X450041D01*
X450218Y563579D01*
X451230Y561137D01*
X452839Y559039D01*
X454937Y557430D01*
X457379Y556418D01*
X458730Y556241D01*
Y564930D01*
D02*
G37*
G36*
Y576159D02*
X457379Y575982D01*
X454937Y574970D01*
X452839Y573361D01*
X451230Y571263D01*
X450218Y568821D01*
X450041Y567470D01*
X458730D01*
Y576159D01*
D02*
G37*
G36*
X1305730Y475990D02*
X1301500D01*
X1300509Y475793D01*
X1299669Y475231D01*
X1299108Y474391D01*
X1298911Y473400D01*
Y469670D01*
X1305730D01*
Y475990D01*
D02*
G37*
G36*
X1089200Y556769D02*
X1086050Y556354D01*
X1083115Y555139D01*
X1080595Y553205D01*
X1078661Y550685D01*
X1077446Y547750D01*
X1077031Y544600D01*
X1077446Y541450D01*
X1078661Y538515D01*
X1080595Y535995D01*
X1083115Y534061D01*
X1086050Y532845D01*
X1088367Y532541D01*
Y531259D01*
X1086050Y530955D01*
X1083115Y529739D01*
X1080595Y527805D01*
X1078661Y525285D01*
X1077446Y522350D01*
X1077031Y519200D01*
X1077446Y516050D01*
X1078661Y513116D01*
X1080595Y510595D01*
X1083115Y508661D01*
X1086050Y507445D01*
X1089200Y507031D01*
X1092350Y507445D01*
X1095285Y508661D01*
X1097805Y510595D01*
X1099739Y513116D01*
X1100955Y516050D01*
X1101369Y519200D01*
X1100955Y522350D01*
X1100220Y524122D01*
X1101055Y525197D01*
X1103721D01*
X1103777Y524916D01*
X1104339Y524076D01*
X1105179Y523514D01*
X1106170Y523317D01*
X1118870D01*
X1119861Y523514D01*
X1120701Y524076D01*
X1121263Y524916D01*
X1121319Y525197D01*
X1122849D01*
X1129973Y518073D01*
X1130172Y516567D01*
X1131188Y514113D01*
X1132805Y512005D01*
X1134912Y510388D01*
X1137366Y509372D01*
X1140000Y509025D01*
X1142634Y509372D01*
X1145088Y510388D01*
X1147195Y512005D01*
X1148812Y514113D01*
X1149828Y516567D01*
X1150175Y519200D01*
X1149828Y521833D01*
X1148812Y524287D01*
X1147195Y526395D01*
X1145088Y528012D01*
X1142634Y529028D01*
X1140000Y529375D01*
X1137366Y529028D01*
X1134912Y528012D01*
X1132805Y526395D01*
X1132649Y526385D01*
X1127205Y531829D01*
X1126568Y532254D01*
X1126640Y533009D01*
X1126893Y533565D01*
X1128176Y533820D01*
X1129436Y534662D01*
X1132217Y537444D01*
X1132805Y537405D01*
X1134912Y535788D01*
X1137366Y534772D01*
X1140000Y534425D01*
X1142634Y534772D01*
X1145088Y535788D01*
X1147195Y537405D01*
X1148812Y539512D01*
X1149828Y541967D01*
X1150175Y544600D01*
X1149828Y547234D01*
X1148812Y549688D01*
X1147195Y551795D01*
X1145088Y553412D01*
X1142634Y554428D01*
X1140000Y554775D01*
X1137366Y554428D01*
X1134912Y553412D01*
X1132805Y551795D01*
X1131188Y549688D01*
X1130172Y547234D01*
X1130043Y546257D01*
X1125080Y541294D01*
X1121319D01*
X1121263Y541575D01*
X1120701Y542415D01*
X1119861Y542977D01*
X1118870Y543174D01*
X1106170D01*
X1105179Y542977D01*
X1104339Y542415D01*
X1103777Y541575D01*
X1103721Y541294D01*
X1102215D01*
X1101101Y542564D01*
X1101369Y544600D01*
X1100955Y547750D01*
X1099739Y550685D01*
X1097805Y553205D01*
X1095285Y555139D01*
X1092350Y556354D01*
X1089200Y556769D01*
D02*
G37*
G36*
X1268270Y478408D02*
Y469670D01*
X1277008D01*
X1276828Y471034D01*
X1275812Y473488D01*
X1274195Y475595D01*
X1272087Y477212D01*
X1269633Y478228D01*
X1268270Y478408D01*
D02*
G37*
%LPD*%
G36*
X21766Y197026D02*
X23433Y195912D01*
X25400Y195521D01*
X91852D01*
X105661Y181712D01*
Y161712D01*
X103639Y160161D01*
X102030Y158063D01*
X101018Y155621D01*
X100673Y153000D01*
X101018Y150379D01*
X102030Y147937D01*
X103639Y145839D01*
X105661Y144288D01*
Y136312D01*
X103639Y134761D01*
X102030Y132663D01*
X101018Y130221D01*
X100673Y127600D01*
X101018Y124979D01*
X102030Y122537D01*
X103639Y120439D01*
X105737Y118830D01*
X106441Y118538D01*
Y84390D01*
X106080D01*
X105089Y84193D01*
X104249Y83631D01*
X103687Y82791D01*
X103490Y81800D01*
Y71800D01*
X103687Y70809D01*
X104249Y69969D01*
X105089Y69407D01*
X106080Y69210D01*
X117080D01*
X118071Y69407D01*
X118911Y69969D01*
X119411Y70717D01*
X120080Y70790D01*
X120749Y70717D01*
X121249Y69969D01*
X122089Y69407D01*
X123080Y69210D01*
X127310D01*
Y76800D01*
Y84390D01*
X123080D01*
X122089Y84193D01*
X121249Y83631D01*
X120749Y82883D01*
X120080Y82810D01*
X119411Y82883D01*
X118911Y83631D01*
X118071Y84193D01*
X117080Y84390D01*
X116719D01*
Y119487D01*
X117961Y120439D01*
X119570Y122537D01*
X120582Y124979D01*
X120927Y127600D01*
X120582Y130221D01*
X119570Y132663D01*
X117961Y134761D01*
X115939Y136312D01*
Y144288D01*
X117961Y145839D01*
X119570Y147937D01*
X120582Y150379D01*
X120927Y153000D01*
X120582Y155621D01*
X119570Y158063D01*
X117961Y160161D01*
X115939Y161712D01*
Y176455D01*
X257471D01*
X272975Y160951D01*
Y158839D01*
X271705Y158408D01*
X270361Y160161D01*
X268263Y161770D01*
X265821Y162782D01*
X263200Y163127D01*
X260579Y162782D01*
X258137Y161770D01*
X256039Y160161D01*
X254430Y158063D01*
X253418Y155621D01*
X253073Y153000D01*
X253418Y150379D01*
X254430Y147937D01*
X256039Y145839D01*
X258137Y144230D01*
X259315Y143742D01*
Y136858D01*
X258137Y136370D01*
X256039Y134761D01*
X254430Y132663D01*
X253418Y130221D01*
X253073Y127600D01*
X253418Y124979D01*
X254430Y122537D01*
X256039Y120439D01*
X258137Y118830D01*
X259315Y118342D01*
Y109869D01*
X243453Y94007D01*
X242611Y92747D01*
X242315Y91260D01*
Y84390D01*
X240700D01*
X239709Y84193D01*
X238869Y83631D01*
X238307Y82791D01*
X238110Y81800D01*
Y71800D01*
X238307Y70809D01*
X238869Y69969D01*
X239709Y69407D01*
X240700Y69210D01*
X242316D01*
Y58990D01*
X240700D01*
X239709Y58793D01*
X238869Y58231D01*
X238308Y57391D01*
X238111Y56400D01*
Y55285D01*
X185710D01*
Y56400D01*
X185513Y57391D01*
X184951Y58231D01*
X184111Y58793D01*
X183120Y58990D01*
X172120D01*
X171129Y58793D01*
X170289Y58231D01*
X169790Y57484D01*
X169120Y57411D01*
X168451Y57484D01*
X167952Y58231D01*
X167112Y58793D01*
X166121Y58990D01*
X165249D01*
X164813Y60260D01*
X188464Y83910D01*
X192000D01*
X192991Y84107D01*
X193831Y84669D01*
X194393Y85509D01*
X194590Y86500D01*
Y91500D01*
X194393Y92491D01*
X194053Y93000D01*
X194393Y93509D01*
X194590Y94500D01*
Y99500D01*
X194393Y100491D01*
X193831Y101331D01*
X192991Y101893D01*
X192000Y102090D01*
X190885D01*
Y118342D01*
X192063Y118830D01*
X194161Y120439D01*
X195770Y122537D01*
X196782Y124979D01*
X197127Y127600D01*
X196782Y130221D01*
X195770Y132663D01*
X194161Y134761D01*
X192063Y136370D01*
X190885Y136858D01*
Y143742D01*
X192063Y144230D01*
X194161Y145839D01*
X195770Y147937D01*
X196782Y150379D01*
X197127Y153000D01*
X196782Y155621D01*
X195770Y158063D01*
X194161Y160161D01*
X192063Y161770D01*
X189621Y162782D01*
X187000Y163127D01*
X184379Y162782D01*
X181937Y161770D01*
X179839Y160161D01*
X178230Y158063D01*
X177218Y155621D01*
X176873Y153000D01*
X177218Y150379D01*
X178230Y147937D01*
X179839Y145839D01*
X181937Y144230D01*
X183115Y143742D01*
Y136858D01*
X181937Y136370D01*
X179839Y134761D01*
X178230Y132663D01*
X177218Y130221D01*
X176873Y127600D01*
X177218Y124979D01*
X178230Y122537D01*
X179839Y120439D01*
X181937Y118830D01*
X183115Y118342D01*
Y102090D01*
X182000D01*
X181009Y101893D01*
X180169Y101331D01*
X179607Y100491D01*
X179410Y99500D01*
Y94500D01*
X179607Y93509D01*
X179947Y93000D01*
X179607Y92491D01*
X179410Y91500D01*
Y86500D01*
X179519Y85953D01*
X157874Y64307D01*
X157032Y63047D01*
X156736Y61561D01*
Y58990D01*
X155121D01*
X154129Y58793D01*
X153289Y58231D01*
X152728Y57391D01*
X152558Y56539D01*
X105668D01*
X62054Y100154D01*
X60387Y101268D01*
X58420Y101659D01*
X35148D01*
X15299Y121509D01*
Y201835D01*
X16472Y202321D01*
X21766Y197026D01*
D02*
G37*
G36*
X126260Y481270D02*
X134600D01*
Y480000D01*
X135870D01*
Y474410D01*
X139700D01*
Y457590D01*
X137370D01*
Y450000D01*
Y442410D01*
X139700D01*
Y439420D01*
X111760Y411480D01*
Y363220D01*
X109211D01*
X108188Y364490D01*
X108190Y364500D01*
Y388730D01*
X93850D01*
Y390000D01*
X92580D01*
Y418090D01*
X82100D01*
X81109Y417893D01*
X80269Y417331D01*
X80010Y416944D01*
X78740Y417329D01*
Y482600D01*
X85951D01*
Y480270D01*
X94600D01*
X103249D01*
Y482600D01*
X126260D01*
Y481270D01*
D02*
G37*
G36*
X127962Y547590D02*
X127600D01*
X126609Y547393D01*
X125769Y546831D01*
X125269Y546083D01*
X124600Y546010D01*
X123931Y546083D01*
X123431Y546831D01*
X122591Y547393D01*
X121600Y547590D01*
X117370D01*
Y540000D01*
Y532410D01*
X121600D01*
X122591Y532607D01*
X123431Y533169D01*
X123931Y533917D01*
X124600Y533990D01*
X125269Y533917D01*
X125769Y533169D01*
X126609Y532607D01*
X127600Y532410D01*
X127962D01*
Y509520D01*
X128353Y507553D01*
X129461Y505894D01*
Y504590D01*
X129100D01*
X128109Y504393D01*
X127269Y503831D01*
X126707Y502991D01*
X126510Y502000D01*
Y496000D01*
X126707Y495009D01*
X127117Y494397D01*
X127019Y494331D01*
X126457Y493491D01*
X126260Y492500D01*
Y486500D01*
X126269Y486456D01*
X125260Y485190D01*
X103249D01*
X102992Y485139D01*
X102923D01*
X102818Y485662D01*
X101594Y487494D01*
X99762Y488718D01*
X97600Y489148D01*
X91600D01*
X89438Y488718D01*
X87606Y487494D01*
X86381Y485662D01*
X86275Y485125D01*
X85951Y485190D01*
X78740D01*
X77749Y484993D01*
X76909Y484431D01*
X76347Y483591D01*
X76150Y482600D01*
Y417329D01*
X76175Y417203D01*
X76163Y417075D01*
X76273Y416711D01*
X76347Y416338D01*
X76419Y416231D01*
X76456Y416108D01*
X76697Y415814D01*
X76909Y415498D01*
X77016Y415427D01*
X77097Y415327D01*
X77433Y415148D01*
X77749Y414937D01*
X77875Y414911D01*
X77988Y414851D01*
X79258Y414466D01*
X79386Y414453D01*
X79505Y414404D01*
X79510D01*
Y364500D01*
X79707Y363509D01*
X80269Y362669D01*
X81109Y362107D01*
X82100Y361910D01*
X105600D01*
X106591Y362107D01*
X106715Y362190D01*
X107194Y361595D01*
X107302Y361506D01*
X107380Y361389D01*
X107686Y361184D01*
X107969Y360947D01*
X108103Y360905D01*
X108220Y360827D01*
X108581Y360755D01*
X108933Y360645D01*
X109073Y360658D01*
X109211Y360630D01*
X111760D01*
X112751Y360827D01*
X113591Y361389D01*
X114153Y362229D01*
X114350Y363220D01*
Y410407D01*
X119783Y415841D01*
X120464Y415652D01*
X121010Y415272D01*
Y364500D01*
X121207Y363509D01*
X121769Y362669D01*
X122609Y362107D01*
X123600Y361910D01*
X147100D01*
X148091Y362107D01*
X148931Y362669D01*
X149493Y363509D01*
X149690Y364500D01*
Y384861D01*
X169018D01*
Y383015D01*
X169215Y382024D01*
X169777Y381184D01*
X170617Y380622D01*
X171608Y380425D01*
X181455D01*
Y343662D01*
X162931Y325139D01*
X132662D01*
X132493Y325991D01*
X131931Y326831D01*
X131091Y327393D01*
X130100Y327590D01*
X119100D01*
X118109Y327393D01*
X117269Y326831D01*
X116769Y326084D01*
X116100Y326011D01*
X115431Y326084D01*
X114931Y326831D01*
X114091Y327393D01*
X113100Y327590D01*
X102100D01*
X101109Y327393D01*
X100269Y326831D01*
X99708Y325991D01*
X99538Y325139D01*
X88928D01*
X88652Y325552D01*
X87481Y326335D01*
X86100Y326609D01*
X80100D01*
X78719Y326335D01*
X77548Y325552D01*
X77179Y325000D01*
X72021D01*
X71652Y325552D01*
X70481Y326335D01*
X69100Y326609D01*
X67370D01*
Y320000D01*
Y313391D01*
X69100D01*
X70481Y313665D01*
X71652Y314448D01*
X72021Y315000D01*
X77179D01*
X77548Y314448D01*
X78719Y313665D01*
X80100Y313391D01*
X86100D01*
X87481Y313665D01*
X88652Y314448D01*
X88928Y314861D01*
X99538D01*
X99708Y314009D01*
X100269Y313169D01*
X101109Y312607D01*
X102100Y312410D01*
X113100D01*
X114091Y312607D01*
X114931Y313169D01*
X115431Y313916D01*
X116100Y313989D01*
X116769Y313916D01*
X117269Y313169D01*
X118109Y312607D01*
X119100Y312410D01*
X130100D01*
X131091Y312607D01*
X131931Y313169D01*
X132493Y314009D01*
X132662Y314861D01*
X150995D01*
X151481Y313688D01*
X147732Y309939D01*
X27940D01*
X25973Y309548D01*
X24306Y308434D01*
X16472Y300599D01*
X15299Y301085D01*
Y503331D01*
X70708Y558741D01*
X127962D01*
Y547590D01*
D02*
G37*
%LPC*%
G36*
X212400Y163127D02*
X209779Y162782D01*
X207337Y161770D01*
X205239Y160161D01*
X203630Y158063D01*
X202618Y155621D01*
X202273Y153000D01*
X202618Y150379D01*
X203630Y147937D01*
X205239Y145839D01*
X207337Y144230D01*
X208515Y143742D01*
Y136858D01*
X207337Y136370D01*
X205239Y134761D01*
X203630Y132663D01*
X202618Y130221D01*
X202273Y127600D01*
X202618Y124979D01*
X203630Y122537D01*
X205239Y120439D01*
X207337Y118830D01*
X209779Y117818D01*
X212400Y117473D01*
X215021Y117818D01*
X217463Y118830D01*
X219561Y120439D01*
X221170Y122537D01*
X222182Y124979D01*
X222527Y127600D01*
X222182Y130221D01*
X221170Y132663D01*
X219561Y134761D01*
X217463Y136370D01*
X216285Y136858D01*
Y143742D01*
X217463Y144230D01*
X219561Y145839D01*
X221170Y147937D01*
X222182Y150379D01*
X222527Y153000D01*
X222182Y155621D01*
X221170Y158063D01*
X219561Y160161D01*
X217463Y161770D01*
X215021Y162782D01*
X212400Y163127D01*
D02*
G37*
G36*
X237800D02*
X235179Y162782D01*
X232737Y161770D01*
X230639Y160161D01*
X229030Y158063D01*
X228018Y155621D01*
X227673Y153000D01*
X228018Y150379D01*
X229030Y147937D01*
X230639Y145839D01*
X232737Y144230D01*
X233915Y143742D01*
Y136858D01*
X232737Y136370D01*
X230639Y134761D01*
X229030Y132663D01*
X228018Y130221D01*
X227673Y127600D01*
X228018Y124979D01*
X229030Y122537D01*
X230639Y120439D01*
X232737Y118830D01*
X235179Y117818D01*
X237800Y117473D01*
X240421Y117818D01*
X242863Y118830D01*
X244961Y120439D01*
X246570Y122537D01*
X247582Y124979D01*
X247927Y127600D01*
X247582Y130221D01*
X246570Y132663D01*
X244961Y134761D01*
X242863Y136370D01*
X241685Y136858D01*
Y143742D01*
X242863Y144230D01*
X244961Y145839D01*
X246570Y147937D01*
X247582Y150379D01*
X247927Y153000D01*
X247582Y155621D01*
X246570Y158063D01*
X244961Y160161D01*
X242863Y161770D01*
X240421Y162782D01*
X237800Y163127D01*
D02*
G37*
G36*
X134930Y126330D02*
X126241D01*
X126418Y124979D01*
X127430Y122537D01*
X129039Y120439D01*
X131137Y118830D01*
X133579Y117818D01*
X134930Y117641D01*
Y126330D01*
D02*
G37*
G36*
X171559D02*
X162870D01*
Y117641D01*
X164221Y117818D01*
X166663Y118830D01*
X168761Y120439D01*
X170370Y122537D01*
X171382Y124979D01*
X171559Y126330D01*
D02*
G37*
G36*
X146159D02*
X137470D01*
Y117641D01*
X138821Y117818D01*
X141263Y118830D01*
X143361Y120439D01*
X144970Y122537D01*
X145982Y124979D01*
X146159Y126330D01*
D02*
G37*
G36*
X160330D02*
X151641D01*
X151818Y124979D01*
X152830Y122537D01*
X154439Y120439D01*
X156537Y118830D01*
X158979Y117818D01*
X160330Y117641D01*
Y126330D01*
D02*
G37*
G36*
X85400Y163127D02*
X82779Y162782D01*
X80337Y161770D01*
X78239Y160161D01*
X76630Y158063D01*
X75618Y155621D01*
X75273Y153000D01*
X75618Y150379D01*
X76630Y147937D01*
X78239Y145839D01*
X80337Y144230D01*
X81515Y143742D01*
Y136858D01*
X80337Y136370D01*
X78239Y134761D01*
X76630Y132663D01*
X75618Y130221D01*
X75273Y127600D01*
X75618Y124979D01*
X76630Y122537D01*
X78239Y120439D01*
X80337Y118830D01*
X82779Y117818D01*
X85400Y117473D01*
X88021Y117818D01*
X90463Y118830D01*
X92561Y120439D01*
X94170Y122537D01*
X95182Y124979D01*
X95527Y127600D01*
X95182Y130221D01*
X94170Y132663D01*
X92561Y134761D01*
X90463Y136370D01*
X89285Y136858D01*
Y143742D01*
X90463Y144230D01*
X92561Y145839D01*
X94170Y147937D01*
X95182Y150379D01*
X95527Y153000D01*
X95182Y155621D01*
X94170Y158063D01*
X92561Y160161D01*
X90463Y161770D01*
X88021Y162782D01*
X85400Y163127D01*
D02*
G37*
G36*
X134080Y84390D02*
X129850D01*
Y78070D01*
X136670D01*
Y81800D01*
X136473Y82791D01*
X135912Y83631D01*
X135071Y84193D01*
X134080Y84390D01*
D02*
G37*
G36*
X136670Y75530D02*
X129850D01*
Y69210D01*
X134080D01*
X135071Y69407D01*
X135912Y69969D01*
X136473Y70809D01*
X136670Y71800D01*
Y75530D01*
D02*
G37*
G36*
X34600Y163127D02*
X31979Y162782D01*
X29537Y161770D01*
X27439Y160161D01*
X25830Y158063D01*
X24818Y155621D01*
X24473Y153000D01*
X24818Y150379D01*
X25830Y147937D01*
X27439Y145839D01*
X29537Y144230D01*
X30715Y143742D01*
Y136858D01*
X29537Y136370D01*
X27439Y134761D01*
X25830Y132663D01*
X24818Y130221D01*
X24473Y127600D01*
X24818Y124979D01*
X25830Y122537D01*
X27439Y120439D01*
X29537Y118830D01*
X31979Y117818D01*
X34600Y117473D01*
X37221Y117818D01*
X39663Y118830D01*
X41761Y120439D01*
X43370Y122537D01*
X44382Y124979D01*
X44727Y127600D01*
X44382Y130221D01*
X43370Y132663D01*
X41761Y134761D01*
X39663Y136370D01*
X38485Y136858D01*
Y143742D01*
X39663Y144230D01*
X41761Y145839D01*
X43370Y147937D01*
X44382Y150379D01*
X44727Y153000D01*
X44382Y155621D01*
X43370Y158063D01*
X41761Y160161D01*
X39663Y161770D01*
X37221Y162782D01*
X34600Y163127D01*
D02*
G37*
G36*
X60000D02*
X57379Y162782D01*
X54937Y161770D01*
X52839Y160161D01*
X51230Y158063D01*
X50218Y155621D01*
X49873Y153000D01*
X50218Y150379D01*
X51230Y147937D01*
X52839Y145839D01*
X54937Y144230D01*
X56115Y143742D01*
Y136858D01*
X54937Y136370D01*
X52839Y134761D01*
X51230Y132663D01*
X50218Y130221D01*
X49873Y127600D01*
X50218Y124979D01*
X51230Y122537D01*
X52839Y120439D01*
X54937Y118830D01*
X57379Y117818D01*
X60000Y117473D01*
X62621Y117818D01*
X65063Y118830D01*
X67161Y120439D01*
X68770Y122537D01*
X69782Y124979D01*
X70127Y127600D01*
X69782Y130221D01*
X68770Y132663D01*
X67161Y134761D01*
X65063Y136370D01*
X63885Y136858D01*
Y143742D01*
X65063Y144230D01*
X67161Y145839D01*
X68770Y147937D01*
X69782Y150379D01*
X70127Y153000D01*
X69782Y155621D01*
X68770Y158063D01*
X67161Y160161D01*
X65063Y161770D01*
X62621Y162782D01*
X60000Y163127D01*
D02*
G37*
G36*
X162870Y162959D02*
Y154270D01*
X171559D01*
X171382Y155621D01*
X170370Y158063D01*
X168761Y160161D01*
X166663Y161770D01*
X164221Y162782D01*
X162870Y162959D01*
D02*
G37*
G36*
X160330D02*
X158979Y162782D01*
X156537Y161770D01*
X154439Y160161D01*
X152830Y158063D01*
X151818Y155621D01*
X151641Y154270D01*
X160330D01*
Y162959D01*
D02*
G37*
G36*
X162870Y137559D02*
Y128870D01*
X171559D01*
X171382Y130221D01*
X170370Y132663D01*
X168761Y134761D01*
X166663Y136370D01*
X164221Y137382D01*
X162870Y137559D01*
D02*
G37*
G36*
X134930Y151730D02*
X126241D01*
X126418Y150379D01*
X127430Y147937D01*
X129039Y145839D01*
X131137Y144230D01*
X133579Y143218D01*
X134930Y143041D01*
Y151730D01*
D02*
G37*
G36*
X160330Y137559D02*
X158979Y137382D01*
X156537Y136370D01*
X154439Y134761D01*
X152830Y132663D01*
X151818Y130221D01*
X151641Y128870D01*
X160330D01*
Y137559D01*
D02*
G37*
G36*
X134930D02*
X133579Y137382D01*
X131137Y136370D01*
X129039Y134761D01*
X127430Y132663D01*
X126418Y130221D01*
X126241Y128870D01*
X134930D01*
Y137559D01*
D02*
G37*
G36*
X137470D02*
Y128870D01*
X146159D01*
X145982Y130221D01*
X144970Y132663D01*
X143361Y134761D01*
X141263Y136370D01*
X138821Y137382D01*
X137470Y137559D01*
D02*
G37*
G36*
X134930Y162959D02*
X133579Y162782D01*
X131137Y161770D01*
X129039Y160161D01*
X127430Y158063D01*
X126418Y155621D01*
X126241Y154270D01*
X134930D01*
Y162959D01*
D02*
G37*
G36*
X137470D02*
Y154270D01*
X146159D01*
X145982Y155621D01*
X144970Y158063D01*
X143361Y160161D01*
X141263Y161770D01*
X138821Y162782D01*
X137470Y162959D01*
D02*
G37*
G36*
X171559Y151730D02*
X162870D01*
Y143041D01*
X164221Y143218D01*
X166663Y144230D01*
X168761Y145839D01*
X170370Y147937D01*
X171382Y150379D01*
X171559Y151730D01*
D02*
G37*
G36*
X146159D02*
X137470D01*
Y143041D01*
X138821Y143218D01*
X141263Y144230D01*
X143361Y145839D01*
X144970Y147937D01*
X145982Y150379D01*
X146159Y151730D01*
D02*
G37*
G36*
X160330D02*
X151641D01*
X151818Y150379D01*
X152830Y147937D01*
X154439Y145839D01*
X156537Y144230D01*
X158979Y143218D01*
X160330Y143041D01*
Y151730D01*
D02*
G37*
G36*
X134830Y448730D02*
X128010D01*
Y445000D01*
X128207Y444009D01*
X128769Y443169D01*
X129609Y442607D01*
X130600Y442410D01*
X134830D01*
Y448730D01*
D02*
G37*
G36*
X133330Y478730D02*
X126260D01*
Y477000D01*
X126457Y476009D01*
X127019Y475169D01*
X127859Y474607D01*
X128850Y474410D01*
X133330D01*
Y478730D01*
D02*
G37*
G36*
X93330Y477730D02*
X85951D01*
Y474500D01*
X86381Y472338D01*
X87606Y470506D01*
X89438Y469281D01*
X91600Y468852D01*
X93330D01*
Y477730D01*
D02*
G37*
G36*
X134830Y457590D02*
X130600D01*
X129609Y457393D01*
X128769Y456831D01*
X128207Y455991D01*
X128010Y455000D01*
Y451270D01*
X134830D01*
Y457590D01*
D02*
G37*
G36*
X103249Y477730D02*
X95870D01*
Y468852D01*
X97600D01*
X99762Y469281D01*
X101594Y470506D01*
X102818Y472338D01*
X103249Y474500D01*
Y477730D01*
D02*
G37*
G36*
X105600Y418090D02*
X95120D01*
Y391270D01*
X108190D01*
Y415500D01*
X107993Y416491D01*
X107431Y417331D01*
X106591Y417893D01*
X105600Y418090D01*
D02*
G37*
G36*
X103249Y499730D02*
X95870D01*
Y490852D01*
X97600D01*
X99762Y491281D01*
X101594Y492506D01*
X102818Y494338D01*
X103249Y496500D01*
Y499730D01*
D02*
G37*
G36*
X93330Y511148D02*
X91600D01*
X89438Y510718D01*
X87606Y509494D01*
X86381Y507662D01*
X85951Y505500D01*
Y502270D01*
X93330D01*
Y511148D01*
D02*
G37*
G36*
Y499730D02*
X85951D01*
Y496500D01*
X86381Y494338D01*
X87606Y492506D01*
X89438Y491281D01*
X91600Y490852D01*
X93330D01*
Y499730D01*
D02*
G37*
G36*
X64830Y326609D02*
X63100D01*
X61719Y326335D01*
X60548Y325552D01*
X59765Y324381D01*
X59491Y323000D01*
Y321270D01*
X64830D01*
Y326609D01*
D02*
G37*
G36*
Y318730D02*
X59491D01*
Y317000D01*
X59765Y315619D01*
X60548Y314448D01*
X61719Y313665D01*
X63100Y313391D01*
X64830D01*
Y318730D01*
D02*
G37*
G36*
X114830Y547590D02*
X110600D01*
X109609Y547393D01*
X108769Y546831D01*
X108207Y545991D01*
X108010Y545000D01*
Y541270D01*
X114830D01*
Y547590D01*
D02*
G37*
G36*
X97600Y511148D02*
X95870D01*
Y502270D01*
X103249D01*
Y505500D01*
X102818Y507662D01*
X101594Y509494D01*
X99762Y510718D01*
X97600Y511148D01*
D02*
G37*
G36*
X114830Y538730D02*
X108010D01*
Y535000D01*
X108207Y534009D01*
X108769Y533169D01*
X109609Y532607D01*
X110600Y532410D01*
X114830D01*
Y538730D01*
D02*
G37*
%LPD*%
D10*
X1211156Y182851D02*
G03*
X1211156Y222174I-13763J19662D01*
G01*
X1173393Y202513D02*
G03*
X1183630Y182851I24000J0D01*
G01*
Y222174D02*
G03*
X1173393Y202513I13763J-19662D01*
G01*
X1244893Y222174D02*
X1254555D01*
X1229904D02*
X1244893D01*
X1211156D02*
X1229904D01*
X1189732Y182851D02*
X1211156D01*
X1189732Y222174D02*
X1211156D01*
X557530Y168910D02*
X635000Y246380D01*
X372110Y168910D02*
X557530D01*
X364800Y161600D02*
X372110Y168910D01*
X552450Y179070D02*
X609600Y236220D01*
X354330Y179070D02*
X552450D01*
X339400Y164140D02*
X354330Y179070D01*
X609600Y236220D02*
Y304800D01*
X825500Y256540D02*
X878840Y309880D01*
X731520Y256540D02*
X825500D01*
X726440Y261620D02*
X731520Y256540D01*
X878840Y360680D02*
X897500Y379340D01*
X878840Y309880D02*
Y360680D01*
X110800Y180340D02*
X259080D01*
X1102360Y176920D02*
X1149301D01*
X1149893Y177513D02*
X1164880D01*
X1174788D01*
X1178292D01*
X1183630Y182851D01*
X1173393Y202513D02*
X1209893D01*
X259080Y180340D02*
X276860Y162560D01*
X60000Y127600D02*
Y153000D01*
X294640Y307340D02*
X348777D01*
X288600Y301300D02*
X294640Y307340D01*
X288600Y280000D02*
Y301300D01*
X348777Y307340D02*
X424180Y382743D01*
X34600Y127600D02*
Y153000D01*
X85400Y127600D02*
Y153000D01*
X212400Y127600D02*
Y153000D01*
X364800Y254600D02*
Y280000D01*
X339400Y254600D02*
Y280000D01*
X187000Y127600D02*
Y153000D01*
X266890Y208470D02*
X569150D01*
X259080Y200660D02*
X266890Y208470D01*
X55690Y213550D02*
X548830D01*
X34600Y234640D02*
X55690Y213550D01*
X288600Y127600D02*
Y153000D01*
Y166680D01*
X85400Y254600D02*
Y280000D01*
Y229560D02*
Y254600D01*
X314000D02*
Y280000D01*
Y296220D01*
X364800Y127600D02*
Y153000D01*
Y161600D01*
Y89500D02*
Y127600D01*
X237800D02*
Y153000D01*
X161600Y254600D02*
Y280000D01*
Y242260D02*
Y254600D01*
X237800D02*
Y280000D01*
Y303840D01*
X339400Y127600D02*
Y153000D01*
Y164140D01*
Y89500D02*
Y127600D01*
X34600Y254600D02*
Y280000D01*
X60000Y254600D02*
Y280000D01*
Y229560D02*
Y254600D01*
X136200D02*
Y280000D01*
X191480Y335280D01*
X212400Y254600D02*
Y280000D01*
Y314000D01*
X263200Y127600D02*
Y153000D01*
Y108260D02*
Y127600D01*
X314000D02*
Y153000D01*
Y166680D01*
X110800Y254600D02*
Y280000D01*
Y244800D02*
Y254600D01*
X187000D02*
Y280000D01*
Y308920D01*
X263200Y254600D02*
Y280000D01*
Y301300D01*
X288600Y254600D02*
Y280000D01*
X70930Y218630D02*
X538670D01*
X60000Y229560D02*
X70930Y218630D01*
X85400Y229560D02*
X91250Y223710D01*
X532705D01*
X126810Y228790D02*
X525970D01*
X110800Y244800D02*
X126810Y228790D01*
X169990Y233870D02*
X505650D01*
X161600Y242260D02*
X169990Y233870D01*
X552835Y243840D02*
X558800D01*
X532705Y223710D02*
X552835Y243840D01*
X574040Y276860D02*
X589280D01*
X525970Y228790D02*
X574040Y276860D01*
X538670Y218630D02*
X546100Y226060D01*
X569150Y208470D02*
X599440Y238760D01*
X548830Y213550D02*
X568960Y233680D01*
X505650Y233870D02*
X510540Y238760D01*
X873760D02*
Y243840D01*
X889000Y259080D01*
X668020Y236220D02*
X683260Y220980D01*
X889000Y259080D02*
X911860D01*
X322580Y200660D02*
X452120D01*
X288600Y166680D02*
X322580Y200660D01*
X314000Y166680D02*
X335280Y187960D01*
X426720D01*
X568960Y233680D02*
X571500D01*
X744220Y271780D02*
X820420D01*
X861060Y312420D01*
Y317500D01*
X1000760Y393700D02*
X1013460Y406400D01*
X1000760Y379340D02*
Y393700D01*
X897500Y379340D02*
X909320D01*
X300880Y72500D02*
X339400D01*
X276860Y96520D02*
X300880Y72500D01*
X276860Y96520D02*
Y162560D01*
X339400Y72500D02*
X364800D01*
X1097280Y228600D02*
X1102360Y223520D01*
X1031240Y228600D02*
X1097280D01*
X1004080Y255760D02*
X1031240Y228600D01*
X1005840Y220980D02*
X1008380Y223520D01*
X683260Y220980D02*
X1005840D01*
X1116893Y319333D02*
Y336413D01*
X1102360Y304800D02*
X1116893Y319333D01*
X1222793Y305853D02*
Y336413D01*
X1209040Y292100D02*
X1222793Y305853D01*
X1165860Y292100D02*
X1209040D01*
X1021080Y259080D02*
X1036320Y243840D01*
Y241300D02*
Y243840D01*
X34600Y234640D02*
Y254600D01*
X1017040Y493800D02*
X1084900D01*
X998220Y474980D02*
X1017040Y493800D01*
X991652Y755868D02*
X998220Y749300D01*
X462461Y755868D02*
X991652D01*
X1004978Y754190D02*
X1020890D01*
X998220Y760948D02*
X1004978Y754190D01*
X429260Y722667D02*
X462461Y755868D01*
X460356Y760948D02*
X998220D01*
X458252Y766028D02*
X1009432D01*
X456148Y771108D02*
X1029752D01*
X453172Y776188D02*
X1042452D01*
X451068Y781268D02*
X1060232D01*
X424180Y724772D02*
X460356Y760948D01*
X419100Y726876D02*
X458252Y766028D01*
X1009432D02*
X1013080Y762380D01*
X414020Y728980D02*
X456148Y771108D01*
X1029752D02*
X1036320Y764540D01*
X408940Y731956D02*
X453172Y776188D01*
X1042452D02*
X1049020Y769620D01*
X403860Y734060D02*
X451068Y781268D01*
X1060232D02*
X1061720Y779780D01*
X429260Y380639D02*
Y722667D01*
X350881Y302260D02*
X429260Y380639D01*
X320040Y302260D02*
X350881D01*
X346673Y312420D02*
X419100Y384847D01*
X274320Y312420D02*
X346673D01*
X344568Y317500D02*
X414020Y386952D01*
X251460Y317500D02*
X344568D01*
X342464Y322580D02*
X408940Y389056D01*
X220980Y322580D02*
X342464D01*
X340360Y327660D02*
X403860Y391160D01*
X205740Y327660D02*
X340360D01*
X314960Y335280D02*
X355600Y375920D01*
X191480Y335280D02*
X314960D01*
X314000Y296220D02*
X320040Y302260D01*
X1032740Y646200D02*
X1084900D01*
X1028700Y650240D02*
X1032740Y646200D01*
X1020890Y754190D02*
X1023620Y756920D01*
Y759460D01*
X1013080Y762000D02*
Y762380D01*
X1038860Y594360D02*
X1065300Y620800D01*
X1084900D01*
X424180Y382743D02*
Y724772D01*
X1022580Y468400D02*
X1084900D01*
X1021080Y469900D02*
X1022580Y468400D01*
X419100Y384847D02*
Y726876D01*
X263200Y301300D02*
X274320Y312420D01*
X1036320Y762000D02*
Y764540D01*
X414020Y386952D02*
Y728980D01*
X237800Y303840D02*
X251460Y317500D01*
X1062760Y595400D02*
X1084900D01*
X1049020Y581660D02*
X1062760Y595400D01*
X408940Y389056D02*
Y731956D01*
X212400Y314000D02*
X220980Y322580D01*
X1061720Y556260D02*
Y563880D01*
X1067840Y570000D02*
X1084900D01*
X1061720Y563880D02*
X1067840Y570000D01*
X403860Y391160D02*
Y734060D01*
X187000Y308920D02*
X205740Y327660D01*
X619760Y210820D02*
X665480D01*
X699380Y176920D01*
X1102360D01*
X1149301D02*
X1149893Y177513D01*
X1102360Y193920D02*
Y223520D01*
X1004080Y255760D02*
Y259080D01*
X1277893Y336413D02*
X1293213D01*
X1171993D02*
X1187313D01*
X1363980Y533400D02*
X1364000Y533380D01*
Y493800D02*
Y533380D01*
X1363980Y624840D02*
X1364000Y624860D01*
Y646200D01*
X246200Y91260D02*
X263200Y108260D01*
X246200Y76800D02*
Y91260D01*
Y76800D02*
X246200Y76800D01*
Y51400D02*
Y76800D01*
X177620Y51400D02*
X246200D01*
X160621D02*
Y61561D01*
X187000Y87940D01*
Y99060D02*
Y127600D01*
X355600Y375920D02*
Y389920D01*
X472660Y515400D02*
X477520Y510540D01*
Y350520D02*
Y510540D01*
Y350520D02*
X523240Y304800D01*
X635000Y246380D02*
Y304800D01*
X619760Y330200D02*
X635000Y314960D01*
X527884Y330200D02*
X619760D01*
X492760Y365324D02*
X527884Y330200D01*
X523240Y304800D02*
X609600D01*
X460000Y540800D02*
X475200D01*
X492760Y523240D01*
Y365324D02*
Y523240D01*
X635000Y304800D02*
Y314960D01*
X460000Y515400D02*
X472660D01*
X83100Y590000D02*
X107600D01*
X153100Y450000D02*
Y465520D01*
X158350Y470770D01*
Y480000D01*
X194600Y488500D02*
Y510000D01*
X182060Y488500D02*
X194600D01*
X171560Y499000D02*
X182060Y488500D01*
X158350Y499000D02*
X171560D01*
X1324000Y493800D02*
X1347000D01*
X1324000Y646200D02*
X1347000D01*
X1101900Y468400D02*
X1140000D01*
X1101900Y493800D02*
X1140000D01*
X1101900Y570000D02*
X1140000D01*
X1101900Y595400D02*
X1140000D01*
X1101900Y620800D02*
X1140000D01*
X1101900Y646200D02*
X1140000D01*
X1089200Y519200D02*
X1099082Y529082D01*
X1112520D01*
X1089200Y544600D02*
X1096391Y537409D01*
X1112520D01*
X1126689D01*
X1133880Y544600D01*
X1140000D01*
X1112520Y529082D02*
X1124458D01*
X1134340Y519200D01*
X1140000D01*
X1134893Y177513D02*
X1149893D01*
X1177393Y215513D02*
X1207393D01*
X1177393Y189513D02*
X1207393D01*
X1181393Y208513D02*
X1219393D01*
X1181393Y196513D02*
X1219393D01*
D11*
X111580Y76800D02*
D03*
X128580D02*
D03*
X263200D02*
D03*
X246200D02*
D03*
X263200Y51400D02*
D03*
X246200D02*
D03*
X177620D02*
D03*
X160621D02*
D03*
X1324001Y620800D02*
D03*
X1307000D02*
D03*
X1324001Y468400D02*
D03*
X1307000D02*
D03*
X1021080Y259080D02*
D03*
X1004080D02*
D03*
X911860D02*
D03*
X928860D02*
D03*
X1133893Y336413D02*
D03*
X1116893D02*
D03*
X1239793D02*
D03*
X1222793D02*
D03*
X176100Y450000D02*
D03*
X193100D02*
D03*
X153100D02*
D03*
X136100D02*
D03*
X1324000Y493800D02*
D03*
X1307000D02*
D03*
X107600Y320000D02*
D03*
X124600D02*
D03*
X1324000Y646200D02*
D03*
X1307000D02*
D03*
X107600Y590000D02*
D03*
X124600D02*
D03*
X133100Y540000D02*
D03*
X116100D02*
D03*
D12*
X1080812Y120650D02*
D03*
X1050812D02*
D03*
D13*
X187000Y97000D02*
D03*
Y89000D02*
D03*
D14*
X355600Y389920D02*
D03*
Y406920D02*
D03*
X1000760Y362340D02*
D03*
Y379340D02*
D03*
X1023620Y362340D02*
D03*
Y379340D02*
D03*
X1046480D02*
D03*
Y362340D02*
D03*
X909320Y362340D02*
D03*
Y379340D02*
D03*
X932180Y362340D02*
D03*
Y379340D02*
D03*
X955040D02*
D03*
Y362340D02*
D03*
X364800Y89500D02*
D03*
Y72500D02*
D03*
X339400Y89500D02*
D03*
Y72500D02*
D03*
X1102360Y176920D02*
D03*
Y193920D02*
D03*
X194600Y527000D02*
D03*
Y510000D02*
D03*
Y488500D02*
D03*
Y471500D02*
D03*
D15*
X1112520Y529082D02*
D03*
Y537409D02*
D03*
D16*
X1046480Y275060D02*
D03*
Y304060D02*
D03*
X955040Y275060D02*
D03*
Y304060D02*
D03*
D17*
X1001420Y283140D02*
D03*
X1020420D02*
D03*
X1010920Y306140D02*
D03*
X909980Y283140D02*
D03*
X928980D02*
D03*
X919480Y306140D02*
D03*
D18*
X1171993Y336413D02*
D03*
X1154993D02*
D03*
X1277893D02*
D03*
X1260893D02*
D03*
X1364000Y493800D02*
D03*
X1347000D02*
D03*
X66100Y320000D02*
D03*
X83100D02*
D03*
X1364000Y646200D02*
D03*
X1347000D02*
D03*
X66100Y590000D02*
D03*
X83100D02*
D03*
D19*
X1084900Y646200D02*
D03*
X1101900D02*
D03*
X1084900Y620800D02*
D03*
X1101900D02*
D03*
X1084900Y595400D02*
D03*
X1101900D02*
D03*
X1084900Y570000D02*
D03*
X1101900D02*
D03*
X1084900Y493800D02*
D03*
X1101900D02*
D03*
X1084900Y468400D02*
D03*
X1101900D02*
D03*
D20*
X127000Y635000D02*
D03*
X105000D02*
D03*
D21*
X234600Y390000D02*
D03*
X186594D02*
D03*
X206594Y610000D02*
D03*
X254600D02*
D03*
D22*
X350000Y609100D02*
D03*
Y631100D02*
D03*
X94600Y479000D02*
D03*
Y501000D02*
D03*
D23*
X134600Y480000D02*
D03*
X158350D02*
D03*
Y489500D02*
D03*
Y499000D02*
D03*
X134850D02*
D03*
X134600Y489500D02*
D03*
D24*
X135350Y390000D02*
D03*
X93850D02*
D03*
D25*
X111580Y76800D02*
Y126820D01*
X110800Y127600D02*
X111580Y126820D01*
X134600Y489500D02*
Y507980D01*
X103540Y51400D02*
X160621D01*
X58420Y96520D02*
X103540Y51400D01*
X33020Y96520D02*
X58420D01*
X110800Y180340D02*
Y183840D01*
Y153000D02*
Y180340D01*
X1033780Y121920D02*
Y144780D01*
Y104140D02*
Y121920D01*
X1035050Y120650D01*
X1050812D01*
X110800Y127600D02*
Y153000D01*
X1001420Y279368D02*
Y283140D01*
X1046480Y275060D02*
X1086380D01*
X1104900Y256540D01*
Y241300D02*
Y256540D01*
X960120Y30480D02*
X1033780Y104140D01*
X170180Y30480D02*
X960120D01*
X160621Y40039D02*
X170180Y30480D01*
X160621Y40039D02*
Y51400D01*
X186594Y406400D02*
X206914Y426720D01*
X186594Y390000D02*
Y406400D01*
Y428086D01*
X355600Y406920D02*
Y457720D01*
X10160Y119380D02*
X33020Y96520D01*
X10160Y119380D02*
Y505460D01*
X68580Y563880D01*
X17780Y294640D02*
X27940Y304800D01*
X17780Y208280D02*
Y294640D01*
Y208280D02*
X25400Y200660D01*
X133100Y563880D02*
Y581500D01*
Y540000D02*
Y563880D01*
X68580D02*
X133100D01*
X124600Y590000D02*
X133100Y581500D01*
X1133893Y336413D02*
X1154993D01*
X1239793D02*
X1260893D01*
X1381760Y464820D02*
Y571500D01*
X1332460Y620800D02*
X1381760Y571500D01*
X1324001Y620800D02*
X1332460D01*
X1325880Y408940D02*
X1381760Y464820D01*
X1127760Y408940D02*
X1325880D01*
X1324001Y468400D02*
Y471780D01*
X1307000Y488780D02*
X1324001Y471780D01*
X1307000Y488780D02*
Y493800D01*
X1324001Y435000D02*
Y468400D01*
X1308100Y419100D02*
X1324001Y435000D01*
X993140Y419100D02*
X1308100D01*
X982980Y408940D02*
X993140Y419100D01*
X982980Y368300D02*
Y408940D01*
X962660Y347980D02*
X982980Y368300D01*
X955040Y347980D02*
X962660D01*
X1324001Y620800D02*
Y621427D01*
X1307000Y638428D02*
X1324001Y621427D01*
X1307000Y638428D02*
Y646200D01*
X1267000D02*
X1307000D01*
X1069340Y350520D02*
X1127760Y408940D01*
X1023620Y379340D02*
X1046480D01*
Y350520D02*
X1069340D01*
X932180Y379340D02*
X955040D01*
X909320D02*
X932180D01*
X909320Y379340D02*
X909320Y379340D01*
X955040Y347980D02*
Y362340D01*
X947420Y340360D02*
X955040Y347980D01*
X947420Y335280D02*
Y340360D01*
X1000760Y362340D02*
X1000760Y362340D01*
X1038860Y342900D02*
X1046480Y350520D01*
X1038860Y335280D02*
Y342900D01*
X1046480Y350520D02*
Y362340D01*
X1000760Y379340D02*
X1023620D01*
X1000760Y379340D02*
X1000760Y379340D01*
X941600Y304060D02*
X955040D01*
X928980Y291440D02*
X941600Y304060D01*
X928980Y283140D02*
Y291440D01*
X1033040Y304060D02*
X1046480D01*
X1020420Y291440D02*
X1033040Y304060D01*
X1020420Y283140D02*
Y291440D01*
X922020Y317500D02*
Y335280D01*
X919480Y314960D02*
X922020Y317500D01*
X919480Y306140D02*
Y314960D01*
X1013460Y320040D02*
Y335280D01*
X1010920Y317500D02*
X1013460Y320040D01*
X1010920Y306140D02*
Y317500D01*
X1021080Y259080D02*
Y259708D01*
X1001420Y279368D02*
X1021080Y259708D01*
X911860Y259080D02*
Y266700D01*
X909980Y268580D02*
X911860Y266700D01*
X909980Y268580D02*
Y283140D01*
X955040Y259080D02*
X1004080D01*
X955040Y275060D02*
X955040Y275060D01*
Y259080D02*
Y275060D01*
X928860Y259080D02*
X955040D01*
X982980Y231140D01*
X25400Y200660D02*
X93980D01*
X27940Y304800D02*
X149860D01*
X93980Y200660D02*
X110800Y183840D01*
X149860Y304800D02*
X165060Y320000D01*
X83100D02*
X107600D01*
X124600D02*
X165060D01*
X186594Y341534D01*
Y390000D01*
X176100Y450000D02*
Y453000D01*
X194600Y471500D01*
X93850Y390000D02*
X94600Y390750D01*
Y479000D01*
X127000Y668020D02*
Y685800D01*
X105000Y646020D02*
X127000Y668020D01*
X105000Y635000D02*
Y646020D01*
X254600Y610000D02*
Y619160D01*
X238760Y635000D02*
X254600Y619160D01*
X127000Y635000D02*
X238760D01*
X176100Y438580D02*
X186594Y428086D01*
X176100Y438580D02*
Y450000D01*
X135350Y390000D02*
X186594D01*
X134600Y451500D02*
X136100Y450000D01*
X134600Y451500D02*
Y480000D01*
X94600Y479000D02*
X95600Y480000D01*
X134600D01*
Y507980D02*
X134620Y508000D01*
X133100Y509520D02*
X134620Y508000D01*
X133100Y509520D02*
Y540000D01*
X184600D01*
X254600Y610000D01*
X255500Y609100D01*
X350000D01*
Y631100D02*
Y720000D01*
X1267000Y468400D02*
X1307000D01*
X1267000Y493800D02*
X1307000D01*
X1267000Y620800D02*
X1307000D01*
D26*
X1010920Y533400D02*
Y670560D01*
X967520Y490000D02*
X1010920Y533400D01*
X940000Y490000D02*
X967520D01*
X998380Y546260D02*
Y675754D01*
X967520Y515400D02*
X998380Y546260D01*
X940000Y515400D02*
X967520D01*
X1025817Y738660D02*
X1161123D01*
X973300Y686143D02*
X1025817Y738660D01*
X973300Y579600D02*
Y686143D01*
X1031012Y726120D02*
X1155928D01*
X985840Y680948D02*
X1031012Y726120D01*
X985840Y559120D02*
Y680948D01*
X1036206Y713580D02*
X1150734D01*
X998380Y675754D02*
X1036206Y713580D01*
X1041400Y701040D02*
X1145540D01*
X1010920Y670560D02*
X1041400Y701040D01*
X1213960Y614794D02*
Y685823D01*
X1161123Y738660D02*
X1213960Y685823D01*
X1201420Y609600D02*
Y680629D01*
X1155928Y726120D02*
X1201420Y680629D01*
X1188880Y604406D02*
Y675434D01*
X1150734Y713580D02*
X1188880Y675434D01*
X1176340Y599212D02*
Y670240D01*
X1145540Y701040D02*
X1176340Y670240D01*
X959900Y566200D02*
X973300Y579600D01*
X967520Y540800D02*
X985840Y559120D01*
X1256351Y519200D02*
X1267000D01*
X1176340Y599212D02*
X1256351Y519200D01*
X1248686Y544600D02*
X1267000D01*
X1188880Y604406D02*
X1248686Y544600D01*
X1233354Y595400D02*
X1267000D01*
X1213960Y614794D02*
X1233354Y595400D01*
X1241020Y570000D02*
X1267000D01*
X1201420Y609600D02*
X1241020Y570000D01*
X940000Y540800D02*
X967520D01*
X940000Y566200D02*
X959900D01*
D27*
X1112520Y533246D02*
D03*
D28*
X101600Y685800D02*
D03*
X1013460Y335280D02*
D03*
X922020D02*
D03*
X787400Y304800D02*
D03*
D29*
X127000Y685800D02*
D03*
X1038860Y335280D02*
D03*
X947420D02*
D03*
X364800Y127600D02*
D03*
X339400D02*
D03*
X314000D02*
D03*
X288600D02*
D03*
X263200D02*
D03*
X237800D02*
D03*
X212400D02*
D03*
X187000D02*
D03*
X161600D02*
D03*
X136200D02*
D03*
X110800D02*
D03*
X85400D02*
D03*
X60000D02*
D03*
X34600D02*
D03*
Y280000D02*
D03*
X60000D02*
D03*
X85400D02*
D03*
X110800D02*
D03*
X136200D02*
D03*
X161600D02*
D03*
X187000D02*
D03*
X212400D02*
D03*
X237800D02*
D03*
X263200D02*
D03*
X288600D02*
D03*
X314000D02*
D03*
X339400D02*
D03*
X364800D02*
D03*
Y254600D02*
D03*
X339400D02*
D03*
X314000D02*
D03*
X288600D02*
D03*
X263200D02*
D03*
X237800D02*
D03*
X212400D02*
D03*
X187000D02*
D03*
X161600D02*
D03*
X136200D02*
D03*
X110800D02*
D03*
X85400D02*
D03*
X60000D02*
D03*
X34600D02*
D03*
Y153000D02*
D03*
X60000D02*
D03*
X85400D02*
D03*
X110800D02*
D03*
X136200D02*
D03*
X161600D02*
D03*
X187000D02*
D03*
X212400D02*
D03*
X237800D02*
D03*
X263200D02*
D03*
X288600D02*
D03*
X314000D02*
D03*
X339400D02*
D03*
X364800D02*
D03*
X460000Y566200D02*
D03*
Y540800D02*
D03*
Y515400D02*
D03*
X940000Y490000D02*
D03*
Y515400D02*
D03*
Y540800D02*
D03*
X609600Y304800D02*
D03*
X635000D02*
D03*
X685800D02*
D03*
X711200D02*
D03*
X736600D02*
D03*
X762000D02*
D03*
X660400D02*
D03*
D30*
X200000Y720000D02*
D03*
X350000D02*
D03*
D31*
X1089200Y519200D02*
D03*
Y544600D02*
D03*
D32*
X50000Y750000D02*
D03*
X1350000Y50000D02*
D03*
Y750000D02*
D03*
X50000Y50000D02*
D03*
D33*
X355600Y457720D02*
D03*
D34*
Y522720D02*
D03*
D35*
X1267000Y646200D02*
D03*
Y493800D02*
D03*
X1140000D02*
D03*
Y519200D02*
D03*
Y544600D02*
D03*
Y570000D02*
D03*
Y595400D02*
D03*
Y620800D02*
D03*
X1267000D02*
D03*
Y468400D02*
D03*
X1140000Y646200D02*
D03*
Y468400D02*
D03*
X1267000Y595400D02*
D03*
Y570000D02*
D03*
Y519200D02*
D03*
Y544600D02*
D03*
D36*
X460000Y490000D02*
D03*
X940000Y566200D02*
D03*
D37*
X1174788Y170000D02*
D03*
Y235024D02*
D03*
X1220000Y170000D02*
D03*
Y235024D02*
D03*
X1229904Y179906D02*
D03*
X1164880D02*
D03*
X1229904Y225118D02*
D03*
X1164880D02*
D03*
D38*
X1197393Y157513D02*
D03*
Y247513D02*
D03*
D39*
X1259893Y177513D02*
D03*
Y227513D02*
D03*
X1134893D02*
D03*
Y177513D02*
D03*
X1244893D02*
D03*
X1149893Y227513D02*
D03*
Y177513D02*
D03*
X1244893Y227513D02*
D03*
D40*
X1350000Y550000D02*
D03*
X1300000Y450000D02*
D03*
X1350000Y350000D02*
D03*
X1300000Y250000D02*
D03*
X1350000Y150000D02*
D03*
X1300000Y50000D02*
D03*
X1200000Y450000D02*
D03*
X1250000Y350000D02*
D03*
Y150000D02*
D03*
X1200000Y50000D02*
D03*
X1100000Y450000D02*
D03*
X1150000Y350000D02*
D03*
Y150000D02*
D03*
X1100000Y50000D02*
D03*
X1050000Y550000D02*
D03*
X1000000Y450000D02*
D03*
X1050000Y150000D02*
D03*
X1000000Y50000D02*
D03*
X900000Y650000D02*
D03*
Y450000D02*
D03*
X950000Y150000D02*
D03*
X900000Y50000D02*
D03*
X800000Y650000D02*
D03*
X850000Y550000D02*
D03*
X800000Y450000D02*
D03*
X850000Y350000D02*
D03*
Y150000D02*
D03*
X800000Y50000D02*
D03*
X750000Y350000D02*
D03*
Y150000D02*
D03*
X700000Y50000D02*
D03*
X600000Y650000D02*
D03*
Y450000D02*
D03*
X650000Y350000D02*
D03*
Y150000D02*
D03*
X600000Y50000D02*
D03*
X500000Y650000D02*
D03*
X550000Y550000D02*
D03*
Y350000D02*
D03*
Y150000D02*
D03*
X500000Y50000D02*
D03*
X450000Y350000D02*
D03*
X400000Y250000D02*
D03*
X450000Y150000D02*
D03*
X400000Y50000D02*
D03*
X300000Y650000D02*
D03*
X350000Y550000D02*
D03*
X300000Y450000D02*
D03*
X350000Y350000D02*
D03*
X300000Y50000D02*
D03*
X200000Y650000D02*
D03*
X250000Y550000D02*
D03*
Y350000D02*
D03*
X150000Y550000D02*
D03*
Y350000D02*
D03*
D41*
X1079500Y93980D02*
D03*
Y147320D02*
D03*
X510540Y238760D02*
D03*
X589280Y276860D02*
D03*
X873760Y238760D02*
D03*
X599440D02*
D03*
X259080Y200660D02*
D03*
X426720Y187960D02*
D03*
X571500Y233680D02*
D03*
X558800Y243840D02*
D03*
X744220Y271780D02*
D03*
X861060Y317500D02*
D03*
X1013460Y406400D02*
D03*
X452120Y200660D02*
D03*
X726440Y261620D02*
D03*
X1104900Y241300D02*
D03*
X1033780Y144780D02*
D03*
X1102360Y304800D02*
D03*
X1165860Y292100D02*
D03*
X546100Y226060D02*
D03*
X1036320Y241300D02*
D03*
X1008380Y223520D02*
D03*
X668020Y236220D02*
D03*
X998220Y474980D02*
D03*
Y749300D02*
D03*
X1028700Y650240D02*
D03*
X1013080Y762000D02*
D03*
X1023620Y759460D02*
D03*
X1021080Y469900D02*
D03*
X1038860Y594360D02*
D03*
X1036320Y762000D02*
D03*
X1049020Y581660D02*
D03*
Y769620D02*
D03*
X1061720Y556260D02*
D03*
Y779780D02*
D03*
X206914Y426720D02*
D03*
X619760Y210820D02*
D03*
X1293213Y336413D02*
D03*
X1187313D02*
D03*
X1363980Y533400D02*
D03*
Y624840D02*
D03*
X982980Y231140D02*
D03*
X226060Y408940D02*
D03*
X177800Y599440D02*
D03*
Y622300D02*
D03*
X226060Y371060D02*
D03*
X243840D02*
D03*
Y408940D02*
D03*
X177800Y472440D02*
D03*
X157480Y523240D02*
D03*
X175260D02*
D03*
X114300Y500380D02*
D03*
M02*
