G04 Layer_Color=8388736*
%FSLAX44Y44*%
%MOMM*%
G71*
G01*
G75*
%ADD53R,1.2000X0.2000*%
%ADD54R,1.3032X1.2032*%
G04:AMPARAMS|DCode=55|XSize=2.9032mm|YSize=1.3532mm|CornerRadius=0.2454mm|HoleSize=0mm|Usage=FLASHONLY|Rotation=270.000|XOffset=0mm|YOffset=0mm|HoleType=Round|Shape=RoundedRectangle|*
%AMROUNDEDRECTD55*
21,1,2.9032,0.8625,0,0,270.0*
21,1,2.4125,1.3532,0,0,270.0*
1,1,0.4907,-0.4313,-1.2063*
1,1,0.4907,-0.4313,1.2063*
1,1,0.4907,0.4313,1.2063*
1,1,0.4907,0.4313,-1.2063*
%
%ADD55ROUNDEDRECTD55*%
%ADD56R,1.2032X0.7032*%
%ADD57R,1.2032X1.3032*%
%ADD58R,1.4732X0.8382*%
G04:AMPARAMS|DCode=59|XSize=2.0032mm|YSize=1.5032mm|CornerRadius=0.2641mm|HoleSize=0mm|Usage=FLASHONLY|Rotation=180.000|XOffset=0mm|YOffset=0mm|HoleType=Round|Shape=RoundedRectangle|*
%AMROUNDEDRECTD59*
21,1,2.0032,0.9750,0,0,180.0*
21,1,1.4750,1.5032,0,0,180.0*
1,1,0.5282,-0.7375,0.4875*
1,1,0.5282,0.7375,0.4875*
1,1,0.5282,0.7375,-0.4875*
1,1,0.5282,-0.7375,-0.4875*
%
%ADD59ROUNDEDRECTD59*%
G04:AMPARAMS|DCode=60|XSize=0.8032mm|YSize=1.2032mm|CornerRadius=0.1766mm|HoleSize=0mm|Usage=FLASHONLY|Rotation=0.000|XOffset=0mm|YOffset=0mm|HoleType=Round|Shape=RoundedRectangle|*
%AMROUNDEDRECTD60*
21,1,0.8032,0.8500,0,0,0.0*
21,1,0.4500,1.2032,0,0,0.0*
1,1,0.3532,0.2250,-0.4250*
1,1,0.3532,-0.2250,-0.4250*
1,1,0.3532,-0.2250,0.4250*
1,1,0.3532,0.2250,0.4250*
%
%ADD60ROUNDEDRECTD60*%
G04:AMPARAMS|DCode=61|XSize=1.0032mm|YSize=1.0032mm|CornerRadius=0.2016mm|HoleSize=0mm|Usage=FLASHONLY|Rotation=0.000|XOffset=0mm|YOffset=0mm|HoleType=Round|Shape=RoundedRectangle|*
%AMROUNDEDRECTD61*
21,1,1.0032,0.6000,0,0,0.0*
21,1,0.6000,1.0032,0,0,0.0*
1,1,0.4032,0.3000,-0.3000*
1,1,0.4032,-0.3000,-0.3000*
1,1,0.4032,-0.3000,0.3000*
1,1,0.4032,0.3000,0.3000*
%
%ADD61ROUNDEDRECTD61*%
G04:AMPARAMS|DCode=62|XSize=1.2032mm|YSize=1.1032mm|CornerRadius=0.2141mm|HoleSize=0mm|Usage=FLASHONLY|Rotation=90.000|XOffset=0mm|YOffset=0mm|HoleType=Round|Shape=RoundedRectangle|*
%AMROUNDEDRECTD62*
21,1,1.2032,0.6750,0,0,90.0*
21,1,0.7750,1.1032,0,0,90.0*
1,1,0.4282,0.3375,0.3875*
1,1,0.4282,0.3375,-0.3875*
1,1,0.4282,-0.3375,-0.3875*
1,1,0.4282,-0.3375,0.3875*
%
%ADD62ROUNDEDRECTD62*%
G04:AMPARAMS|DCode=63|XSize=1.4032mm|YSize=1.7032mm|CornerRadius=0.4016mm|HoleSize=0mm|Usage=FLASHONLY|Rotation=270.000|XOffset=0mm|YOffset=0mm|HoleType=Round|Shape=RoundedRectangle|*
%AMROUNDEDRECTD63*
21,1,1.4032,0.9000,0,0,270.0*
21,1,0.6000,1.7032,0,0,270.0*
1,1,0.8032,-0.4500,-0.3000*
1,1,0.8032,-0.4500,0.3000*
1,1,0.8032,0.4500,0.3000*
1,1,0.8032,0.4500,-0.3000*
%
%ADD63ROUNDEDRECTD63*%
%ADD64R,3.2004X1.6002*%
G04:AMPARAMS|DCode=65|XSize=1.4032mm|YSize=1.7032mm|CornerRadius=0.4016mm|HoleSize=0mm|Usage=FLASHONLY|Rotation=180.000|XOffset=0mm|YOffset=0mm|HoleType=Round|Shape=RoundedRectangle|*
%AMROUNDEDRECTD65*
21,1,1.4032,0.9000,0,0,180.0*
21,1,0.6000,1.7032,0,0,180.0*
1,1,0.8032,-0.3000,0.4500*
1,1,0.8032,0.3000,0.4500*
1,1,0.8032,0.3000,-0.4500*
1,1,0.8032,-0.3000,-0.4500*
%
%ADD65ROUNDEDRECTD65*%
%ADD66R,1.3532X0.8032*%
%ADD67R,2.5532X5.3032*%
%ADD68C,0.2032*%
%ADD69R,1.7032X1.7032*%
%ADD70C,1.7032*%
%ADD71C,5.6642*%
%ADD72C,2.1082*%
%ADD73C,3.8032*%
G04:AMPARAMS|DCode=74|XSize=2.032mm|YSize=2.032mm|CornerRadius=0.3302mm|HoleSize=0mm|Usage=FLASHONLY|Rotation=90.000|XOffset=0mm|YOffset=0mm|HoleType=Round|Shape=RoundedRectangle|*
%AMROUNDEDRECTD74*
21,1,2.0320,1.3716,0,0,90.0*
21,1,1.3716,2.0320,0,0,90.0*
1,1,0.6604,0.6858,0.6858*
1,1,0.6604,0.6858,-0.6858*
1,1,0.6604,-0.6858,-0.6858*
1,1,0.6604,-0.6858,0.6858*
%
%ADD74ROUNDEDRECTD74*%
%ADD75C,2.0320*%
%ADD76C,1.7128*%
%ADD77R,1.7032X1.7032*%
%ADD78C,2.0828*%
%ADD79C,1.8032*%
%ADD80C,2.2032*%
D53*
X187000Y93001D02*
D03*
D54*
X111580Y76800D02*
D03*
X128580D02*
D03*
X263200D02*
D03*
X246200D02*
D03*
X263200Y51400D02*
D03*
X246200D02*
D03*
X177620D02*
D03*
X160621D02*
D03*
X1324001Y620800D02*
D03*
X1307000D02*
D03*
X1324001Y468400D02*
D03*
X1307000D02*
D03*
X1021080Y259080D02*
D03*
X1004080D02*
D03*
X911860D02*
D03*
X928860D02*
D03*
X1133893Y336413D02*
D03*
X1116893D02*
D03*
X1239793D02*
D03*
X1222793D02*
D03*
X176100Y450000D02*
D03*
X193100D02*
D03*
X153100D02*
D03*
X136100D02*
D03*
X1324000Y493800D02*
D03*
X1307000D02*
D03*
X107600Y320000D02*
D03*
X124600D02*
D03*
X1324000Y646200D02*
D03*
X1307000D02*
D03*
X107600Y590000D02*
D03*
X124600D02*
D03*
X133100Y540000D02*
D03*
X116100D02*
D03*
D55*
X1080812Y120650D02*
D03*
X1050812D02*
D03*
D56*
X187000Y97000D02*
D03*
Y89000D02*
D03*
D57*
X355600Y389920D02*
D03*
Y406920D02*
D03*
X1000760Y362340D02*
D03*
Y379340D02*
D03*
X1023620Y362340D02*
D03*
Y379340D02*
D03*
X1046480D02*
D03*
Y362340D02*
D03*
X909320Y362340D02*
D03*
Y379340D02*
D03*
X932180Y362340D02*
D03*
Y379340D02*
D03*
X955040D02*
D03*
Y362340D02*
D03*
X364800Y89500D02*
D03*
Y72500D02*
D03*
X339400Y89500D02*
D03*
Y72500D02*
D03*
X1102360Y176920D02*
D03*
Y193920D02*
D03*
X194600Y527000D02*
D03*
Y510000D02*
D03*
Y488500D02*
D03*
Y471500D02*
D03*
D58*
X1112520Y529082D02*
D03*
Y537409D02*
D03*
D59*
X1046480Y275060D02*
D03*
Y304060D02*
D03*
X955040Y275060D02*
D03*
Y304060D02*
D03*
D60*
X1001420Y283140D02*
D03*
X1020420D02*
D03*
X1010920Y306140D02*
D03*
X909980Y283140D02*
D03*
X928980D02*
D03*
X919480Y306140D02*
D03*
D61*
X1171993Y336413D02*
D03*
X1154993D02*
D03*
X1277893D02*
D03*
X1260893D02*
D03*
X1364000Y493800D02*
D03*
X1347000D02*
D03*
X66100Y320000D02*
D03*
X83100D02*
D03*
X1364000Y646200D02*
D03*
X1347000D02*
D03*
X66100Y590000D02*
D03*
X83100D02*
D03*
D62*
X1084900Y646200D02*
D03*
X1101900D02*
D03*
X1084900Y620800D02*
D03*
X1101900D02*
D03*
X1084900Y595400D02*
D03*
X1101900D02*
D03*
X1084900Y570000D02*
D03*
X1101900D02*
D03*
X1084900Y493800D02*
D03*
X1101900D02*
D03*
X1084900Y468400D02*
D03*
X1101900D02*
D03*
D63*
X127000Y635000D02*
D03*
X105000D02*
D03*
D64*
X234600Y390000D02*
D03*
X186594D02*
D03*
X206594Y610000D02*
D03*
X254600D02*
D03*
D65*
X350000Y609100D02*
D03*
Y631100D02*
D03*
X94600Y479000D02*
D03*
Y501000D02*
D03*
D66*
X134600Y480000D02*
D03*
X158350D02*
D03*
Y489500D02*
D03*
Y499000D02*
D03*
X134850D02*
D03*
X134600Y489500D02*
D03*
D67*
X135350Y390000D02*
D03*
X93850D02*
D03*
D68*
X855000Y705000D02*
D03*
X545000Y395000D02*
D03*
Y705000D02*
D03*
X855000Y395000D02*
D03*
D69*
X101600Y685800D02*
D03*
X1013460Y335280D02*
D03*
X922020D02*
D03*
X787400Y304800D02*
D03*
D70*
X127000Y685800D02*
D03*
X1038860Y335280D02*
D03*
X947420D02*
D03*
X364800Y127600D02*
D03*
X339400D02*
D03*
X314000D02*
D03*
X288600D02*
D03*
X263200D02*
D03*
X237800D02*
D03*
X212400D02*
D03*
X187000D02*
D03*
X161600D02*
D03*
X136200D02*
D03*
X110800D02*
D03*
X85400D02*
D03*
X60000D02*
D03*
X34600D02*
D03*
Y280000D02*
D03*
X60000D02*
D03*
X85400D02*
D03*
X110800D02*
D03*
X136200D02*
D03*
X161600D02*
D03*
X187000D02*
D03*
X212400D02*
D03*
X237800D02*
D03*
X263200D02*
D03*
X288600D02*
D03*
X314000D02*
D03*
X339400D02*
D03*
X364800D02*
D03*
Y254600D02*
D03*
X339400D02*
D03*
X314000D02*
D03*
X288600D02*
D03*
X263200D02*
D03*
X237800D02*
D03*
X212400D02*
D03*
X187000D02*
D03*
X161600D02*
D03*
X136200D02*
D03*
X110800D02*
D03*
X85400D02*
D03*
X60000D02*
D03*
X34600D02*
D03*
Y153000D02*
D03*
X60000D02*
D03*
X85400D02*
D03*
X110800D02*
D03*
X136200D02*
D03*
X161600D02*
D03*
X187000D02*
D03*
X212400D02*
D03*
X237800D02*
D03*
X263200D02*
D03*
X288600D02*
D03*
X314000D02*
D03*
X339400D02*
D03*
X364800D02*
D03*
X460000Y566200D02*
D03*
Y540800D02*
D03*
Y515400D02*
D03*
X940000Y490000D02*
D03*
Y515400D02*
D03*
Y540800D02*
D03*
X609600Y304800D02*
D03*
X635000D02*
D03*
X685800D02*
D03*
X711200D02*
D03*
X736600D02*
D03*
X762000D02*
D03*
X660400D02*
D03*
D71*
X200000Y720000D02*
D03*
X350000D02*
D03*
D72*
X1089200Y519200D02*
D03*
Y544600D02*
D03*
D73*
X50000Y750000D02*
D03*
X1350000Y50000D02*
D03*
Y750000D02*
D03*
X50000Y50000D02*
D03*
D74*
X355600Y457720D02*
D03*
D75*
Y522720D02*
D03*
D76*
X1267000Y646200D02*
D03*
Y493800D02*
D03*
X1140000D02*
D03*
Y519200D02*
D03*
Y544600D02*
D03*
Y570000D02*
D03*
Y595400D02*
D03*
Y620800D02*
D03*
X1267000D02*
D03*
Y468400D02*
D03*
X1140000Y646200D02*
D03*
Y468400D02*
D03*
X1267000Y595400D02*
D03*
Y570000D02*
D03*
Y519200D02*
D03*
Y544600D02*
D03*
D77*
X460000Y490000D02*
D03*
X940000Y566200D02*
D03*
D78*
X1174788Y170000D02*
D03*
Y235024D02*
D03*
X1220000Y170000D02*
D03*
Y235024D02*
D03*
X1229904Y179906D02*
D03*
X1164880D02*
D03*
X1229904Y225118D02*
D03*
X1164880D02*
D03*
D79*
X1197393Y157513D02*
D03*
Y247513D02*
D03*
D80*
X1259893Y177513D02*
D03*
Y227513D02*
D03*
X1134893D02*
D03*
Y177513D02*
D03*
X1244893D02*
D03*
X1149893Y227513D02*
D03*
Y177513D02*
D03*
X1244893Y227513D02*
D03*
M02*
